<?xml version="1.0" encoding="UTF-8"?>
<svg version="1.1" xmlns="http://www.w3.org/2000/svg" width="392" height="220">
<path d="M0 0 C129.36 0 258.72 0 392 0 C392 72.6 392 145.2 392 220 C262.64 220 133.28 220 0 220 C0 147.4 0 74.8 0 0 Z " fill="#080A0B" transform="translate(0,0)"/>
<path d="M0 0 C0.33 0 0.66 0 1 0 C1 28.38 1 56.76 1 86 C-1.31 86 -3.62 86 -6 86 C-6.33 65.87 -6.66 45.74 -7 25 C-8.98 28.63 -10.96 32.26 -13 36 C-14.49013501 38.41504639 -16.00705777 40.81398976 -17.5625 43.1875 C-18.33356191 44.37354935 -19.10439659 45.55974645 -19.875 46.74609375 C-20.57625 47.81988281 -21.2775 48.89367187 -22 50 C-25.49433223 54.66735188 -25.49433223 54.66735188 -27 60 C-25.59654773 60.92422466 -24.19121561 61.8457015 -22.77734375 62.75390625 C-14.36817829 68.64956291 -8.09680332 77.92465333 -5.47265625 87.83984375 C-3.28264158 102.48217324 -4.28446705 115.32156204 -12.6875 127.75 C-18.68685037 135.52364993 -26.21292115 141.9080119 -36 144 C-47.36669049 145.37865935 -57.4342399 144.90690666 -67 138 C-76.530897 130.4472137 -82.09260528 119.89219142 -84 108 C-85.1202699 93.97332324 -83.79379115 82.54185088 -75 71 C-74.21625 69.96875 -73.4325 68.9375 -72.625 67.875 C-69.95568197 64.95146121 -67.41975591 62.97585897 -64 61 C-63.34 61 -62.68 61 -62 61 C-68.60381029 49.69347632 -75.71962148 38.92056778 -83 28 C-83.33 47.47 -83.66 66.94 -84 87 C-86.64 87 -89.28 87 -92 87 C-92 58.62 -92 30.24 -92 1 C-88.7593937 4.2406063 -86.52053238 6.97340755 -84.0234375 10.734375 C-83.65632156 11.28516724 -83.28920563 11.83595947 -82.91096497 12.40344238 C-81.72745636 14.18246129 -80.55101615 15.96602126 -79.375 17.75 C-78.56177548 18.97635016 -77.74837959 20.20258671 -76.93481445 21.42871094 C-72.20622927 28.57131366 -67.53851724 35.74930151 -63.08154297 43.06542969 C-61.24503704 46.0718771 -59.32239151 48.95962149 -57.23828125 51.796875 C-55 55 -55 55 -55 57 C-54.01 56.67 -53.02 56.34 -52 56 C-49.66824086 55.90471177 -47.33370026 55.87013812 -45 55.875 C-43.14375 55.87113281 -43.14375 55.87113281 -41.25 55.8671875 C-38 56 -38 56 -35 57 C-34.59950439 55.91936279 -34.59950439 55.91936279 -34.19091797 54.81689453 C-32.99086401 51.97839051 -31.588607 49.53421883 -29.9453125 46.9296875 C-29.0315686 45.47477905 -29.0315686 45.47477905 -28.09936523 43.99047852 C-27.44782471 42.96237061 -26.79628418 41.9342627 -26.125 40.875 C-25.12158569 39.2815979 -25.12158569 39.2815979 -24.09790039 37.65600586 C-22.72769769 35.48129541 -21.35570719 33.30771037 -19.98193359 31.13525391 C-18.1667227 28.26374143 -16.35739548 25.38864472 -14.55078125 22.51171875 C-13.51323713 20.86184313 -12.47548921 19.21209564 -11.4375 17.5625 C-10.97424316 16.82563965 -10.51098633 16.0887793 -10.03369141 15.32958984 C-7.62855501 11.52051487 -5.19244114 7.7323496 -2.72265625 3.96484375 C-2.22644775 3.20679443 -1.73023926 2.44874512 -1.21899414 1.66772461 C-0.61559204 0.84220093 -0.61559204 0.84220093 0 0 Z " fill="#F2F3F2" transform="translate(124,28)"/>
<path d="M0 0 C3.34056515 2.75060001 4.87878744 6.45879426 6.6953125 10.28125 C7.04456284 11.00350266 7.39381317 11.72575531 7.75364685 12.46989441 C8.88350342 14.8103933 10.00437172 17.15507061 11.125 19.5 C11.89395798 21.09764895 12.66340826 22.69506105 13.43334961 24.29223633 C15.63130698 28.85717085 17.81783761 33.42749733 20 38 C20.55284668 39.15806152 21.10569336 40.31612305 21.67529297 41.50927734 C24.13265147 46.66549766 26.57622914 51.82790777 29 57 C29.66 56.01 30.32 55.02 31 54 C36.75 54.875 36.75 54.875 39 56 C38.79503906 56.59167969 38.59007812 57.18335938 38.37890625 57.79296875 C38.10949219 58.58316406 37.84007812 59.37335938 37.5625 60.1875 C37.29566406 60.96480469 37.02882813 61.74210937 36.75390625 62.54296875 C36.50511719 63.35378906 36.25632812 64.16460937 36 65 C35.7421875 65.79664062 35.484375 66.59328125 35.21875 67.4140625 C34.91217885 71.03817146 36.20649845 73.02773527 37.9375 76.1875 C41 81.84510251 41 81.84510251 41 84 C38.09399739 85.25664978 36.20395416 86 33 86 C32.01 84.02 31.02 82.04 30 80 C23.7227957 92.09259793 18.29431946 104.45152658 13 117 C11.21941016 121.21314344 9.42608951 125.42058375 7.625 129.625 C7.20814941 130.61508057 6.79129883 131.60516113 6.36181641 132.62524414 C5.96655762 133.5455542 5.57129883 134.46586426 5.1640625 135.4140625 C4.81811035 136.2282666 4.4721582 137.0424707 4.11572266 137.88134766 C2.98672067 140.02521619 1.80114911 141.39862056 0 143 C-5.98560659 128.69721913 -11.95460452 114.4040863 -17.39453125 99.8828125 C-19.51951593 94.21618669 -21.77341271 88.63284381 -24.1875 83.08203125 C-25 81 -25 81 -25 79 C-25.66 79 -26.32 79 -27 79 C-27.2165625 80.175625 -27.2165625 80.175625 -27.4375 81.375 C-28 84 -28 84 -29 86 C-31.31 85.34 -33.62 84.68 -36 84 C-35.59594439 80.06045779 -34.61907224 77.15465885 -32.8125 73.6875 C-30.42586142 68.60516173 -31.29189353 65.1638132 -33 60 C-33.34252059 58.66899717 -33.67869172 57.33628211 -34 56 C-31.45299007 54.39632708 -30.38598454 53.93557422 -27.35546875 54.44140625 C-26.57816406 54.62574219 -25.80085937 54.81007812 -25 55 C-18.15039456 40.27678247 -11.54102117 25.4689432 -5.15356445 10.54052734 C-4.88358139 9.911772 -4.61359833 9.28301666 -4.33543396 8.63520813 C-3.59908903 6.91984263 -2.86561412 5.20324596 -2.13232422 3.48657227 C-1 1 -1 1 0 0 Z " fill="#F2F2F2" transform="translate(170,28)"/>
<path d="M0 0 C17.16 0 34.32 0 52 0 C52 2.64 52 5.28 52 8 C37.48 8 22.96 8 8 8 C8 17.9 8 27.8 8 38 C22.19 38 36.38 38 51 38 C51 40.31 51 42.62 51 45 C36.81 45 22.62 45 8 45 C8 48.96 8 52.92 8 57 C9.2065625 56.95359375 10.413125 56.9071875 11.65625 56.859375 C13.27080836 56.82182713 14.88539378 56.78543023 16.5 56.75 C17.29148437 56.71648437 18.08296875 56.68296875 18.8984375 56.6484375 C26.41729302 56.52517757 31.17003535 59.0407937 37.25 63.25 C41.45362967 67.45362967 43.82323761 71.52532656 44.25 77.5 C44.1675 78.325 44.085 79.15 44 80 C46.64 80 49.28 80 52 80 C52 82.64 52 85.28 52 88 C49.03 88 46.06 88 43 88 C42.95875 88.66 42.9175 89.32 42.875 90 C41.29081731 95.4314835 37.79370423 99.69548783 33.25 103 C31 104 31 104 29 104 C29 104.66 29 105.32 29 106 C29.89075226 106.40277664 29.89075226 106.40277664 30.79949951 106.81369019 C33.01320315 108.00711794 34.44506436 109.20307338 36.20800781 110.98095703 C36.80832825 111.58142853 37.40864868 112.18190002 38.02716064 112.80056763 C38.66272888 113.44645844 39.29829712 114.09234924 39.953125 114.7578125 C40.61334656 115.42086395 41.27356812 116.08391541 41.95379639 116.76705933 C44.05727824 118.88171832 46.15369142 121.00323212 48.25 123.125 C49.67662261 124.56165557 51.10370072 125.99785898 52.53125 127.43359375 C56.02613661 130.95050804 59.51470062 134.47358547 63 138 C61.64062915 140.8605891 60.35479531 142.85927699 58 145 C54.11719309 143.41093477 51.6816731 140.91065297 48.75390625 137.94921875 C48.26091537 137.45339798 47.7679245 136.95757721 47.25999451 136.44673157 C45.68938604 134.86497269 44.12586714 133.27641315 42.5625 131.6875 C41.51543948 130.63039807 40.46791787 129.57375264 39.41992188 128.51757812 C37.48221204 126.56359322 35.54781937 124.60653087 33.61547852 122.6472168 C31.85309187 120.86344396 30.07985953 119.09032983 28.29663086 117.32739258 C26 115 26 115 23.875 112.3125 C22.03438927 109.80846331 22.03438927 109.80846331 19 108 C19 107.34 19 106.68 19 106 C14.05 106 9.1 106 4 106 C4 118.87 4 131.74 4 145 C1.36 145 -1.28 145 -4 145 C-4 115.96 -4 86.92 -4 57 C-2.68 57 -1.36 57 0 57 C0 38.19 0 19.38 0 0 Z " fill="#F7F7F7" transform="translate(297,27)"/>
<path d="M0 0 C2.49361571 1.20381448 4.68143083 2.45428722 7 4 C5.58696787 8.32449942 3.49967612 10.91287813 0.375 14.1875 C-5.50351317 20.48286866 -10.85708085 27.09559173 -16 34 C-14.70977448 36.7860677 -13.30620729 39.00548039 -11.28515625 41.3125 C-10.76373047 41.91320312 -10.24230469 42.51390625 -9.70507812 43.1328125 C-9.16302734 43.74898437 -8.62097656 44.36515625 -8.0625 45 C-6.98976315 46.22818734 -5.91811687 47.45732824 -4.84765625 48.6875 C-4.34290771 49.26081055 -3.83815918 49.83412109 -3.31811523 50.42480469 C-2 52 -2 52 -0.4765625 54.390625 C1.69726965 56.75998703 3.544506 56.6020944 6.6875 56.75 C8.17830078 56.83507812 8.17830078 56.83507812 9.69921875 56.921875 C10.83810547 56.96054688 10.83810547 56.96054688 12 57 C12 59.64 12 62.28 12 65 C11.01 65 10.02 65 9 65 C14.21908602 71.43805623 19.48573257 77.81196356 25 84 C23.38405168 86.04119788 21.7143618 88.04072937 20 90 C19.34 90 18.68 90 18 90 C16.58561594 88.42713316 15.24395599 86.78860004 13.9375 85.125 C10.04227862 80.24492524 5.9833639 75.58958756 1.75 70.99609375 C0 69 0 69 -1 67 C-15.85 66.505 -15.85 66.505 -31 66 C-31 75.57 -31 85.14 -31 95 C-16.48 95 -1.96 95 13 95 C13 97.64 13 100.28 13 103 C-1.52 103 -16.04 103 -31 103 C-31 114.22 -31 125.44 -31 137 C-16.81 137 -2.62 137 12 137 C12 139.64 12 142.28 12 145 C-4.83 145 -21.66 145 -39 145 C-39 126.19 -39 107.38 -39 88 C-40.65 88 -42.3 88 -44 88 C-44 59.62 -44 31.24 -44 2 C-41.03 2 -38.06 2 -35 2 C-34.67 14.87 -34.34 27.74 -34 41 C-30.37 36.71 -26.74 32.42 -23 28 C-21.125 25.79166667 -19.25 23.58333333 -17.375 21.375 C-8.44952548 10.87766892 -8.44952548 10.87766892 0 0 Z " fill="#F5F5F5" transform="translate(264,27)"/>
<path d="M0 0 C4.52853884 1.49566421 6.37614086 5.14924479 8.75 9 C9.16121094 9.64195313 9.57242188 10.28390625 9.99609375 10.9453125 C13 15.71563538 13 15.71563538 13 18 C15.16461294 15.96608067 16.75455268 13.98141068 18.26171875 11.42578125 C18.85629883 10.42514648 18.85629883 10.42514648 19.46289062 9.40429688 C19.86701172 8.71400391 20.27113281 8.02371094 20.6875 7.3125 C21.10322266 6.61060547 21.51894531 5.90871094 21.94726562 5.18554688 C22.9688612 3.45940262 23.98497284 1.73001485 25 0 C30.912008 0.82993526 34.029139 3.70276687 38 8 C45.37225668 18.12672621 47.39728506 28.64443254 46 41 C43.52949958 51.98533195 37.52809799 59.48726695 28.9375 66.5 C21.88547736 70.10103284 14.31741998 71.19110208 6.55859375 69.453125 C-1.94499569 66.63190284 -8.52193665 60.67762876 -12.703125 52.78515625 C-13.92759666 49.88231396 -15.02046506 46.99327652 -16 44 C-16.495 42.515 -16.495 42.515 -17 41 C-17.87533553 28.48700686 -16.8162855 17.90990656 -8.66015625 7.79296875 C-5.99810322 4.91795147 -3.08473688 2.40938028 0 0 Z " fill="#090B0D" transform="translate(65,95)"/>
<path d="M0 0 C9.57 0 19.14 0 29 0 C30.505625 3.031875 32.01125 6.06375 33.5625 9.1875 C34.04146729 10.13391357 34.52043457 11.08032715 35.01391602 12.05541992 C35.38186279 12.81443604 35.74980957 13.57345215 36.12890625 14.35546875 C36.51119385 15.12528076 36.89348145 15.89509277 37.28735352 16.68823242 C38.89581141 21.9059398 36.00458218 26.60879301 33.8671875 31.328125 C33.55226349 32.03539734 33.23733948 32.74266968 32.91287231 33.47137451 C31.90503982 35.73309302 30.89050238 37.99171613 29.875 40.25 C28.5566751 43.19127748 27.24166568 46.13401111 25.9296875 49.078125 C25.60595154 49.80414917 25.28221558 50.53017334 24.94866943 51.27819824 C21.47166124 59.11926172 18.22184204 67.0513683 15 75 C14.34 75 13.68 75 13 75 C12.38125 73.29070312 12.38125 73.29070312 11.75 71.546875 C8.60714361 62.9148526 5.37365007 54.33236026 1.9375 45.8125 C1.27208077 44.14976145 0.60671561 42.48700126 -0.05859375 40.82421875 C-1.32163539 37.67198525 -2.60891319 34.53115502 -3.91015625 31.39453125 C-4.48262297 29.97169672 -5.05428241 28.54853703 -5.625 27.125 C-5.89707275 26.48925049 -6.16914551 25.85350098 -6.44946289 25.19848633 C-7.65941916 22.12419702 -8.05914713 20.26897864 -7.34375 17.015625 C-6.9003125 16.02046875 -6.456875 15.0253125 -6 14 C-5.50242188 12.79601562 -5.00484375 11.59203125 -4.4921875 10.3515625 C-3.95606934 9.10810141 -3.41646553 7.86614191 -2.875 6.625 C-1.92625 4.43875 -0.9775 2.2525 0 0 Z " fill="#0B0D0E" transform="translate(157,76)"/>
<path d="M0 0 C2.64 0 5.28 0 8 0 C12.455 9.405 12.455 9.405 17 19 C17.66 18.01 18.32 17.02 19 16 C24.75 16.875 24.75 16.875 27 18 C26.79503906 18.59167969 26.59007812 19.18335937 26.37890625 19.79296875 C26.10949219 20.58316406 25.84007812 21.37335938 25.5625 22.1875 C25.29566406 22.96480469 25.02882812 23.74210937 24.75390625 24.54296875 C24.50511719 25.35378906 24.25632813 26.16460937 24 27 C23.7421875 27.79664062 23.484375 28.59328125 23.21875 29.4140625 C22.91217885 33.03817146 24.20649845 35.02773527 25.9375 38.1875 C29 43.84510251 29 43.84510251 29 46 C26.09399739 47.25664978 24.20395416 48 21 48 C20.01 46.02 19.02 44.04 18 42 C11.7227957 54.09259793 6.29431946 66.45152658 1 79 C-0.78058984 83.21314344 -2.57391049 87.42058375 -4.375 91.625 C-4.79185059 92.61508057 -5.20870117 93.60516113 -5.63818359 94.62524414 C-6.03344238 95.5455542 -6.42870117 96.46586426 -6.8359375 97.4140625 C-7.18188965 98.2282666 -7.5278418 99.0424707 -7.88427734 99.88134766 C-9.01327933 102.02521619 -10.19885089 103.39862056 -12 105 C-17.39278291 93.82360085 -21.48433857 84.63749365 -20 72 C-15.32565129 73.47651277 -15.32565129 73.47651277 -13.85546875 75.83984375 C-13.52482422 76.87818359 -13.52482422 76.87818359 -13.1875 77.9375 C-12.95417969 78.62714844 -12.72085938 79.31679687 -12.48046875 80.02734375 C-12 82 -12 82 -12 85 C-11.34 85 -10.68 85 -10 85 C-9.88986572 84.30737061 -9.77973145 83.61474121 -9.66625977 82.90112305 C-8.90315987 79.57832492 -7.70705915 76.70590309 -6.33984375 73.58203125 C-6.07394943 72.97130768 -5.80805511 72.36058411 -5.53410339 71.73135376 C-4.96614493 70.42888711 -4.39589773 69.12741646 -3.82354736 67.82687378 C-2.93216802 65.80037808 -2.04809651 63.7708249 -1.16552734 61.74047852 C1.39331106 55.86606078 3.97656821 50.00691536 6.67578125 44.1953125 C7.24317017 42.96397583 7.24317017 42.96397583 7.82202148 41.70776367 C8.50339743 40.23868995 9.19621498 38.77484625 9.90258789 37.31762695 C11.15539117 34.6143521 12.01579754 32.48521006 11.91796875 29.48046875 C10.6816365 26.13974118 9.10632026 23.01436485 7.4375 19.875 C4 13.40362035 4 13.40362035 4 10 C-5.57 10 -15.14 10 -25 10 C-25 10.66 -25 11.32 -25 12 C-25.66 12 -26.32 12 -27 12 C-27.93065133 9.39417629 -28.14917407 8.35801776 -27.0625 5.75 C-26.5365625 4.88375 -26.5365625 4.88375 -26 4 C-25.01 4 -24.02 4 -23 4 C-23 3.67 -23 3.34 -23 3 C-15.41 3 -7.82 3 0 3 C0 2.01 0 1.02 0 0 Z " fill="#F2F2F2" transform="translate(182,66)"/>
<path d="M0 0 C9.9 0 19.8 0 30 0 C30 0.33 30 0.66 30 1 C20.43 1 10.86 1 1 1 C1 10.57 1 20.14 1 30 C15.52 30 30.04 30 45 30 C45 32.64 45 35.28 45 38 C30.48 38 15.96 38 1 38 C1 49.22 1 60.44 1 72 C15.19 72 29.38 72 44 72 C44 74.64 44 77.28 44 80 C27.17 80 10.34 80 -7 80 C-7 61.19 -7 42.38 -7 23 C-5.35 22.67 -3.7 22.34 -2 22 C-1.67 22.33 -1.34 22.66 -1 23 C-0.67 15.41 -0.34 7.82 0 0 Z " fill="#E6E6E6" transform="translate(232,92)"/>
<path d="M0 0 C0.98613281 0.13921875 1.97226562 0.2784375 2.98828125 0.421875 C4.47908203 0.61523438 4.47908203 0.61523438 6 0.8125 C6.75925781 0.93109375 7.51851563 1.0496875 8.30078125 1.171875 C8.30078125 3.811875 8.30078125 6.451875 8.30078125 9.171875 C5.33078125 9.171875 2.36078125 9.171875 -0.69921875 9.171875 C-0.74046875 9.831875 -0.78171875 10.491875 -0.82421875 11.171875 C-2.40840144 16.6033585 -5.90551452 20.86736283 -10.44921875 24.171875 C-12.69921875 25.171875 -12.69921875 25.171875 -14.69921875 25.171875 C-14.69921875 25.831875 -14.69921875 26.491875 -14.69921875 27.171875 C-14.10538391 27.44039276 -13.51154907 27.70891052 -12.89971924 27.98556519 C-10.6860156 29.17899294 -9.25415439 30.37494838 -7.49121094 32.15283203 C-6.8908905 32.75330353 -6.29057007 33.35377502 -5.67205811 33.97244263 C-4.71870575 34.94127884 -4.71870575 34.94127884 -3.74609375 35.9296875 C-3.08587219 36.59273895 -2.42565063 37.25579041 -1.74542236 37.93893433 C0.35805949 40.05359332 2.45447267 42.17510712 4.55078125 44.296875 C5.97740386 45.73353057 7.40448197 47.16973398 8.83203125 48.60546875 C12.32691786 52.12238304 15.81548187 55.64546047 19.30078125 59.171875 C17.9414104 62.0324641 16.65557656 64.03115199 14.30078125 66.171875 C10.41797434 64.58280977 7.98245435 62.08252797 5.0546875 59.12109375 C4.56169662 58.62527298 4.06870575 58.12945221 3.56077576 57.61860657 C1.99016729 56.03684769 0.42664839 54.44828815 -1.13671875 52.859375 C-2.18377927 51.80227307 -3.23130088 50.74562764 -4.27929688 49.68945312 C-6.21700671 47.73546822 -8.15139938 45.77840587 -10.08374023 43.8190918 C-11.84677416 42.03466382 -13.61999257 40.26024822 -15.40258789 38.49536133 C-17.69670905 36.17441405 -19.67878119 33.73109591 -21.69921875 31.171875 C-22.27671875 30.615 -22.85421875 30.058125 -23.44921875 29.484375 C-24.69921875 28.171875 -24.69921875 28.171875 -24.69921875 26.171875 C-25.35921875 25.511875 -26.01921875 24.851875 -26.69921875 24.171875 C-26.03921875 23.181875 -25.37921875 22.191875 -24.69921875 21.171875 C-29.64921875 20.841875 -34.59921875 20.511875 -39.69921875 20.171875 C-39.69921875 16.211875 -39.69921875 12.251875 -39.69921875 8.171875 C-38.77061035 8.15205566 -37.84200195 8.13223633 -36.88525391 8.11181641 C-33.44471355 8.03378887 -30.00461984 7.94710038 -26.56445312 7.85449219 C-25.07462986 7.81617502 -23.58471321 7.78132692 -22.09472656 7.75 C-19.95473827 7.70440771 -17.81539439 7.64640626 -15.67578125 7.5859375 C-14.38752441 7.5545166 -13.09926758 7.5230957 -11.77197266 7.49072266 C-8.5944037 7.48729232 -8.5944037 7.48729232 -6.69921875 5.171875 C-6.36921875 4.841875 -6.03921875 4.511875 -5.69921875 4.171875 C-5.30089844 3.48609375 -4.90257812 2.8003125 -4.4921875 2.09375 C-2.69921875 0.171875 -2.69921875 0.171875 0 0 Z " fill="#F5F6F6" transform="translate(340.69921875,105.828125)"/>
<path d="M0 0 C2.49361571 1.20381448 4.68143083 2.45428722 7 4 C5.58696787 8.32449942 3.49967612 10.91287813 0.375 14.1875 C-5.50351317 20.48286866 -10.85708085 27.09559173 -16 34 C-14.55575365 37.23861303 -12.74227753 39.61969163 -10.375 42.25 C-9.42753906 43.30960938 -9.42753906 43.30960938 -8.4609375 44.390625 C-7.97882813 44.92171875 -7.49671875 45.4528125 -7 46 C-7.99 46.495 -7.99 46.495 -9 47 C-10.23648087 49.81465013 -10.23648087 49.81465013 -9.5 52 C-9 54 -9 54 -10 57 C-18.25 57 -26.5 57 -35 57 C-33.44455189 53.88910379 -31.80979645 50.96148509 -30 48 C-30.66 47.34 -31.32 46.68 -32 46 C-31.01 46 -30.02 46 -29 46 C-29.33 45.443125 -29.66 44.88625 -30 44.3125 C-31.20605951 41.52348738 -31.38768281 40.02216369 -31 37 C-29.09375 34.45703125 -29.09375 34.45703125 -26.5 31.8125 C-23.19757819 28.36047086 -20.01406402 24.88655665 -17.0625 21.125 C-13.38472588 16.43941047 -9.55688354 11.89825945 -5.67993164 7.37744141 C-3.63376625 4.98112417 -1.75071041 2.62606562 0 0 Z M-28 41 C-28.33 41.66 -28.66 42.32 -29 43 C-28.34 43 -27.68 43 -27 43 C-27.33 42.34 -27.66 41.68 -28 41 Z " fill="#EFEFEF" transform="translate(264,27)"/>
<path d="M0 0 C0.66 0 1.32 0 2 0 C2 29.04 2 58.08 2 88 C-0.64 88 -3.28 88 -6 88 C-6.33 88.66 -6.66 89.32 -7 90 C-7.13535156 89.39414063 -7.27070312 88.78828125 -7.41015625 88.1640625 C-10.49012296 76.1761681 -17.83545789 67.77636141 -28 61 C-26.2806539 56.00190086 -23.51874229 51.71630811 -20.75 47.25 C-20.25636963 46.44739746 -19.76273926 45.64479492 -19.25415039 44.81787109 C-16.31016802 40.05114681 -13.3142599 35.33154395 -10.12109375 30.7265625 C-8.92183102 28.87961432 -7.94901401 26.98549475 -7 25 C-6.67 25 -6.34 25 -6 25 C-6 45.46 -6 65.92 -6 87 C-3.69 87 -1.38 87 1 87 C0.67 58.29 0.34 29.58 0 0 Z " fill="#1F1F1F" transform="translate(124,27)"/>
<path d="M0 0 C0.33 0 0.66 0 1 0 C1 28.38 1 56.76 1 86 C-1.31 86 -3.62 86 -6 86 C-6.00586624 85.24022858 -6.01173248 84.48045715 -6.01777649 83.69766235 C-6.07562192 76.54601564 -6.14765062 69.39472058 -6.23571491 62.24338722 C-6.28048947 58.5665772 -6.31972939 54.8898798 -6.34643555 51.21289062 C-6.37239869 47.66597997 -6.41274991 44.11950106 -6.46318626 40.5728569 C-6.47990265 39.21809626 -6.49138716 37.86326087 -6.49761391 36.50841141 C-6.50720236 34.61437481 -6.53692843 32.72047223 -6.56762695 30.82666016 C-6.57873001 29.74744293 -6.58983307 28.66822571 -6.60127258 27.55630493 C-6.73285263 26.7127243 -6.86443268 25.86914368 -7 25 C-7.99 24.34 -8.98 23.68 -10 23 C-9.4740625 21.329375 -9.4740625 21.329375 -8.9375 19.625 C-7.62760669 16.19735524 -7.62760669 16.19735524 -9 14 C-7.61286881 11.53857997 -6.18623319 9.22149631 -4.625 6.875 C-4.19960937 6.21628906 -3.77421875 5.55757812 -3.3359375 4.87890625 C-2.25733312 3.23027994 -1.13232839 1.61219991 0 0 Z " fill="#FBFBFB" transform="translate(124,28)"/>
<path d="M0 0 C3.38798012 2.77627059 4.94651937 6.57692382 6.79296875 10.44140625 C7.14386063 11.16488754 7.4947525 11.88836884 7.85627747 12.6337738 C8.59460103 14.15959448 9.3298625 15.68690016 10.06225586 17.21557617 C11.18675762 19.56095162 12.32208034 21.90084987 13.45898438 24.24023438 C14.17512514 25.72364665 14.89064167 27.20736049 15.60546875 28.69140625 C15.94603806 29.39350723 16.28660736 30.09560822 16.63749695 30.81898499 C19 35.76874155 19 35.76874155 19 38 C18.030625 38.12375 17.06125 38.2475 16.0625 38.375 C15.051875 38.58125 14.04125 38.7875 13 39 C12.67 39.66 12.34 40.32 12 41 C5.07 41 -1.86 41 -9 41 C-5.73219373 31.1965812 -5.73219373 31.1965812 -3.25 26.3125 C-1.29247006 22.15201845 -0.40910078 19.52794395 -2 15 C-2.66 15.66 -3.32 16.32 -4 17 C-5.1796875 15.421875 -5.1796875 15.421875 -6 13 C-4.8828125 9.765625 -4.8828125 9.765625 -3.125 6.25 C-2.55007812 5.07953125 -1.97515625 3.9090625 -1.3828125 2.703125 C-0.92648438 1.81109375 -0.47015625 0.9190625 0 0 Z " fill="#F0F0F0" transform="translate(170,28)"/>
<path d="M0 0 C7.64623354 11.23040551 8.22286628 23.79417386 7 37 C5.51407158 44.35408643 1.91797841 51.30919641 -3 57 C-3.66 57 -4.32 57 -5 57 C-6.38232443 55.37373596 -7.71937515 53.7074998 -9 52 C-8.74605469 51.45472656 -8.49210937 50.90945312 -8.23046875 50.34765625 C-7.11901632 47.91245149 -6.05582196 45.45980027 -5 43 C-4.69191406 42.32710937 -4.38382812 41.65421875 -4.06640625 40.9609375 C-0.07928994 31.07899373 -1.19905943 19.0504338 -4 9 C-4.5 6.5 -4.5 6.5 -5 4 C-5.32483418 2.66457061 -5.6550855 1.33038449 -6 0 C-3 -1 -3 -1 0 0 Z " fill="#F5F5F5" transform="translate(112,102)"/>
<path d="M0 0 C18.09856263 -0.48049281 18.09856263 -0.48049281 23.484375 4.32421875 C26.89342974 7.97267341 27.13712513 9.82275075 28 15 C18.76 15 9.52 15 0 15 C0 10.05 0 5.1 0 0 Z " fill="#0A0A0A" transform="translate(305,92)"/>
<path d="M0 0 C2.49361571 1.20381448 4.68143083 2.45428722 7 4 C5.58696787 8.32449942 3.49967612 10.91287813 0.375 14.1875 C-3.04916892 17.83369716 -6.2278297 21.51516928 -9.25 25.5 C-12.20761462 29.28718946 -14.46579197 31.41302719 -19 33 C-19 34.32 -19 35.64 -19 37 C-21.5 38.75 -21.5 38.75 -24 40 C-24.66 39.01 -25.32 38.02 -26 37 C-25.34 36.34 -24.68 35.68 -24 35 C-24 33.68 -24 32.36 -24 31 C-21.2826694 24.94776366 -17.03456875 20.60555897 -12.5390625 15.78515625 C-9.11707014 12.03149386 -6.03639609 8.06732102 -3 4 C-2.44183594 3.25621094 -1.88367188 2.51242188 -1.30859375 1.74609375 C-0.66083984 0.88177734 -0.66083984 0.88177734 0 0 Z " fill="#F3F3F3" transform="translate(264,27)"/>
<path d="M0 0 C2.31 0 4.62 0 7 0 C6.505 0.94875 6.01 1.8975 5.5 2.875 C3.85575631 5.72278166 3.85575631 5.72278166 4 8 C5.39205763 8.91672088 6.78748662 9.82872072 8.19921875 10.71484375 C11.50052747 13.07087535 14.21544991 16.06716026 17 19 C16.505 20.485 16.505 20.485 16 22 C15.01 22 14.02 22 13 22 C13.495 22.928125 13.99 23.85625 14.5 24.8125 C16 28 16 28 16 31 C15.34 31 14.68 31 14 31 C12.7734375 29.2421875 12.7734375 29.2421875 11.375 26.875 C7.78346995 21.28033158 3.37448617 17.12482872 -3 15 C-3.99 17.475 -3.99 17.475 -5 20 C-6.65 18.68 -8.3 17.36 -10 16 C-10.45375 16.495 -10.9075 16.99 -11.375 17.5 C-13 19 -13 19 -15 19 C-19 14.64705882 -19 14.64705882 -19 11 C-18.00419922 11.03480469 -18.00419922 11.03480469 -16.98828125 11.0703125 C-12.09444301 11.17033255 -8.50875334 11.06114438 -4 9 C-1.1875 8.875 -1.1875 8.875 1 9 C0.67 8.34 0.34 7.68 0 7 C-0.04022391 4.6670134 -0.04320247 2.33293334 0 0 Z " fill="#F1F2F2" transform="translate(93,80)"/>
<path d="M0 0 C12.54 0 25.08 0 38 0 C38 2.31 38 4.62 38 7 C24.47 7 10.94 7 -3 7 C-3 6.34 -3 5.68 -3 5 C-2.34 5 -1.68 5 -1 5 C-0.67 3.35 -0.34 1.7 0 0 Z " fill="#FCFCFC" transform="translate(238,123)"/>
<path d="M0 0 C10.23 0 20.46 0 31 0 C28.15356051 4.74406581 25.91364803 7.54317599 21 10 C19.40552536 10.08400529 17.80759455 10.10727467 16.2109375 10.09765625 C15.26992188 10.09443359 14.32890625 10.09121094 13.359375 10.08789062 C12.37453125 10.07951172 11.3896875 10.07113281 10.375 10.0625 C8.88613281 10.05573242 8.88613281 10.05573242 7.3671875 10.04882812 C4.91143278 10.03702161 2.45570894 10.01908582 0 10 C0 6.7 0 3.4 0 0 Z " fill="#090909" transform="translate(301,115)"/>
<path d="M0 0 C0.66 0 1.32 0 2 0 C3.67313323 3.28841876 5.33739607 6.58124682 7 9.875 C7.47695312 10.81214844 7.95390625 11.74929687 8.4453125 12.71484375 C8.89648438 13.61074219 9.34765625 14.50664063 9.8125 15.4296875 C10.23144531 16.25710449 10.65039062 17.08452148 11.08203125 17.93701172 C12 20 12 20 12 22 C5.07 22 -1.86 22 -9 22 C-7.09788915 16.29366744 -5.34492182 11.28372385 -2.8125 5.9375 C-2.28269531 4.81214844 -1.75289062 3.68679687 -1.20703125 2.52734375 C-0.80871094 1.69332031 -0.41039062 0.85929687 0 0 Z " fill="#151515" transform="translate(170,47)"/>
<path d="M0 0 C2.64 0 5.28 0 8 0 C7.625 2.4375 7.625 2.4375 7 5 C6.34 5.33 5.68 5.66 5 6 C5.495 6.99 5.495 6.99 6 8 C6.495 8.99 6.495 8.99 7 10 C3.52720596 11.15759801 1.01961176 11.02260483 -2.63671875 10.87890625 C-3.93544922 10.83056641 -5.23417969 10.78222656 -6.57226562 10.73242188 C-7.94401533 10.67590048 -9.31576007 10.61925831 -10.6875 10.5625 C-12.07094416 10.50925949 -13.45440766 10.45651922 -14.83789062 10.40429688 C-18.22548325 10.27445883 -21.61279314 10.13948625 -25 10 C-25 10.66 -25 11.32 -25 12 C-25.66 12 -26.32 12 -27 12 C-27.93065133 9.39417629 -28.14917407 8.35801776 -27.0625 5.75 C-26.5365625 4.88375 -26.5365625 4.88375 -26 4 C-25.01 4 -24.02 4 -23 4 C-23 3.67 -23 3.34 -23 3 C-15.41 3 -7.82 3 0 3 C0 2.01 0 1.02 0 0 Z " fill="#FAFAFA" transform="translate(182,66)"/>
<path d="M0 0 C2.66666667 1.33333333 5.33333333 2.66666667 8 4 C8.57234375 4.22429687 9.1446875 4.44859375 9.734375 4.6796875 C13.09140664 6.63602663 15.55797087 9.34924748 18.25 12.125 C18.80429687 12.68832031 19.35859375 13.25164062 19.9296875 13.83203125 C21.29104485 15.21686028 22.64614859 16.60783204 24 18 C22.64062915 20.8605891 21.35479531 22.85927699 19 25 C16.13904359 23.7175023 13.88634082 22.54656011 12 20 C11.8125 17.3125 11.8125 17.3125 12 15 C11.4225 14.731875 10.845 14.46375 10.25 14.1875 C7.92636635 12.9611378 5.96175354 11.75156566 4 10 C4 9.01 4 8.02 4 7 C3.38125 6.731875 2.7625 6.46375 2.125 6.1875 C0 5 0 5 -2 2 C-1.34 1.34 -0.68 0.68 0 0 Z " fill="#EAEAEB" transform="translate(336,147)"/>
<path d="M0 0 C3.34643435 3.25852452 6.4063616 6.59406695 9.3125 10.25 C10.00988281 11.12140625 10.70726562 11.9928125 11.42578125 12.890625 C13 15 13 15 13 16 C4.75 16 -3.5 16 -12 16 C-10.03744888 12.07489776 -7.69441487 9.05116363 -4.875 5.75 C-4.40707031 5.19570312 -3.93914062 4.64140625 -3.45703125 4.0703125 C-2.30824672 2.71052674 -1.15460347 1.35484835 0 0 Z " fill="#0A0A0A" transform="translate(241,68)"/>
<path d="M0 0 C3.04332765 1.3584202 5.12309151 2.88463024 7.453125 5.2578125 C8.071875 5.88300781 8.690625 6.50820312 9.328125 7.15234375 C9.96234375 7.80332031 10.5965625 8.45429688 11.25 9.125 C11.8996875 9.78371094 12.549375 10.44242188 13.21875 11.12109375 C14.81711727 12.74296643 16.41061897 14.3693281 18 16 C17.67 16.66 17.34 17.32 17 18 C14.33333333 16.66666667 11.66666667 15.33333333 9 14 C9 14.99 9 15.98 9 17 C10.44569688 18.2485564 11.8987982 19.49080992 13.40625 20.6640625 C15.61020798 22.51149787 17.24015623 24.73734372 19 27 C19.66 27.33 20.32 27.66 21 28 C20.67 29.32 20.34 30.64 20 32 C5.64453125 17.64453125 5.64453125 17.64453125 3.18676758 15.18481445 C1.90542963 13.90462094 0.62226004 12.62624733 -0.6652832 11.35229492 C-3.01182948 9.02978497 -5.09680317 6.70454286 -7 4 C-4.69 4 -2.38 4 0 4 C0 2.68 0 1.36 0 0 Z " fill="#E8E8E8" transform="translate(327,134)"/>
<path d="M0 0 C0.98613281 0.13921875 1.97226562 0.2784375 2.98828125 0.421875 C4.47908203 0.61523438 4.47908203 0.61523438 6 0.8125 C6.75925781 0.93109375 7.51851563 1.0496875 8.30078125 1.171875 C8.30078125 3.811875 8.30078125 6.451875 8.30078125 9.171875 C5.33078125 9.171875 2.36078125 9.171875 -0.69921875 9.171875 C-1.02921875 10.821875 -1.35921875 12.471875 -1.69921875 14.171875 C-4.17421875 13.676875 -4.17421875 13.676875 -6.69921875 13.171875 C-6.69921875 13.831875 -6.69921875 14.491875 -6.69921875 15.171875 C-7.68921875 14.841875 -8.67921875 14.511875 -9.69921875 14.171875 C-9.03921875 13.841875 -8.37921875 13.511875 -7.69921875 13.171875 C-8.35921875 12.841875 -9.01921875 12.511875 -9.69921875 12.171875 C-9.69921875 11.511875 -9.69921875 10.851875 -9.69921875 10.171875 C-24.54921875 9.676875 -24.54921875 9.676875 -39.69921875 9.171875 C-39.69921875 8.841875 -39.69921875 8.511875 -39.69921875 8.171875 C-38.77061035 8.15205566 -37.84200195 8.13223633 -36.88525391 8.11181641 C-33.44471355 8.03378887 -30.00461984 7.94710038 -26.56445312 7.85449219 C-25.07462986 7.81617502 -23.58471321 7.78132692 -22.09472656 7.75 C-19.95473827 7.70440771 -17.81539439 7.64640626 -15.67578125 7.5859375 C-14.38752441 7.5545166 -13.09926758 7.5230957 -11.77197266 7.49072266 C-8.5944037 7.48729232 -8.5944037 7.48729232 -6.69921875 5.171875 C-6.36921875 4.841875 -6.03921875 4.511875 -5.69921875 4.171875 C-5.30089844 3.48609375 -4.90257812 2.8003125 -4.4921875 2.09375 C-2.69921875 0.171875 -2.69921875 0.171875 0 0 Z " fill="#ECEBEC" transform="translate(340.69921875,105.828125)"/>
<path d="M0 0 C1.20076172 0.31324219 1.20076172 0.31324219 2.42578125 0.6328125 C3.23402344 0.83648437 4.04226562 1.04015625 4.875 1.25 C5.48988281 1.41757813 6.10476562 1.58515625 6.73828125 1.7578125 C6.73828125 3.0778125 6.73828125 4.3978125 6.73828125 5.7578125 C7.39828125 5.7578125 8.05828125 5.7578125 8.73828125 5.7578125 C8.40828125 6.7478125 8.07828125 7.7378125 7.73828125 8.7578125 C5.42828125 7.7678125 3.11828125 6.7778125 0.73828125 5.7578125 C0.07828125 7.4078125 -0.58171875 9.0578125 -1.26171875 10.7578125 C-2.91171875 9.4378125 -4.56171875 8.1178125 -6.26171875 6.7578125 C-6.71546875 7.2528125 -7.16921875 7.7478125 -7.63671875 8.2578125 C-9.26171875 9.7578125 -9.26171875 9.7578125 -11.26171875 9.7578125 C-15.26171875 5.40487132 -15.26171875 5.40487132 -15.26171875 1.7578125 C-14.57464844 1.78101562 -13.88757813 1.80421875 -13.1796875 1.828125 C-12.27863281 1.84617187 -11.37757812 1.86421875 -10.44921875 1.8828125 C-9.55589844 1.90601562 -8.66257812 1.92921875 -7.7421875 1.953125 C-4.50731944 1.69841098 -3.23455985 -0.34636047 0 0 Z " fill="#EAEAEA" transform="translate(89.26171875,89.2421875)"/>
<path d="M0 0 C4 2 4 2 7 4 C5.47987323 9.40489519 1.72614782 12.98492628 -2 17 C-2.99 16.67 -3.98 16.34 -5 16 C-5.33 15.01 -5.66 14.02 -6 13 C-6.99 12.34 -7.98 11.68 -9 11 C-6.03 7.37 -3.06 3.74 0 0 Z " fill="#EEF0F0" transform="translate(264,27)"/>
<path d="M0 0 C5.97031739 0.29123499 8.894534 3.02814384 13 7 C11.52307692 12.66153846 11.52307692 12.66153846 8.875 14.375 C8.25625 14.58125 7.6375 14.7875 7 15 C6.484375 14.236875 5.96875 13.47375 5.4375 12.6875 C2.44152356 9.38424393 0.14287486 8.51374274 -4 7 C-3.525625 6.401875 -3.05125 5.80375 -2.5625 5.1875 C-0.83534256 2.99617076 -0.83534256 2.99617076 0 0 Z " fill="#F0F1F2" transform="translate(324,86)"/>
<path d="M0 0 C0.99 0 1.98 0 3 0 C3.33 0.66 3.66 1.32 4 2 C4.99 1.67 5.98 1.34 7 1 C6.67 1.99 6.34 2.98 6 4 C4.0625 4.5625 4.0625 4.5625 2 5 C1.34 5.66 0.68 6.32 0 7 C0.32198966 10.09926819 0.32198966 10.09926819 1 13 C0.2575 13.144375 -0.485 13.28875 -1.25 13.4375 C-2.1575 13.623125 -3.065 13.80875 -4 14 C-4.721875 14.144375 -5.44375 14.28875 -6.1875 14.4375 C-8.22656623 14.91606861 -8.22656623 14.91606861 -10 17 C-10 16.34 -10 15.68 -10 15 C-10.66 14.67 -11.32 14.34 -12 14 C-13.125 11.9375 -13.125 11.9375 -14 10 C-13 9 -13 9 -11.15234375 8.90234375 C-9.1015625 8.93489583 -7.05078125 8.96744792 -5 9 C-4.731875 8.2575 -4.46375 7.515 -4.1875 6.75 C-3.0392528 4.09090121 -1.96498625 2.12218515 0 0 Z " fill="#F8F9F9" transform="translate(94,76)"/>
<path d="M0 0 C14.19 0 28.38 0 43 0 C42.67 1.32 42.34 2.64 42 4 C41.505 3.01 41.505 3.01 41 2 C28.46 2 15.92 2 3 2 C2.75043285 10.79537741 2.75043285 10.79537741 2.52197266 19.59130859 C2.46855713 21.2283374 2.46855713 21.2283374 2.4140625 22.8984375 C2.3826416 24.01911621 2.3512207 25.13979492 2.31884766 26.29443359 C2 29 2 29 0 31 C0 20.77 0 10.54 0 0 Z " fill="#020202" transform="translate(233,131)"/>
<path d="M0 0 C3.96 0 7.92 0 12 0 C9.35358838 4.41068603 8.16211721 6.35137996 4 9 C0.1875 9.75 0.1875 9.75 -3 10 C-2.01 9.34 -1.02 8.68 0 8 C-0.99 7.34 -1.98 6.68 -3 6 C-3.33 5.34 -3.66 4.68 -4 4 C-7.04581269 3.53045739 -7.04581269 3.53045739 -10.5625 3.375 C-11.76003906 3.30023438 -12.95757812 3.22546875 -14.19140625 3.1484375 C-15.11824219 3.09945312 -16.04507812 3.05046875 -17 3 C-17 2.67 -17 2.34 -17 2 C-11.39 2 -5.78 2 0 2 C0 1.34 0 0.68 0 0 Z " fill="#101010" transform="translate(320,115)"/>
<path d="M0 0 C0.33 0 0.66 0 1 0 C1 29.04 1 58.08 1 88 C3.64 88 6.28 88 9 88 C9 88.33 9 88.66 9 89 C7.8553125 89.2165625 7.8553125 89.2165625 6.6875 89.4375 C3.91827092 89.9632594 3.91827092 89.9632594 1 91 C0.34 90.67 -0.32 90.34 -1 90 C-0.67 60.3 -0.34 30.6 0 0 Z " fill="#696A6A" transform="translate(292,84)"/>
<path d="M0 0 C0.33 0 0.66 0 1 0 C1 18.48 1 36.96 1 56 C-0.65 56 -2.3 56 -4 56 C-4 64.25 -4 72.5 -4 81 C-5.32 80.01 -6.64 79.02 -8 78 C-7.01 77.01 -7.01 77.01 -6 76 C-5.70721476 74.09693485 -5.70721476 74.09693485 -5.76953125 71.9375 C-5.77146484 71.14085938 -5.77339844 70.34421875 -5.77539062 69.5234375 C-5.78763672 68.69070312 -5.79988281 67.85796875 -5.8125 67 C-5.8134668 65.75089844 -5.8134668 65.75089844 -5.81445312 64.4765625 C-5.71319078 60.0888953 -5.71319078 60.0888953 -7 56 C-5.02 55.01 -3.04 54.02 -1 53 C-0.67 35.51 -0.34 18.02 0 0 Z " fill="#010101" transform="translate(296,28)"/>
<path d="M0 0 C9.57 0 19.14 0 29 0 C28.67 0.66 28.34 1.32 28 2 C16.615 1.505 16.615 1.505 5 1 C4.67 1.66 4.34 2.32 4 3 C3.67 3 3.34 3 3 3 C2.67 10.92 2.34 18.84 2 27 C3.32 27.66 4.64 28.32 6 29 C4.02 29 2.04 29 0 29 C0 19.43 0 9.86 0 0 Z " fill="#020202" transform="translate(233,93)"/>
<path d="M0 0 C2.02532424 1.01266212 4.04949131 2.02549552 6.0625 3.0625 C8.13410175 4.11611949 8.13410175 4.11611949 11 5 C11.103125 5.763125 11.20625 6.52625 11.3125 7.3125 C12.04364039 10.17059424 12.76951913 11.15742885 15 13 C14.01 13.99 13.02 14.98 12 16 C10.65826597 15.07456291 9.32679841 14.13422595 8 13.1875 C6.88625 12.40439453 6.88625 12.40439453 5.75 11.60546875 C5.1725 11.07566406 4.595 10.54585937 4 10 C4 9.01 4 8.02 4 7 C3.38125 6.731875 2.7625 6.46375 2.125 6.1875 C0 5 0 5 -2 2 C-1.34 1.34 -0.68 0.68 0 0 Z " fill="#F7F7F8" transform="translate(336,147)"/>
<path d="M0 0 C1.96301592 3.50538557 2.95902388 7.13351728 4 11 C2.906875 11.185625 1.81375 11.37125 0.6875 11.5625 C-2.9490498 12.57516528 -2.9490498 12.57516528 -4.1328125 14.69140625 C-5.05926212 16.83650143 -5.05926212 16.83650143 -6 20 C-8.64 19.34 -11.28 18.68 -14 18 C-14 17.34 -14 16.68 -14 16 C-12.171875 14.703125 -12.171875 14.703125 -9.75 13.25 C-4.8512518 10.09200195 -2.04324468 7.30360816 -0.25 1.625 C-0.1675 1.08875 -0.085 0.5525 0 0 Z " fill="#121515" transform="translate(340,115)"/>
<path d="M0 0 C2.62406027 4.52599542 2.13084437 8.01795835 1 13 C-0.15556783 16.09710893 -1.5027317 19.05421167 -3 22 C-3.33 22 -3.66 22 -4 22 C-4 19.69 -4 17.38 -4 15 C-4.66 14.67 -5.32 14.34 -6 14 C-6.66 13.67 -7.32 13.34 -8 13 C-6.63589551 7.40717158 -3.84616474 4.08806189 0 0 Z " fill="#EFF1F0" transform="translate(53,94)"/>
<path d="M0 0 C3.48331435 3.01887244 4.79157144 5.56909529 6 10 C6.66 10 7.32 10 8 10 C8.33 9.34 8.66 8.68 9 8 C11.475 8.99 11.475 8.99 14 10 C14.33 9.34 14.66 8.68 15 8 C15 8.66 15 9.32 15 10 C15.66 10.33 16.32 10.66 17 11 C16.01 11.33 15.02 11.66 14 12 C14.33 12.99 14.66 13.98 15 15 C14.34 15 13.68 15 13 15 C13 14.34 13 13.68 13 13 C7.53862186 12.90247539 2.40744018 13.22750855 -3 14 C-2.67 13.01 -2.34 12.02 -2 11 C-1.34 11 -0.68 11 0 11 C0 7.37 0 3.74 0 0 Z " fill="#0C0C0D" transform="translate(127,104)"/>
<path d="M0 0 C3.63094642 2.64960955 5.89851796 5.01824456 8 9 C6.37660195 10.70884005 4.70680947 12.37446717 3 14 C2.34 14 1.68 14 1 14 C-0.5078125 12.25 -0.5078125 12.25 -2.125 10 C-2.66382813 9.2575 -3.20265625 8.515 -3.7578125 7.75 C-4.16773438 7.1725 -4.57765625 6.595 -5 6 C-3.35 4.02 -1.7 2.04 0 0 Z " fill="#E4E6E5" transform="translate(281,103)"/>
<path d="M0 0 C0.66 0.33 1.32 0.66 2 1 C2 2.32 2 3.64 2 5 C3.32 5.33 4.64 5.66 6 6 C4.5359872 8.84381248 3.02924807 11.51980792 1 14 C-2.3125 15 -2.3125 15 -5 15 C-6.2109375 13.359375 -6.2109375 13.359375 -7 11 C-5.6640625 8.203125 -5.6640625 8.203125 -3.625 5.25 C-2.95726563 4.26515625 -2.28953125 3.2803125 -1.6015625 2.265625 C-1.07304688 1.51796875 -0.54453125 0.7703125 0 0 Z " fill="#EBEBEB" transform="translate(101,64)"/>
<path d="M0 0 C0.928125 0.495 0.928125 0.495 1.875 1 C3.91018344 2.14193235 3.91018344 2.14193235 6 2 C6.495 4.97 6.495 4.97 7 8 C4 9 4 9 1 8 C1 8.66 1 9.32 1 10 C0.01 9.67 -0.98 9.34 -2 9 C-1.34 8.67 -0.68 8.34 0 8 C-0.66 7.67 -1.32 7.34 -2 7 C-2 6.34 -2 5.68 -2 5 C-16.85 4.505 -16.85 4.505 -32 4 C-32 3.67 -32 3.34 -32 3 C-16.655 2.505 -16.655 2.505 -1 2 C-0.67 1.34 -0.34 0.68 0 0 Z " fill="#D7D7D7" transform="translate(333,111)"/>
<path d="M0 0 C0.33 0.66 0.66 1.32 1 2 C0.01 3.485 0.01 3.485 -1 5 C0.32 6.65 1.64 8.3 3 10 C1.35 11.65 -0.3 13.3 -2 15 C-2.33 14.34 -2.66 13.68 -3 13 C-3.7425 13.20625 -4.485 13.4125 -5.25 13.625 C-8.37796068 14.05154009 -9.32595741 13.49700675 -12 12 C-11.46890625 11.55269531 -10.9378125 11.10539063 -10.390625 10.64453125 C-6.52111681 7.33285362 -3.01412695 4.14442456 0 0 Z " fill="#E5E5E6" transform="translate(105,149)"/>
<path d="M0 0 C0 0.99 0 1.98 0 3 C0.66 3.33 1.32 3.66 2 4 C2 3.34 2 2.68 2 2 C3.32 2.33 4.64 2.66 6 3 C4.5682479 8.01113235 2.01554307 9.94469549 -2 13 C-2.103125 12.38125 -2.20625 11.7625 -2.3125 11.125 C-2.87525373 8.63473516 -2.87525373 8.63473516 -6 7 C-4.60667426 3.63279613 -3.0210714 2.0140476 0 0 Z " fill="#EFEFEF" transform="translate(332,117)"/>
<path d="M0 0 C4.95 0 9.9 0 15 0 C15 0.33 15 0.66 15 1 C10.38 1 5.76 1 1 1 C1 5.29 1 9.58 1 14 C8.92 13.67 16.84 13.34 25 13 C25.33 12.34 25.66 11.68 26 11 C25.34 10.67 24.68 10.34 24 10 C24.66 9.01 25.32 8.02 26 7 C27.76462683 10.08809695 28 11.23312136 28 15 C18.76 15 9.52 15 0 15 C0 10.05 0 5.1 0 0 Z " fill="#3A3A3A" transform="translate(305,92)"/>
<path d="M0 0 C4.83256305 0.41421969 6.82679218 2.46413986 10 6 C7.6875 7.5625 7.6875 7.5625 5 9 C4.01 8.67 3.02 8.34 2 8 C-0.00875442 8.27571139 -2.01178687 8.60235737 -4 9 C-2.80100302 5.9168649 -1.52299523 2.93720508 0 0 Z " fill="#111111" transform="translate(90,95)"/>
<path d="M0 0 C4.95 0 9.9 0 15 0 C16.32 1.65 17.64 3.3 19 5 C16.36 4.34 13.72 3.68 11 3 C11 2.34 11 1.68 11 1 C7.7 1 4.4 1 1 1 C1 13.54 1 26.08 1 39 C0.67 39 0.34 39 0 39 C0 26.13 0 13.26 0 0 Z " fill="#3A3A3B" transform="translate(301,133)"/>
<path d="M0 0 C0.66 0.99 1.32 1.98 2 3 C1.67 3.99 1.34 4.98 1 6 C1.38932856 8.14255793 1.38932856 8.14255793 2 10 C0.35 10.66 -1.3 11.32 -3 12 C-2.34 12.66 -1.68 13.32 -1 14 C-0.69921875 16.0234375 -0.69921875 16.0234375 -0.6875 18.375 C-0.67074219 19.14585937 -0.65398438 19.91671875 -0.63671875 20.7109375 C-1.07948738 23.50085596 -2.17298446 24.88856779 -4 27 C-4.44424132 17.16499086 -4.32205334 9.10718381 0 0 Z " fill="#161816" transform="translate(52,109)"/>
<path d="M0 0 C0.99 0.33 1.98 0.66 3 1 C4.1875 4.5625 4.1875 4.5625 5 8 C2.09399739 9.25664978 0.20395416 10 -3 10 C-3.66 8.02 -4.32 6.04 -5 4 C-2.6875 1.9375 -2.6875 1.9375 0 0 Z " fill="#ECECEC" transform="translate(206,104)"/>
<path d="M0 0 C2.5 2.3125 2.5 2.3125 5 5 C5 5.99 5 6.98 5 8 C4 8 3 8 2 8 C1.67 9.32 1.34 10.64 1 12 C0.236875 11.34 -0.52625 10.68 -1.3125 10 C-3.84277939 7.70149462 -3.84277939 7.70149462 -7 8 C-4.69 5.36 -2.38 2.72 0 0 Z " fill="#181818" transform="translate(241,68)"/>
<path d="M0 0 C4.62 0 9.24 0 14 0 C14 0.33 14 0.66 14 1 C12.35 1.33 10.7 1.66 9 2 C9 2.99 9 3.98 9 5 C9.66 5.33 10.32 5.66 11 6 C10 7 10 7 7.93359375 7.09765625 C7.10988281 7.08605469 6.28617187 7.07445313 5.4375 7.0625 C4.61121094 7.05347656 3.78492187 7.04445313 2.93359375 7.03515625 C2.29550781 7.02355469 1.65742187 7.01195313 1 7 C1.66 5.35 2.32 3.7 3 2 C2.01 1.34 1.02 0.68 0 0 Z " fill="#EBEBEB" transform="translate(72,84)"/>
<path d="M0 0 C2.97 0.495 2.97 0.495 6 1 C5.67 1.763125 5.34 2.52625 5 3.3125 C3.82563314 5.99069135 3.82563314 5.99069135 4 9 C1.5 10.6875 1.5 10.6875 -1 12 C-1.66 11.01 -2.32 10.02 -3 9 C-2.34 8.34 -1.68 7.68 -1 7 C-1 5.68 -1 4.36 -1 3 C-0.67 2.01 -0.34 1.02 0 0 Z " fill="#FBFBFB" transform="translate(241,55)"/>
<path d="M0 0 C4.29 0 8.58 0 13 0 C13 0.33 13 0.66 13 1 C9.04 1 5.08 1 1 1 C2.485 1.99 2.485 1.99 4 3 C4.328125 4.875 4.328125 4.875 4.25 7 C4.23453125 7.70125 4.2190625 8.4025 4.203125 9.125 C4 11 4 11 3 13 C2.01 13 1.02 13 0 13 C0 8.71 0 4.42 0 0 Z " fill="#040404" transform="translate(306,93)"/>
<path d="M0 0 C3.98175544 2.10148204 6.35039045 4.36905358 9 8 C7.515 10.475 7.515 10.475 6 13 C5.01 12.67 4.02 12.34 3 12 C2 9 2 9 2 6 C1.36893571 3.98848259 0.70626239 1.98636298 0 0 Z " fill="#131413" transform="translate(274,109)"/>
<path d="M0 0 C0.66 0.33 1.32 0.66 2 1 C2.33 0.67 2.66 0.34 3 0 C3.66 0 4.32 0 5 0 C5 2.31 5 4.62 5 7 C3.02 7.99 3.02 7.99 1 9 C-1 7.1875 -1 7.1875 -3 5 C-3 4.01 -3 3.02 -3 2 C-2.01 1.34 -1.02 0.68 0 0 Z " fill="#0C0D0D" transform="translate(282,96)"/>
<path d="M0 0 C0.99 0.66 1.98 1.32 3 2 C1.52307692 7.66153846 1.52307692 7.66153846 -1.125 9.375 C-1.74375 9.58125 -2.3625 9.7875 -3 10 C-3.61875 9.21625 -4.2375 8.4325 -4.875 7.625 C-6.89858661 5.03162353 -6.89858661 5.03162353 -9 3 C-7.68 2.67 -6.36 2.34 -5 2 C-5 2.66 -5 3.32 -5 4 C-1.87802522 2.6910428 -1.87802522 2.6910428 0 0 Z " fill="#E9E9EA" transform="translate(334,91)"/>
<path d="M0 0 C0.99 0 1.98 0 3 0 C4.53995173 3.07990345 4.22377524 5.58742761 4 9 C3.17748648 11.46754057 2.14878622 13.65456147 1 16 C-1.49310643 12.26034036 -1.0603261 10.70929359 -0.625 6.3125 C-0.51414063 5.13300781 -0.40328125 3.95351563 -0.2890625 2.73828125 C-0.19367188 1.83464844 -0.09828125 0.93101563 0 0 Z " fill="#0F1012" transform="translate(153,50)"/>
<path d="M0 0 C2 0.0625 2 0.0625 4 1 C5.25 3.5625 5.25 3.5625 6 6 C4.68 6.99 3.36 7.98 2 9 C2 8.01 2 7.02 2 6 C1.01 6.66 0.02 7.32 -1 8 C-1.66 7.34 -2.32 6.68 -3 6 C-2.63318342 3.06546739 -2.13562754 2.13562754 0 0 Z " fill="#F9FAFB" transform="translate(255,39)"/>
<path d="M0 0 C0.66 0.33 1.32 0.66 2 1 C1.32908723 4.50183741 -0.07424718 7.18603252 -1.875 10.25 C-2.38804688 11.14203125 -2.90109375 12.0340625 -3.4296875 12.953125 C-4.20699219 13.96632813 -4.20699219 13.96632813 -5 15 C-5.99 15 -6.98 15 -8 15 C-8.33 14.01 -8.66 13.02 -9 12 C-4.88888889 6.44444444 -4.88888889 6.44444444 -2 5 C-1.27840576 3.35636866 -0.60648579 1.68949614 0 0 Z " fill="#121416" transform="translate(106,51)"/>
<path d="M0 0 C0.99 0.33 1.98 0.66 3 1 C1.35 3.64 -0.3 6.28 -2 9 C-6.29 8.67 -10.58 8.34 -15 8 C-11.90097213 6.45048606 -10.15846757 5.73319812 -6.9375 5.125 C-3.96405577 4.43839463 -3.16881756 4.17936866 -1 1.875 C-0.67 1.25625 -0.34 0.6375 0 0 Z " fill="#171717" transform="translate(91,76)"/>
<path d="M0 0 C0.66 0.33 1.32 0.66 2 1 C2 2.98 2 4.96 2 7 C3.98 7.66 5.96 8.32 8 9 C7.01 10.32 6.02 11.64 5 13 C3.65772182 11.73861805 2.32641323 10.46555441 1 9.1875 C0.2575 8.47980469 -0.485 7.77210938 -1.25 7.04296875 C-3 5 -3 5 -3 2 C-2.01 1.34 -1.02 0.68 0 0 Z " fill="#101111" transform="translate(348,146)"/>
<path d="M0 0 C3.84066037 1.56471348 6.13033315 4.06034127 9 7 C10.64864545 8.35555293 12.31003995 9.69631653 14 11 C13.67 12.32 13.34 13.64 13 15 C10.82722286 12.88094537 8.66173092 10.75527122 6.5 8.625 C5.87996094 8.02171875 5.25992187 7.4184375 4.62109375 6.796875 C4.03457031 6.21679688 3.44804687 5.63671875 2.84375 5.0390625 C2.29912109 4.50490723 1.75449219 3.97075195 1.19335938 3.42041016 C0 2 0 2 0 0 Z " fill="#D7D7D8" transform="translate(334,151)"/>
<path d="M0 0 C0.99 0.66 1.98 1.32 3 2 C2.814375 2.61875 2.62875 3.2375 2.4375 3.875 C1.76313824 6.04160178 1.76313824 6.04160178 3 8 C2.0625 10.125 2.0625 10.125 1 12 C1 11.34 1 10.68 1 10 C-0.65 10.33 -2.3 10.66 -4 11 C-3.52269162 9.5410574 -3.04308958 8.08286504 -2.5625 6.625 C-2.29566406 5.81289062 -2.02882812 5.00078125 -1.75390625 4.1640625 C-1 2 -1 2 0 0 Z " fill="#151517" transform="translate(196,113)"/>
<path d="M0 0 C0.66 0 1.32 0 2 0 C1.67 0.66 1.34 1.32 1 2 C0.67 1.34 0.34 0.68 0 0 Z M0 2 C1.5625 3.25 1.5625 3.25 3 5 C3.0625 7.0625 3.0625 7.0625 2 9 C-1.0625 10.25 -1.0625 10.25 -4 11 C-4 8.69 -4 6.38 -4 4 C-2.68 4 -1.36 4 0 4 C0 3.34 0 2.68 0 2 Z " fill="#F8F8F8" transform="translate(106,59)"/>
<path d="M0 0 C0.66 1.32 1.32 2.64 2 4 C2.66 3.34 3.32 2.68 4 2 C6.28964059 6.94080338 6.28964059 6.94080338 5.46484375 9.95703125 C4.71434788 11.67095437 3.86320768 13.33998524 3 15 C2.67 15 2.34 15 2 15 C2 12.69 2 10.38 2 8 C1.34 7.67 0.68 7.34 0 7 C-0.66 6.67 -1.32 6.34 -2 6 C-1.34 4.02 -0.68 2.04 0 0 Z " fill="#E9EAE9" transform="translate(47,101)"/>
<path d="M0 0 C3.39417765 3.12621626 5.6062718 5.56541027 7 10 C1.25 10.125 1.25 10.125 -1 9 C-1 8.34 -1 7.68 -1 7 C-0.34 6.67 0.32 6.34 1 6 C0.649375 5.38125 0.29875 4.7625 -0.0625 4.125 C-0.371875 3.42375 -0.68125 2.7225 -1 2 C-0.67 1.34 -0.34 0.68 0 0 Z " fill="#191919" transform="translate(100,101)"/>
<path d="M0 0 C3.29148243 1.13499394 3.9959869 1.99283376 5.75 5.125 C6.1625 6.07375 6.575 7.0225 7 8 C6.01 8 5.02 8 4 8 C4 7.34 4 6.68 4 6 C3.34 6 2.68 6 2 6 C2 5.34 2 4.68 2 4 C-1.87797662 3.56613908 -1.87797662 3.56613908 -3.75 5.5 C-4.1625 5.995 -4.575 6.49 -5 7 C-5 6.01 -5 5.02 -5 4 C-2.5 1.8125 -2.5 1.8125 0 0 Z " fill="#1F1F1D" transform="translate(65,95)"/>
<path d="M0 0 C0.928125 0.5259375 0.928125 0.5259375 1.875 1.0625 C2.57625 1.371875 3.2775 1.68125 4 2 C4.66 1.67 5.32 1.34 6 1 C5.67 2.32 5.34 3.64 5 5 C4.34 5 3.68 5 3 5 C2.71125 5.639375 2.4225 6.27875 2.125 6.9375 C1 9 1 9 -1 10 C-1.02689216 8.52093108 -1.04634621 7.04172517 -1.0625 5.5625 C-1.07410156 4.73878906 -1.08570313 3.91507812 -1.09765625 3.06640625 C-1 1 -1 1 0 0 Z " fill="#060606" transform="translate(41,96)"/>
<path d="M0 0 C2.64 0 5.28 0 8 0 C6.125 4.75 6.125 4.75 5 7 C4.34 7 3.68 7 3 7 C0.70351351 4.4385343 0 3.52032428 0 0 Z " fill="#0D0D0C" transform="translate(75,92)"/>
<path d="M0 0 C3.82191781 2.46575342 3.82191781 2.46575342 4.625 4.875 C4.74875 5.57625 4.8725 6.2775 5 7 C5.6469365 8.6744239 6.30959426 10.34302621 7 12 C6.01 12.495 6.01 12.495 5 13 C3.96387729 11.59447701 2.94655075 10.17508306 1.9375 8.75 C1.36902344 7.96109375 0.80054688 7.1721875 0.21484375 6.359375 C-1 4 -1 4 -0.68359375 1.703125 C-0.45800781 1.14109375 -0.23242188 0.5790625 0 0 Z " fill="#111214" transform="translate(49,49)"/>
<path d="M0 0 C1.98 0.66 3.96 1.32 6 2 C6.33 1.34 6.66 0.68 7 0 C7 0.66 7 1.32 7 2 C7.66 2.33 8.32 2.66 9 3 C8.01 3.33 7.02 3.66 6 4 C6.33 4.99 6.66 5.98 7 7 C6.34 7 5.68 7 5 7 C5 6.34 5 5.68 5 5 C3.700625 4.87625 2.40125 4.7525 1.0625 4.625 C-1.15234375 4.4140625 -1.15234375 4.4140625 -3 4 C-3.33 3.34 -3.66 2.68 -4 2 C-2.68 2 -1.36 2 0 2 C0 1.34 0 0.68 0 0 Z " fill="#0E0F11" transform="translate(135,112)"/>
<path d="M0 0 C1.32 0.33 2.64 0.66 4 1 C4 1.66 4 2.32 4 3 C4.66 3.33 5.32 3.66 6 4 C5.195625 4.268125 4.39125 4.53625 3.5625 4.8125 C2.716875 5.204375 1.87125 5.59625 1 6 C0.67 6.99 0.34 7.98 0 9 C-0.99 8.01 -1.98 7.02 -3 6 C-2.01 4.02 -1.02 2.04 0 0 Z " fill="#EAEBE8" transform="translate(74,96)"/>
<path d="M0 0 C0.33 0.66 0.66 1.32 1 2 C3.52733235 2.65555119 3.52733235 2.65555119 6 3 C5.67 4.32 5.34 5.64 5 7 C2 7 2 7 0.25 5.75 C-1 4 -1 4 -0.6875 1.8125 C-0.460625 1.214375 -0.23375 0.61625 0 0 Z M7 0 C7.66 0.66 8.32 1.32 9 2 C8.01 2.33 7.02 2.66 6 3 C6.33 2.01 6.66 1.02 7 0 Z " fill="#E5E6E5" transform="translate(270,98)"/>
<path d="M0 0 C0.66 0.33 1.32 0.66 2 1 C1.690625 1.721875 1.38125 2.44375 1.0625 3.1875 C-0.09057976 5.92679703 -0.09057976 5.92679703 -0.375 8.6875 C-1 11 -1 11 -3.0625 12.3125 C-3.701875 12.539375 -4.34125 12.76625 -5 13 C-6 10 -6 10 -4.78515625 7.51953125 C-4.21667969 6.62621094 -3.64820312 5.73289062 -3.0625 4.8125 C-2.49660156 3.91144531 -1.93070312 3.01039062 -1.34765625 2.08203125 C-0.90292969 1.39496094 -0.45820312 0.70789063 0 0 Z " fill="#151515" transform="translate(107,68)"/>
<path d="M0 0 C2.15377564 2.62198774 3.40072174 4.64404172 4 8 C1.36 8.33 -1.28 8.66 -4 9 C-3 6 -3 6 -2 4 C-1.34 4 -0.68 4 0 4 C0 2.68 0 1.36 0 0 Z " fill="#EBEBEB" transform="translate(185,58)"/>
<path d="M0 0 C0.33 0.66 0.66 1.32 1 2 C1.66 2.33 2.32 2.66 3 3 C0.4948029 6.48938167 -0.80462913 8.13199223 -5 9 C-5.33 9.99 -5.66 10.98 -6 12 C-6.33 11.01 -6.66 10.02 -7 9 C-5.56640625 6.73828125 -5.56640625 6.73828125 -3.5625 4.3125 C-2.90378906 3.50425781 -2.24507813 2.69601563 -1.56640625 1.86328125 C-1.04949219 1.24839844 -0.53257812 0.63351563 0 0 Z " fill="#1D1E1F" transform="translate(259,46)"/>
<path d="M0 0 C2.9375 0.8125 2.9375 0.8125 6 2 C6.33 2.99 6.66 3.98 7 5 C5.68 6.32 4.36 7.64 3 9 C2.67 7.35 2.34 5.7 2 4 C1.01 4.495 1.01 4.495 0 5 C-0.33 4.01 -0.66 3.02 -1 2 C-0.67 1.34 -0.34 0.68 0 0 Z " fill="#151517" transform="translate(249,33)"/>
<path d="M0 0 C2.97 0.495 2.97 0.495 6 1 C4.71480435 3.86697492 3.42870746 5.97607712 1 8 C0.34 8 -0.32 8 -1 8 C-1.125 2.25 -1.125 2.25 0 0 Z " fill="#F6F6F5" transform="translate(354,164)"/>
<path d="M0 0 C0.99 0.66 1.98 1.32 3 2 C2.34 3.98 1.68 5.96 1 8 C0.01 8 -0.98 8 -2 8 C-2.66 7.34 -3.32 6.68 -4 6 C-3.625 3.875 -3.625 3.875 -3 2 C-2.34 2 -1.68 2 -1 2 C-0.67 1.34 -0.34 0.68 0 0 Z " fill="#ECEDEE" transform="translate(334,143)"/>
<path d="M0 0 C0.33 0.66 0.66 1.32 1 2 C0.34 1.67 -0.32 1.34 -1 1 C-0.67 0.67 -0.34 0.34 0 0 Z M-1 2 C-1.99 2.495 -1.99 2.495 -3 3 C-3.12375 3.61875 -3.2475 4.2375 -3.375 4.875 C-4.19821471 7.67393003 -5.60184644 8.45280415 -8 10 C-8 7.36 -8 4.72 -8 2 C-5.3333581 0.66667905 -3.83319697 1.32897967 -1 2 Z " fill="#F9F9FA" transform="translate(189,126)"/>
<path d="M0 0 C0.8723412 2.99480917 1.10829766 5.63575911 1.0625 8.75 C1.05347656 9.54921875 1.04445313 10.3484375 1.03515625 11.171875 C1.01775391 12.07679688 1.01775391 12.07679688 1 13 C-2 11 -2 11 -4 8 C-4.125 4.8125 -4.125 4.8125 -4 2 C-2.68 1.34 -1.36 0.68 0 0 Z " fill="#040604" transform="translate(53,119)"/>
<path d="M0 0 C0.144375 0.598125 0.28875 1.19625 0.4375 1.8125 C0.8872439 3.56150404 1.42892341 5.28677023 2 7 C1.01 7 0.02 7 -1 7 C-0.67 8.32 -0.34 9.64 0 11 C-0.99 11.495 -0.99 11.495 -2 12 C-2.66 11.67 -3.32 11.34 -4 11 C-3.48964169 6.6109185 -2.47785723 3.66291938 0 0 Z " fill="#E8EAEA" transform="translate(138,101)"/>
<path d="M0 0 C1.32 0.99 2.64 1.98 4 3 C4.99 2.34 5.98 1.68 7 1 C7.1875 3.375 7.1875 3.375 7 6 C6.01 6.66 5.02 7.32 4 8 C2.68 7.34 1.36 6.68 0 6 C0 5.01 0 4.02 0 3 C-0.66 2.67 -1.32 2.34 -2 2 C-1.34 1.34 -0.68 0.68 0 0 Z " fill="#ECEDEE" transform="translate(251,43)"/>
<path d="M0 0 C0.33 0 0.66 0 1 0 C1.33 3.63 1.66 7.26 2 11 C0.68 10.67 -0.64 10.34 -2 10 C-2 9.34 -2 8.68 -2 8 C-2.66 7.67 -3.32 7.34 -4 7 C-2.68 4.69 -1.36 2.38 0 0 Z " fill="#141414" transform="translate(116,146)"/>
<path d="M0 0 C3 0 3 0 4.75 1.125 C6 3 6 3 5.6875 6.1875 C5.460625 7.115625 5.23375 8.04375 5 9 C3.0625 7.875 3.0625 7.875 1 6 C0.25 2.8125 0.25 2.8125 0 0 Z " fill="#F6F6F6" transform="translate(164,42)"/>
<path d="M0 0 C4.1424367 1.38081223 5.32203099 3.59825558 8 7 C7.34 8.65 6.68 10.3 6 12 C4.28982274 9.4347341 3.09582189 7.12039035 1.875 4.3125 C1.52179688 3.50425781 1.16859375 2.69601563 0.8046875 1.86328125 C0.53914062 1.24839844 0.27359375 0.63351563 0 0 Z " fill="#111010" transform="translate(174,34)"/>
<path d="M0 0 C1.32 0 2.64 0 4 0 C4.99 3.3 5.98 6.6 7 10 C6.01 10.33 5.02 10.66 4 11 C3.34 8.03 2.68 5.06 2 2 C1.34 2 0.68 2 0 2 C0 1.34 0 0.68 0 0 Z " fill="#171719" transform="translate(161,156)"/>
<path d="M0 0 C0.33 0.66 0.66 1.32 1 2 C1.66 2 2.32 2 3 2 C3 2.99 3 3.98 3 5 C4.43750191 6.68798827 4.43750191 6.68798827 6 8 C5.01 9.485 5.01 9.485 4 11 C3.566875 10.360625 3.13375 9.72125 2.6875 9.0625 C1.08760823 6.73253997 1.08760823 6.73253997 -2 6 C-1.34 4.02 -0.68 2.04 0 0 Z " fill="#E6E7E7" transform="translate(148,77)"/>
<path d="M0 0 C2.31 1.65 4.62 3.3 7 5 C4 7 4 7 0 7 C-0.66 6.34 -1.32 5.68 -2 5 C-1.46428571 1.46428571 -1.46428571 1.46428571 0 0 Z " fill="#111113" transform="translate(52,161)"/>
<path d="M0 0 C0.33 0 0.66 0 1 0 C1.12375 0.763125 1.2475 1.52625 1.375 2.3125 C1.88102792 5.20267136 1.88102792 5.20267136 4 8 C2.68 9.32 1.36 10.64 0 12 C-0.99 11.34 -1.98 10.68 -3 10 C-3 9.34 -3 8.68 -3 8 C-2.01 8 -1.02 8 0 8 C0 5.36 0 2.72 0 0 Z " fill="#313132" transform="translate(276,84)"/>
<path d="M0 0 C1.9375 0.3125 1.9375 0.3125 4 1 C5.13643966 4.40931897 4.86747764 5.00335456 3.5625 8.1875 C3.27503906 8.90292969 2.98757813 9.61835937 2.69140625 10.35546875 C2.46324219 10.89816406 2.23507812 11.44085938 2 12 C1.34 10.68 0.68 9.36 0 8 C0.66 8 1.32 8 2 8 C1.34 7.01 0.68 6.02 0 5 C0 3.33333333 0 1.66666667 0 0 Z " fill="#121214" transform="translate(339,89)"/>
<path d="M0 0 C-1.33333333 2.66666667 -2.66666667 5.33333333 -4 8 C-4.33 7.34 -4.66 6.68 -5 6 C-4.67 5.01 -4.34 4.02 -4 3 C-4.8971875 3.309375 -4.8971875 3.309375 -5.8125 3.625 C-8 4 -8 4 -11 2 C-7.1009449 -0.15120281 -4.47642039 0 0 0 Z " fill="#141516" transform="translate(215,80)"/>
<path d="M0 0 C4.2742558 1.5830577 6.26531794 4.50568404 9 8 C5.02945403 8 3.83528756 6.6860619 1 4 C0.1875 1.75 0.1875 1.75 0 0 Z " fill="#E1E1E1" transform="translate(336,143)"/>
<path d="M0 0 C0.66 0.99 1.32 1.98 2 3 C1.5390625 5.26171875 1.5390625 5.26171875 0.625 7.6875 C0.32851562 8.49574219 0.03203125 9.30398437 -0.2734375 10.13671875 C-0.51320312 10.75160156 -0.75296875 11.36648437 -1 12 C-1.66 12 -2.32 12 -3 12 C-3.33 10.35 -3.66 8.7 -4 7 C-3.01 7 -2.02 7 -1 7 C-1.020625 6.030625 -1.04125 5.06125 -1.0625 4.0625 C-1 1 -1 1 0 0 Z " fill="#161616" transform="translate(173,139)"/>
<path d="M0 0 C3 3 3 3 3.3984375 5.12109375 C3.39070313 5.88550781 3.38296875 6.64992188 3.375 7.4375 C3.38273437 8.19933594 3.39046875 8.96117187 3.3984375 9.74609375 C3 12 3 12 0 16 C0 10.72 0 5.44 0 0 Z " fill="#2A2A28" transform="translate(48,120)"/>
<path d="M0 0 C0.66 0.66 1.32 1.32 2 2 C1.625 5.125 1.625 5.125 1 8 C-0.32 8.33 -1.64 8.66 -3 9 C-2.4140625 2.84765625 -2.4140625 2.84765625 -2 1 C-1.34 0.67 -0.68 0.34 0 0 Z " fill="#FAFCFB" transform="translate(80,99)"/>
<path d="M0 0 C0.66 0.66 1.32 1.32 2 2 C1.1875 4.4375 1.1875 4.4375 0 7 C-0.99 7.33 -1.98 7.66 -3 8 C-3.99 7.01 -4.98 6.02 -6 5 C-4.02 3.35 -2.04 1.7 0 0 Z " fill="#141517" transform="translate(107,160)"/>
<path d="M0 0 C0.99 0.99 1.98 1.98 3 3 C2.34 3 1.68 3 1 3 C1.33 3.99 1.66 4.98 2 6 C0.68 6.33 -0.64 6.66 -2 7 C-2.66 5.35 -3.32 3.7 -4 2 C-2.68 1.34 -1.36 0.68 0 0 Z " fill="#121214" transform="translate(213,104)"/>
<path d="M0 0 C0.33 0 0.66 0 1 0 C1 3.3 1 6.6 1 10 C-0.32 10 -1.64 10 -3 10 C-2.39009109 6.44219804 -1.4216319 3.3171411 0 0 Z " fill="#181818" transform="translate(207,88)"/>
<path d="M0 0 C2.40072955 2.88087546 4.47291037 5.56404834 6 9 C4.35 9.33 2.7 9.66 1 10 C0.67 8.68 0.34 7.36 0 6 C0.66 6 1.32 6 2 6 C2 5.34 2 4.68 2 4 C1.01 3.67 0.02 3.34 -1 3 C-0.67 2.01 -0.34 1.02 0 0 Z " fill="#181818" transform="translate(44,60)"/>
<path d="M0 0 C0.66 0.33 1.32 0.66 2 1 C1.01 4.3 0.02 7.6 -1 11 C-1.66 10.67 -2.32 10.34 -3 10 C-2.49287967 6.28111761 -1.88391785 3.26545761 0 0 Z " fill="#E2E2E4" transform="translate(180,130)"/>
<path d="M0 0 C0.99 0.495 0.99 0.495 2 1 C2.33 1.99 2.66 2.98 3 4 C3.33 3.01 3.66 2.02 4 1 C4.99 1.33 5.98 1.66 7 2 C6.67 3.32 6.34 4.64 6 6 C4.33388095 6.042721 2.66617115 6.04063832 1 6 C0 5 0 5 -0.0625 2.4375 C-0.041875 1.633125 -0.02125 0.82875 0 0 Z " fill="#F9F9F9" transform="translate(192,104)"/>
<path d="M0 0 C0.66 0 1.32 0 2 0 C2.59732819 2.76264289 3 5.16032769 3 8 C2.34 7.67 1.68 7.34 1 7 C1.33 7.99 1.66 8.98 2 10 C1.01 10.495 1.01 10.495 0 11 C-0.33 9.35 -0.66 7.7 -1 6 C-0.34 6 0.32 6 1 6 C1 5.34 1 4.68 1 4 C0.01 3.67 -0.98 3.34 -2 3 C-1.34 2.01 -0.68 1.02 0 0 Z " fill="#040404" transform="translate(98,101)"/>
<path d="M0 0 C2 3 2 3 1.75 6.0625 C1 9 1 9 -1 11 C-2.23076923 4.6 -2.23076923 4.6 -1.0625 1.5625 C-0.711875 1.046875 -0.36125 0.53125 0 0 Z " fill="#171918" transform="translate(138,91)"/>
<path d="M0 0 C0.66 0 1.32 0 2 0 C2.33 0.66 2.66 1.32 3 2 C3.66 2 4.32 2 5 2 C7 5 7 5 6.625 7.1875 C6.41875 7.785625 6.2125 8.38375 6 9 C4.99105628 8.07213211 3.99309093 7.13231567 3 6.1875 C2.1646875 5.40439453 2.1646875 5.40439453 1.3125 4.60546875 C0 3 0 3 0 0 Z " fill="#1A1B1D" transform="translate(103,90)"/>
<path d="M0 0 C1.98 0.99 1.98 0.99 4 2 C4 2.66 4 3.32 4 4 C5.32 4.66 6.64 5.32 8 6 C7.34 7.32 6.68 8.64 6 10 C4.99106869 8.90398831 3.99311775 7.79786082 3 6.6875 C2.1646875 5.76517578 2.1646875 5.76517578 1.3125 4.82421875 C0 3 0 3 0 0 Z " fill="#E6E6E6" transform="translate(247,73)"/>
<path d="M0 0 C0.33 0 0.66 0 1 0 C1.33663062 3.70293685 1.47736015 5.39534381 -0.875 8.375 C-3 10 -3 10 -5 10 C-3.66654496 6.40992874 -2.1056769 3.20429093 0 0 Z " fill="#121212" transform="translate(116,54)"/>
<path d="M0 0 C0.66 0.33 1.32 0.66 2 1 C2 1.99 2 2.98 2 4 C1.34 4 0.68 4 0 4 C-0.33 5.98 -0.66 7.96 -1 10 C-1.99 10 -2.98 10 -4 10 C-3.52449439 8.51965236 -3.04448784 7.04074979 -2.5625 5.5625 C-2.29566406 4.73878906 -2.02882812 3.91507813 -1.75390625 3.06640625 C-1 1 -1 1 0 0 Z " fill="#E5E6E6" transform="translate(170,28)"/>
<path d="M0 0 C2.125 0.375 2.125 0.375 4 1 C3.67 1.66 3.34 2.32 3 3 C2.67 3 2.34 3 2 3 C2.66 4.98 3.32 6.96 4 9 C3.01 9.495 3.01 9.495 2 10 C0.68 7.36 -0.64 4.72 -2 2 C-1.34 1.34 -0.68 0.68 0 0 Z " fill="#141517" transform="translate(34,25)"/>
<path d="M0 0 C0.33 0.99 0.66 1.98 1 3 C1.763125 2.67 2.52625 2.34 3.3125 2 C6 1 6 1 9 1 C9 2.32 9 3.64 9 5 C2.25 5.125 2.25 5.125 0 4 C0 2.68 0 1.36 0 0 Z " fill="#1D1D1F" transform="translate(202,111)"/>
<path d="M0 0 C0.99 0.33 1.98 0.66 3 1 C3.33 1.99 3.66 2.98 4 4 C3.34 4 2.68 4 2 4 C1.67 5.32 1.34 6.64 1 8 C0.01 6.35 -0.98 4.7 -2 3 C-1.34 2.01 -0.68 1.02 0 0 Z " fill="#F6F8F7" transform="translate(280,107)"/>
<path d="M0 0 C2 2 2 2 2.25 5 C2 8 2 8 0 10 C-0.99 9.01 -1.98 8.02 -3 7 C-2.01 4.69 -1.02 2.38 0 0 Z " fill="#181919" transform="translate(157,77)"/>
<path d="M0 0 C0.66 0 1.32 0 2 0 C1.814375 0.7425 1.62875 1.485 1.4375 2.25 C1.00796892 4.94990963 1.14877026 6.44631077 2 9 C1.34 9 0.68 9 0 9 C-0.33 9.99 -0.66 10.98 -1 12 C-2.1875 9.9375 -2.1875 9.9375 -3 7 C-2.27873258 4.45187276 -1.21291073 2.37917104 0 0 Z " fill="#EBECED" transform="translate(155,61)"/>
<path d="M0 0 C0.98120464 3.05263664 0.98120464 4.94736336 0 8 C-0.99 8 -1.98 8 -3 8 C-3 3.73173127 -2.62386487 3.06117568 0 0 Z " fill="#181818" transform="translate(251,56)"/>
<path d="M0 0 C1 1.75 1 1.75 1 3.75 C-2.63 3.09 -6.26 2.43 -10 1.75 C-10 1.42 -10 1.09 -10 0.75 C-2.52516411 -1.57822757 -2.52516411 -1.57822757 0 0 Z " fill="#DCDCDC" transform="translate(93,163.25)"/>
<path d="M0 0 C0.33 0 0.66 0 1 0 C1.33 1.65 1.66 3.3 2 5 C3.65 5.33 5.3 5.66 7 6 C6.34 7.65 5.68 9.3 5 11 C0.125 6.375 0.125 6.375 -1 3 C-0.67 2.01 -0.34 1.02 0 0 Z " fill="#E8E9E9" transform="translate(191,104)"/>
<path d="M0 0 C0.99 0 1.98 0 3 0 C6 5.625 6 5.625 6 9 C5.34 9 4.68 9 4 9 C0 3.70588235 0 3.70588235 0 0 Z " fill="#ECECEC" transform="translate(103,102)"/>
<path d="M0 0 C0.66 0 1.32 0 2 0 C1.67 1.98 1.34 3.96 1 6 C-0.32 6.33 -1.64 6.66 -3 7 C-3 3.47967572 -2.29648649 2.5614657 0 0 Z " fill="#151716" transform="translate(267,37)"/>
<path d="M0 0 C3.3 0.66 6.6 1.32 10 2 C10 2.33 10 2.66 10 3 C6.92382812 3.29296875 6.92382812 3.29296875 3.84765625 3.5859375 C3.23792969 3.72257812 2.62820312 3.85921875 2 4 C1.67 4.66 1.34 5.32 1 6 C0.34 6 -0.32 6 -1 6 C-1.33 4.68 -1.66 3.36 -2 2 C-1.34 2 -0.68 2 0 2 C0 1.34 0 0.68 0 0 Z " fill="#020305" transform="translate(218,25)"/>
<path d="M0 0 C1.32 1.32 2.64 2.64 4 4 C1 6 1 6 -2.1875 5.625 C-3.115625 5.41875 -4.04375 5.2125 -5 5 C-4.34 4.34 -3.68 3.68 -3 3 C-2.01 3 -1.02 3 0 3 C0 2.01 0 1.02 0 0 Z " fill="#E4E5E5" transform="translate(58,155)"/>
<path d="M0 0 C0.33 0.99 0.66 1.98 1 3 C-0.8125 6.1875 -0.8125 6.1875 -3 9 C-3.66 9 -4.32 9 -5 9 C-5 7.68 -5 6.36 -5 5 C-4.34 5 -3.68 5 -3 5 C-2.5359375 4.0409375 -2.5359375 4.0409375 -2.0625 3.0625 C-1 1 -1 1 0 0 Z " fill="#EFEEEF" transform="translate(112,150)"/>
<path d="M0 0 C0.99 0 1.98 0 3 0 C4.32 2.31 5.64 4.62 7 7 C6.01 7 5.02 7 4 7 C3.34 6.01 2.68 5.02 2 4 C1.01 4.495 1.01 4.495 0 5 C0 3.35 0 1.7 0 0 Z " fill="#181818" transform="translate(49,71)"/>
<path d="M0 0 C0 2.42797311 -0.50085685 4.62907005 -1 7 C-4.875 2.25 -4.875 2.25 -6 0 C-2.25 -1.125 -2.25 -1.125 0 0 Z " fill="#181818" transform="translate(63,66)"/>
<path d="M0 0 C0.33 0.99 0.66 1.98 1 3 C0.01 4.485 0.01 4.485 -1 6 C-1.66 6 -2.32 6 -3 6 C-3.66 4.35 -4.32 2.7 -5 1 C-2 0 -2 0 0 0 Z " fill="#E6EBEB" transform="translate(81,107)"/>
<path d="M0 0 C3.36720387 1.39332574 4.9859524 2.9789286 7 6 C2.25 5.25 2.25 5.25 0 3 C0 2.01 0 1.02 0 0 Z " fill="#E2E2E2" transform="translate(346,153)"/>
<path d="M0 0 C0.99 0 1.98 0 3 0 C3 0.66 3 1.32 3 2 C3.66 2.33 4.32 2.66 5 3 C4.38125 3.28875 3.7625 3.5775 3.125 3.875 C0.86674235 4.93720042 0.86674235 4.93720042 -1 7 C-1.625 4.625 -1.625 4.625 -2 2 C-1.34 1.34 -0.68 0.68 0 0 Z " fill="#030406" transform="translate(75,112)"/>
<path d="M0 0 C0.99 0.66 1.98 1.32 3 2 C2.34 3.32 1.68 4.64 1 6 C0.01 6 -0.98 6 -2 6 C-1.125 1.125 -1.125 1.125 0 0 Z " fill="#F9F9FA" transform="translate(331,89)"/>
<path d="M0 0 C1.35015859 4.05047576 0.62084998 6.7920168 0 11 C-1.32 10.34 -2.64 9.68 -4 9 C-2.80100302 5.9168649 -1.52299523 2.93720508 0 0 Z " fill="#1F2022" transform="translate(100,79)"/>
<path d="M0 0 C0.66 0.33 1.32 0.66 2 1 C2.625 4.0625 2.625 4.0625 3 7 C2.01 7 1.02 7 0 7 C-1 5 -2 3 -3 1 C-2.01 0.67 -1.02 0.34 0 0 Z " fill="#111315" transform="translate(359,160)"/>
<path d="M0 0 C0.87840996 3.09720845 0.99435406 4.90645403 0 8 C-0.66 8 -1.32 8 -2 8 C-2.33 9.32 -2.66 10.64 -3 12 C-4 10 -4 10 -3.22265625 7.6171875 C-2.83980469 6.71226562 -2.45695313 5.80734375 -2.0625 4.875 C-1.68222656 3.96492187 -1.30195313 3.05484375 -0.91015625 2.1171875 C-0.60980469 1.41851562 -0.30945313 0.71984375 0 0 Z " fill="#1D1F1E" transform="translate(181,147)"/>
<path d="M0 0 C1.99097846 2.98646769 2.94124926 5.59687262 4 9 C2.68 8.67 1.36 8.34 0 8 C-1.125 2.25 -1.125 2.25 0 0 Z " fill="#1E1E20" transform="translate(157,139)"/>
<path d="M0 0 C2.475 0.99 2.475 0.99 5 2 C5 2.99 5 3.98 5 5 C3.35 5 1.7 5 0 5 C0 3.35 0 1.7 0 0 Z " fill="#0E0F10" transform="translate(316,139)"/>
<path d="M0 0 C0.33 0 0.66 0 1 0 C1.125 3.375 1.125 3.375 1 7 C0.34 7.66 -0.32 8.32 -1 9 C-1.66 8.67 -2.32 8.34 -3 8 C-2.37240135 5.07120629 -1.41377341 2.63904371 0 0 Z " fill="#040605" transform="translate(109,132)"/>
<path d="M0 0 C0.66 0 1.32 0 2 0 C3.4606285 2.64738916 4 3.89448334 4 7 C3.34 7 2.68 7 2 7 C2 6.34 2 5.68 2 5 C1.01 5 0.02 5 -1 5 C-0.67 3.35 -0.34 1.7 0 0 Z " fill="#1D1E1D" transform="translate(143,107)"/>
<path d="M0 0 C2.5 1.375 2.5 1.375 5 3 C5 3.66 5 4.32 5 5 C5.66 5.33 6.32 5.66 7 6 C6.01 6.33 5.02 6.66 4 7 C2 5.1875 2 5.1875 0 3 C0 2.01 0 1.02 0 0 Z " fill="#171918" transform="translate(279,98)"/>
<path d="M0 0 C0.33 1.32 0.66 2.64 1 4 C0.01 4.495 0.01 4.495 -1 5 C-0.34 5.33 0.32 5.66 1 6 C1 6.66 1 7.32 1 8 C-0.65 8.33 -2.3 8.66 -4 9 C-2.80100302 5.9168649 -1.52299523 2.93720508 0 0 Z " fill="#1F201F" transform="translate(90,95)"/>
<path d="M0 0 C1.24546405 2.49092811 0.7767578 3.41080733 0 6 C-2.97 5.505 -2.97 5.505 -6 5 C-2.25 1.125 -2.25 1.125 0 0 Z " fill="#E8E8E8" transform="translate(60,89)"/>
<path d="M0 0 C2.475 0.495 2.475 0.495 5 1 C4.835 1.598125 4.67 2.19625 4.5 2.8125 C3.8885876 5.11344336 3.8885876 5.11344336 4 8 C3.01 7.01 2.02 6.02 1 5 C1.33 4.34 1.66 3.68 2 3 C1.34 3 0.68 3 0 3 C0 2.01 0 1.02 0 0 Z " fill="#FAFBFC" transform="translate(149,76)"/>
<path d="M0 0 C-1.04874998 2.62187494 -1.64931313 3.79371361 -4.125 5.25 C-4.74375 5.4975 -5.3625 5.745 -6 6 C-6 5.01 -6 4.02 -6 3 C-2.66666667 0 -2.66666667 0 0 0 Z " fill="#EEEFF0" transform="translate(103,162)"/>
<path d="M0 0 C1.32 0.99 2.64 1.98 4 3 C3.01 3.99 2.02 4.98 1 6 C-0.32 4.68 -1.64 3.36 -3 2 C-2.01 1.34 -1.02 0.68 0 0 Z " fill="#FCFCFD" transform="translate(347,157)"/>
<path d="M0 0 C2.475 0.495 2.475 0.495 5 1 C5 3.64 5 6.28 5 9 C3.05731159 6.08596738 1.53604696 3.14191424 0 0 Z " fill="#141414" transform="translate(112,103)"/>
<path d="M0 0 C0.66 0.33 1.32 0.66 2 1 C2 1.99 2 2.98 2 4 C0 5.6875 0 5.6875 -2 7 C-2.6875 5.1875 -2.6875 5.1875 -3 3 C-1.5625 1.25 -1.5625 1.25 0 0 Z " fill="#050505" transform="translate(52,90)"/>
<path d="M0 0 C0.33 0.99 0.66 1.98 1 3 C1.66 3 2.32 3 3 3 C2.67 4.32 2.34 5.64 2 7 C1.34 7 0.68 7 0 7 C-0.66 5.35 -1.32 3.7 -2 2 C-1.34 1.34 -0.68 0.68 0 0 Z " fill="#121313" transform="translate(197,76)"/>
<path d="M0 0 C0.99 0 1.98 0 3 0 C4.75 2.25 4.75 2.25 6 5 C5.67 6.32 5.34 7.64 5 9 C3.35 6.03 1.7 3.06 0 0 Z " fill="#1C1D1F" transform="translate(41,41)"/>
<path d="M0 0 C1.9375 0.375 1.9375 0.375 4 1 C4.33 1.66 4.66 2.32 5 3 C4.34 3.66 3.68 4.32 3 5 C1.68 4.34 0.36 3.68 -1 3 C-0.67 2.01 -0.34 1.02 0 0 Z " fill="#0D0D0F" transform="translate(340,161)"/>
<path d="M0 0 C1.32 0.33 2.64 0.66 4 1 C4 1.99 4 2.98 4 4 C3.34 4 2.68 4 2 4 C1.67 4.99 1.34 5.98 1 7 C0.67 4.69 0.34 2.38 0 0 Z " fill="#FBFCFC" transform="translate(162,138)"/>
<path d="M0 0 C0.66 0 1.32 0 2 0 C2.66 2.64 3.32 5.28 4 8 C3.54625 7.505 3.0925 7.01 2.625 6.5 C1.12364481 4.77390663 1.12364481 4.77390663 -1 5 C-0.67 3.35 -0.34 1.7 0 0 Z " fill="#D8D7D5" transform="translate(47,136)"/>
<path d="M0 0 C0.66 0.33 1.32 0.66 2 1 C2.625 3.5625 2.625 3.5625 3 6 C1.35 6 -0.3 6 -2 6 C-1.49396008 3.83125748 -1.00016187 2.00032373 0 0 Z " fill="#181818" transform="translate(149,120)"/>
<path d="M0 0 C0.66 0 1.32 0 2 0 C3.625 2 3.625 2 5 4 C4.01 4.66 3.02 5.32 2 6 C1.01 5.01 0.02 4.02 -1 3 C-0.67 2.01 -0.34 1.02 0 0 Z " fill="#171719" transform="translate(258,72)"/>
<path d="M0 0 C0.66 0.33 1.32 0.66 2 1 C1.39009109 4.55780196 0.4216319 7.6828589 -1 11 C-2.23825459 7.28523623 -1.70587257 4.81171187 -1 1 C-0.67 0.67 -0.34 0.34 0 0 Z " fill="#111111" transform="translate(161,41)"/>
<path d="M0 0 C1.32 0 2.64 0 4 0 C6.25 2.5 6.25 2.5 8 5 C5.36 4.34 2.72 3.68 0 3 C0 2.01 0 1.02 0 0 Z " fill="#242527" transform="translate(312,133)"/>
<path d="M0 0 C-0.6875 1.9375 -0.6875 1.9375 -2 4 C-4.625 4.75 -4.625 4.75 -7 5 C-7 4.34 -7 3.68 -7 3 C-2.61538462 0 -2.61538462 0 0 0 Z " fill="#212121" transform="translate(333,128)"/>
<path d="M0 0 C1.98 0.66 3.96 1.32 6 2 C6.33 1.34 6.66 0.68 7 0 C7 0.66 7 1.32 7 2 C7.66 2.33 8.32 2.66 9 3 C5.23375329 4.25541557 3.62811066 3.37061958 0 2 C0 1.34 0 0.68 0 0 Z " fill="#262729" transform="translate(135,112)"/>
<path d="M0 0 C1.65 0 3.3 0 5 0 C5.33 0.66 5.66 1.32 6 2 C5.34 2 4.68 2 4 2 C3.67 2.66 3.34 3.32 3 4 C2.01 3.67 1.02 3.34 0 3 C0 2.01 0 1.02 0 0 Z " fill="#161616" transform="translate(75,92)"/>
<path d="M0 0 C2.475 0.495 2.475 0.495 5 1 C5.33 1.99 5.66 2.98 6 4 C5.01 4.33 4.02 4.66 3 5 C1.5 3.625 1.5 3.625 0 2 C0 1.34 0 0.68 0 0 Z " fill="#111416" transform="translate(328,84)"/>
<path d="M0 0 C0.66 0.99 1.32 1.98 2 3 C1.34 4.32 0.68 5.64 0 7 C-1.32 6.67 -2.64 6.34 -4 6 C-2.68 4.02 -1.36 2.04 0 0 Z " fill="#DEDFE0" transform="translate(106,56)"/>
</svg>
