<?xml version="1.0" encoding="UTF-8"?>
<svg version="1.1" xmlns="http://www.w3.org/2000/svg" width="4823" height="1139">
<path d="M0 0 C96.17113213 -2.1998734 188.14744577 33.98227202 258.52246094 99.06640625 C261.92152172 102.33088583 265.27703072 105.63512044 268.60913086 108.96777344 C270.08202066 110.43847035 271.56276359 111.90094159 273.04394531 113.36328125 C279.31282628 119.59526152 285.03378852 126.13204755 290.52246094 133.06640625 C291.52356826 134.28615676 292.52709971 135.5039261 293.53417969 136.71875 C344.6477944 199.14623512 373.69129505 279.56162012 373.66722107 360.26359558 C373.67036148 361.97377981 373.67393781 363.68396328 373.67790848 365.39414579 C373.68753451 370.06167752 373.69114508 374.72919702 373.69375145 379.39673722 C373.69766748 384.44325913 373.70730358 389.48977046 373.71630859 394.5362854 C373.73120812 403.27319814 373.74277033 412.01011005 373.75225639 420.74703026 C373.76617074 433.39859365 373.78736462 446.05013735 373.81068493 458.70168654 C373.84855893 479.25627922 373.88353269 499.81087546 373.9152832 520.36547852 C373.9171837 521.59451054 373.91908419 522.82354256 373.92104227 524.08981798 C373.94786523 541.52512007 373.97174533 558.96042495 373.99442727 576.39573286 C373.99602457 577.62324892 373.99762187 578.85076499 373.99926758 580.11547852 C374.00086104 581.34148902 374.00245451 582.56749952 374.00409626 583.83066186 C374.03090401 604.30473962 374.06531796 624.77879628 374.10592133 645.25285131 C374.13063075 657.86527271 374.14899396 670.47767147 374.15907694 683.0901132 C374.16649273 691.73926448 374.18105627 700.38838531 374.20114117 709.03751638 C374.21248051 714.0199789 374.22067001 719.00239242 374.22013283 723.984869 C374.21970112 728.55773328 374.22855398 733.13048772 374.24438263 737.70332376 C374.24849369 739.34590442 374.24936451 740.9884976 374.24641853 742.63108077 C374.22208565 758.11460523 375.41112873 773.36502225 379.14746094 788.44140625 C379.40760986 789.49811523 379.66775879 790.55482422 379.93579102 791.64355469 C391.50322388 836.69244891 420.98148809 875.64834571 460.71386719 899.640625 C501.0917847 923.24202391 549.48453375 930.39059861 594.91723633 919.11645508 C625.92976156 910.92615534 653.49860126 895.12028671 676.12792969 872.45703125 C677.50882315 871.07839047 678.90470081 869.71375914 680.33886719 868.390625 C707.25164098 843.16366255 726.38875583 800.01710872 727.62093365 763.11747551 C727.66483122 759.51490183 727.67794321 755.91339056 727.68067932 752.31054688 C727.68525077 750.91358328 727.69025164 749.51662104 727.69564289 748.11966038 C727.70916707 744.29540775 727.71662569 740.47116396 727.72306955 736.64689374 C727.73109875 732.51746926 727.7447878 728.38806303 727.75778198 724.25865173 C727.77950908 717.10895359 727.79766729 709.95925357 727.81338692 702.80953979 C727.83611992 692.47231201 727.86425795 682.13510446 727.8937062 671.79789388 C727.9413401 655.02559055 727.98461564 638.25327892 728.02514648 621.48095703 C728.06452281 605.19026037 728.10595415 588.89957106 728.15014648 572.60888672 C728.15287076 571.604371 728.15559503 570.59985528 728.15840185 569.56489968 C728.17208169 564.52543265 728.18580189 559.48596574 728.19954216 554.44649887 C728.31344092 512.65315001 728.42026484 470.85978526 728.52246094 429.06640625 C731.88708142 429.69133034 734.42394309 430.35752384 737.35058594 432.1484375 C738.41369995 432.79534546 738.41369995 432.79534546 739.49829102 433.45532227 C740.24876709 433.92510498 740.99924316 434.3948877 741.77246094 434.87890625 C742.95521606 435.61161743 742.95521606 435.61161743 744.16186523 436.35913086 C778.45214652 457.84479181 810.60751851 485.08158272 835.52246094 517.06640625 C835.98797363 517.65405762 836.45348633 518.24170898 836.93310547 518.84716797 C888.12701768 583.52949214 916.71775145 663.38200788 916.77246094 745.94140625 C916.77347305 747.32335175 916.77347305 747.32335175 916.77450562 748.73321533 C916.66967833 839.51364669 882.56868471 930.85751432 819.09667969 996.578125 C817.78714007 997.87286756 816.47150342 999.16149852 815.14746094 1000.44140625 C813.29876564 1002.2356042 813.29876564 1002.2356042 811.02246094 1005.12890625 C808.40906285 1008.19964901 805.61223753 1010.68285801 802.54980469 1013.2890625 C800.67210962 1014.93521136 798.94118396 1016.64375741 797.20996094 1018.44140625 C792.64775447 1023.0545302 787.60056604 1027.04182059 782.52246094 1031.06640625 C781.85746582 1031.59717773 781.1924707 1032.12794922 780.50732422 1032.67480469 C770.49267763 1040.65314732 760.37170311 1048.25939865 749.52246094 1055.06640625 C748.79929687 1055.52192871 748.07613281 1055.97745117 747.33105469 1056.44677734 C663.65667549 1108.77865959 563.73369646 1125.2703003 467.58959961 1103.55517578 C410.46008164 1090.06458991 356.57264861 1062.96629688 312.52246094 1024.06640625 C311.678125 1023.32132813 310.83378906 1022.57625 309.96386719 1021.80859375 C307.46661385 1019.57904597 304.99347691 1017.32498193 302.52246094 1015.06640625 C301.48235835 1014.13121894 300.441979 1013.19633939 299.40136719 1012.26171875 C291.99181208 1005.56705318 285.1206253 998.56357344 278.52246094 991.06640625 C278.06049316 990.54916992 277.59852539 990.03193359 277.12255859 989.49902344 C226.49028559 932.73949903 195.5536739 860.51811297 187.52246094 785.06640625 C187.43445486 784.3039723 187.34644879 783.54153835 187.25577587 782.75600034 C186.36028791 774.24479931 186.37514421 765.7582198 186.37770081 757.21257019 C186.37456188 755.51521243 186.37098589 753.81785544 186.36701339 752.12049943 C186.35736934 747.4789746 186.35377376 742.83746207 186.35117042 738.19592869 C186.34725976 733.18065188 186.33762309 728.16538576 186.32861328 723.15011597 C186.31370198 714.46337796 186.30214476 705.77664079 186.29266548 697.08989525 C186.27875648 684.50647179 186.2575625 671.92306817 186.23423695 659.33965901 C186.19634587 638.89058791 186.16137859 618.44151321 186.12963867 597.99243164 C186.12773818 596.76929909 186.12583769 595.54616653 186.1238796 594.28596935 C186.0970764 576.94758871 186.07319273 559.60920526 186.0504946 542.27081881 C186.0488973 541.05102135 186.0473 539.8312239 186.0456543 538.57446289 C186.04406083 537.35616255 186.04246737 536.1378622 186.04082561 534.88264366 C186.01399748 514.52161111 185.9795728 494.1605997 185.93900055 473.79958993 C185.91431464 461.25948021 185.89593839 448.71939314 185.88584494 436.17926303 C185.87841681 427.57304766 185.86383501 418.96686274 185.8437807 410.36066761 C185.83246489 405.40607714 185.82425032 400.45153562 185.82478905 395.49693108 C186.1775699 361.31490867 186.1775699 361.31490867 181.39746094 327.56640625 C181.18428223 326.62684082 180.97110352 325.68727539 180.75146484 324.71923828 C173.90053682 295.98752965 160.15222255 268.88600061 139.74902344 247.4140625 C137.76227732 245.31926528 135.92224835 243.16617845 134.08496094 240.94140625 C129.77560781 235.99921105 124.66964507 232.09580137 119.52246094 228.06640625 C118.52085937 227.24914062 117.51925781 226.431875 116.48730469 225.58984375 C108.3697127 219.03577167 99.78408159 213.84659755 90.52246094 209.06640625 C89.51723389 208.54433594 89.51723389 208.54433594 88.49169922 208.01171875 C47.07226072 186.78837054 -1.11518834 183.11015461 -45.47753906 197.06640625 C-90.94496809 211.75701337 -127.6530858 243.70023795 -149.4921875 286.03320312 C-156.39064802 299.62284647 -161.4662276 313.61058389 -164.72753906 328.50390625 C-164.87868164 329.18114746 -165.02982422 329.85838867 -165.18554688 330.55615234 C-168.96027284 349.15285531 -168.78687356 368.03497133 -168.79421329 386.9172107 C-168.79795363 390.9162538 -168.81313118 394.91525698 -168.826828 398.91427612 C-168.84896116 405.82096106 -168.86405766 412.72763153 -168.8741951 419.6343441 C-168.88886206 429.61993931 -168.91442059 439.60548405 -168.94252639 449.59104941 C-168.98784981 465.79709567 -169.0245239 482.00314925 -169.05566406 498.20922852 C-169.0859091 513.93971033 -169.12028644 529.67017428 -169.16015625 545.40063477 C-169.1626178 546.37239057 -169.16507935 547.34414638 -169.16761549 548.34534933 C-169.17999124 553.22099875 -169.19244755 558.09664796 -169.2049439 562.97229707 C-169.30829503 603.33697524 -169.39756924 643.70167542 -169.47753906 684.06640625 C-173.26396523 682.83982405 -176.59072897 681.59877295 -179.98925781 679.51953125 C-180.82005859 679.01147949 -181.65085938 678.50342773 -182.50683594 677.97998047 C-183.82264648 677.15651123 -183.82264648 677.15651123 -185.16503906 676.31640625 C-186.08478516 675.74293457 -187.00453125 675.16946289 -187.95214844 674.57861328 C-202.3089919 665.5034941 -215.72154375 655.26455731 -228.47753906 644.06640625 C-229.57582031 643.11701172 -229.57582031 643.11701172 -230.69628906 642.1484375 C-232.63515577 640.46731696 -234.557625 638.76911791 -236.47753906 637.06640625 C-237.57388672 636.10927734 -237.57388672 636.10927734 -238.69238281 635.1328125 C-243.84517759 630.5813163 -248.79430777 625.853269 -253.66503906 621.00390625 C-254.23496582 620.43857178 -254.80489258 619.8732373 -255.39208984 619.29077148 C-319.98767431 554.46202364 -356.96530202 460.95678174 -356.80145264 369.84683228 C-356.79768616 368.78491669 -356.79391968 367.7230011 -356.79003906 366.62890625 C-356.78788391 365.53146088 -356.78572876 364.4340155 -356.7835083 363.30331421 C-356.60508412 306.54018848 -343.58132519 252.0346993 -318.47753906 201.06640625 C-318.08211914 200.26170898 -317.68669922 199.45701172 -317.27929688 198.62792969 C-302.93231843 169.7693561 -283.86703139 143.1930344 -261.89550781 119.66796875 C-259.84767236 117.46464337 -257.86877015 115.22759042 -255.91503906 112.94140625 C-249.3466594 105.38305549 -242.08758436 98.55579419 -234.47753906 92.06640625 C-233.03894531 90.79410156 -233.03894531 90.79410156 -231.57128906 89.49609375 C-216.59443818 76.31457515 -200.53285061 64.4210153 -183.47753906 54.06640625 C-182.7042627 53.5967041 -181.93098633 53.12700195 -181.13427734 52.64306641 C-125.96473714 19.47493963 -64.28034241 1.72292601 0 0 Z " fill="#231F20" transform="translate(356.4775390625,12.93359375)"/>
<path d="M0 0 C21.12 0 42.24 0 64 0 C68.49927413 11.24818532 68.49927413 11.24818532 70.06787109 15.99243164 C70.42279633 17.06058609 70.77772156 18.12874054 71.1434021 19.22926331 C71.51631378 20.36145798 71.88922546 21.49365265 72.2734375 22.66015625 C72.89377533 24.52913585 73.51411548 26.39811469 74.13456154 28.26705837 C75.00150687 30.88094089 75.86572108 33.49572274 76.7298584 36.11053467 C78.61551743 41.81585742 80.50540283 47.5197769 82.3984375 53.22265625 C82.61603981 53.87847813 82.83364212 54.5343 83.05783844 55.20999527 C86.54763633 65.71999199 90.11040029 76.20390184 93.70132828 86.67973137 C99.38862474 103.27144305 104.99184161 119.88956503 110.53125 136.53125 C110.8966048 137.6287602 111.26195961 138.72627041 111.63838577 139.8570385 C114.63829028 148.87066033 117.63424198 157.88559504 120.63006592 166.90057373 C123.24114448 174.7572373 125.85372924 182.61339762 128.46875 190.46875 C128.83500992 191.56905045 129.20126984 192.66935089 129.57862854 193.80299377 C134.32548539 208.056291 139.12561937 222.28983064 144 236.5 C149.25446973 251.81823435 154.41651043 267.16579517 159.53125 282.53125 C159.89722794 283.63062393 160.26320587 284.72999786 160.64027405 285.86268616 C163.63954939 294.87442535 166.63486797 303.88747874 169.63006592 312.90057373 C172.24114448 320.7572373 174.85374728 328.61339161 177.46875 336.46875 C177.83245508 337.56140671 178.19616016 338.65406342 178.57088661 339.77983093 C184.04171869 356.20748911 189.5959588 372.60500948 195.21025085 388.98413086 C200.58055347 404.65650754 205.80804384 420.37414217 211.00317383 436.10546875 C212.15193206 439.58157217 213.30425149 443.05647858 214.45703125 446.53125 C214.80167923 447.57865356 215.14632721 448.62605713 215.50141907 449.7052002 C215.81652939 450.65390991 216.13163971 451.60261963 216.45629883 452.58007812 C216.86927971 453.83020691 216.86927971 453.83020691 217.29060364 455.10559082 C217.84425942 456.98233518 217.84425942 456.98233518 219 458 C219.25705719 457.22660782 219.51411438 456.45321564 219.77896118 455.65638733 C222.27468915 448.14865668 224.77209192 440.64148577 227.27111244 433.1348505 C228.55397413 429.2811773 229.83631583 425.42733319 231.1171875 421.57299805 C236.8983031 404.17819818 242.73619878 386.80487586 248.6796875 369.46484375 C254.03930485 353.82450585 259.30945265 338.15562645 264.53125 322.46875 C264.89676342 321.37077528 265.26227684 320.27280056 265.63886642 319.14155388 C268.26140976 311.26175552 270.88102105 303.38098364 273.5 295.5 C276.48760373 286.50975739 279.47644819 277.51993014 282.46875 268.53125 C283.01813988 266.88079933 283.01813988 266.88079933 283.57862854 265.19700623 C288.59936449 250.1213374 293.68799078 235.07070096 298.84359741 220.04067993 C303.81483511 205.54163985 308.69027544 191.01177315 313.53125 176.46875 C314.0802169 174.8196891 314.0802169 174.8196891 314.64027405 173.13731384 C317.26234795 165.25892875 319.88149068 157.37957044 322.5 149.5 C325.48760373 140.50975739 328.47645492 131.51993238 331.46875 122.53125 C331.83245508 121.43861406 332.19616016 120.34597813 332.57088661 119.22023201 C338.04228365 102.79124908 343.59600928 86.39199623 349.21025085 70.01133728 C354.16330472 55.55638254 359.00691549 41.06717971 363.8125 26.5625 C364.99109336 23.00642019 366.17023061 19.45052593 367.35124207 15.89524841 C368.06939484 13.73333792 368.78619858 11.57097866 369.50141907 9.40809631 C369.97408455 7.98514503 369.97408455 7.98514503 370.45629883 6.53344727 C370.86927971 5.2866494 370.86927971 5.2866494 371.29060364 4.0146637 C372 2 372 2 373 0 C394.45 0 415.9 0 438 0 C441.93273821 36.58853189 441.93273821 36.58853189 443.43501282 50.56591797 C443.528646 51.43709483 443.62227919 52.3082717 443.71874974 53.20584786 C452.36312149 133.6345116 461.00450678 214.06349579 469.64222717 294.49287415 C469.86018178 296.52233321 470.07813648 298.55179227 470.29609126 300.58125132 C470.45696679 302.07922472 470.45696679 302.07922472 470.62109232 303.6074602 C470.83639312 305.61220765 471.051694 307.61695509 471.26699498 309.62170252 C471.79696205 314.55642476 472.32692667 319.49114726 472.85688627 324.4258703 C475.57883377 349.77120108 478.30190922 375.11641028 481.02636477 400.46147157 C483.20428214 420.7222955 485.38033773 440.98331805 487.55291176 461.24471569 C488.69358876 471.88220347 489.8359862 482.51950302 490.98090142 493.15653551 C491.73434975 500.15819075 492.48556142 507.16008338 493.23477584 514.16219294 C493.64930355 518.0358119 494.06477409 521.9093225 494.48311424 525.78253174 C494.91980618 529.82577118 495.35167271 533.86951046 495.78295898 537.91333008 C495.97171286 539.6497034 495.97171286 539.6497034 496.16427994 541.42115498 C496.27610989 542.47740165 496.38793983 543.53364832 496.50315857 544.62190247 C496.59999152 545.52390286 496.69682447 546.42590326 496.79659176 547.35523701 C497.01762274 550.22913505 497 553.11761476 497 556 C476.87 556 456.74 556 436 556 C433.24842343 532.8965367 430.63527884 509.78488965 428.15401793 486.65116513 C427.66723883 482.11631046 427.17846585 477.58167056 426.69000244 473.04699707 C425.63055489 463.20801123 424.57362091 453.36875644 423.51726055 443.52943873 C422.85630445 437.37316078 422.1948069 431.21694108 421.53321075 425.06073189 C419.69609472 407.96540165 417.85956124 390.8700091 416.02541733 373.7743597 C415.90885336 372.68789887 415.79228939 371.60143804 415.67219318 370.48205415 C415.43599703 368.28051668 415.19980102 366.0789792 414.96360514 363.8774417 C414.84638693 362.78488057 414.72916871 361.69231943 414.60839844 360.56665039 C414.49103585 359.47273893 414.37367327 358.37882746 414.25275424 357.25176717 C412.34247665 339.44757796 410.42779224 321.64386561 408.51124164 303.84035068 C406.5367878 285.49838388 404.56590353 267.15603642 402.59863687 248.81329733 C401.49660589 238.53875714 400.39305999 228.2643848 399.28557587 217.99043083 C398.34516845 209.26624848 397.40802809 200.54172298 396.47515556 191.81673156 C395.99957808 187.36965602 395.52246415 182.92275963 395.04118347 178.47629738 C394.60053024 174.40483481 394.16430569 170.33292267 393.73156288 166.26061196 C393.57453391 164.7902357 393.41590184 163.32002953 393.25547788 161.85001981 C392.45751266 154.52991062 391.80719505 147.36584689 392 140 C391.34 140 390.68 140 390 140 C389.67515625 141.72669922 389.67515625 141.72669922 389.34375 143.48828125 C387.86980934 150.07145933 385.57200791 156.38019781 383.35302734 162.73999023 C381.79464943 167.21129493 380.25614223 171.68941235 378.71875 176.16796875 C378.36538574 177.19727509 378.01202148 178.22658142 377.64794922 179.28707886 C372.28471647 194.95745042 367.08929686 210.6845733 361.86404419 226.40134048 C347.24193754 270.37811512 347.24193754 270.37811512 340.24804688 290.68310547 C333.68997331 309.74093433 327.36205436 328.87610495 321 348 C307.02445852 390.00951037 307.02445852 390.00951037 300.24804688 409.68310547 C293.39295166 429.60408229 286.78556604 449.60858149 280.13550949 469.59865952 C271.93344771 494.25313784 263.69224688 518.89145026 255.21313477 543.45239258 C253.78556783 547.62707061 252.39520192 551.81439423 251 556 C229.88 556 208.76 556 187 556 C184.70574697 550.26436742 182.49482206 544.73400096 180.56494141 538.90600586 C180.3527597 538.26814651 180.140578 537.63028717 179.92196655 536.97309875 C179.22904881 534.88792557 178.54035689 532.80138221 177.8515625 530.71484375 C177.35304825 529.21299426 176.85421017 527.71125224 176.35507202 526.20960999 C175.03944885 522.24949378 173.72714878 518.28828556 172.41589355 514.32672119 C170.106635 507.35065033 167.79306948 500.37601079 165.4765625 493.40234375 C165.21599815 492.61763577 164.95543381 491.83292778 164.68697357 491.02444077 C160.58293448 478.67213561 156.39999886 466.34816807 152.1796875 454.03515625 C147.16762267 439.40998123 142.22565102 424.7628953 137.34375 410.09375 C137.0221629 409.1275429 136.70057579 408.16133579 136.36924362 407.16584969 C133.74869103 399.2903574 131.13211364 391.41354556 128.51568604 383.53668213 C126.2310527 376.65925695 123.94486929 369.78234985 121.65625 362.90625 C121.33444763 361.9393222 121.01264526 360.97239441 120.68109131 359.97616577 C115.8904337 345.58961202 111.02220757 331.23110883 106.10527039 316.88728333 C101.52776327 303.52903017 97.02134159 290.14832276 92.5625 276.75 C92.25163956 275.81597855 91.94077911 274.88195709 91.62049866 273.91963196 C89.09500026 266.32931904 86.57348647 258.73768365 84.05212402 251.14599609 C81.84910339 244.51338006 79.64451475 237.88128813 77.4375 231.25 C76.97414749 229.85766144 76.97414749 229.85766144 76.50143433 228.43719482 C71.41190456 213.15246309 66.24117829 197.89645102 61.00561523 182.66113281 C57.71657207 173.08147936 54.48517029 163.48381533 51.28662109 153.87353516 C50.87276657 152.63098465 50.45891205 151.38843414 50.03251648 150.10823059 C49.02137582 147.07225409 48.01054373 144.03617523 47 141 C41.32688668 191.73039815 35.75852806 242.47089225 30.32590467 293.22759647 C29.38037032 302.06089791 28.43283203 310.89398414 27.48522031 319.72706293 C25.79645875 335.46904262 24.10892867 351.21115402 22.42236328 366.95336914 C20.79351007 382.15686025 19.16438068 397.3603217 17.53466797 412.5637207 C17.43305304 413.51167743 17.33143811 414.45963416 17.22674394 415.43631686 C15.53303537 431.23654356 13.83875693 447.03670912 12.14420891 462.83684582 C11.10728071 472.50563187 10.07094224 482.17448082 9.03539461 491.84341484 C8.33134392 498.41695976 7.62682638 504.99045454 6.92193991 511.5639099 C6.51633517 515.34659772 6.11096742 519.12931057 5.70622063 522.9120903 C5.26771006 527.01040869 4.82811788 531.10861036 4.38842773 535.20680237 C4.26129646 536.39669708 4.13416519 537.5865918 4.00318146 538.81254393 C3.82564205 540.46488804 3.82564205 540.46488804 3.64451599 542.15061283 C3.54345267 543.0939778 3.44238935 544.03734278 3.33826351 545.00929457 C2.92348009 548.67653918 2.45776595 552.33787238 2 556 C-18.13 556 -38.26 556 -59 556 C-57.85137895 536.47344214 -57.85137895 536.47344214 -57.10001945 529.65029716 C-57.01485573 528.84589052 -56.929692 528.04148387 -56.84194756 527.21270126 C-56.56200175 524.57764761 -56.27638707 521.94324335 -55.99069214 519.30880737 C-55.78410845 517.3756669 -55.5778811 515.44248832 -55.37197506 513.50927556 C-54.8099033 508.24176985 -54.24281948 502.97481445 -53.67485523 497.70794129 C-53.06101358 492.00722944 -52.45189758 486.30601236 -51.84217834 480.6048584 C-50.64749386 469.44095903 -49.44850667 458.27752581 -48.24808054 447.11424254 C-46.84375845 434.05316345 -45.44386894 420.9916104 -44.04416956 407.93003525 C-41.53930827 384.556024 -39.03050365 361.1824375 -36.51953125 337.80908203 C-34.09807738 315.26898607 -31.67896114 292.728641 -29.26269531 270.18798828 C-29.15156949 269.15133576 -29.15156949 269.15133576 -29.0381987 268.09374077 C-28.66491285 264.6114894 -28.29163028 261.12923769 -27.91834784 257.64698596 C-27.84463562 256.95934593 -27.7709234 256.27170591 -27.69497747 255.56322831 C-27.54629206 254.17618286 -27.39760739 252.78913734 -27.24892346 251.40209173 C-24.8551221 229.07090163 -22.45933608 206.73992441 -20.06318256 184.40898659 C-19.22983633 176.64253247 -18.39669791 168.87605608 -17.5637133 161.10956316 C-7.99023567 71.85203156 -7.99023567 71.85203156 -4.71246338 42.20172119 C-4.63200129 41.4738657 -4.5515392 40.74601021 -4.46863887 39.99609849 C-2.99335927 26.66246407 -1.49419481 13.33153521 0 0 Z " fill="#231F20" transform="translate(1643,292)"/>
<path d="M0 0 C1.53650139 1.38120416 3.06134417 2.77577291 4.5625 4.1953125 C6.53874494 6.05076827 8.55334663 7.82387321 10.60546875 9.59375 C21.63947465 19.21501342 31.92568362 29.76165052 40.86328125 41.35546875 C41.71374706 42.40689275 42.56675416 43.45626468 43.421875 44.50390625 C55.23151551 59.06962347 65.21043067 74.73325257 73.86328125 91.35546875 C74.27288086 92.13132324 74.68248047 92.90717773 75.10449219 93.70654297 C102.04808988 145.29059709 109.16440324 207.25090584 99.86328125 264.35546875 C99.71294434 265.31839844 99.56260742 266.28132813 99.40771484 267.2734375 C91.70158825 314.71052828 69.25963101 359.28069334 37.86328125 395.35546875 C42.25444774 404.47863018 50.17790864 411.84773198 57.0637207 419.16162109 C61.08568063 423.45507358 64.8126317 427.91715681 68.48828125 432.51171875 C71.32792581 435.91181947 74.32716224 439.1313332 77.36328125 442.35546875 C81.96905571 447.24646319 86.28941795 452.26313963 90.48828125 457.51171875 C93.32793054 460.91182514 96.32722586 464.13126591 99.36328125 467.35546875 C104.05933913 472.34422567 108.50260733 477.45150135 112.78515625 482.8046875 C115.55213636 486.20099955 118.47686272 489.44091278 121.4296875 492.67578125 C122.86328125 494.35546875 122.86328125 494.35546875 122.86328125 495.35546875 C112.4233229 495.51787547 101.9836665 495.64214724 91.54270077 495.71815395 C86.69410933 495.7546396 81.846384 495.80410319 76.99829102 495.88354492 C72.31682935 495.95977348 67.63619903 496.00149415 62.95416451 496.01960945 C61.17073036 496.03251357 59.38734021 496.05771373 57.6042614 496.09557915 C43.65008868 496.3800425 43.65008868 496.3800425 39.28274536 493.87576294 C37.50268115 492.12427781 36.21167383 490.44771186 34.86328125 488.35546875 C33.81595178 487.15456764 32.75473386 485.96554018 31.67578125 484.79296875 C29.47399425 482.2456098 27.28997598 479.68326155 25.10546875 477.12109375 C24.08743955 475.92821473 23.06920439 474.73551146 22.05078125 473.54296875 C21.53386719 472.93727051 21.01695313 472.33157227 20.484375 471.70751953 C17.27910481 467.96570629 14.01162037 464.29478449 10.67578125 460.66796875 C7.50497383 457.21531179 4.48293094 453.70015909 1.55078125 450.04296875 C-2.5242032 444.98710308 -6.88903869 440.27359652 -11.33691406 435.54980469 C-15.3758762 431.23701461 -19.12604452 426.75726364 -22.8203125 422.14453125 C-26.49658372 417.71812712 -30.44098247 413.54745763 -34.36328125 409.33984375 C-38.66777389 404.72193114 -42.7798428 399.94785268 -46.875 395.14453125 C-47.89954967 393.94384834 -48.92429521 392.74333254 -49.94921875 391.54296875 C-50.46653564 390.93678711 -50.98385254 390.33060547 -51.5168457 389.70605469 C-54.72174104 385.96476055 -57.98881153 382.29431492 -61.32421875 378.66796875 C-64.49502617 375.21531179 -67.51706906 371.70015909 -70.44921875 368.04296875 C-74.52484919 362.98630161 -78.89034835 358.27198572 -83.33911133 353.54760742 C-87.36001117 349.25438274 -91.08661642 344.79309666 -94.76171875 340.19921875 C-97.60136425 336.7991169 -100.60061246 333.57961775 -103.63671875 330.35546875 C-108.25966833 325.44586577 -112.60273054 320.41068332 -116.8203125 315.14453125 C-120.48136541 310.73645068 -124.40786802 306.5823865 -128.31640625 302.39453125 C-131.67702712 298.79048512 -134.9280428 295.09515798 -138.13671875 291.35546875 C-136.53750501 287.17367383 -133.44794719 284.58818457 -130.19921875 281.66796875 C-129.6151123 281.1354248 -129.03100586 280.60288086 -128.42919922 280.05419922 C-124.11649288 276.15412475 -119.64569845 272.48765251 -115.10546875 268.85546875 C-110.68386462 265.13201264 -106.51261662 261.14857498 -102.35009766 257.13916016 C-99.12772867 254.06806803 -96.10875605 251.45475843 -92.13671875 249.35546875 C-87.55460233 254.34921737 -83.06835449 259.38223193 -78.82421875 264.66796875 C-74.93351167 269.48212463 -70.80671409 274.00471209 -66.57885742 278.51879883 C-62.67703486 282.70840484 -59.06361697 287.07701589 -55.48046875 291.54296875 C-52.80463704 294.7539668 -49.99313599 297.80576012 -47.13671875 300.85546875 C-42.69839201 305.59413339 -38.54529625 310.47666201 -34.48046875 315.54296875 C-31.80463061 318.75397452 -28.99305009 321.80567 -26.13671875 324.85546875 C-20.86816298 330.48358473 -15.96387526 336.34303024 -11.13671875 342.35546875 C-9.18804676 344.75673553 -7.22116251 347.06766462 -5.13671875 349.35546875 C-4.47671875 349.35546875 -3.81671875 349.35546875 -3.13671875 349.35546875 C32.11698185 305.54671703 46.6227662 248.80522947 40.91333008 193.30419922 C36.03621901 151.81937495 20.31985762 113.69455783 -6.13671875 81.35546875 C-6.5965918 80.79263184 -7.05646484 80.22979492 -7.53027344 79.64990234 C-17.93809125 67.01183785 -29.12454088 55.34196547 -42.13671875 45.35546875 C-42.66394531 44.94119629 -43.19117187 44.52692383 -43.734375 44.10009766 C-68.2371396 24.90579163 -96.57260685 12.25684952 -126.88671875 5.54296875 C-127.75949463 5.34815918 -128.63227051 5.15334961 -129.53149414 4.95263672 C-144.74219501 1.77411412 -159.83100238 0.97598926 -175.32421875 1.04296875 C-176.22502167 1.0451239 -177.12582458 1.04727905 -178.05392456 1.04949951 C-191.61634729 1.10149103 -204.82593708 1.53735082 -218.13671875 4.35546875 C-219.06548828 4.54351074 -219.99425781 4.73155273 -220.95117188 4.92529297 C-258.14474702 12.66062122 -292.02828643 30.57749276 -319.88671875 56.29296875 C-321.86461433 58.10603969 -323.88868692 59.82585889 -325.94921875 61.54296875 C-336.26069068 70.56290278 -345.17500484 81.24271487 -353.13671875 92.35546875 C-353.54486816 92.92313965 -353.95301758 93.49081055 -354.37353516 94.07568359 C-378.38223575 127.8452371 -390.9968209 169.02178143 -392.13671875 210.35546875 C-392.17667969 211.38929688 -392.21664062 212.423125 -392.2578125 213.48828125 C-393.30553416 264.64175037 -376.64219443 315.39412059 -343.13671875 354.35546875 C-342.22693419 355.44714197 -341.31816146 356.53965886 -340.41015625 357.6328125 C-330.61387015 369.34335237 -320.26173245 380.02482907 -308.13671875 389.35546875 C-307.59740723 389.77650879 -307.0580957 390.19754883 -306.50244141 390.63134766 C-267.55346903 420.8955279 -217.50140146 436.73729253 -168.13671875 434.35546875 C-167.25886719 434.31437988 -166.38101563 434.27329102 -165.4765625 434.23095703 C-137.39769841 432.76812673 -108.53766841 427.65324767 -83.52734375 414.19140625 C-81.13671875 413.35546875 -81.13671875 413.35546875 -79.171875 413.82421875 C-76.20623402 416.05556475 -73.78748653 418.72544205 -71.32421875 421.48046875 C-70.52310669 422.36279175 -70.52310669 422.36279175 -69.70581055 423.26293945 C-66.3775624 426.93881698 -63.08840553 430.64853147 -59.84375 434.3984375 C-57.80038444 436.74106025 -55.71991016 439.04820297 -53.63671875 441.35546875 C-52.13643636 443.02188122 -50.63642543 444.68853814 -49.13671875 446.35546875 C-48.48058594 447.0825 -47.82445313 447.80953125 -47.1484375 448.55859375 C-43.79162898 452.3251198 -40.81184592 456.07526528 -38.13671875 460.35546875 C-76.15128651 485.27504401 -124.42405486 495.61080231 -169.32421875 495.54296875 C-170.43879959 495.54206238 -170.43879959 495.54206238 -171.57589722 495.5411377 C-241.44881615 495.3879752 -306.79710478 473.87603709 -358.796875 426.4765625 C-360.9247669 424.5476054 -363.08392734 422.66510522 -365.26171875 420.79296875 C-372.11113447 414.81178882 -378.2402151 408.26414667 -384.13671875 401.35546875 C-384.93722656 400.44410156 -385.73773438 399.53273438 -386.5625 398.59375 C-436.19569666 341.66074568 -457.14419223 270.31048005 -452.66992188 195.62548828 C-448.55585975 139.33019131 -428.49596461 85.70165925 -392.13671875 42.35546875 C-391.72550781 41.85547363 -391.31429687 41.35547852 -390.890625 40.84033203 C-380.31511112 27.99261535 -368.8663966 15.69678423 -355.74609375 5.41015625 C-352.96722823 3.22200765 -350.31208287 0.91869795 -347.63671875 -1.39453125 C-308.82121866 -33.73241231 -260.11941547 -53.68905842 -210.13671875 -59.64453125 C-209.36150879 -59.74024414 -208.58629883 -59.83595703 -207.78759766 -59.93457031 C-134.92712463 -67.79386742 -56.11630275 -48.28960453 0 0 Z " fill="#231F20" transform="translate(4700.13671875,352.64453125)"/>
<path d="M0 0 C12.57981719 -0.06994868 25.15958703 -0.12303683 37.73956013 -0.15543652 C43.58287305 -0.17099784 49.42605153 -0.19205895 55.26928711 -0.22631836 C60.92330914 -0.25925556 66.57720303 -0.27692439 72.23131371 -0.28463173 C74.37314047 -0.29011427 76.51496136 -0.30081727 78.65673256 -0.31719017 C108.45701941 -0.53564439 135.3144148 4.28411363 157.56787109 25.49121094 C177.15971825 44.82020336 186.10773644 68.97022187 186.38095093 96.23716736 C186.40611409 100.89410539 186.40499698 105.55056916 186.39217401 110.20750844 C186.38532325 113.89471836 186.39589432 117.58188726 186.40411377 121.26908875 C186.41739007 128.47342484 186.41460065 135.67766669 186.40587585 142.88200634 C186.39907499 148.74250282 186.39819291 154.60297306 186.4014473 160.46347237 C186.401907 161.30053027 186.40236669 162.13758817 186.40284032 163.00001146 C186.40379959 164.70098476 186.40477223 166.40195805 186.4057581 168.10293133 C186.41429425 184.01932971 186.40450608 199.93567608 186.388357 215.85206593 C186.3749579 229.47944693 186.377282 243.10675124 186.39111328 256.73413086 C186.40720481 272.59564031 186.41346786 288.45710427 186.40427649 304.31862074 C186.40332094 306.01331778 186.40237783 307.70801482 186.4014473 309.40271187 C186.40098447 310.23632518 186.40052164 311.06993849 186.40004479 311.92881281 C186.39746541 317.77496557 186.40180313 323.62108923 186.40888596 329.46723747 C186.41734109 336.60229249 186.41493724 343.73724862 186.39904372 350.87229245 C186.3912142 354.50573723 186.38797724 358.13901776 186.39799118 361.77246094 C186.47400626 391.83678199 182.53449587 416.60382298 162 440 C161.34644531 440.74894531 160.69289063 441.49789063 160.01953125 442.26953125 C145.40790086 457.92289139 122.52556779 469.10310134 101 470 C99.2984375 470.07734375 99.2984375 470.07734375 97.5625 470.15625 C70.86141904 470.96466506 47.40646901 461.8032416 27.625 443.84375 C11.20555874 428.08996177 0.96269595 406.10279716 -0.18375421 383.3537612 C-0.25076228 379.18949293 -0.25749298 375.02949972 -0.24050903 370.8649292 C-0.24138272 369.2582741 -0.24313668 367.65161929 -0.24568737 366.04496598 C-0.25013295 361.65963205 -0.24219585 357.27439688 -0.23213124 352.88907552 C-0.22345858 348.14895601 -0.22641959 343.40884164 -0.22793579 338.66871643 C-0.22898224 330.46593669 -0.22273082 322.26318888 -0.21146011 314.06041718 C-0.19517541 302.20072957 -0.18999407 290.34105733 -0.18748413 278.48135975 C-0.18311168 259.23772719 -0.16981481 239.99411162 -0.15087891 220.75048828 C-0.13250844 202.06201258 -0.11835765 183.37354151 -0.10986328 164.68505859 C-0.10907511 162.95583668 -0.10907511 162.95583668 -0.10827102 161.191681 C-0.10566086 155.40809306 -0.10313346 149.6245051 -0.10064721 143.84091711 C-0.07992874 95.893933 -0.04471549 47.94696733 0 0 Z " fill="#231F21" transform="translate(816,384)"/>
<path d="M0 0 C17.95334857 14.69344029 29.79467309 36.23096607 33.02880859 59.22851562 C33.11583271 61.4983664 33.15258775 63.7704415 33.15185642 66.04195976 C33.15301027 66.70566019 33.15416411 67.36936062 33.15535292 68.05317318 C33.15799759 70.27480326 33.15351519 72.49636071 33.14906311 74.71798706 C33.14949925 76.32771291 33.15037495 77.93743868 33.15165228 79.54716408 C33.1538888 83.96882927 33.14988744 88.39047025 33.14487422 92.81213236 C33.14055784 97.5809876 33.14201698 102.34984147 33.14277649 107.11869812 C33.14330097 115.38050536 33.14016208 123.6423047 33.13453865 131.90410995 C33.1264134 143.84931038 33.12380738 155.79450698 33.12255066 167.73970987 C33.12036176 187.11976968 33.11370604 206.49982529 33.10424805 225.87988281 C33.09506976 244.70637999 33.08799096 263.53287603 33.08374023 282.359375 C33.08347751 283.51973994 33.08321479 284.68010488 33.0829441 285.87563239 C33.08163907 291.69681229 33.08037536 297.51799221 33.0791322 303.33917212 C33.06876462 351.63562287 33.05115068 399.93206904 33.02880859 448.22851562 C19.35413152 448.32159376 5.67953103 448.39247161 -7.99539948 448.43576431 C-14.34665698 448.45655279 -20.6976962 448.48470956 -27.04882812 448.53027344 C-33.18913388 448.57404428 -39.32923094 448.59771829 -45.46968079 448.6080246 C-47.80100281 448.61536023 -50.13231467 448.62968336 -52.46354675 448.65143585 C-81.1389258 448.9081258 -105.25521081 441.98924821 -126.22119141 421.54101562 C-145.57308237 401.91399183 -153.14249146 377.14579869 -153.10490417 349.96516418 C-153.10830251 348.14922375 -153.10830251 348.14922375 -153.1117695 346.29659766 C-153.11698297 342.95767505 -153.11775811 339.61880654 -153.11657512 336.27988374 C-153.11637021 332.67032959 -153.12189849 329.06078334 -153.12663269 325.45123291 C-153.13492049 318.38714469 -153.13768669 311.32306482 -153.13824507 304.25897215 C-153.13872115 298.5132148 -153.1407805 292.7674602 -153.14394569 287.02170372 C-153.15274744 270.71054901 -153.15736586 254.39940086 -153.15661522 238.08824376 C-153.15657526 237.20987283 -153.15653531 236.3315019 -153.15649414 235.42651367 C-153.15645326 234.54706294 -153.15641238 233.66761222 -153.15637026 232.76151147 C-153.155964 218.51607261 -153.16552963 204.27066022 -153.17963251 190.02522901 C-153.19401839 175.37765387 -153.20090146 160.73009161 -153.20003873 146.08250922 C-153.19970751 137.86727416 -153.20242171 129.65206683 -153.21321678 121.43683815 C-153.22235098 114.44104251 -153.22447319 107.44528718 -153.21770736 100.44948814 C-153.21445673 96.88521899 -153.21433229 93.32102703 -153.22306061 89.75676537 C-153.23245575 85.88007022 -153.22611157 82.00348601 -153.21842957 78.12678528 C-153.22614491 76.4637461 -153.22614491 76.4637461 -153.23401612 74.76711017 C-153.18592294 63.71435938 -151.98997437 52.70731234 -148.34619141 42.22851562 C-148.08749268 41.4743335 -147.82879395 40.72015137 -147.56225586 39.94311523 C-143.24057262 27.89405373 -136.50476554 17.76236219 -127.97119141 8.22851562 C-127.43236328 7.6071875 -126.89353516 6.98585938 -126.33837891 6.34570312 C-93.48374019 -29.15051459 -36.56954961 -28.74012181 0 0 Z " fill="#231F20" transform="translate(424.97119140625,306.771484375)"/>
<path d="M0 0 C21.12 0 42.24 0 64 0 C67.34301888 7.35464153 70.57157798 14.68345922 73.59765625 22.1640625 C74.02421005 23.2131076 74.45076385 24.26215271 74.89024353 25.34298706 C76.28302963 28.76950237 77.67273396 32.19725881 79.0625 35.625 C80.04726879 38.04893265 81.03229901 40.47275911 82.01757812 42.89648438 C83.53162009 46.6210737 85.04558687 50.34569264 86.5585022 54.07073975 C90.95480654 64.89471395 95.36767458 75.71188017 99.78561401 86.52703857 C107.66718295 105.82205737 115.53346902 125.12328626 123.39550781 144.42626953 C129.92355887 160.45361844 136.45827432 176.47822785 143 192.5 C150.00787995 209.66346135 157.00687947 226.83051984 164 244 C171.035554 261.27333127 178.07585417 278.54471071 185.125 295.8125 C185.53461975 296.81592438 185.9442395 297.81934875 186.36627197 298.85317993 C189.24392218 305.90222576 192.1219187 312.95113017 195 320 C198.29190995 328.06240069 201.58365736 336.12486769 204.875 344.1875 C205.28445862 345.19052155 205.69391724 346.19354309 206.11578369 347.22695923 C213.21689525 364.62299288 220.30732477 382.02336768 227.3949585 399.42489624 C233.92319106 415.4527036 240.45810972 431.4777625 247 447.5 C255.08543983 467.30286788 263.15940933 487.11039324 271.22851562 506.91992188 C271.65820648 507.97459656 272.08789734 509.02927124 272.53060913 510.11590576 C273.38126248 512.20485502 274.23122864 514.29408425 275.08047485 516.38360596 C277.14375166 521.45774074 279.21513215 526.52820922 281.30874348 531.58991814 C282.08841796 533.47590456 282.86594049 535.36276384 283.64280701 537.24990845 C284.63094732 539.64845777 285.62319171 542.04532142 286.62001038 544.4402771 C287.28364845 546.05466171 287.28364845 546.05466171 287.96069336 547.70166016 C288.35510117 548.65400543 288.74950897 549.60635071 289.15586853 550.58755493 C290 553 290 553 290 556 C268.55 556 247.1 556 225 556 C221.91020818 549.202458 218.89713893 542.46339794 216.12890625 535.54296875 C215.5968885 534.22228645 215.5968885 534.22228645 215.05412292 532.87492371 C214.28868343 530.97429757 213.52429324 529.07324856 212.76086426 527.17181396 C210.66492066 521.95223761 208.56054171 516.73606167 206.45703125 511.51953125 C205.79427689 509.87519104 205.79427689 509.87519104 205.11813354 508.19763184 C200.02832307 495.57668636 194.88962934 482.9757196 189.75 470.375 C187.89430443 465.82431121 186.03885072 461.27352387 184.18359375 456.72265625 C183.73835358 455.63051819 183.2931134 454.53838013 182.8343811 453.41314697 C178.21381935 442.07620873 173.61174527 430.73180113 169.02026367 419.38305664 C166.24276902 412.51966722 163.45499148 405.66086281 160.640625 398.8125 C160.11348193 397.52760572 159.58638115 396.24269409 159.05932617 394.95776367 C158.09114253 392.5999183 157.12013976 390.24322771 156.14575195 387.88793945 C155.72769287 386.86917725 155.30963379 385.85041504 154.87890625 384.80078125 C154.5135376 383.91559814 154.14816895 383.03041504 153.77172852 382.1184082 C153 380 153 380 153 378 C85.35 378 17.7 378 -52 378 C-44.32777648 357.54073729 -36.11507277 337.28768194 -28 317 C23.15 317 74.3 317 127 317 C120.4 300.83 113.8 284.66 107 268 C99.5 249.5 99.5 249.5 95.90625 240.625 C91.29338979 229.24080915 86.64500163 217.87110342 82 206.5 C75.85397445 191.45434496 69.72239453 176.40310422 63.62484741 161.33773804 C57.01816434 145.01678988 50.36037179 128.71674919 43.69921875 112.41796875 C43.28435715 111.40252487 42.86949554 110.38708099 42.44206238 109.34086609 C41.66823094 107.44686188 40.89409645 105.55298145 40.11958313 103.65925598 C39.59113045 102.36576485 39.59113045 102.36576485 39.05200195 101.04614258 C38.71375397 100.21845367 38.37550598 99.39076477 38.02700806 98.53799438 C36.59905081 95.00915403 35.20885408 91.46554795 33.82365417 87.91972351 C33.1532511 86.02957889 33.1532511 86.02957889 32 85 C24.15878437 103.68405206 16.39651388 122.39742268 8.8125 141.1875 C8.46304321 142.05328674 8.11358643 142.91907349 7.75354004 143.81109619 C7.39949097 144.68828308 7.04544189 145.56546997 6.68066406 146.46923828 C1.25564473 159.90891394 -4.20596229 173.33328007 -9.6875 186.75 C-11.38156058 190.89711493 -13.07555075 195.04425861 -14.76953125 199.19140625 C-15.19635696 200.23628204 -15.62318268 201.28115784 -16.0629425 202.35769653 C-21.00784053 214.46455646 -25.94166526 226.57592469 -30.875 238.6875 C-31.79760601 240.95239315 -32.72021343 243.21728573 -33.64282227 245.48217773 C-36.42871428 252.32138417 -39.21437869 259.1606833 -42 266 C-45.70811947 275.10425379 -49.41637642 284.20845155 -53.125 293.3125 C-53.58179138 294.43385345 -54.03858276 295.55520691 -54.50921631 296.71054077 C-61.40891929 313.64751996 -68.31693156 330.58109295 -75.2300415 347.51260376 C-81.82772358 363.67193776 -88.4160741 379.83505666 -95 396 C-101.58482381 412.16714789 -108.17409505 428.33246177 -114.77270508 444.49398804 C-118.07620672 452.58525061 -121.37871484 460.67691878 -124.68115234 468.76861572 C-125.58377477 470.98018269 -126.48644641 473.19172958 -127.38916016 475.40325928 C-130.28997565 482.51003394 -133.18961667 489.61728611 -136.08789062 496.72509766 C-137.00419842 498.97182608 -137.9208449 501.21841642 -138.83789062 503.46484375 C-145.97328596 520.94495765 -152.98770889 538.46927222 -160 556 C-181.78 556 -203.56 556 -226 556 C-224.03753741 550.11261224 -222.03181629 544.38339235 -219.69140625 538.65625 C-219.37313873 537.87104477 -219.05487122 537.08583954 -218.72695923 536.27684021 C-217.67488869 533.68343409 -216.61875198 531.0917056 -215.5625 528.5 C-214.80684967 526.64013571 -214.05140201 524.78018907 -213.29614258 522.92016602 C-210.86852637 516.94496955 -208.43470545 510.97231064 -206 505 C-205.59769165 504.01279968 -205.1953833 503.02559937 -204.78088379 502.00848389 C-199.37418241 488.7413709 -193.95843509 475.47796114 -188.53955078 462.21582031 C-184.39910432 452.08230412 -180.26196201 441.94743908 -176.125 431.8125 C-175.71599457 430.8105661 -175.30698914 429.8086322 -174.8855896 428.77633667 C-168.24988454 412.5204787 -161.62324638 396.2609376 -155 380 C-147.96440252 362.72668642 -140.92414584 345.45528933 -133.875 328.1875 C-133.46538025 327.18407562 -133.0557605 326.18065125 -132.63372803 325.14682007 C-129.34638984 317.09420914 -126.0585826 309.04178975 -122.77075195 300.98937988 C-119.88861172 293.93051092 -117.0066639 286.87156343 -114.125 279.8125 C-113.71554138 278.80947845 -113.30608276 277.80645691 -112.88421631 276.77304077 C-105.78310475 259.37700712 -98.69267523 241.97663232 -91.6050415 224.57510376 C-84.66783481 207.54320249 -77.72225086 190.51474228 -70.77050781 173.48876953 C-64.17264517 157.3289767 -57.58415244 141.16538342 -51 125 C-41.93995713 102.75624752 -32.86814659 80.51732108 -23.78930664 58.28123474 C-19.7648597 48.42445583 -15.74151424 38.56722743 -11.71826172 28.70996094 C-7.81225002 19.13994313 -3.90611287 9.56997652 0 0 Z " fill="#231F21" transform="translate(3596,292)"/>
<path d="M0 0 C20.13 0 40.26 0 61 0 C61.00586624 4.64775009 61.01173248 9.29550018 61.01777649 14.08409119 C61.07300036 56.74544523 61.14298615 99.40675499 61.22898628 142.06805849 C61.24025389 147.66410583 61.25139243 153.26015342 61.26245117 158.85620117 C61.26465486 159.97023182 61.26685854 161.08426247 61.269129 162.23205162 C61.30446162 180.24923553 61.32934852 198.26641939 61.35034702 216.28362506 C61.37214125 234.7831678 61.40522599 253.28266574 61.44870156 271.78217036 C61.47515592 283.18916076 61.49289703 294.5960954 61.49934604 306.00311495 C61.50461898 313.83477202 61.52089964 321.66635903 61.54566566 329.4979785 C61.55961556 334.0103874 61.56887599 338.52267106 61.56500816 343.03510284 C61.56156505 347.17796262 61.57214914 351.32055621 61.59323552 355.46336157 C61.59844738 356.95085904 61.59879839 358.43838459 61.59339563 359.92588138 C61.48812123 392.23742524 72.98720111 422.52441777 94 447 C95.15628906 448.35738281 95.15628906 448.35738281 96.3359375 449.7421875 C120.86075099 477.67107605 155.0535266 492.22826805 191.6105957 494.87426758 C228.12796474 496.79584161 263.65914467 484.34892833 290.81005859 459.91650391 C308.90061631 443.2101721 323.00708607 422.82879198 330.3125 399.1875 C330.54283936 398.45515137 330.77317871 397.72280273 331.01049805 396.96826172 C336.74993158 377.12351209 336.45050464 356.96359127 336.43273985 336.51384699 C336.43210988 331.9871846 336.44879273 327.46057947 336.46325684 322.9339447 C336.48593472 315.11217115 336.49790915 307.29044181 336.50238609 299.46863747 C336.50887463 288.1599609 336.53185921 276.85136389 336.55872939 265.54271957 C336.60189431 247.19035618 336.63191969 228.83799617 336.65356445 210.4855957 C336.67460511 192.66949814 336.70190703 174.85342811 336.73754883 157.03735352 C336.73974765 155.9371569 336.74194648 154.83696028 336.74421193 153.70342437 C336.75528236 148.18345985 336.76647502 142.66349559 336.77772844 137.14353144 C336.87076762 91.42904388 336.94161527 45.71454386 337 0 C356.8 0 376.6 0 397 0 C397.09058584 47.85679969 397.16212482 95.71357864 397.20426132 143.5704472 C397.20926364 149.23129112 397.21444097 154.89213486 397.21972656 160.55297852 C397.2207758 161.67986375 397.22182505 162.80674899 397.22290608 163.96778227 C397.24027103 182.17035846 397.27178698 200.37288369 397.30861118 218.57542973 C397.34612976 237.27838251 397.36825884 255.98130876 397.37635398 274.68429762 C397.3818192 286.20801473 397.39902678 297.73158771 397.43166587 309.25526042 C397.45294882 317.17712813 397.45916917 325.09892227 397.45400551 333.02081644 C397.45146497 337.57883688 397.45512169 342.13660703 397.4768219 346.69458199 C397.74879559 406.87553856 380.38554192 455.01995163 339 499 C338.38382813 499.65871094 337.76765625 500.31742188 337.1328125 500.99609375 C323.72736678 514.88259613 307.08947554 526.17527441 290 535 C289.33274902 535.34659668 288.66549805 535.69319336 287.97802734 536.05029297 C270.63222983 544.93818777 252.20611157 550.78641196 233 554 C232.32066406 554.11714355 231.64132813 554.23428711 230.94140625 554.35498047 C187.73399448 561.44040642 142.42822207 553.5412411 104 533 C103.38350586 532.67241699 102.76701172 532.34483398 102.13183594 532.00732422 C93.51546511 527.38598369 85.65412274 522.08565497 78 516 C77.09765625 515.29101562 76.1953125 514.58203125 75.265625 513.8515625 C70.10288261 509.71838434 65.13182347 505.39603991 60.25 500.9375 C59.73123291 500.46723389 59.21246582 499.99696777 58.67797852 499.51245117 C31.04289807 473.94001767 12.46872732 437.94885367 4.25 401.5625 C4.05108154 400.69447754 3.85216309 399.82645508 3.6472168 398.93212891 C-0.66764243 378.62582017 -0.28199187 358.06934509 -0.23213124 337.429304 C-0.22340617 332.89040026 -0.22642324 328.35150133 -0.22793579 323.81259155 C-0.22897898 315.96952755 -0.22276203 308.12649711 -0.21146011 300.28344154 C-0.19513065 288.9440313 -0.18998953 277.6046371 -0.18748413 266.26521637 C-0.18311865 247.86291828 -0.16984082 229.46063803 -0.15087891 211.05834961 C-0.13249032 193.19376718 -0.11834843 175.32918961 -0.10986328 157.46459961 C-0.10933783 156.361416 -0.10881239 155.25823238 -0.10827102 154.12161896 C-0.10566074 148.58667061 -0.10313337 143.05172223 -0.10064721 137.51677382 C-0.07995045 91.67783623 -0.0442017 45.83892045 0 0 Z " fill="#231F20" transform="translate(2583,292)"/>
<path d="M0 0 C0.54849609 0.45084961 1.09699219 0.90169922 1.66210938 1.36621094 C12.69151747 10.47549347 23.17475242 20.09886828 33.3125 30.1875 C34.29923706 31.16722778 34.29923706 31.16722778 35.3059082 32.16674805 C98.51146958 95.5799335 136.16616584 188.1755241 136.09561157 277.48669434 C136.08782428 280.11615276 136.07530884 282.74556173 136.0625 285.375 C136.05747067 287.19010292 136.05291032 289.0052072 136.04882812 290.8203125 C136.03794598 295.21357608 136.02076194 299.60677246 136 304 C132.22030112 302.19099158 128.98337009 299.85798324 125.625 297.375 C95.77432308 275.7807267 63.30182616 269.58884441 27.078125 269.48828125 C24.75257448 269.47138881 22.42703284 269.45323266 20.10150146 269.43388367 C14.05192848 269.38687256 8.00239146 269.35674953 1.95269775 269.33044434 C-4.24905503 269.30038886 -10.45068429 269.25394605 -16.65234375 269.20898438 C-28.76816389 269.12350921 -40.88400985 269.05591922 -53 269 C-53.11913506 267.66082016 -53.11913506 267.66082016 -53.24067688 266.29458618 C-53.54419238 262.90656282 -53.85164877 259.51894095 -54.16157532 256.13150024 C-54.29365162 254.67953015 -54.42426218 253.2274258 -54.55323792 251.775177 C-60.6071128 183.71070583 -86.08537202 116.43533541 -129 63 C-130.07121094 61.62908203 -130.07121094 61.62908203 -131.1640625 60.23046875 C-133.07791163 57.79287079 -135.03133782 55.39349871 -137 53 C-137.76183594 52.05253906 -138.52367187 51.10507813 -139.30859375 50.12890625 C-146.08597784 41.86100724 -153.52721529 34.25782581 -161.0625 26.6875 C-161.569021 26.17580261 -162.07554199 25.66410522 -162.59741211 25.13690186 C-169.39352745 18.28612091 -176.42360816 11.99656632 -184 6 C-185.21974272 4.99888318 -186.43750747 3.9953463 -187.65234375 2.98828125 C-225.66945468 -28.14253938 -270.33420818 -51.0294223 -317.75317383 -63.84545898 C-319.16312622 -64.23133179 -319.16312622 -64.23133179 -320.6015625 -64.625 C-321.42994629 -64.84414062 -322.25833008 -65.06328125 -323.11181641 -65.2890625 C-325 -66 -325 -66 -326 -68 C-303.22838695 -73.79746679 -280.46146191 -78.29106748 -257 -80 C-256.15276367 -80.06316406 -255.30552734 -80.12632813 -254.43261719 -80.19140625 C-163.50420838 -86.54389263 -70.51194157 -58.05623932 0 0 Z " fill="#231F20" transform="translate(866,81)"/>
<path d="M0 0 C3.62196369 2.39628136 7.16148586 4.84837712 10.63916016 7.44995117 C36.35294911 26.46705012 66.7365002 35.0031618 98.52026367 35.20532227 C99.50698059 35.21522186 100.49369751 35.22512146 101.51031494 35.23532104 C104.72950957 35.26657993 107.94871888 35.2915506 111.16796875 35.31640625 C113.41669571 35.33700664 115.66541907 35.35800386 117.91413879 35.37937927 C123.80108705 35.43428156 129.68806839 35.48382981 135.57507324 35.53222656 C141.59500026 35.58267572 147.61487989 35.63823894 153.63476562 35.69335938 C165.4231365 35.80055082 177.21154871 35.90208061 189 36 C189.10644333 37.03574158 189.21288666 38.07148315 189.32255554 39.13861084 C189.72757411 43.06482744 190.14003325 46.99023568 190.55448914 50.91546631 C190.73123266 52.59877412 190.90608665 54.28228165 191.07884216 55.96600342 C197.11555927 114.71739076 216.93512003 171.90465512 250 221 C250.48823242 221.72622559 250.97646484 222.45245117 251.47949219 223.20068359 C261.14469182 237.46274646 271.82471413 250.80979492 283.58203125 263.3984375 C285.6298667 265.60176288 287.60876891 267.83881583 289.5625 270.125 C295.4538458 276.90427591 301.88229769 283.22342089 308.71484375 289.05078125 C310.47300771 290.55048008 312.2115625 292.07319016 313.94140625 293.60546875 C334.59912718 311.81242999 357.65927213 327.17628862 382 340 C382.97235596 340.51506104 382.97235596 340.51506104 383.96435547 341.04052734 C388.5908351 343.47283533 393.27281997 345.77025683 398 348 C398.79341797 348.37592285 399.58683594 348.7518457 400.40429688 349.13916016 C412.80562161 354.94307516 425.45499173 359.69400125 438.4375 364 C439.15332245 364.23756012 439.8691449 364.47512024 440.60665894 364.71987915 C447.67873372 367.05528486 454.73171059 369.34939492 462 371 C462 371.66 462 372.32 462 373 C449.49861343 376.20935918 436.99889283 379.19787248 424.25 381.25 C422.8734021 381.47574707 422.8734021 381.47574707 421.46899414 381.70605469 C402.99108665 384.54512895 384.61116605 385.3774235 365.9375 385.3125 C364.8172644 385.31034485 363.69702881 385.3081897 362.54284668 385.30596924 C345.52477072 385.25352851 328.82177564 384.80947191 312 382 C310.15583496 381.69400879 310.15583496 381.69400879 308.27441406 381.38183594 C246.6475279 370.84221164 187.66347172 346.76955341 139 307 C138.08089844 306.27039062 137.16179687 305.54078125 136.21484375 304.7890625 C129.73049317 299.59063799 123.59512528 294.05733134 117.51611328 288.3984375 C116.02268032 287.02091995 114.51307709 285.66400323 112.99609375 284.3125 C105.51326087 277.62221093 98.65834653 270.50797929 92 263 C91.505 262.44441406 91.01 261.88882812 90.5 261.31640625 C38.62994757 202.827519 8.28185414 128.53288922 1 51 C0.92942383 50.28440918 0.85884766 49.56881836 0.78613281 48.83154297 C-0.73628072 32.66093359 -0.09029854 16.22456351 0 0 Z " fill="#231F20" transform="translate(272,754)"/>
</svg>
