<?xml version="1.0" encoding="UTF-8"?>
<svg version="1.1" xmlns="http://www.w3.org/2000/svg" width="600" height="600">
<path d="M0 0 C198 0 396 0 600 0 C600 198 600 396 600 600 C402 600 204 600 0 600 C0 402 0 204 0 0 Z " fill="#FEFEFE" transform="translate(0,0)"/>
<path d="M0 0 C0 0.66 0 1.32 0 2 C0.85980469 2.07476562 1.71960938 2.14953125 2.60546875 2.2265625 C6.58537235 3.13337598 9.18400397 4.88211244 12.3125 7.375 C13.15627197 8.03568481 13.15627197 8.03568481 14.01708984 8.7097168 C20.88268513 14.27125986 26.91701522 21.12567222 31 29 C31 30.32 31 31.64 31 33 C31.66 33 32.32 33 33 33 C38.44989088 49.7146207 38.60015251 65.19954248 33 82 C32.34 82 31.68 82 31 82 C30.79375 82.804375 30.5875 83.60875 30.375 84.4375 C25.90693903 96.01383978 16.64142954 104.91693762 6 111 C2.7139169 112.26870603 -0.56399039 113.23238083 -4 114 C-4 114.66 -4 115.32 -4 116 C-13.36085176 118.26439611 -22.44349683 118.20166126 -32 118 C-32.10054687 118.886875 -32.20109375 119.77375 -32.3046875 120.6875 C-33.96946279 128.61856429 -40.44082121 135.47431953 -47 140 C-50.12256231 141.84486716 -51.15115289 142 -55 142 C-55 142.66 -55 143.32 -55 144 C-58.82095497 145.2281641 -62.51173039 145.13285092 -66.5 145.125 C-67.8096875 145.12757813 -69.119375 145.13015625 -70.46875 145.1328125 C-73.22235924 145.02924755 -75.40352847 144.83458014 -78 144 C-78 143.34 -78 142.68 -78 142 C-79.299375 141.8453125 -79.299375 141.8453125 -80.625 141.6875 C-86.97851037 140.39326641 -90.50945898 137.99533165 -94.1875 132.6875 C-95.16783203 131.30111328 -95.16783203 131.30111328 -96.16796875 129.88671875 C-102.32408466 120.18657022 -103.39030083 110.54732771 -101.55078125 99.23828125 C-101.10390465 97.47296023 -100.56524301 95.73105671 -100 94 C-99.34 94 -98.68 94 -98 94 C-97.731875 93.278125 -97.46375 92.55625 -97.1875 91.8125 C-94.18593419 84.70352835 -91.05279617 81.15124935 -84 78 C-83.34 78 -82.68 78 -82 78 C-82.21221191 77.40429199 -82.42442383 76.80858398 -82.64306641 76.19482422 C-84.79137665 69.7121376 -85.48010108 63.93208666 -85.375 57.125 C-85.36339844 56.15828369 -85.35179687 55.19156738 -85.33984375 54.19555664 C-85.06279234 42.08576183 -82.35990063 33.71413556 -75.7421875 23.71484375 C-73.88536366 21.06647112 -73.88536366 21.06647112 -73 18 C-55.20461083 -0.79459551 -24.89997575 -12.44998787 0 0 Z " fill="#ECECEC" transform="translate(555,174)"/>
<path d="M0 0 C0 0.66 0 1.32 0 2 C0.85980469 2.07476562 1.71960938 2.14953125 2.60546875 2.2265625 C6.58537235 3.13337598 9.18400397 4.88211244 12.3125 7.375 C13.15627197 8.03568481 13.15627197 8.03568481 14.01708984 8.7097168 C20.88268513 14.27125986 26.91701522 21.12567222 31 29 C31 30.32 31 31.64 31 33 C31.66 33 32.32 33 33 33 C38.44989088 49.7146207 38.60015251 65.19954248 33 82 C32.34 82 31.68 82 31 82 C30.79375 82.804375 30.5875 83.60875 30.375 84.4375 C25.90693903 96.01383978 16.64142954 104.91693762 6 111 C2.7139169 112.26870603 -0.56399039 113.23238083 -4 114 C-4 114.66 -4 115.32 -4 116 C-13.36085176 118.26439611 -22.44349683 118.20166126 -32 118 C-32.10054687 118.886875 -32.20109375 119.77375 -32.3046875 120.6875 C-33.96946279 128.61856429 -40.44082121 135.47431953 -47 140 C-50.12256231 141.84486716 -51.15115289 142 -55 142 C-55 142.66 -55 143.32 -55 144 C-58.82095497 145.2281641 -62.51173039 145.13285092 -66.5 145.125 C-67.8096875 145.12757813 -69.119375 145.13015625 -70.46875 145.1328125 C-73.22235924 145.02924755 -75.40352847 144.83458014 -78 144 C-78 143.34 -78 142.68 -78 142 C-79.299375 141.8453125 -79.299375 141.8453125 -80.625 141.6875 C-86.97851037 140.39326641 -90.50945898 137.99533165 -94.1875 132.6875 C-95.16783203 131.30111328 -95.16783203 131.30111328 -96.16796875 129.88671875 C-102.32408466 120.18657022 -103.39030083 110.54732771 -101.55078125 99.23828125 C-101.10390465 97.47296023 -100.56524301 95.73105671 -100 94 C-99.34 94 -98.68 94 -98 94 C-97.731875 93.278125 -97.46375 92.55625 -97.1875 91.8125 C-94.18593419 84.70352835 -91.05279617 81.15124935 -84 78 C-83.34 78 -82.68 78 -82 78 C-82.21221191 77.40429199 -82.42442383 76.80858398 -82.64306641 76.19482422 C-84.79137665 69.7121376 -85.48010108 63.93208666 -85.375 57.125 C-85.36339844 56.15828369 -85.35179687 55.19156738 -85.33984375 54.19555664 C-85.06279234 42.08576183 -82.35990063 33.71413556 -75.7421875 23.71484375 C-73.88536366 21.06647112 -73.88536366 21.06647112 -73 18 C-55.20461083 -0.79459551 -24.89997575 -12.44998787 0 0 Z M-48 6 C-48.88816406 6.32484375 -49.77632813 6.6496875 -50.69140625 6.984375 C-53.8251408 8.3630061 -55.61887916 10.56080304 -58 13 C-59.423125 13.8353125 -59.423125 13.8353125 -60.875 14.6875 C-64.74476888 17.55112897 -66.88005555 20.84927465 -69.484375 24.85546875 C-71 27 -71 27 -73 28 C-73.93875977 30.28694748 -74.7760013 32.53650833 -75.5625 34.875 C-75.78357422 35.51308594 -76.00464844 36.15117187 -76.23242188 36.80859375 C-78.45035955 43.11164898 -78.45035955 43.11164898 -79.0625 49.6875 C-79.05347656 50.49574219 -79.04445313 51.30398437 -79.03515625 52.13671875 C-79.02355469 52.75160156 -79.01195312 53.36648437 -79 54 C-79.66 54 -80.32 54 -81 54 C-81 56.31 -81 58.62 -81 61 C-80.34 61 -79.68 61 -79 61 C-79.06510417 62.88802083 -79.13020833 64.77604167 -79.1953125 66.6640625 C-78.9461666 69.64384744 -78.0187983 72.20031019 -77 75 C-75.7934375 74.96519531 -74.586875 74.93039063 -73.34375 74.89453125 C-71.72918072 74.86637016 -70.11459621 74.83907251 -68.5 74.8125 C-67.70851563 74.78736328 -66.91703125 74.76222656 -66.1015625 74.73632812 C-60.33555819 74.66543463 -56.32294932 75.81622592 -51 78 C-48.59710048 78.23454139 -46.41990817 78.15124426 -44 78 C-44 77.34 -44 76.68 -44 76 C-42.72125 75.938125 -41.4425 75.87625 -40.125 75.8125 C-34.59650161 75.22454858 -28.02932078 73.02932078 -24 69 C-22.33382885 68.95936168 -20.66611905 68.957279 -19 69 C-18.87882813 70.0621875 -18.75765625 71.124375 -18.6328125 72.21875 C-17.80431481 79.2734828 -16.99472803 86.16093248 -15 93 C-14.34 93 -13.68 93 -13 93 C-9.74031891 102.41002278 -9.74031891 102.41002278 -9 107 C-17.42857143 109.28571429 -17.42857143 109.28571429 -22 109 C-21.505 107.02 -21.505 107.02 -21 105 C-18.525 104.505 -18.525 104.505 -16 104 C-16.72479053 99.98345246 -17.81977844 96.15514488 -19 92.25 C-20.5909907 86.7737639 -21.60824292 81.68047773 -22 76 C-23.65 76 -25.3 76 -27 76 C-27 76.66 -27 77.32 -27 78 C-27.83144531 78.19335938 -28.66289063 78.38671875 -29.51953125 78.5859375 C-30.60621094 78.84632813 -31.69289063 79.10671875 -32.8125 79.375 C-33.89144531 79.63023437 -34.97039062 79.88546875 -36.08203125 80.1484375 C-39.15533343 80.88732881 -39.15533343 80.88732881 -42 83 C-41.59007812 83.58007812 -41.18015625 84.16015625 -40.7578125 84.7578125 C-37.78971393 89.06084535 -35.31573874 92.8686189 -34 98 C-33.34 98 -32.68 98 -32 98 C-31.505 101.96 -31.505 101.96 -31 106 C-29.02 105.505 -29.02 105.505 -27 105 C-26.67 106.32 -26.34 107.64 -26 109 C-27.65 108.67 -29.3 108.34 -31 108 C-31 109.32 -31 110.64 -31 112 C-18.53861061 114.04013897 -5.67017522 111.85355433 5.07421875 105.0546875 C17.79399121 95.8938978 27.32047841 84.85798205 30.5625 69.30078125 C32.02621502 58.25757415 32.05507512 46.46694604 28 36 C27.69835937 35.18015625 27.39671875 34.3603125 27.0859375 33.515625 C25.12748349 28.64337357 22.90015813 25.60014596 19 22 C18.40832031 20.86498047 18.40832031 20.86498047 17.8046875 19.70703125 C12.07622158 11.11433237 -0.33440117 4.78810533 -10.1015625 2.51953125 C-23.19108355 0.77513616 -35.68029167 0.91626494 -48 6 Z " fill="#0A0A0A" transform="translate(555,174)"/>
<path d="M0 0 C4.01628807 3.39153215 7.71953579 7.11236151 10.8125 11.375 C10.8125 12.365 10.8125 13.355 10.8125 14.375 C11.4725 14.375 12.1325 14.375 12.8125 14.375 C14.95678203 19.62508736 15.11478212 24.24009705 15.0625 29.8125 C15.07410156 31.04323242 15.07410156 31.04323242 15.0859375 32.29882812 C15.06974786 37.37023298 14.4421864 41.57001191 12.8125 46.375 C12.1525 46.375 11.4925 46.375 10.8125 46.375 C10.585625 47.24125 10.35875 48.1075 10.125 49 C8.54274094 53.06866616 6.85483058 55.25846624 3.8125 58.375 C2.8225 58.375 1.8325 58.375 0.8125 58.375 C0.4825 59.365 0.1525 60.355 -0.1875 61.375 C-7.96133021 66.86997691 -19.11902703 66.59467279 -28.1875 65.375 C-32.00497929 64.24514152 -34.93935125 62.64689625 -38.1875 60.375 C-38.91324219 59.94058594 -39.63898438 59.50617188 -40.38671875 59.05859375 C-47.11363464 54.69418067 -50.5183233 48.1220797 -52.1875 40.375 C-53.16288607 28.7174548 -53.63985092 16.52635232 -46.26953125 6.859375 C-34.27643203 -6.30119405 -15.5007629 -7.90234972 0 0 Z " fill="#080808" transform="translate(266.1875,342.625)"/>
<path d="M0 0 C30 0 30 0 36 1 C36 1.66 36 2.32 36 3 C37.299375 3.12375 37.299375 3.12375 38.625 3.25 C45.88184409 4.86263202 50.88164269 10.04086177 55 16 C59.76056611 25.20264364 59.36711311 38.51355375 57.0625 48.4375 C54.58818066 55.20141034 49.59584835 60.90512138 43.3984375 64.515625 C38.90267922 66.44431888 34.94511698 67.52053863 30 67 C30 67.66 30 68.32 30 69 C20.1 69 10.2 69 0 69 C0 46.23 0 23.46 0 0 Z " fill="#060606" transform="translate(303,249)"/>
<path d="M0 0 C0.09796875 1.01578125 0.1959375 2.0315625 0.296875 3.078125 C1.83375809 17.76091135 4.90572249 30.65835235 16.265625 41.078125 C16.83796875 41.71234375 17.4103125 42.3465625 18 43 C17.75 46.75 17.75 46.75 17 50 C16.34 50 15.68 50 15 50 C14.9175 50.5775 14.835 51.155 14.75 51.75 C13.774018 54.67794601 12.36488777 56.05244537 10 58 C9.01 58 8.02 58 7 58 C6.79761719 58.60457031 6.59523438 59.20914063 6.38671875 59.83203125 C3.47437484 64.38513229 -3.06257062 65.42334188 -8 67 C-19.80488204 69.55772444 -30.95760443 67.49875375 -42 63 C-42 62.34 -42 61.68 -42 61 C-42.66 61 -43.32 61 -44 61 C-48.21608324 52.56783352 -44.66352806 39.06069154 -41.97265625 30.66015625 C-41 28 -41 28 -40 26 C-39.34 26 -38.68 26 -38 26 C-37.83177734 25.12794922 -37.83177734 25.12794922 -37.66015625 24.23828125 C-35.22854023 15.99380798 -26.79474243 9.17846324 -19.625 5.0625 C-17 4 -17 4 -15 4 C-15 3.34 -15 2.68 -15 2 C-13.44240657 1.46467177 -11.87861955 0.94734622 -10.3125 0.4375 C-9.44238281 0.14746094 -8.57226562 -0.14257812 -7.67578125 -0.44140625 C-4.75368926 -1.05141961 -2.85599447 -0.77703633 0 0 Z " fill="#0C0C0C" transform="translate(523,180)"/>
<path d="M0 0 C3.75588674 2.5039245 6.01850805 4.93272704 8 9 C8 9.99 8 10.98 8 12 C8.66 12 9.32 12 10 12 C10 13.32 10 14.64 10 16 C6.12315913 17.19287411 3.08378077 18 -1 18 C-1 18.66 -1 19.32 -1 20 C-2.32 20 -3.64 20 -5 20 C-5.433125 19.030625 -5.86625 18.06125 -6.3125 17.0625 C-7.7014861 13.72268235 -7.7014861 13.72268235 -11 13 C-12.49774018 12.90774789 -13.99942974 12.8699981 -15.5 12.875 C-16.2734375 12.87242187 -17.046875 12.86984375 -17.84375 12.8671875 C-20.18447017 12.91854187 -20.18447017 12.91854187 -23 14 C-23.20970559 18.14093698 -23.20970559 18.14093698 -22 22 C-18.30667244 22.93182013 -14.61381322 23.68391611 -10.87695312 24.41210938 C-4.08261429 25.80653215 1.23978052 27.56134248 5.875 33 C6.47054687 33.680625 7.06609375 34.36125 7.6796875 35.0625 C9 37 9 37 9 40 C9.66 40 10.32 40 11 40 C11.05423638 41.91635217 11.09289963 43.83314925 11.125 45.75 C11.14820313 46.81734375 11.17140625 47.8846875 11.1953125 48.984375 C11.00487687 51.92470106 10.52670104 53.52361878 9 56 C8.34 56 7.68 56 7 56 C6.95875 56.556875 6.9175 57.11375 6.875 57.6875 C5.56040486 61.16178715 3.1262429 63.16021989 0 65 C-3.875 65.8125 -3.875 65.8125 -7 66 C-7 66.66 -7 67.32 -7 68 C-11.95 68 -16.9 68 -22 68 C-22 67.34 -22 66.68 -22 66 C-22.825 66.12375 -23.65 66.2475 -24.5 66.375 C-30.52892731 65.7290435 -34.41453878 61.75235188 -38.375 57.375 C-41.39477352 52.96148485 -42.2475479 50.4460539 -42 45 C-40.23050388 44.49528803 -38.45934777 43.99639315 -36.6875 43.5 C-35.70136719 43.2215625 -34.71523438 42.943125 -33.69921875 42.65625 C-31 42 -31 42 -28 42 C-28 42.99 -28 43.98 -28 45 C-27.34 45 -26.68 45 -26 45 C-24.9935725 46.66279327 -23.99414593 48.32983484 -23 50 C-19.74004414 52.17330391 -18.77020034 52.24921459 -15 52.1875 C-14.13375 52.18105469 -13.2675 52.17460937 -12.375 52.16796875 C-9.85072535 52.08830437 -9.85072535 52.08830437 -7 51 C-6.67 49.02 -6.34 47.04 -6 45 C-10.02868975 42.20913287 -13.43401739 41.41584305 -18.25 40.6875 C-26.37101947 39.28582233 -32.43967163 36.11149794 -38 30 C-40.38621116 24.85080749 -40.82105616 19.5714525 -40 14 C-37.91698798 8.48260039 -35.04654424 4.16876034 -30 1 C-29.47148438 0.63003906 -28.94296875 0.26007813 -28.3984375 -0.12109375 C-19.9330411 -5.32641196 -8.60716586 -4.38182989 0 0 Z " fill="#070707" transform="translate(72,251)"/>
<path d="M0 0 C27 0 27 0 39 3 C43 7 43 7 43 10 C43.99 10.33 44.98 10.66 46 11 C47.12050151 14.36150452 47.13296652 16.96286726 47.125 20.5 C47.12886719 22.21703125 47.12886719 22.21703125 47.1328125 23.96875 C47 27 47 27 46 30 C45.34 30 44.68 30 44 30 C43.773125 30.556875 43.54625 31.11375 43.3125 31.6875 C40.61159416 36.44623886 37.20988728 39.36260685 32 41 C32.66 41.99 33.32 42.98 34 44 C34 44.99 34 45.98 34 47 C34.66 47 35.32 47 36 47 C37.45909711 49.74959541 38.91714242 52.49974721 40.375 55.25 C40.7875 56.02730469 41.2 56.80460937 41.625 57.60546875 C42.02460938 58.35957031 42.42421875 59.11367188 42.8359375 59.890625 C43.20251465 60.58188477 43.5690918 61.27314453 43.94677734 61.98535156 C44.98844936 63.97790545 45.99448007 65.98896015 47 68 C42.71 68 38.42 68 34 68 C32.82558465 65.89983377 31.66035988 63.79541245 30.5 61.6875 C30.16613281 61.09259766 29.83226562 60.49769531 29.48828125 59.88476562 C27.93174886 57.04171156 27 55.29339012 27 52 C26.34 52 25.68 52 25 52 C24.74347656 51.28972656 24.48695313 50.57945312 24.22265625 49.84765625 C23.64837891 48.46900391 23.64837891 48.46900391 23.0625 47.0625 C22.52302734 45.68771484 22.52302734 45.68771484 21.97265625 44.28515625 C19.51385135 40.9131221 19.51385135 40.9131221 11 41 C11 49.91 11 58.82 11 68 C7.37 68 3.74 68 0 68 C0 45.56 0 23.12 0 0 Z " fill="#050505" transform="translate(131,339)"/>
<path d="M0 0 C5.28 0 10.56 0 16 0 C16.01981934 1.36729248 16.03963867 2.73458496 16.06005859 4.14331055 C16.13619956 9.22194664 16.22490423 14.3002994 16.31738281 19.37866211 C16.3556374 21.57554526 16.3904964 23.7724903 16.421875 25.96948242 C16.4676016 29.12961932 16.52558418 32.2893315 16.5859375 35.44921875 C16.59748871 36.42960617 16.60903992 37.40999359 16.62094116 38.42008972 C16.69296936 44.96125317 16.69296936 44.96125317 19 51 C23.48252031 53.61480351 27.79089529 53.50206925 32.75 52.375 C36.00042121 50.38863148 36.08368045 48.69105443 37 45 C37.31858039 41.52467073 37.37179579 38.05869767 37.4140625 34.5703125 C37.43342865 33.57998016 37.4527948 32.58964783 37.4727478 31.56930542 C37.53229553 28.4212899 37.5788297 25.27323732 37.625 22.125 C37.6632026 19.98435948 37.70225565 17.84373396 37.7421875 15.703125 C37.83797673 10.4688725 37.92209928 5.23454806 38 0 C43.28 0 48.56 0 54 0 C54.07431881 7.13498675 54.12868276 14.26974668 54.16479492 21.4050293 C54.17985409 23.83085049 54.20030562 26.25664458 54.22631836 28.68237305 C54.26282703 32.17503562 54.27975553 35.66733725 54.29296875 39.16015625 C54.30845261 40.23959 54.32393646 41.31902374 54.33988953 42.4311676 C54.3412197 48.42201631 53.84778523 52.69530202 51 58 C50.34 58 49.68 58 49 58 C48.9071875 58.86625 48.9071875 58.86625 48.8125 59.75 C47.36778171 63.75075833 44.08676489 65.48249291 40.375 67.25 C38 68 38 68 35 68 C35 68.66 35 69.32 35 70 C32.39576408 70.02697137 29.79180756 70.04682489 27.1875 70.0625 C26.44951172 70.07087891 25.71152344 70.07925781 24.95117188 70.08789062 C21.70077932 70.10259828 19.10595105 70.03531702 16 69 C16 68.34 16 67.68 16 67 C15.26007813 66.89945312 14.52015625 66.79890625 13.7578125 66.6953125 C10.69421142 65.92290316 9.23679467 64.9404126 6.875 62.875 C6.21242187 62.31554687 5.54984375 61.75609375 4.8671875 61.1796875 C-0.6612859 54.72594658 -0.40703345 48.05439268 -0.29296875 39.94140625 C-0.28872391 38.79711655 -0.28447906 37.65282684 -0.28010559 36.47386169 C-0.26337804 32.83649689 -0.22573565 29.19969598 -0.1875 25.5625 C-0.17244556 23.08920074 -0.15875848 20.61589275 -0.14648438 18.14257812 C-0.11349373 12.09483642 -0.06175133 6.04751366 0 0 Z " fill="#070707" transform="translate(208,249)"/>
<path d="M0 0 C8.17967203 0.10386885 15.53038669 2.11886124 23.0625 5.1875 C23.0625 5.8475 23.0625 6.5075 23.0625 7.1875 C23.866875 7.373125 24.67125 7.55875 25.5 7.75 C33.39538553 10.93585732 39.78753479 16.83702026 44.0625 24.1875 C44.9375 27.1875 44.9375 27.1875 45.0625 29.1875 C45.7225 29.1875 46.3825 29.1875 47.0625 29.1875 C51.09818027 38.047226 52.12107701 46.55744031 52.0625 56.1875 C50.18559942 58.06440058 47.13286973 57.40510556 44.625 57.4375 C31.38820874 57.30352438 19.26663353 52.1769905 9.71875 42.87890625 C-0.95646065 31.49390766 -5.18648423 19.34592661 -5.10546875 4.06640625 C-4.84822806 -0.34257948 -4.6284657 0.22040313 0 0 Z " fill="#0C0C0C" transform="translate(531.9375,177.8125)"/>
<path d="M0 0 C35.15985577 0 35.15985577 0 41.59375 6.3125 C45.93182038 11.51818445 46.50073298 16.82356759 46.27734375 23.35546875 C45.59555471 29.85647127 42.86836431 33.60249292 38.109375 37.73828125 C32.09463881 41.33598456 25.82612486 41.25767765 19.0625 41.125 C16.071875 41.08375 13.08125 41.0425 10 41 C10 49.91 10 58.82 10 68 C6.7 68 3.4 68 0 68 C0 45.56 0 23.12 0 0 Z " fill="#060606" transform="translate(321,339)"/>
<path d="M0 0 C3.39105626 3.3041061 4.7354114 6.46855751 6 11 C6.66 11 7.32 11 8 11 C8.81862159 14.5798452 9.13520898 17.89237101 9.125 21.5625 C9.12886719 22.95662109 9.12886719 22.95662109 9.1328125 24.37890625 C9.01309964 26.74147476 8.66993233 28.74030763 8 31 C7.34 31 6.68 31 6 31 C5.9175 31.721875 5.835 32.44375 5.75 33.1875 C4.15868603 39.1549274 0.00396438 41.89599074 -5 44.984375 C-10.62421501 47.84042169 -16.53314596 47.60304972 -22.5 45.875 C-28.22078948 43.75041379 -32.34761574 41.02122329 -35.3203125 35.5859375 C-38.96490872 26.74205717 -39.60237713 17.04893598 -36.1015625 8.03515625 C-33.04244928 2.38339034 -28.37958555 -1.65948513 -22.23046875 -3.5625 C-14.17771606 -5.14202417 -6.98871225 -4.46986388 0 0 Z " fill="#FCFCFC" transform="translate(262,352)"/>
<path d="M0 0 C18.81 0 37.62 0 57 0 C57 5.28 57 10.56 57 16 C50.07 16 43.14 16 36 16 C36 33.49 36 50.98 36 69 C30.72 69 25.44 69 20 69 C20 51.51 20 34.02 20 16 C13.4 16 6.8 16 0 16 C0 10.72 0 5.44 0 0 Z " fill="#080808" transform="translate(115,249)"/>
<path d="M0 0 C3.3 0 6.6 0 10 0 C10.33 10.56 10.66 21.12 11 32 C14.50689321 28.20107437 14.50689321 28.20107437 18.01293945 24.40136719 C20.76846431 21.41442899 23.52715703 18.43054248 26.29296875 15.453125 C27.08429199 14.59980591 27.08429199 14.59980591 27.89160156 13.72924805 C28.89365096 12.64886409 29.89683681 11.56953263 30.90136719 10.49145508 C31.36575195 9.99025146 31.83013672 9.48904785 32.30859375 8.97265625 C32.9886145 8.2451416 32.9886145 8.2451416 33.68237305 7.50292969 C35.03546922 6.00878547 35.03546922 6.00878547 36.21801758 4.30175781 C38.45548519 1.22166653 39.51627842 0.08506241 43.33203125 -0.5859375 C44.48058594 -0.51632812 45.62914062 -0.44671875 46.8125 -0.375 C48.55466797 -0.29378906 48.55466797 -0.29378906 50.33203125 -0.2109375 C51.21246094 -0.14132812 52.09289062 -0.07171875 53 0 C51.61961693 2.93167071 50.04174667 5.51306023 48.125 8.125 C47.63257813 8.80820312 47.14015625 9.49140625 46.6328125 10.1953125 C45 12 45 12 42.9296875 12.9921875 C40.47390058 14.27476448 40.15509509 15.53548537 39 18 C37.37890625 19.52734375 37.37890625 19.52734375 35.5625 20.9375 C32.63646336 23.35757614 30.57806405 25.47256271 29 29 C29 33.74807942 30.35365652 35.19588125 33 39 C33 39.66 33 40.32 33 41 C33.59554687 41.23589844 34.19109375 41.47179687 34.8046875 41.71484375 C37.49767539 43.29134378 38.50254235 44.91644995 40.125 47.5625 C42.01471763 50.87109122 42.01471763 50.87109122 45 53 C45.96041036 54.68899753 46.91751077 56.38008578 47.84765625 58.0859375 C49.00519099 60.00862232 50.27935776 61.62105312 51.75 63.3125 C54 66 54 66 54 68 C51.89646505 68.0810206 49.79204048 68.13919907 47.6875 68.1875 C46.51574219 68.22230469 45.34398437 68.25710938 44.13671875 68.29296875 C41 68 41 68 39.20703125 66.7109375 C37.99805326 64.99724055 36.96504679 63.29923611 36 61.4375 C34.2493071 57.84826364 34.2493071 57.84826364 31 56 C29.90234375 54.34375 29.90234375 54.34375 28.9375 52.5 C27.7384658 50.22713195 26.84944218 48.84944218 25 47 C25 46.01 25 45.02 25 44 C24.401875 43.731875 23.80375 43.46375 23.1875 43.1875 C21.02775192 42.01506533 19.64209744 40.80630718 18 39 C17.773125 39.556875 17.54625 40.11375 17.3125 40.6875 C16 43 16 43 13.46875 45 C9.94602085 49.28078479 10.22177646 52.92347931 10.1875 58.3125 C10.16236328 59.24384766 10.13722656 60.17519531 10.11132812 61.13476562 C10.05266248 63.42272595 10.02341816 65.71140749 10 68 C6.7 68 3.4 68 0 68 C0 45.56 0 23.12 0 0 Z " fill="#060606" transform="translate(460,339)"/>
<path d="M0 0 C4.4120912 0.43044792 7.33573912 1.69407792 11.1171875 3.953125 C19.37002321 8.54183863 28.78917084 9.03936138 38 10 C39.08056059 13.97159686 38.85815614 16.42553157 37.5625 20.3125 C37.13130859 21.63701172 37.13130859 21.63701172 36.69140625 22.98828125 C36.46324219 23.65214844 36.23507812 24.31601563 36 25 C35.34 25 34.68 25 34 25 C33.7525 25.680625 33.505 26.36125 33.25 27.0625 C28.97269039 37.11417758 22.17898478 44.5640763 12 49 C9.125 49.1875 9.125 49.1875 7 49 C7 48.34 7 47.68 7 47 C6.01 46.67 5.02 46.34 4 46 C2.6484375 43.453125 2.6484375 43.453125 1.375 40.25 C0.94960938 39.20328125 0.52421875 38.1565625 0.0859375 37.078125 C-1.52758133 32.50455364 -2.12703298 28.5274734 -2.0625 23.6875 C-2.05347656 22.80449219 -2.04445313 21.92148438 -2.03515625 21.01171875 C-2.01775391 20.01591797 -2.01775391 20.01591797 -2 19 C-2.66 19 -3.32 19 -4 19 C-4 18.01 -4 17.02 -4 16 C-3.34 16 -2.68 16 -2 16 C-2.02320313 15.34773437 -2.04640625 14.69546875 -2.0703125 14.0234375 C-2.17583753 8.91301097 -2.01926302 4.79574967 0 0 Z " fill="#0D0D0D" transform="translate(544,229)"/>
<path d="M0 0 C18.15 0 36.3 0 55 0 C55 3.3 55 6.6 55 10 C47.74 10 40.48 10 33 10 C33 29.14 33 48.28 33 68 C29.37 68 25.74 68 22 68 C22 48.86 22 29.72 22 10 C14.74 10 7.48 10 0 10 C0 6.7 0 3.4 0 0 Z " fill="#0F0F0F" transform="translate(40,339)"/>
<path d="M0 0 C5.28 0 10.56 0 16 0 C16 22.77 16 45.54 16 69 C10.72 69 5.44 69 0 69 C0 46.23 0 23.46 0 0 Z " fill="#0A0A0A" transform="translate(399,249)"/>
<path d="M0 0 C3.34751809 1.11583936 3.92922033 1.88410709 6.0625 4.5625 C12.21202752 11.78884352 19.34548934 17.15355082 28 21 C27.46455772 25.55125938 25.82278978 28.41429406 23 32 C17.24612936 36.43527528 13.2143966 37.48095977 6 37 C-0.21525968 35.6057022 -3.39410022 33.19673793 -7 28 C-10.19412225 22.82642171 -9.57902517 16.86173631 -9 11 C-7.45109322 6.14396794 -4.32635669 2.66237335 0 0 Z " fill="#F8F8F8" transform="translate(479,266)"/>
<path d="M0 0 C15.3 0 15.3 0 20 3 C24 7.92307692 24 7.92307692 24 12 C24.66 12 25.32 12 26 12 C26 16.29 26 20.58 26 25 C25.34 25 24.68 25 24 25 C23.9175 25.721875 23.835 26.44375 23.75 27.1875 C22.81581801 30.69068244 21.56094911 32.43905089 19 35 C13 37 13 37 0 37 C0 24.79 0 12.58 0 0 Z " fill="#FAFAFA" transform="translate(319,265)"/>
<path d="M0 0 C3.63 0 7.26 0 11 0 C11 22.44 11 44.88 11 68 C7.37 68 3.74 68 0 68 C0 45.56 0 23.12 0 0 Z " fill="#030303" transform="translate(405,339)"/>
<path d="M0 0 C1.65 0 3.3 0 5 0 C5.14695312 1.32451172 5.14695312 1.32451172 5.296875 2.67578125 C6.18433364 9.7984019 7.46437801 16.14503698 10.1953125 22.79296875 C11 25 11 25 11 28 C9.02 28.66 7.04 29.32 5 30 C5 30.99 5 31.98 5 33 C11.435 32.505 11.435 32.505 18 32 C18 32.99 18 33.98 18 35 C10.38459684 36.5832711 3.70185475 37.26092312 -4 36 C-3.67 34.68 -3.34 33.36 -3 32 C-1.68 32.33 -0.36 32.66 1 33 C0.67 31.68 0.34 30.36 0 29 C-1.32 29.33 -2.64 29.66 -4 30 C-4.33 27.36 -4.66 24.72 -5 22 C-5.66 22 -6.32 22 -7 22 C-7.391875 20.845 -7.78375 19.69 -8.1875 18.5 C-9.88196679 13.93797404 -12.29219108 10.02425357 -15 6 C-12.87607494 5.3299166 -10.75082476 4.66403203 -8.625 4 C-7.44164062 3.62875 -6.25828125 3.2575 -5.0390625 2.875 C-2 2 -2 2 0 2 C0 1.34 0 0.68 0 0 Z " fill="#F6F6F6" transform="translate(528,250)"/>
<path d="M0 0 C2.825625 -0.103125 5.65125 -0.20625 8.5625 -0.3125 C9.43849854 -0.35802002 10.31449707 -0.40354004 11.21704102 -0.45043945 C16.4452155 -0.54195465 19.53355259 0.40476073 23.69677734 3.58154297 C26.08345487 6.1792568 26.05972734 8.5955419 26 12 C25.4375 15.25 25.4375 15.25 24 18 C18.89457719 21.38503072 14.50946755 21.36907969 8.625 21.1875 C4.355625 21.0946875 4.355625 21.0946875 0 21 C0 14.07 0 7.14 0 0 Z " fill="#F9F9F9" transform="translate(331,349)"/>
<path d="M0 0 C2.825625 -0.103125 5.65125 -0.20625 8.5625 -0.3125 C9.43849854 -0.35802002 10.31449707 -0.40354004 11.21704102 -0.45043945 C16.43862473 -0.54183928 19.53562847 0.40394142 23.70288086 3.56323242 C26.00635329 6.11469775 26 8.69127167 26 12 C25.67 12.99 25.34 13.98 25 15 C24.34 15 23.68 15 23 15 C22.9175 15.61875 22.835 16.2375 22.75 16.875 C22 19 22 19 20.22363281 20.12060547 C17.84551124 21.06109668 16.21571092 21.23165301 13.671875 21.1953125 C12.9509668 21.19031738 12.23005859 21.18532227 11.48730469 21.18017578 C10.58399414 21.16196777 9.68068359 21.14375977 8.75 21.125 C4.41875 21.063125 4.41875 21.063125 0 21 C0 14.07 0 7.14 0 0 Z " fill="#FAFAFA" transform="translate(142,349)"/>
<path d="M0 0 C0.66 2.64 1.32 5.28 2 8 C4.31 8.66 6.62 9.32 9 10 C9 10.66 9 11.32 9 12 C9.969375 12.268125 10.93875 12.53625 11.9375 12.8125 C12.948125 13.204375 13.95875 13.59625 15 14 C15.33 14.99 15.66 15.98 16 17 C18.33294775 17.04241723 20.66702567 17.04092937 23 17 C23.495 16.505 23.495 16.505 24 16 C27.05245617 15.56658837 29.95380245 15.51005214 33 16 C35.5625 18.375 35.5625 18.375 37 21 C37 21.66 37 22.32 37 23 C33.22777911 24.75163456 30.333361 25.22490027 26.1875 25.125 C24.72376953 25.09792969 24.72376953 25.09792969 23.23046875 25.0703125 C22.49441406 25.04710937 21.75835938 25.02390625 21 25 C21 25.66 21 26.32 21 27 C18.1875 27.1875 18.1875 27.1875 15 27 C14.525625 26.484375 14.05125 25.96875 13.5625 25.4375 C13.046875 24.963125 12.53125 24.48875 12 24 C9.66117862 24.29235267 7.32716 24.62599214 5 25 C2 23 2 23 1.3125 20.875 C1.209375 20.25625 1.10625 19.6375 1 19 C-0.093125 18.7525 -1.18625 18.505 -2.3125 18.25 C-6 17 -6 17 -8 15.25 C-9.44547743 11.99767578 -9.06382267 10.39093477 -8 7 C-4.08450704 0 -4.08450704 0 0 0 Z " fill="#F3F3F3" transform="translate(496,202)"/>
<path d="M0 0 C0.99 0 1.98 0 3 0 C6 5.75 6 5.75 6 8 C6.83144531 8.10957031 7.66289062 8.21914062 8.51953125 8.33203125 C9.60621094 8.49058594 10.69289063 8.64914063 11.8125 8.8125 C12.89144531 8.96332031 13.97039062 9.11414063 15.08203125 9.26953125 C18 10 18 10 19.39501953 11.50708008 C22.48634141 14.38256431 27.02659657 13.71661837 31.0625 13.875 C32.44791992 13.96394531 32.44791992 13.96394531 33.86132812 14.0546875 C34.74369141 14.0959375 35.62605469 14.1371875 36.53515625 14.1796875 C37.343479 14.21819824 38.15180176 14.25670898 38.98461914 14.29638672 C39.64969482 14.1985791 40.31477051 14.10077148 41 14 C41.66 13.01 42.32 12.02 43 11 C44.32 11.33 45.64 11.66 47 12 C37.60526316 19 37.60526316 19 32 19 C32 19.66 32 20.32 32 21 C28.16275828 21.90413673 24.62497726 22.10576898 20.6875 22.0625 C19.08455078 22.04896484 19.08455078 22.04896484 17.44921875 22.03515625 C16.64097656 22.02355469 15.83273437 22.01195312 15 22 C15 21.34 15 20.68 15 20 C13.7934375 20.12375 13.7934375 20.12375 12.5625 20.25 C7.70446218 19.90908507 4.37414045 18.12079537 0 16 C0 10.72 0 5.44 0 0 Z " fill="#EEEEEE" transform="translate(483,221)"/>
<path d="M0 0 C0.99 0 1.98 0 3 0 C3.11214844 0.61488281 3.22429687 1.22976562 3.33984375 1.86328125 C3.98513415 4.5077066 4.64058649 6.63361352 6 9 C8.88195705 10.65559235 11.7440112 11.40614041 15 12 C15 12.66 15 13.32 15 14 C15.61875 14.061875 16.2375 14.12375 16.875 14.1875 C19 15 19 15 20.25 17.375 C21 20 21 20 21 23 C18.13275314 22.42655063 17.1385485 22.1385485 15 20 C13.906875 20.020625 12.81375 20.04125 11.6875 20.0625 C7.638278 19.99386912 6.05161454 19.61566961 3 17 C1.6875 13.8125 1.6875 13.8125 1 11 C-0.65 10.67 -2.3 10.34 -4 10 C-4.66 8.02 -5.32 6.04 -6 4 C-5.195625 3.525625 -4.39125 3.05125 -3.5625 2.5625 C-1.15246512 1.23099846 -1.15246512 1.23099846 0 0 Z " fill="#EEEEEE" transform="translate(504,191)"/>
<path d="M0 0 C1.98 0.66 3.96 1.32 6 2 C6.03738281 3.16015625 6.07476563 4.3203125 6.11328125 5.515625 C6.44438684 13.86127556 6.9803363 21.57888112 9.4765625 29.6171875 C10.03538747 32.16109223 9.84860475 33.56733306 9 36 C8.01 36 7.02 36 6 36 C5.34 33.69 4.68 31.38 4 29 C3.34 29 2.68 29 2 29 C-0.82918721 19.65357798 -2.86351198 9.60662085 0 0 Z " fill="#ECECEC" transform="translate(547,236)"/>
<path d="M0 0 C2 1 2 1 3 3 C1.88625 3.474375 0.7725 3.94875 -0.375 4.4375 C-9.35809851 8.96893868 -15.89786032 15.86734166 -20 25 C-20.66 25 -21.32 25 -22 25 C-25.20141319 36.06348836 -26.7150684 46.48876329 -27 58 C-27.99 58.495 -27.99 58.495 -29 59 C-29 57.35 -29 55.7 -29 54 C-29.66 54 -30.32 54 -31 54 C-31 51.69 -31 49.38 -31 47 C-30.34 47 -29.68 47 -29 47 C-29.0825 45.7625 -29.165 44.525 -29.25 43.25 C-29.26954243 37.07459344 -27.18359798 31.70604435 -25 26 C-24.67257812 25.10410156 -24.34515625 24.20820313 -24.0078125 23.28515625 C-22.62678822 20.15376399 -20.4442527 18.3887015 -18 16 C-17.0485453 14.67658851 -16.11186626 13.34247199 -15.1875 12 C-12.49187194 8.27947169 -9.64729211 6.19262008 -5.63671875 4.0078125 C-3.82592386 3.09112822 -3.82592386 3.09112822 -3 1 C-2.01 0.67 -1.02 0.34 0 0 Z " fill="#DBDBDB" transform="translate(505,181)"/>
<path d="M0 0 C1.65 0.33 3.3 0.66 5 1 C5.66 7.93 6.32 14.86 7 22 C5.02 22.99 5.02 22.99 3 24 C1.14223235 20.86501708 0.79859524 18.62528568 1 15 C0.34 15 -0.32 15 -1 15 C-1.33 10.71 -1.66 6.42 -2 2 C-1.34 2 -0.68 2 0 2 C0 1.34 0 0.68 0 0 Z " fill="#F1F1F1" transform="translate(559,242)"/>
<path d="M0 0 C4.4210037 0.53660733 6.9755167 2.14438694 10.5 4.8125 C11.4178125 5.49957031 12.335625 6.18664062 13.28125 6.89453125 C14.62703125 7.93673828 14.62703125 7.93673828 16 9 C16.89332031 9.6703125 17.78664063 10.340625 18.70703125 11.03125 C20.85515667 12.87563708 21.94681531 14.18987711 23.1875 16.6875 C24.61600402 20.0454935 24.61600402 20.0454935 27 21 C28.0703125 23.28515625 28.0703125 23.28515625 29.125 26.0625 C29.47820313 26.98160156 29.83140625 27.90070313 30.1953125 28.84765625 C30.46085938 29.55792969 30.72640625 30.26820313 31 31 C30.01 31 29.02 31 28 31 C27.67 29.68 27.34 28.36 27 27 C26.34 27 25.68 27 25 27 C24.46375 25.824375 23.9275 24.64875 23.375 23.4375 C19.03659316 14.82157623 12.26867294 8.08955765 3 5 C3 4.34 3 3.68 3 3 C2.34 3 1.68 3 1 3 C0.67 2.01 0.34 1.02 0 0 Z " fill="#DFDFDF" transform="translate(552,180)"/>
<path d="M0 0 C0.53625 0.28875 1.0725 0.5775 1.625 0.875 C4.35280484 2.16711808 7.12612718 3.08558592 10 4 C10.33 3.34 10.66 2.68 11 2 C11.99 2.66 12.98 3.32 14 4 C14 4.66 14 5.32 14 6 C13.34 6 12.68 6 12 6 C13.0197307 9.77300358 13.65872662 10.80206144 17.125 12.8125 C18.07375 13.204375 19.0225 13.59625 20 14 C20 14.99 20 15.98 20 17 C12.04175296 14.14677962 5.61927425 8.19561007 0 2 C0 1.34 0 0.68 0 0 Z " fill="#F4F4F4" transform="translate(487,264)"/>
<path d="M0 0 C0.66 0 1.32 0 2 0 C2 0.66 2 1.32 2 2 C2.66 2 3.32 2 4 2 C4 2.66 4 3.32 4 4 C9.98044406 5.71951285 15.80759538 7.31195504 22 8 C22 8.66 22 9.32 22 10 C15.07 10 8.14 10 1 10 C0.34 7.03 -0.32 4.06 -1 1 C-0.67 0.67 -0.34 0.34 0 0 Z " fill="#F3F3F3" transform="translate(477,239)"/>
<path d="M0 0 C0.66 0 1.32 0 2 0 C2 0.66 2 1.32 2 2 C2.66 2 3.32 2 4 2 C5.14077657 5.42232972 5.09815117 8.08673217 5.0625 11.6875 C5.05347656 12.86699219 5.04445313 14.04648438 5.03515625 15.26171875 C5.02355469 16.16535156 5.01195312 17.06898438 5 18 C1.125 16.125 1.125 16.125 0 15 C-0.07313567 12.46950598 -0.09247527 9.96695163 -0.0625 7.4375 C-0.05798828 6.72658203 -0.05347656 6.01566406 -0.04882812 5.28320312 C-0.03700864 3.52209987 -0.01907263 1.76103964 0 0 Z " fill="#D4D4D4" transform="translate(566,200)"/>
<path d="M0 0 C3.875 1.875 3.875 1.875 5 3 C5.07271741 5.35313555 5.08370868 7.70833668 5.0625 10.0625 C5.05347656 11.35285156 5.04445313 12.64320313 5.03515625 13.97265625 C5.02355469 14.97167969 5.01195312 15.97070312 5 17 C1.125 15.125 1.125 15.125 0 14 C-0.07271741 11.64686445 -0.08370868 9.29166332 -0.0625 6.9375 C-0.05347656 5.64714844 -0.04445313 4.35679687 -0.03515625 3.02734375 C-0.02355469 2.02832031 -0.01195312 1.02929688 0 0 Z " fill="#D9D9D9" transform="translate(556,191)"/>
<path d="M0 0 C0.66 0 1.32 0 2 0 C2.33 0.66 2.66 1.32 3 2 C9.435 1.505 9.435 1.505 16 1 C16 1.99 16 2.98 16 4 C8.38459684 5.5832711 1.70185475 6.26092312 -6 5 C-5.67 3.68 -5.34 2.36 -5 1 C-3.02 1.495 -3.02 1.495 -1 2 C-0.67 1.34 -0.34 0.68 0 0 Z " fill="#F5F5F5" transform="translate(530,281)"/>
<path d="M0 0 C2.43868168 -0.1079859 4.87259133 -0.18726589 7.3125 -0.25 C8.00279297 -0.28351563 8.69308594 -0.31703125 9.40429688 -0.3515625 C11.42578125 -0.390625 11.42578125 -0.390625 15 0 C15.99 1.32 16.98 2.64 18 4 C13.38 4 8.76 4 4 4 C4 3.34 4 2.68 4 2 C2.68 1.67 1.36 1.34 0 1 C0 0.67 0 0.34 0 0 Z " fill="#F1F1F1" transform="translate(547,217)"/>
<path d="M0 0 C2.26979665 -0.10794277 4.54105196 -0.18556176 6.8125 -0.25 C8.07707031 -0.29640625 9.34164062 -0.3428125 10.64453125 -0.390625 C14 0 14 0 15.94921875 2.015625 C16.29597656 2.67046875 16.64273438 3.3253125 17 4 C14.73020335 4.10794277 12.45894804 4.18556176 10.1875 4.25 C8.92292969 4.29640625 7.65835938 4.3428125 6.35546875 4.390625 C3 4 3 4 1.05078125 1.984375 C0.53064453 1.00210938 0.53064453 1.00210938 0 0 Z " fill="#ECECEC" transform="translate(539,208)"/>
<path d="M0 0 C-0.33 0.99 -0.66 1.98 -1 3 C-2.32 3 -3.64 3 -5 3 C-5 3.66 -5 4.32 -5 5 C-9.98862849 5.29344873 -12.96229058 5.05887078 -17 2 C-17 1.67 -17 1.34 -17 1 C-11.29014022 0.25983299 -5.75813575 -0.10469338 0 0 Z " fill="#DFDFDF" transform="translate(516,247)"/>
<path d="M0 0 C1.98 0 3.96 0 6 0 C5.71640113 1.4391134 5.42278601 2.87625518 5.125 4.3125 C4.96257813 5.11300781 4.80015625 5.91351563 4.6328125 6.73828125 C4 9 4 9 2 12 C1.34 12 0.68 12 0 12 C0 8.04 0 4.08 0 0 Z " fill="#F8F8F8" transform="translate(570,244)"/>
<path d="M0 0 C2 1 2 1 3 3 C1.2675 3.804375 1.2675 3.804375 -0.5 4.625 C-5.08467269 6.90096251 -9.0098795 9.81639322 -13 13 C-13.66 12.34 -14.32 11.68 -15 11 C-12.3226719 8.79514157 -9.65602717 6.77509468 -6.75 4.875 C-3.94016618 3.28622262 -3.94016618 3.28622262 -3 1 C-2.01 0.67 -1.02 0.34 0 0 Z " fill="#D2D2D2" transform="translate(505,181)"/>
<path d="M0 0 C0.66 0 1.32 0 2 0 C2 5.28 2 10.56 2 16 C1.34 16.33 0.68 16.66 0 17 C0 15.35 0 13.7 0 12 C-0.66 12 -1.32 12 -2 12 C-2 9.69 -2 7.38 -2 5 C-1.34 5 -0.68 5 0 5 C0 3.35 0 1.7 0 0 Z " fill="#D7D7D7" transform="translate(476,223)"/>
<path d="M0 0 C1.32 0.33 2.64 0.66 4 1 C4 4.3 4 7.6 4 11 C2.68 10.34 1.36 9.68 0 9 C0 6.03 0 3.06 0 0 Z " fill="#CACACA" transform="translate(547,187)"/>
<path d="M0 0 C5.95703125 -0.390625 5.95703125 -0.390625 8 0 C8.99 1.32 9.98 2.64 11 4 C7.7 4 4.4 4 1 4 C0.67 2.68 0.34 1.36 0 0 Z " fill="#F2F2F2" transform="translate(535,198)"/>
<path d="M0 0 C0.66 0.33 1.32 0.66 2 1 C0.89191046 5.80172134 -0.04686508 8.91161335 -4 12 C-4.66 12 -5.32 12 -6 12 C-4.125 7.25 -4.125 7.25 -3 5 C-2.34 5 -1.68 5 -1 5 C-0.67 3.35 -0.34 1.7 0 0 Z " fill="#E4E4E4" transform="translate(581,249)"/>
<path d="M0 0 C0 2.31 0 4.62 0 7 C-1.98 6.34 -3.96 5.68 -6 5 C-6 3.68 -6 2.36 -6 1 C-3 0 -3 0 0 0 Z " fill="#F9F9F9" transform="translate(518,186)"/>
<path d="M0 0 C0.66 0 1.32 0 2 0 C2.66 3.63 3.32 7.26 4 11 C3.34 11 2.68 11 2 11 C2 10.34 2 9.68 2 9 C1.34 9 0.68 9 0 9 C0 6.03 0 3.06 0 0 Z " fill="#B0B0B0" transform="translate(575,215)"/>
<path d="M0 0 C2.17854707 3.2678206 3.49760034 6.38058265 5 10 C4.01 10 3.02 10 2 10 C1.67 8.68 1.34 7.36 1 6 C0.34 6 -0.32 6 -1 6 C-1.33 4.35 -1.66 2.7 -2 1 C-1.34 0.67 -0.68 0.34 0 0 Z " fill="#CECECE" transform="translate(578,201)"/>
<path d="M0 0 C1.32 0.66 2.64 1.32 4 2 C3.67 3.32 3.34 4.64 3 6 C1.68 5.67 0.36 5.34 -1 5 C-1 1 -1 1 0 0 Z " fill="#202020" transform="translate(526,278)"/>
<path d="M0 0 C0 0.66 0 1.32 0 2 C0.99 2.33 1.98 2.66 3 3 C-2.28 2.67 -7.56 2.34 -13 2 C-13 1.67 -13 1.34 -13 1 C-11.58366664 0.83052421 -10.16691467 0.66454493 -8.75 0.5 C-7.56664062 0.36078125 -7.56664062 0.36078125 -6.359375 0.21875 C-4 0 -4 0 0 0 Z " fill="#DCDCDC" transform="translate(541,176)"/>
<path d="M0 0 C1.46726798 3.81489674 0.43336419 6.29011622 -1 10 C-1.66 10 -2.32 10 -3 10 C-2.25 3.375 -2.25 3.375 0 0 Z " fill="#F1F1F1" transform="translate(479,213)"/>
<path d="M0 0 C0.66 0 1.32 0 2 0 C0.50163895 3.11198065 -1.19933758 6.0534615 -3 9 C-3.99 8.67 -4.98 8.34 -6 8 C-5.04956626 6.66102417 -4.08940853 5.32894573 -3.125 4 C-2.59132813 3.2575 -2.05765625 2.515 -1.5078125 1.75 C-1.01023437 1.1725 -0.51265625 0.595 0 0 Z " fill="#EAEAEA" transform="translate(490,193)"/>
<path d="M0 0 C2.475 0.495 2.475 0.495 5 1 C5.33 2.65 5.66 4.3 6 6 C3.37812506 4.95125002 2.20628639 4.35068687 0.75 1.875 C0.5025 1.25625 0.255 0.6375 0 0 Z " fill="#B8B8B8" transform="translate(536,183)"/>
<path d="M0 0 C0.66 0 1.32 0 2 0 C0.84826645 2.46800047 -0.04783565 4.04783565 -2 6 C-4.125 5.625 -4.125 5.625 -6 5 C-5.67 3.68 -5.34 2.36 -5 1 C-3.02 1.495 -3.02 1.495 -1 2 C-0.67 1.34 -0.34 0.68 0 0 Z " fill="#E2E2E2" transform="translate(530,281)"/>
<path d="M0 0 C0.66 0 1.32 0 2 0 C3.2890625 1.75 3.2890625 1.75 4.625 4 C5.07101562 4.7425 5.51703125 5.485 5.9765625 6.25 C6.31429687 6.8275 6.65203125 7.405 7 8 C4.25254567 7.44369726 3.21771549 7.2332666 1.25 5.125 C0 3 0 3 0 0 Z " fill="#EFEFEF" transform="translate(571,194)"/>
<path d="M0 0 C2.375 0.25 2.375 0.25 5 1 C6.3125 3.0625 6.3125 3.0625 7 5 C6.01 5.495 6.01 5.495 5 6 C4.34 5.67 3.68 5.34 3 5 C3 4.34 3 3.68 3 3 C2.34 3 1.68 3 1 3 C0.67 2.01 0.34 1.02 0 0 Z " fill="#D6D6D6" transform="translate(552,180)"/>
<path d="M0 0 C-1.28965176 1.37562854 -2.62689293 2.70766393 -4 4 C-4.66 4 -5.32 4 -6 4 C-6 3.34 -6 2.68 -6 2 C-7.32 1.67 -8.64 1.34 -10 1 C-6.59437148 0.22157062 -3.49234244 -0.09978121 0 0 Z " fill="#C1C1C1" transform="translate(561,277)"/>
<path d="M0 0 C2.475 0.495 2.475 0.495 5 1 C5.33 2.32 5.66 3.64 6 5 C3.5625 4.1875 3.5625 4.1875 1 3 C0.67 2.01 0.34 1.02 0 0 Z " fill="#C4C4C4" transform="translate(501,276)"/>
<path d="M0 0 C0.53625 0.28875 1.0725 0.5775 1.625 0.875 C4.35280484 2.16711808 7.12612718 3.08558592 10 4 C10 4.33 10 4.66 10 5 C7.25 5.75 7.25 5.75 4 6 C1.625 4.1875 1.625 4.1875 0 2 C0 1.34 0 0.68 0 0 Z " fill="#E1E1E1" transform="translate(487,264)"/>
<path d="M0 0 C0.33 0 0.66 0 1 0 C0.67 2.64 0.34 5.28 0 8 C-0.99 8 -1.98 8 -3 8 C-2.67 6.35 -2.34 4.7 -2 3 C-1.34 3 -0.68 3 0 3 C0 2.01 0 1.02 0 0 Z " fill="#F9F9F9" transform="translate(584,241)"/>
<path d="M0 0 C0.66 1.32 1.32 2.64 2 4 C0.625 5.5 0.625 5.5 -1 7 C-1.66 7 -2.32 7 -3 7 C-1.125 2.25 -1.125 2.25 0 0 Z " fill="#B8B8B8" transform="translate(578,254)"/>
</svg>
