<?xml version="1.0" encoding="UTF-8"?>
<svg version="1.1" xmlns="http://www.w3.org/2000/svg" width="653" height="366">
<path d="M0 0 C215.49 0 430.98 0 653 0 C653 120.78 653 241.56 653 366 C437.51 366 222.02 366 0 366 C0 245.22 0 124.44 0 0 Z " fill="#000000" transform="translate(0,0)"/>
<path d="M0 0 C7.91428258 7.78257743 13.41922771 15.81923544 17.875 26 C18.21789062 26.76570313 18.56078125 27.53140625 18.9140625 28.3203125 C24.3417389 42.87865948 21.44468914 62.43051264 15.27734375 76.1953125 C10.64345261 85.46309479 3.57349207 95.20100528 -5.125 101 C-3.91495454 104.63013639 -3.08877988 104.87693578 0.1875 106.625 C0.96738281 107.05039063 1.74726563 107.47578125 2.55078125 107.9140625 C8.02480987 110.47167587 13.68288539 110.9681789 19.4765625 109.2109375 C23.73267297 107.56624585 27.29702842 105.86401853 30.875 103 C34.03615776 104.36983503 34.8677092 104.9890638 36.875 108 C36.875 108.99 36.875 109.98 36.875 111 C34.8984375 112.53515625 34.8984375 112.53515625 32.25 114.0625 C31.39148438 114.56910156 30.53296875 115.07570312 29.6484375 115.59765625 C21.22632916 119.85615892 12.35795886 120.53617382 3.25 117.984375 C-1.79197488 116.08217539 -6.66129386 114.05497687 -11.125 111 C-11.125 110.34 -11.125 109.68 -11.125 109 C-16.77101577 108.80014103 -21.15702543 109.37316459 -26.625 111 C-44.81022558 115.88599752 -60.91998741 112.15427394 -77.125 103 C-77.125 101.68 -77.125 100.36 -77.125 99 C-74.92154951 97.61264229 -73.56519703 96.97484588 -70.9375 97.125 C-68.45874515 97.89616818 -66.33557667 98.82591538 -64 99.9375 C-51.3503452 105.70641388 -38.42252064 104.33436099 -25.125 102 C-25.125 101.34 -25.125 100.68 -25.125 100 C-25.78757812 99.7628125 -26.45015625 99.525625 -27.1328125 99.28125 C-31.66501251 97.34056906 -35.82778868 94.78525925 -40.06640625 92.27734375 C-49.95300943 86.57136134 -59.78077136 85.47557744 -70.875 88.1875 C-75.29056091 89.50006212 -78.73144948 91.40065327 -82.37109375 94.20703125 C-84.125 95 -84.125 95 -86.140625 94.33984375 C-97.37655513 86.75337911 -102.78418054 71.80055043 -105.46875 59.01953125 C-108.72046085 40.96466899 -103.32079576 25.32632627 -94.125 10 C-93.465 10 -92.805 10 -92.125 10 C-91.88523437 9.26523438 -91.64546875 8.53046875 -91.3984375 7.7734375 C-86.94598559 -1.92362035 -74.31311112 -8.64091708 -64.75390625 -12.28515625 C-41.41881215 -19.81173573 -18.54675194 -16.32726443 0 0 Z M-86.38671875 13.70703125 C-96.62630831 27.23994536 -99.45950072 41.21865348 -98.125 58 C-96.15349593 67.47666159 -91.45732486 76.0015127 -86.125 84 C-82.54116048 83.38452845 -79.41151895 82.40793378 -76.0625 81 C-65.9588566 76.76549922 -54.67020099 76.27461175 -44.3125 80.0625 C-39.11534018 82.33023475 -34.40752209 85.13407374 -29.70703125 88.29296875 C-26.53958316 90.3870305 -23.25524667 92.18053838 -19.90234375 93.95703125 C-18.125 95 -18.125 95 -16.125 97 C-9.81900838 96.45987224 -4.31761069 90.2799657 -0.1640625 85.9609375 C8.25477968 75.78975713 14.27522946 63.1989004 14.25 49.9375 C14.24911377 49.10130127 14.24822754 48.26510254 14.24731445 47.40356445 C14.01844674 35.29681079 9.91257124 24.91911696 2.8125 15.125 C1.77416016 13.67480469 1.77416016 13.67480469 0.71484375 12.1953125 C0.10769531 11.47085938 -0.49945313 10.74640625 -1.125 10 C-1.785 10 -2.445 10 -3.125 10 C-3.62 8.515 -3.62 8.515 -4.125 7 C-6.57326416 4.89528959 -9.34793002 3.24194533 -12.0625 1.5 C-12.78501953 1.01402344 -13.50753906 0.52804688 -14.25195312 0.02734375 C-23.18756015 -5.76147845 -31.56871524 -7.50806241 -42.125 -7.375 C-43.04539062 -7.38660156 -43.96578125 -7.39820312 -44.9140625 -7.41015625 C-61.68884579 -7.33927688 -75.77313795 1.00372987 -86.38671875 13.70703125 Z " fill="#C98A6C" transform="translate(387.125,118)"/>
<path d="M0 0 C19.47 0 38.94 0 59 0 C59 2.64 59 5.28 59 8 C42.17 8 25.34 8 8 8 C8 25.16 8 42.32 8 60 C22.52 60 37.04 60 52 60 C52 62.97 52 65.94 52 69 C37.81 69 23.62 69 9 69 C9 83.52 9 98.04 9 113 C37.05 113 65.1 113 94 113 C94 115.64 94 118.28 94 121 C62.98 121 31.96 121 0 121 C0 81.07 0 41.14 0 0 Z " fill="#CF997D" transform="translate(120,105)"/>
<path d="M0 0 C3 1 3 1 4.39453125 3.48095703 C4.86246094 4.56231934 5.33039063 5.64368164 5.8125 6.7578125 C6.58980469 8.53285156 6.58980469 8.53285156 7.3828125 10.34375 C7.92210791 11.60406703 8.46116855 12.86448454 9 14.125 C9.53808626 15.36240414 10.07713841 16.59938875 10.6171875 17.8359375 C12.08917769 21.21931794 13.54648753 24.60865078 15 28 C15.47602661 29.09453491 15.47602661 29.09453491 15.96166992 30.21118164 C17.53398771 33.82965958 18.94743667 37.4863489 20.3125 41.1875 C22.37599504 46.60728215 24.76383029 51.73046008 27.47265625 56.85546875 C28.70601008 59.39472664 29.77687314 61.89317976 30.80859375 64.515625 C33.34248625 70.952253 36.1741635 77.24983306 39 83.5625 C39.52078125 84.72974609 40.0415625 85.89699219 40.578125 87.09960938 C42.05087522 90.40028063 43.52537796 93.70016472 45 97 C47.2628574 102.06914021 49.52129541 107.13857718 51.6875 112.25 C52.10386719 113.22453125 52.52023437 114.1990625 52.94921875 115.203125 C53.92868435 117.81017841 54.54471487 120.25828296 55 123 C52.03 123 49.06 123 46 123 C41.63988669 113.89544728 37.56263014 104.72012566 33.7734375 95.36328125 C29.76746777 85.47716998 25.58885972 75.66669607 21.34326172 65.8815918 C20.49961846 63.93662038 19.6579367 61.99080823 18.81640625 60.04492188 C15.96668147 53.46513735 13.07202184 46.90904127 10.08984375 40.38793945 C8.61068751 37.14698355 7.17049935 33.89214849 5.75 30.625 C5.24984375 29.48289063 4.7496875 28.34078125 4.234375 27.1640625 C3.15909286 24.40780133 2.45813662 21.91243991 2 19 C1.34 19 0.68 19 0 19 C-0.17305664 19.55179932 -0.34611328 20.10359863 -0.52441406 20.67211914 C-2.27554849 26.10721128 -4.35835467 31.25706618 -6.75 36.4375 C-9.97108794 43.53153596 -12.91123278 50.69375539 -15.65332031 57.98608398 C-15.91854492 58.68677002 -16.18376953 59.38745605 -16.45703125 60.109375 C-16.68366455 60.71749023 -16.91029785 61.32560547 -17.14379883 61.95214844 C-18.29124906 64.69660596 -19.66968506 67.33937013 -21 70 C-9.12 70 2.76 70 15 70 C17 75 17 75 17 78 C2.81 78 -11.38 78 -26 78 C-26.33 79.65 -26.66 81.3 -27 83 C-28.0117736 85.66833433 -29.0572622 88.29594218 -30.16015625 90.92578125 C-30.46948593 91.67337204 -30.77881561 92.42096283 -31.09751892 93.19120789 C-32.0815918 95.56676345 -33.07194502 97.93964105 -34.0625 100.3125 C-34.73283872 101.92756143 -35.4027652 103.54279402 -36.07226562 105.15820312 C-37.71007582 109.10746717 -39.35352163 113.05434237 -41 117 C-44 117 -44 117 -46.25 114.8125 C-48 112 -48 112 -47.75 109.60546875 C-46.99925001 106.99739455 -46.03955213 104.88322293 -44.75 102.5 C-42.80499655 98.73190215 -41.16757257 94.97361855 -39.6875 91 C-36.77974636 83.23684642 -33.36089153 75.72601852 -29.96679688 68.16748047 C-26.63991115 60.70887151 -23.48107508 53.17776615 -20.375 45.625 C-19.02650617 42.36542415 -17.63189153 39.18920418 -16 36.0625 C-14.33260362 32.82695702 -13.02663345 29.53361131 -11.75 26.125 C-9.59974795 20.413393 -7.22753379 14.82721366 -4.75 9.25 C-4.39647461 8.45094238 -4.04294922 7.65188477 -3.67871094 6.82861328 C-1.12861332 1.12861332 -1.12861332 1.12861332 0 0 Z " fill="#DFA789" transform="translate(474,104)"/>
<path d="M0 0 C7.91428258 7.78257743 13.41922771 15.81923544 17.875 26 C18.21789062 26.76570313 18.56078125 27.53140625 18.9140625 28.3203125 C23.39820932 40.34788387 22.25761609 58.01261127 17.8046875 69.84375 C15.51366327 74.85806718 13.85991423 77.38646875 8.875 80 C8.96344809 77.99924324 9.07162823 75.999356 9.1875 74 C9.24550781 72.88625 9.30351562 71.7725 9.36328125 70.625 C9.78115705 67.66478059 10.2740938 65.81499506 11.390625 63.13671875 C13.17447835 58.66552288 13.37258394 54.5894177 13.3125 49.8125 C13.30440308 48.57173706 13.30440308 48.57173706 13.29614258 47.3059082 C12.96093671 33.64726288 7.50306767 21.47693932 -1.125 11 C-12.97348138 -0.25208131 -25.73332578 -6.58161774 -42.125 -6.375 C-43.04539062 -6.38660156 -43.96578125 -6.39820312 -44.9140625 -6.41015625 C-59.11913223 -6.35013483 -71.44569023 -0.38110956 -81.69921875 9.31640625 C-88.59828229 16.9487036 -94.16735747 25.79229254 -96.125 36 C-96.30675781 36.9178125 -96.48851562 37.835625 -96.67578125 38.78125 C-97.19919996 42.53165886 -97.30894874 46.22145737 -97.3125 50 C-97.32474609 50.68578125 -97.33699219 51.3715625 -97.34960938 52.078125 C-97.36218527 56.47130489 -96.62216806 59.89729527 -95.125 64 C-94.63275268 67.65030157 -94.32521117 70.93361489 -96.625 74 C-97.3675 74.495 -97.3675 74.495 -98.125 75 C-98.455 73.68 -98.785 72.36 -99.125 71 C-100.115 71 -101.105 71 -102.125 71 C-108.11069668 50.6646644 -107.10139836 33.62081503 -96.9140625 14.7578125 C-96.00822106 13.15813507 -95.0708213 11.57636883 -94.125 10 C-93.465 10 -92.805 10 -92.125 10 C-91.88523437 9.26523438 -91.64546875 8.53046875 -91.3984375 7.7734375 C-86.94598559 -1.92362035 -74.31311112 -8.64091708 -64.75390625 -12.28515625 C-41.41881215 -19.81173573 -18.54675194 -16.32726443 0 0 Z " fill="#AE7F67" transform="translate(387.125,118)"/>
<path d="M0 0 C2.33986934 2.11980486 4.42296574 4.25183482 6 7 C6 7.99 6 8.98 6 10 C3.91836944 11.26384713 2.52513785 12.01693993 0.0625 11.9375 C-2.90503621 10.5886199 -4.70170632 8.29829368 -7 6 C-16.18425169 -0.14310875 -26.26348106 -0.22071235 -37 1 C-42.34477369 2.71818213 -46.33156077 5.56571507 -49.625 10.125 C-52.25059699 15.79076193 -51.91623888 22.32872559 -50.43359375 28.26953125 C-46.82284533 35.92915237 -37.26458706 38.73405523 -30 42 C-27.26656563 43.24969942 -24.5378648 44.50838192 -21.81445312 45.77978516 C-20.03117341 46.61099094 -18.24235765 47.43046155 -16.44726562 48.23583984 C-6.3874817 52.89207162 4.05674176 60.17095349 8.9375 70.5 C11.33709347 78.07371689 11.41461313 88.6213791 8.4375 96 C7.30859375 98.05078125 7.30859375 98.05078125 6 100 C5.53722656 100.69480469 5.07445312 101.38960938 4.59765625 102.10546875 C-0.62795628 108.91537457 -8.61402113 113.2698524 -17 115 C-18.51395696 115.07818636 -20.03093507 115.10789909 -21.546875 115.09765625 C-22.39121094 115.09443359 -23.23554688 115.09121094 -24.10546875 115.08789062 C-25.41451172 115.07532227 -25.41451172 115.07532227 -26.75 115.0625 C-27.63816406 115.05798828 -28.52632812 115.05347656 -29.44140625 115.04882812 C-31.62767329 115.037074 -33.81380179 115.02064249 -36 115 C-36 112.36 -36 109.72 -36 107 C-34.72125 106.97421875 -33.4425 106.9484375 -32.125 106.921875 C-30.41663435 106.86555525 -28.70830233 106.80820882 -27 106.75 C-26.16082031 106.73582031 -25.32164062 106.72164063 -24.45703125 106.70703125 C-15.62181665 106.36458107 -9.34522693 103.04307326 -3 97 C-1.62745412 94.85019503 -1.62745412 94.85019503 -1 93 C-0.34 93 0.32 93 1 93 C1.08172936 90.4784979 1.14083373 87.95970083 1.1875 85.4375 C1.21263672 84.73302734 1.23777344 84.02855469 1.26367188 83.30273438 C1.3510372 76.98330931 -0.00343639 72.40762082 -4.125 67.4375 C-7.8710454 64.26150499 -11.85625734 61.62513347 -16 59 C-16.804375 58.46375 -17.60875 57.9275 -18.4375 57.375 C-21.73337758 55.60648032 -25.16417961 54.32421941 -28.6484375 52.97265625 C-31.27473649 51.88636314 -33.57159753 50.46982255 -36 49 C-37.2641471 48.52353497 -38.53589311 48.06699736 -39.8125 47.625 C-48.48019703 44.46864995 -53.54817801 39.88016212 -58.8125 32.4375 C-61.48023989 24.71509505 -60.76113583 15.6259942 -58 8 C-54.22714055 0.43780572 -47.07074787 -4.38573792 -39.375 -7.4375 C-25.30123824 -10.05119861 -11.91206541 -7.97763894 0 0 Z " fill="#DFAB90" transform="translate(259,111)"/>
<path d="M0 0 C0.66 0 1.32 0 2 0 C3.56964331 3.64654939 5.12842694 7.29666094 6.65625 10.9609375 C11.1272192 21.67100756 15.74938801 32.30598676 20.49414062 42.89794922 C20.94982422 43.92291504 21.40550781 44.94788086 21.875 46.00390625 C22.28492188 46.91986572 22.69484375 47.8358252 23.1171875 48.77954102 C24 51 24 51 24 53 C23.34 53 22.68 53 22 53 C22 54.65 22 56.3 22 58 C21.34 58 20.68 58 20 58 C19.67 58.99 19.34 59.98 19 61 C17.68563965 60.99214478 17.68563965 60.99214478 16.34472656 60.98413086 C13.03466102 60.96689548 9.72464447 60.9544571 6.41455078 60.94506836 C4.99299356 60.94009788 3.57144128 60.93331916 2.14990234 60.92456055 C-12.34543839 59.98639019 -12.34543839 59.98639019 -26 63 C-26 61.68 -26 60.36 -26 59 C-11.81 59 2.38 59 17 59 C16.34 57.68 15.68 56.36 15 55 C15 53.68 15 52.36 15 51 C3.12 51 -8.76 51 -21 51 C-20.20337083 47.01685413 -19.443949 44.49157655 -17.75 40.9375 C-16.02376453 37.23562961 -14.36269961 33.52895635 -12.8125 29.75 C-8.69739905 19.76756158 -4.31994466 9.89499989 0 0 Z " fill="#090505" transform="translate(474,123)"/>
<path d="M0 0 C19.47 0 38.94 0 59 0 C59 0.33 59 0.66 59 1 C39.86 1 20.72 1 1 1 C1 32.02 1 63.04 1 95 C1.66 95 2.32 95 3 95 C3 97.97 3 100.94 3 104 C3.66 104.33 4.32 104.66 5 105 C5 106.32 5 107.64 5 109 C5.66 109.66 6.32 110.32 7 111 C7.33 97.14 7.66 83.28 8 69 C8.33 69 8.66 69 9 69 C9 83.52 9 98.04 9 113 C37.05 113 65.1 113 94 113 C94 115.64 94 118.28 94 121 C62.98 121 31.96 121 0 121 C0 81.07 0 41.14 0 0 Z " fill="#845542" transform="translate(120,105)"/>
<path d="M0 0 C1.37872809 0.63783582 2.75331094 1.28466403 4.125 1.9375 C16.22928029 7.45769416 30.26223178 7.11239586 43 4 C43.33 3.34 43.66 2.68 44 2 C44.495 4.475 44.495 4.475 45 7 C45.87011719 6.96519531 45.87011719 6.96519531 46.7578125 6.9296875 C51.61411166 6.81749577 55.42932395 7.12485085 60 9 C60 9.66 60 10.32 60 11 C60.94875 10.4225 61.8975 9.845 62.875 9.25 C65.49914199 8.09961856 66.62038206 7.89109826 69.41015625 8.69140625 C71.11923327 9.44952851 72.82490053 10.21537717 74.52734375 10.98828125 C81.09323033 13.67479724 86.39204819 11.79088443 92.703125 9.16796875 C95.02600319 7.98677729 96.9689812 6.6257467 99 5 C102.16115776 6.36983503 102.9927092 6.9890638 105 10 C105 10.99 105 11.98 105 13 C103.0234375 14.53515625 103.0234375 14.53515625 100.375 16.0625 C99.51648438 16.56910156 98.65796875 17.07570312 97.7734375 17.59765625 C89.35132916 21.85615892 80.48295886 22.53617382 71.375 19.984375 C66.33302512 18.08217539 61.46370614 16.05497687 57 13 C57 12.34 57 11.68 57 11 C51.35398423 10.80014103 46.96797457 11.37316459 41.5 13 C23.31477442 17.88599752 7.20501259 14.15427394 -9 5 C-9 3.68 -9 2.36 -9 1 C-5.57693278 -1.15526454 -3.84022638 -1.1947371 0 0 Z " fill="#99634B" transform="translate(319,216)"/>
<path d="M0 0 C2.33986934 2.11980486 4.42296574 4.25183482 6 7 C6 7.99 6 8.98 6 10 C3.91836944 11.26384713 2.52513785 12.01693993 0.0625 11.9375 C-2.90503621 10.5886199 -4.70170632 8.29829368 -7 6 C-16.18425169 -0.14310875 -26.26348106 -0.22071235 -37 1 C-42.60686304 2.80243588 -45.79835001 5.62668573 -49.625 10 C-52.26147805 15.43311598 -51.29263471 22.13917699 -51 28 C-51.66 27.67 -52.32 27.34 -53 27 C-53.4140625 24.93359375 -53.4140625 24.93359375 -53.625 22.4375 C-53.69976562 21.61121094 -53.77453125 20.78492188 -53.8515625 19.93359375 C-53.92503906 18.97646484 -53.92503906 18.97646484 -54 18 C-54.99 18.33 -55.98 18.66 -57 19 C-57.66 22.3 -58.32 25.6 -59 29 C-59.33 29 -59.66 29 -60 29 C-60.51464772 10.24394958 -60.51464772 10.24394958 -54.67578125 2.734375 C-39.96356264 -12.49225685 -16.7319158 -11.20554483 0 0 Z " fill="#AB7A64" transform="translate(259,111)"/>
<path d="M0 0 C3.60200402 3.16051515 5.23703286 6.24442978 7.09375 10.63671875 C7.3671521 11.27559525 7.6405542 11.91447174 7.92224121 12.57270813 C8.7906043 14.60724069 9.64557823 16.64707898 10.5 18.6875 C11.0733159 20.03879487 11.6475269 21.38971034 12.22265625 22.74023438 C13.32754888 25.33649056 14.4282197 27.93447287 15.52612305 30.53369141 C17.03698112 34.08697332 18.58936578 37.61852426 20.16845703 41.1418457 C21.37222067 43.8317591 22.53759911 46.53666919 23.6875 49.25 C24.10386719 50.22453125 24.52023437 51.1990625 24.94921875 52.203125 C25.92868435 54.81017841 26.54471487 57.25828296 27 60 C24.03 60 21.06 60 18 60 C13.26400441 50.11055025 8.90960266 40.11952659 4.79785156 29.95556641 C3.6431014 27.12522711 2.44419959 24.31387748 1.25 21.5 C0.86457031 20.55769531 0.47914063 19.61539063 0.08203125 18.64453125 C-0.62265009 16.92225953 -1.35331118 15.21031852 -2.11328125 13.51171875 C-4.34935702 8.0365538 -4.34935702 8.0365538 -3.2890625 4.890625 C-2.1875 2.9375 -2.1875 2.9375 0 0 Z " fill="#D49F84" transform="translate(502,167)"/>
<path d="M0 0 C0.84062397 3.09773244 1.08935201 5.78332751 1 9 C2.65 8.01 4.3 7.02 6 6 C4.52283915 10.36655241 2.18061167 13.77328678 -0.625 17.375 C-1.06505371 17.94500732 -1.50510742 18.51501465 -1.95849609 19.10229492 C-5.52837495 23.62160964 -9.42394225 27.48487184 -14 31 C-13.505 32.485 -13.505 32.485 -13 34 C-12.01 34.495 -12.01 34.495 -11 35 C-11 35.66 -11 36.32 -11 37 C-12.98 37.66 -14.96 38.32 -17 39 C-17 38.34 -17 37.68 -17 37 C-18.10408203 36.90912109 -18.10408203 36.90912109 -19.23046875 36.81640625 C-20.20628906 36.73261719 -21.18210937 36.64882812 -22.1875 36.5625 C-23.15042969 36.48128906 -24.11335938 36.40007812 -25.10546875 36.31640625 C-27.78649602 36.02333849 -30.3662986 35.57296246 -33 35 C-33 33.68 -33 32.36 -33 31 C-33.50789063 30.75765625 -34.01578125 30.5153125 -34.5390625 30.265625 C-38.94170019 28.12201863 -42.98857634 25.80799656 -47 23 C-45 21 -45 21 -41.4375 20.5 C-39.7359375 20.2525 -39.7359375 20.2525 -38 20 C-37.67 19.34 -37.34 18.68 -37 18 C-36.25234375 18.49371094 -35.5046875 18.98742187 -34.734375 19.49609375 C-33.25710938 20.45708984 -33.25710938 20.45708984 -31.75 21.4375 C-30.77546875 22.07558594 -29.8009375 22.71367187 -28.796875 23.37109375 C-25.58151599 25.36997963 -25.58151599 25.36997963 -22 26 C-19.3826032 24.47005055 -19.3826032 24.47005055 -16.875 22.25 C-16.00617188 21.53328125 -15.13734375 20.8165625 -14.2421875 20.078125 C-11.84189447 18.01545912 -11.84189447 18.01545912 -10 15 C-9.34 15 -8.68 15 -8 15 C-7.73445313 14.28457031 -7.46890625 13.56914062 -7.1953125 12.83203125 C-5.97085901 9.93095681 -4.52016937 7.36984136 -2.875 4.6875 C-2.33617187 3.80449219 -1.79734375 2.92148438 -1.2421875 2.01171875 C-0.83226562 1.34785156 -0.42234375 0.68398437 0 0 Z " fill="#B36D4C" transform="translate(396,188)"/>
<path d="M0 0 C3.83899541 1.23672335 5.18296478 3.54341834 7.04492188 6.99902344 C7.38072266 7.6593457 7.71652344 8.31966797 8.0625 9 C8.41248047 9.68352539 8.76246094 10.36705078 9.12304688 11.07128906 C16.34591272 25.48301479 17.46719751 42.34178194 13 58 C10.70780855 64.09020211 8.89975604 67.90682807 3 71 C3.08844809 68.99924324 3.19662823 66.999356 3.3125 65 C3.37050781 63.88625 3.42851562 62.7725 3.48828125 61.625 C3.90615705 58.66478059 4.3990938 56.81499506 5.515625 54.13671875 C7.29947835 49.66552288 7.49758394 45.5894177 7.4375 40.8125 C7.43210205 39.98532471 7.4267041 39.15814941 7.42114258 38.3059082 C7.15857775 27.60716978 4.03280618 17.60111969 -2.25 8.875 C-4 6 -4 6 -3.9375 3.75 C-3 2 -3 2 0 0 Z " fill="#DEAA8D" transform="translate(393,127)"/>
<path d="M0 0 C0.33 0 0.66 0 1 0 C1 3.3 1 6.6 1 10 C3.31 10 5.62 10 8 10 C8 9.34 8 8.68 8 8 C15.92 7.505 15.92 7.505 24 7 C18.39 6.67 12.78 6.34 7 6 C7 5.67 7 5.34 7 5 C35.38 5 63.76 5 93 5 C93 6.98 93 8.96 93 11 C62.31 11 31.62 11 0 11 C0 7.37 0 3.74 0 0 Z " fill="#B06A47" transform="translate(121,214)"/>
<path d="M0 0 C19.14 0 38.28 0 58 0 C58 2.31 58 4.62 58 7 C41.17 7 24.34 7 7 7 C7 9.31 7 11.62 7 14 C6.34 13.34 5.68 12.68 5 12 C5.375 8.875 5.375 8.875 6 6 C4.02 6.99 4.02 6.99 2 8 C2.02320312 8.61488281 2.04640625 9.22976562 2.0703125 9.86328125 C2.08835937 10.67152344 2.10640625 11.47976562 2.125 12.3125 C2.14820312 13.11300781 2.17140625 13.91351563 2.1953125 14.73828125 C2 17 2 17 0 20 C0 13.4 0 6.8 0 0 Z " fill="#B88269" transform="translate(121,106)"/>
<path d="M0 0 C0.66 0 1.32 0 2 0 C2.99438363 2.56882437 3.24953756 4.35482258 2.24609375 6.94921875 C1.89675781 7.66722656 1.54742187 8.38523438 1.1875 9.125 C-3.53728697 19.081385 -5.29511062 33.58364254 -2.00390625 44.21875 C-1.67261719 45.1365625 -1.34132813 46.054375 -1 47 C-0.50775268 50.65030157 -0.20021117 53.93361489 -2.5 57 C-3.2425 57.495 -3.2425 57.495 -4 58 C-4.33 56.68 -4.66 55.36 -5 54 C-5.99 54 -6.98 54 -8 54 C-12.6020126 38.36548398 -14.7798815 22.50479364 -7.3125 7.25 C-6.879375 6.5075 -6.44625 5.765 -6 5 C-5.01 5 -4.02 5 -3 5 C-2.690625 4.360625 -2.38125 3.72125 -2.0625 3.0625 C-1 1 -1 1 0 0 Z " fill="#E1AE94" transform="translate(293,135)"/>
<path d="M0 0 C0.33 0 0.66 0 1 0 C1.16798051 2.27073652 1.33434113 4.54159293 1.5 6.8125 C1.5928125 8.07707031 1.685625 9.34164062 1.78125 10.64453125 C1.91914781 12.75978517 2 14.88025592 2 17 C2.66 17 3.32 17 4 17 C4.66 14.69 5.32 12.38 6 10 C6.66 10 7.32 10 8 10 C6.41119019 18.58322543 2.67255941 24.37470327 -4 30 C-10.14197001 33.61389869 -16.37667636 36.14610354 -23.546875 36.09765625 C-24.39121094 36.09443359 -25.23554688 36.09121094 -26.10546875 36.08789062 C-27.41451172 36.07532227 -27.41451172 36.07532227 -28.75 36.0625 C-30.08224609 36.05573242 -30.08224609 36.05573242 -31.44140625 36.04882812 C-33.62767329 36.037074 -35.81380179 36.02064249 -38 36 C-38 33.36 -38 30.72 -38 28 C-36.081875 27.96132812 -36.081875 27.96132812 -34.125 27.921875 C-32.41663435 27.86555525 -30.70830233 27.80820882 -29 27.75 C-28.16082031 27.73582031 -27.32164062 27.72164062 -26.45703125 27.70703125 C-17.62181665 27.36458107 -11.34522693 24.04307326 -5 18 C-3.62745412 15.85019503 -3.62745412 15.85019503 -3 14 C-2.34 14 -1.68 14 -1 14 C-0.67 9.38 -0.34 4.76 0 0 Z " fill="#A8694E" transform="translate(261,190)"/>
<path d="M0 0 C-0.99 1.32 -1.98 2.64 -3 4 C-0.525 4.495 -0.525 4.495 2 5 C-0.22958492 7.22958492 -2.52338511 8.24875413 -5.35791016 9.56225586 C-17.0232861 15.00937749 -25.44340011 21.72584652 -32 33 C-32.66 31.68 -33.32 30.36 -34 29 C-35.175625 30.2375 -35.175625 30.2375 -36.375 31.5 C-39 34 -39 34 -41 34 C-40.42365861 29.24518354 -38.44931479 26.02951788 -36 22 C-35.34 22 -34.68 22 -34 22 C-33.76023437 21.26523438 -33.52046875 20.53046875 -33.2734375 19.7734375 C-29.21472499 10.93391025 -18.38941675 5.13320238 -10 1 C-6.61680025 -0.07647265 -3.54600326 -0.08059098 0 0 Z " fill="#BC8970" transform="translate(329,106)"/>
<path d="M0 0 C1.32 0.33 2.64 0.66 4 1 C3.33775613 5.81545899 1.39748594 9.82398188 -0.625 14.1875 C-3.89373768 21.35505782 -6.86624407 28.58349744 -9.56494141 35.98510742 C-11.23731646 40.45693758 -13.19891818 44.12719992 -16 48 C-16.8971875 47.7215625 -16.8971875 47.7215625 -17.8125 47.4375 C-20.16408762 46.77906313 -20.16408762 46.77906313 -23 48 C-22.42893115 43.79147084 -21.44309604 40.26483458 -19.75 36.375 C-18.36280722 33.17409251 -16.9938492 29.98411042 -15.734375 26.73046875 C-13.48408857 20.95520832 -11.61785153 17.10475692 -7 13 C-6.13880866 10.82653432 -6.13880866 10.82653432 -6 9 C-5.34 9 -4.68 9 -4 9 C-4 7.35 -4 5.7 -4 4 C-3.34 4 -2.68 4 -2 4 C-1.34 2.68 -0.68 1.36 0 0 Z " fill="#DFAE93" transform="translate(468,126)"/>
<path d="M0 0 C14.19 0 28.38 0 43 0 C43 2.31 43 4.62 43 7 C22.21 7.495 22.21 7.495 1 8 C0.67 11.3 0.34 14.6 0 18 C-0.33 18 -0.66 18 -1 18 C-1.02746229 16.31259486 -1.04660111 14.6250537 -1.0625 12.9375 C-1.07410156 11.99777344 -1.08570312 11.05804688 -1.09765625 10.08984375 C-0.99078405 6.70840748 -0.47844609 3.34912261 0 0 Z " fill="#E8B093" transform="translate(128,166)"/>
<path d="M0 0 C3 1 3 1 4.10668945 2.70239258 C5.1919112 5.06577023 6.26671303 7.4313519 7.3125 9.8125 C7.69728516 10.63298828 8.08207031 11.45347656 8.47851562 12.29882812 C9.00928711 13.49088867 9.00928711 13.49088867 9.55078125 14.70703125 C9.87731689 15.4338208 10.20385254 16.16061035 10.5402832 16.90942383 C11.1321222 19.60082975 10.43758522 20.71730647 9 23 C8.34 21.02 7.68 19.04 7 17 C4.49962266 19.17424117 3.56371414 20.73045798 3 24 C2.505 21.525 2.505 21.525 2 19 C1.34 19 0.68 19 0 19 C-0.33 20.65 -0.66 22.3 -1 24 C-2.65 24 -4.3 24 -6 24 C-7.32 26.31 -8.64 28.62 -10 31 C-10.66 31 -11.32 31 -12 31 C-12.33 33.31 -12.66 35.62 -13 38 C-13.99 37.67 -14.98 37.34 -16 37 C-13.7498913 29.69894801 -10.83211016 22.80581691 -7.70166016 15.84033203 C-6.86503391 13.97781324 -6.03560333 12.11220759 -5.20703125 10.24609375 C-1.13778832 1.13778832 -1.13778832 1.13778832 0 0 Z " fill="#C68A6D" transform="translate(474,104)"/>
<path d="M0 0 C2.64350999 2.64350999 3.57122023 5.69668006 4.875 9.125 C6.73734647 13.91203326 8.68044138 18.54426633 11.05859375 23.1015625 C13.74889847 28.5268243 15.94975057 34.02736938 17 40 C14.03 40 11.06 40 8 40 C6.84973914 37.58535319 5.70467795 35.16846682 4.5625 32.75 C4.23701172 32.06808594 3.91152344 31.38617188 3.57617188 30.68359375 C3.26357422 30.01972656 2.95097656 29.35585937 2.62890625 28.671875 C2.34088135 28.0644043 2.05285645 27.45693359 1.75610352 26.83105469 C0.95349812 24.88738647 0.36886489 23.07148309 0 21 C0.32742188 20.37996094 0.65484375 19.75992188 0.9921875 19.12109375 C2.40529791 16.14698929 1.77644374 14.2513573 1.125 11.0625 C0.37132681 7.28936398 -0.12768011 3.85168345 0 0 Z " fill="#B0775D" transform="translate(512,187)"/>
<path d="M0 0 C3.83899541 1.23672335 5.18296478 3.54341834 7.04492188 6.99902344 C7.38072266 7.6593457 7.71652344 8.31966797 8.0625 9 C8.41248047 9.68352539 8.76246094 10.36705078 9.12304688 11.07128906 C16.65084254 26.0914388 16.64860405 41.67901225 13 58 C12.67 58 12.34 58 12 58 C11.80533668 56.20909747 11.61948787 54.41723495 11.4375 52.625 C11.33308594 51.62726563 11.22867187 50.62953125 11.12109375 49.6015625 C11 47 11 47 12 45 C14.12307842 38.21836823 14.33390856 29.7518761 11.0625 23.375 C10.381875 22.26125 9.70125 21.1475 9 20 C8.67 19.01 8.34 18.02 8 17 C8 21.62 8 26.24 8 31 C7.67 31 7.34 31 7 31 C6.74605469 30.13117188 6.49210937 29.26234375 6.23046875 28.3671875 C5.88628906 27.21476562 5.54210937 26.06234375 5.1875 24.875 C4.68283203 23.16957031 4.68283203 23.16957031 4.16796875 21.4296875 C2.58086094 16.76921707 0.62520257 12.8683369 -2.25 8.875 C-4 6 -4 6 -3.9375 3.75 C-3 2 -3 2 0 0 Z " fill="#CF9D85" transform="translate(393,127)"/>
<path d="M0 0 C1.74627478 2.61941217 2.38722388 4.03824877 3 7 C3.66 6.67 4.32 6.34 5 6 C6.23435632 9.70306896 5.61556372 10.58229419 4.12890625 14.10546875 C3.51499023 15.57983398 3.51499023 15.57983398 2.88867188 17.08398438 C2.45103516 18.10814453 2.01339844 19.13230469 1.5625 20.1875 C1.12873047 21.22326172 0.69496094 22.25902344 0.24804688 23.32617188 C-0.8261898 25.88781318 -1.90914768 28.44540034 -3 31 C-6 31 -6 31 -8.25 28.8125 C-10 26 -10 26 -9.75390625 23.61328125 C-8.98914764 20.96238224 -7.99694768 18.79930252 -6.6875 16.375 C-3.94425176 11.07989293 -1.91882448 5.63855685 0 0 Z " fill="#B47B60" transform="translate(436,190)"/>
<path d="M0 0 C0.33 0 0.66 0 1 0 C1 3.3 1 6.6 1 10 C3.31 10 5.62 10 8 10 C8 9.34 8 8.68 8 8 C9.98 8 11.96 8 14 8 C14 8.66 14 9.32 14 10 C39.74 10 65.48 10 92 10 C92 8.68 92 7.36 92 6 C63.95 6 35.9 6 7 6 C7 5.67 7 5.34 7 5 C35.38 5 63.76 5 93 5 C93 6.98 93 8.96 93 11 C62.31 11 31.62 11 0 11 C0 7.37 0 3.74 0 0 Z " fill="#AC6F58" transform="translate(121,214)"/>
<path d="M0 0 C30.69 0 61.38 0 93 0 C92.67 1.32 92.34 2.64 92 4 C91.01 4.33 90.02 4.66 89 5 C89 4.34 89 3.68 89 3 C59.63 2.67 30.26 2.34 0 2 C0 1.34 0 0.68 0 0 Z " fill="#270F07" transform="translate(121,226)"/>
<path d="M0 0 C11.88 0 23.76 0 36 0 C38 5 38 5 38 8 C24.14 8 10.28 8 -4 8 C-4.33 7.01 -4.66 6.02 -5 5 C7.87 5 20.74 5 34 5 C34 4.01 34 3.02 34 2 C33.07662842 2.01047363 32.15325684 2.02094727 31.2019043 2.03173828 C27.77463282 2.0658319 24.34754167 2.09090446 20.92016602 2.10986328 C19.43706417 2.11991821 17.95398212 2.13356404 16.47094727 2.15087891 C14.33865469 2.17515006 12.20662431 2.18648799 10.07421875 2.1953125 C8.14968872 2.21102295 8.14968872 2.21102295 6.1862793 2.22705078 C3 2 3 2 0 0 Z " fill="#D4A58C" transform="translate(453,174)"/>
<path d="M0 0 C0.33 0 0.66 0 1 0 C1 2.31 1 4.62 1 7 C1.99 6.67 2.98 6.34 4 6 C5 7 5 7 5.09765625 9.28515625 C5.08605469 10.20167969 5.07445312 11.11820313 5.0625 12.0625 C5.05347656 12.98160156 5.04445313 13.90070313 5.03515625 14.84765625 C5.02355469 15.55792969 5.01195312 16.26820313 5 17 C3.68 17 2.36 17 1 17 C1.33 18.98 1.66 20.96 2 23 C5.04913228 24.01111093 5.04913228 24.01111093 8 23 C9.97680763 27.94201908 10.43020546 31.75149341 10 37 C8.5 39 8.5 39 7 40 C6.67 38.68 6.34 37.36 6 36 C5.01 36 4.02 36 3 36 C-0.52867632 24.01195233 -2.89145043 12.48260308 0 0 Z " fill="#D6A288" transform="translate(282,153)"/>
<path d="M0 0 C1.98 0.66 3.96 1.32 6 2 C6 2.66 6 3.32 6 4 C5.030625 4.12375 4.06125 4.2475 3.0625 4.375 C2.051875 4.58125 1.04125 4.7875 0 5 C-0.33 5.66 -0.66 6.32 -1 7 C-5.40065578 8.51690641 -10.02819191 8.18406955 -14.625 8.1875 C-15.49640625 8.19974609 -16.3678125 8.21199219 -17.265625 8.22460938 C-18.51472656 8.22750977 -18.51472656 8.22750977 -19.7890625 8.23046875 C-20.54912598 8.23457764 -21.30918945 8.23868652 -22.09228516 8.24291992 C-24 8 -24 8 -26 6 C-28.31765729 5.28072705 -30.65095874 4.6090107 -33 4 C-30.17377959 1.17377959 -28.23195958 1.70100315 -24.27734375 1.62109375 C-23.61666397 1.60409927 -22.95598419 1.5871048 -22.27528381 1.56959534 C-20.16278652 1.51641514 -18.0503094 1.47614164 -15.9375 1.4375 C-13.82121992 1.39361567 -11.70509461 1.34695777 -9.58900452 1.29469299 C-7.67137583 1.24807578 -5.7535309 1.21062617 -3.83569336 1.17358398 C-1.09955332 1.3204139 -1.09955332 1.3204139 0 0 Z " fill="#A96849" transform="translate(361,222)"/>
<path d="M0 0 C0.81984375 0.70576172 0.81984375 0.70576172 1.65625 1.42578125 C0.94597656 1.48636719 0.23570312 1.54695313 -0.49609375 1.609375 C-1.41519531 1.69316406 -2.33429688 1.77695313 -3.28125 1.86328125 C-4.19777344 1.94449219 -5.11429687 2.02570313 -6.05859375 2.109375 C-8.30534732 2.18623101 -8.30534732 2.18623101 -9.34375 3.42578125 C-12.01433851 3.56693286 -14.66807238 3.46825232 -17.34375 3.42578125 C-16.35375 2.43578125 -15.36375 1.44578125 -14.34375 0.42578125 C-16.42560451 0.20315519 -18.50935426 -0.00179801 -20.59375 -0.19921875 C-21.75390625 -0.31523438 -22.9140625 -0.43125 -24.109375 -0.55078125 C-27.30167209 -0.57391384 -28.80013879 -0.45164607 -31.34375 1.42578125 C-31.67375 2.41578125 -32.00375 3.40578125 -32.34375 4.42578125 C-26.40375 4.42578125 -20.46375 4.42578125 -14.34375 4.42578125 C-14.34375 4.75578125 -14.34375 5.08578125 -14.34375 5.42578125 C-17.6973476 5.62453633 -21.05162681 5.80773342 -24.40625 5.98828125 C-25.34919922 6.04435547 -26.29214844 6.10042969 -27.26367188 6.15820312 C-32.46782194 6.43019703 -37.21728073 6.38566107 -42.34375 5.42578125 C-41.02375 4.10578125 -39.70375 2.78578125 -38.34375 1.42578125 C-39.66375 0.76578125 -40.98375 0.10578125 -42.34375 -0.57421875 C-10.85117416 -7.28837198 -10.85117416 -7.28837198 0 0 Z " fill="#A6755D" transform="translate(366.34375,105.57421875)"/>
<path d="M0 0 C3 1 3 1 4.6875 4.1875 C6.8151088 10.24896883 6.24004382 16.66995552 6 23 C5.34 23.33 4.68 23.66 4 24 C3.690625 24.99 3.38125 25.98 3.0625 27 C2.711875 27.99 2.36125 28.98 2 30 C1.01 30.33 0.02 30.66 -1 31 C-2 29 -2 29 -1.5390625 26.71484375 C-0.96089104 23.80303819 -1.06595218 21.50680693 -1.375 18.5625 C-1.52195312 17.12390625 -1.52195312 17.12390625 -1.671875 15.65625 C-1.92392901 13.61581281 -2.25722115 11.58528369 -2.625 9.5625 C-2.99989028 7.00074977 -2.83962196 5.42557454 -2 3 C-1.34 3 -0.68 3 0 3 C0 2.01 0 1.02 0 0 Z " fill="#C5947A" transform="translate(263,177)"/>
<path d="M0 0 C4.4097145 0.24498414 7.96435465 1.3007809 12 3 C13.2375 3.1546875 13.2375 3.1546875 14.5 3.3125 C17.98737277 4.27152751 19.6266532 6.35541357 22 9 C17.90968069 11.72687954 14.80724781 11.62606018 10 11 C7.47445876 10.13781845 5.07960609 9.10487251 2.640625 8.0234375 C-1.76249255 6.31690377 -6.34346862 5.67280681 -11 5 C-11 4.67 -11 4.34 -11 4 C-9.741875 3.896875 -8.48375 3.79375 -7.1875 3.6875 C-3.91243043 3.38607752 -3.91243043 3.38607752 -1.4375 1.375 C-0.963125 0.92125 -0.48875 0.4675 0 0 Z " fill="#C5825F" transform="translate(337,199)"/>
<path d="M0 0 C0.66 0 1.32 0 2 0 C2 0.99 2 1.98 2 3 C3.546875 2.7215625 3.546875 2.7215625 5.125 2.4375 C12.57562231 1.59630071 18.25555542 4.1342775 25 7 C24.67 7.598125 24.34 8.19625 24 8.8125 C22.79212012 11.05386471 22.79212012 11.05386471 23 14 C22.21625 13.71125 21.4325 13.4225 20.625 13.125 C17.6465401 12.20065037 14.93341982 11.63172044 11.875 11.125 C7.81185017 10.35398061 5.44054138 9.54987837 3 6 C3 5.34 3 4.68 3 4 C2.01 4 1.02 4 0 4 C0 2.68 0 1.36 0 0 Z " fill="#ECB798" transform="translate(209,148)"/>
<path d="M0 0 C1.9375 0.3125 1.9375 0.3125 4 1 C4.33 1.99 4.66 2.98 5 4 C5.66 4 6.32 4 7 4 C7.89395329 5.90790032 8.76459334 7.82673806 9.625 9.75 C10.35589844 11.35101563 10.35589844 11.35101563 11.1015625 12.984375 C12 16 12 16 11.1484375 18.390625 C10.76945312 18.92171875 10.39046875 19.4528125 10 20 C9.01 19.67 8.02 19.34 7 19 C6.34 20.32 5.68 21.64 5 23 C4.01233987 20.79513181 3.03481484 18.58662689 2.0625 16.375 C1.78470703 15.75753906 1.50691406 15.14007813 1.22070312 14.50390625 C-0.44717614 10.68586937 -1.71903809 7.17258321 -2 3 C-1.34 2.01 -0.68 1.02 0 0 Z " fill="#CA9C84" transform="translate(479,121)"/>
<path d="M0 0 C3.08259599 3.52296684 4.86509158 7.48717517 6 12 C5.6875 15 5.6875 15 5 17 C7.31 17 9.62 17 12 17 C12.33 17.66 12.66 18.32 13 19 C12.01 19 11.02 19 10 19 C10 19.66 10 20.32 10 21 C6.9375 21.6875 6.9375 21.6875 3 21 C0.1429907 17.62301501 -1.93553794 13.90014468 -4 10 C-4.39574219 9.28328125 -4.79148437 8.5665625 -5.19921875 7.828125 C-6 6 -6 6 -6 3 C-5.34 3 -4.68 3 -4 3 C-3.01 4.485 -3.01 4.485 -2 6 C-1.34 4.02 -0.68 2.04 0 0 Z " fill="#D58A6A" transform="translate(292,186)"/>
<path d="M0 0 C2.97 0.495 2.97 0.495 6 1 C5.23655914 6.59856631 5.23655914 6.59856631 3.96875 8.75 C2.58699192 11.95924458 2.8106717 14.77627186 2.875 18.25 C2.90207031 20.14492187 2.90207031 20.14492187 2.9296875 22.078125 C2.95289063 23.04234375 2.97609375 24.0065625 3 25 C2.34 24.67 1.68 24.34 1 24 C0.5859375 21.93359375 0.5859375 21.93359375 0.375 19.4375 C0.30023438 18.61121094 0.22546875 17.78492188 0.1484375 16.93359375 C0.07496094 15.97646484 0.07496094 15.97646484 0 15 C-0.99 15.33 -1.98 15.66 -3 16 C-3.66 19.3 -4.32 22.6 -5 26 C-5.33 26 -5.66 26 -6 26 C-6.52251185 6.95734597 -6.52251185 6.95734597 0 0 Z " fill="#B78972" transform="translate(205,114)"/>
<path d="M0 0 C1.32 0.33 2.64 0.66 4 1 C3.33125942 4.93248537 2.207088 8.47561442 0.75 12.1875 C0.35296875 13.23292969 -0.0440625 14.27835938 -0.453125 15.35546875 C-2.31027156 18.530439 -3.56810716 18.93436448 -7 20 C-7.66 20.66 -8.32 21.32 -9 22 C-9 22.99 -9 23.98 -9 25 C-9.99 25.33 -10.98 25.66 -12 26 C-12.66 25.67 -13.32 25.34 -14 25 C-11.46110829 15.82536858 -11.46110829 15.82536858 -7 13 C-6.20376178 10.90584196 -6.20376178 10.90584196 -6 9 C-5.34 9 -4.68 9 -4 9 C-4 7.35 -4 5.7 -4 4 C-3.34 4 -2.68 4 -2 4 C-1.34 2.68 -0.68 1.36 0 0 Z " fill="#E3AB8B" transform="translate(468,126)"/>
<path d="M0 0 C0.99 0 1.98 0 3 0 C4.18635562 5.08438123 5.28056781 10.18206342 6.25 15.3125 C6.44078125 16.29863281 6.6315625 17.28476563 6.828125 18.30078125 C7.0154945 21.2433341 6.56213313 22.54605205 5 25 C-0.61753722 17.84743807 -3.71505799 9.73107923 -6 1 C-5.01 1 -4.02 1 -3 1 C-2.34 2.32 -1.68 3.64 -1 5 C0.10540926 2.21081851 0.10540926 2.21081851 0 0 Z " fill="#C78466" transform="translate(508,183)"/>
<path d="M0 0 C0.33 0 0.66 0 1 0 C1 2.31 1 4.62 1 7 C0.01 7.33 -0.98 7.66 -2 8 C-1.34 8.33 -0.68 8.66 0 9 C0 10.32 0 11.64 0 13 C1.32 12.67 2.64 12.34 4 12 C2.50829734 16.9723422 0.39542583 21.41845739 -2 26 C-5 26 -5 26 -7 25 C-8.17704902 15.58360782 -3.98136813 8.27758936 0 0 Z " fill="#CE9176" transform="translate(444,172)"/>
<path d="M0 0 C0.91058531 3.07322544 1.08886184 5.80097361 1 9 C2.65 8.01 4.3 7.02 6 6 C4.51213344 10.33491932 2.29029201 13.64409005 -0.4375 17.3125 C-1.03014648 18.13717773 -1.03014648 18.13717773 -1.63476562 18.97851562 C-2.80859375 20.55078125 -2.80859375 20.55078125 -5 23 C-5.99 23 -6.98 23 -8 23 C-8 22.34 -8 21.68 -8 21 C-8.66 21 -9.32 21 -10 21 C-10.33 21.66 -10.66 22.32 -11 23 C-11 19 -11 19 -9.6875 17.5 C-9.130625 17.005 -8.57375 16.51 -8 16 C-6.13796341 13.85149624 -5.09481373 12.50115831 -4.5625 9.6875 C-3.77741422 5.93653459 -1.98733094 3.26947993 0 0 Z " fill="#B88169" transform="translate(396,188)"/>
<path d="M0 0 C4.69159716 3.38772897 9.0299782 6.78185183 13 11 C11.73134318 13.53731364 10.50290879 13.78646846 8 15 C7.34 15.66 6.68 16.32 6 17 C5.319375 16.113125 4.63875 15.22625 3.9375 14.3125 C1.90353289 11.8401779 -0.16810425 10.05055402 -2.8125 8.25 C-3.864375 7.5075 -4.91625 6.765 -6 6 C-6 5.34 -6 4.68 -6 4 C-4.68 4 -3.36 4 -2 4 C-2 3.34 -2 2.68 -2 2 C-1.34 2 -0.68 2 0 2 C0 1.34 0 0.68 0 0 Z " fill="#C09177" transform="translate(382,115)"/>
<path d="M0 0 C0.33 0 0.66 0 1 0 C1.16798051 2.27073652 1.33434113 4.54159293 1.5 6.8125 C1.5928125 8.07707031 1.685625 9.34164062 1.78125 10.64453125 C1.91914781 12.75978517 2 14.88025592 2 17 C2.66 17 3.32 17 4 17 C4.66 14.69 5.32 12.38 6 10 C6.66 10 7.32 10 8 10 C6.40639347 16.55581223 4.73935838 21.13255086 0 26 C-1.32 25.67 -2.64 25.34 -4 25 C-4.33 25.66 -4.66 26.32 -5 27 C-6.1875 25.4375 -6.1875 25.4375 -7 23 C-5.86065188 19.85322899 -4.49311803 16.98623607 -3 14 C-2.34 14 -1.68 14 -1 14 C-0.67 9.38 -0.34 4.76 0 0 Z " fill="#BB7857" transform="translate(261,190)"/>
<path d="M0 0 C2 2 2 2 2.34375 4.29296875 C1.90294889 7.76427749 0.58246723 9.52348139 -1.5 12.3125 C-2.47453125 13.63701172 -2.47453125 13.63701172 -3.46875 14.98828125 C-4.22671875 15.98408203 -4.22671875 15.98408203 -5 17 C-5.66 15.68 -6.32 14.36 -7 13 C-7.78375 13.825 -8.5675 14.65 -9.375 15.5 C-12 18 -12 18 -14 18 C-13.44936569 13.45726692 -11.87292332 9.55463394 -9 6 C-6.45994544 4.07272125 -3.7842892 2.54187182 -1 1 C-0.67 0.67 -0.34 0.34 0 0 Z " fill="#D19A82" transform="translate(302,122)"/>
<path d="M0 0 C2.29981802 2.84520344 3.79315084 5.5344681 5.125 8.9375 C5.45757813 9.77152344 5.79015625 10.60554687 6.1328125 11.46484375 C6.98835091 13.96594478 7.54403186 16.39912052 8 19 C5.03 19 2.06 19 -1 19 C-1.86375896 17.38007835 -2.71575854 15.75388139 -3.5625 14.125 C-4.03816406 13.22007812 -4.51382813 12.31515625 -5.00390625 11.3828125 C-5.49697266 10.20332031 -5.49697266 10.20332031 -6 9 C-5.67 8.34 -5.34 7.68 -5 7 C-4.34 7.33 -3.68 7.66 -3 8 C-2.01 7.67 -1.02 7.34 0 7 C0 4.69 0 2.38 0 0 Z " fill="#A66A4F" transform="translate(521,208)"/>
<path d="M0 0 C1.37562854 1.28965176 2.70766393 2.62689293 4 4 C4 4.66 4 5.32 4 6 C6.31 5.34 8.62 4.68 11 4 C10.67 5.65 10.34 7.3 10 9 C10.804375 8.835 11.60875 8.67 12.4375 8.5 C16.65887352 7.90752652 20.74664545 7.91493291 25 8 C22.25566014 9.45288581 19.59724543 10.48854084 16.625 11.375 C12.51491823 12.6997371 9.45549359 14.43053041 6 17 C2.63279613 15.60667426 1.0140476 14.0210714 -1 11 C0.98 11 2.96 11 5 11 C5 10.34 5 9.68 5 9 C5.66 8.67 6.32 8.34 7 8 C4.69 7.67 2.38 7.34 0 7 C0 4.69 0 2.38 0 0 Z " fill="#B3765B" transform="translate(297,196)"/>
<path d="M0 0 C1.68865086 2.53297629 2.86175637 4.79120195 4.0625 7.5625 C5.47419392 10.80789465 5.47419392 10.80789465 7 14 C7.07181821 16.71760108 7.09299506 19.40859388 7.0625 22.125 C7.05798828 22.87910156 7.05347656 23.63320312 7.04882812 24.41015625 C7.03703499 26.27347127 7.01909942 28.13674555 7 30 C6.67 29.01 6.34 28.02 6 27 C5.01 27.33 4.02 27.66 3 28 C-0.00115672 18.79645272 -0.16456131 9.61769424 0 0 Z " fill="#EAB599" transform="translate(400,141)"/>
<path d="M0 0 C2.24817871 0.80112338 4.41054975 1.71934697 6.59375 2.68359375 C12.28976823 5.02151168 18.01386487 5.95215686 24.09375 6.74609375 C24.09375 7.73609375 24.09375 8.72609375 24.09375 9.74609375 C21.84434705 9.82728878 19.59410129 9.88537194 17.34375 9.93359375 C15.46429688 9.98580078 15.46429688 9.98580078 13.546875 10.0390625 C9.80111679 9.72126627 8.86547511 9.09540564 6.09375 6.74609375 C3.55467065 5.83070412 3.55467065 5.83070412 0.90625 5.18359375 C-1.76171875 4.4921875 -1.76171875 4.4921875 -3.90625 3.74609375 C-4.23625 3.08609375 -4.56625 2.42609375 -4.90625 1.74609375 C-1.90625 -0.25390625 -1.90625 -0.25390625 0 0 Z " fill="#A76443" transform="translate(383.90625,225.25390625)"/>
<path d="M0 0 C6.90237875 -0.43824627 12.02281711 0.34431225 18 4 C18.495 4.99 18.495 4.99 19 6 C18.00355469 5.67773438 17.00710938 5.35546875 15.98046875 5.0234375 C4.56440441 1.78300728 -7.76348624 3.64126097 -18.140625 9.1328125 C-20 10 -20 10 -23 10 C-23.99 8.02 -24.98 6.04 -26 4 C-25.34 3.34 -24.68 2.68 -24 2 C-23.01 3.485 -23.01 3.485 -22 5 C-18.89459074 6.21081851 -18.89459074 6.21081851 -15 6 C-15 5.34 -15 4.68 -15 4 C-13.44240657 3.46467177 -11.87861955 2.94734622 -10.3125 2.4375 C-9.44238281 2.14746094 -8.57226562 1.85742188 -7.67578125 1.55859375 C-4.75368926 0.94858039 -2.85599447 1.22296367 0 2 C0 1.34 0 0.68 0 0 Z " fill="#1A0704" transform="translate(324,192)"/>
<path d="M0 0 C2.64 1.32 5.28 2.64 8 4 C8 4.66 8 5.32 8 6 C-4.17209005 10.45320368 -16.71602598 9.88167189 -29 6 C-30.91015625 4.39453125 -30.91015625 4.39453125 -32 3 C-30.60335892 3.11562606 -29.20768801 3.242992 -27.8125 3.375 C-27.03519531 3.44460937 -26.25789063 3.51421875 -25.45703125 3.5859375 C-23 4 -23 4 -20.7734375 5.01953125 C-16.78450981 6.42970146 -13.01152899 6.3292559 -8.8125 6.3125 C-7.99330078 6.32861328 -7.17410156 6.34472656 -6.33007812 6.36132812 C-3.68860445 6.39998448 -3.68860445 6.39998448 0 6 C0.66 5.01 1.32 4.02 2 3 C1.34 3 0.68 3 0 3 C0 2.01 0 1.02 0 0 Z " fill="#290F08" transform="translate(354,214)"/>
<path d="M0 0 C14.19 0 28.38 0 43 0 C40.02638797 2.97361203 36.76706742 2.29783372 32.78125 2.30859375 C31.11067349 2.33374668 29.44010065 2.35914481 27.76953125 2.38476562 C25.1294036 2.41356433 22.48933965 2.4375756 19.84912109 2.45629883 C17.30533125 2.47788049 14.76228488 2.51730648 12.21875 2.55859375 C11.42601685 2.55870956 10.63328369 2.55882538 9.81652832 2.5589447 C7.35811512 2.56919704 7.35811512 2.56919704 4 3 C2.0549 5.91765 1.54723683 7.62537285 1 11 C0.67 11 0.34 11 0 11 C0 7.37 0 3.74 0 0 Z " fill="#1E0B07" transform="translate(129,174)"/>
<path d="M0 0 C0.598125 0.165 1.19625 0.33 1.8125 0.5 C4.11344336 1.1114124 4.11344336 1.1114124 7 1 C9.25 2.6875 9.25 2.6875 11 5 C10.75 7.75 10.75 7.75 10 10 C9.34 10 8.68 10 8 10 C8 11.32 8 12.64 8 14 C7.34 14 6.68 14 6 14 C4.6559907 12.00715862 3.32458708 10.00580329 2 8 C0.3707726 6.29671681 -1.28641357 4.61838719 -3 3 C-2.01 2.67 -1.02 2.34 0 2 C0 1.34 0 0.68 0 0 Z " fill="#DDA487" transform="translate(253,170)"/>
<path d="M0 0 C0.66 0 1.32 0 2 0 C2 2.31 2 4.62 2 7 C4.97983024 6.88480819 7.95845792 6.75809198 10.9375 6.625 C12.18370117 6.57859375 12.18370117 6.57859375 13.45507812 6.53125 C19.18247369 6.26382297 24.43358471 5.38177413 30 4 C28.3125 7.84375 28.3125 7.84375 25.5 9.25 C16.56718758 11.16417409 7.89042042 9.56070076 -1 8 C-1.125 2.25 -1.125 2.25 0 0 Z " fill="#100100" transform="translate(221,219)"/>
<path d="M0 0 C1.98 0.66 3.96 1.32 6 2 C5.67 4.31 5.34 6.62 5 9 C3.35 9 1.7 9 0 9 C-1.32 11.31 -2.64 13.62 -4 16 C-4.66 16 -5.32 16 -6 16 C-6.33 18.31 -6.66 20.62 -7 23 C-7.99 22.67 -8.98 22.34 -10 22 C-8.08853524 15.8746243 -6.10877586 9.63858941 -3 4 C-2.34 3.67 -1.68 3.34 -1 3 C-0.67 2.01 -0.34 1.02 0 0 Z " fill="#BE907B" transform="translate(468,119)"/>
<path d="M0 0 C0.66 0.33 1.32 0.66 2 1 C2 2.98 2 4.96 2 7 C1.34 7 0.68 7 0 7 C-0.0825 8.216875 -0.165 9.43375 -0.25 10.6875 C-0.754882 14.83631299 -2.15426409 16.89556082 -5 20 C-6.13350534 22.01669827 -6.13350534 22.01669827 -7 24 C-8.21540343 26.50676957 -9.44280038 28.66420057 -11 31 C-12.32 30.67 -13.64 30.34 -15 30 C-14.67 29.34 -14.34 28.68 -14 28 C-13.34 28.33 -12.68 28.66 -12 29 C-10.37441246 25.10441157 -8.74963311 21.20848656 -7.125 17.3125 C-6.66480469 16.20970703 -6.20460938 15.10691406 -5.73046875 13.97070312 C-5.28574219 12.90400391 -4.84101563 11.83730469 -4.3828125 10.73828125 C-3.97434082 9.75899658 -3.56586914 8.77971191 -3.14501953 7.77075195 C-2.07759755 5.18777282 -1.03224985 2.59720695 0 0 Z " fill="#210C07" transform="translate(444,192)"/>
<path d="M0 0 C0.33 0.99 0.66 1.98 1 3 C-4.00685092 4.3655048 -8.79366152 5.28357581 -13.95703125 5.78125 C-16.34068368 6.03647856 -18.65342437 6.51688149 -21 7 C-21.99 7 -22.98 7 -24 7 C-24 6.34 -24 5.68 -24 5 C-24.66 4.67 -25.32 4.34 -26 4 C-23.02148438 3.70703125 -23.02148438 3.70703125 -20.04296875 3.4140625 C-17.70011858 3.07334609 -17.70011858 3.07334609 -15 1 C-10.01259135 -0.18747825 -5.09195022 -0.101839 0 0 Z " fill="#CF8561" transform="translate(331,198)"/>
<path d="M0 0 C0.33 0 0.66 0 1 0 C0.94199219 1.22332031 0.88398438 2.44664062 0.82421875 3.70703125 C0.46451557 14.98524815 1.70388906 24.56532003 5.00390625 35.3515625 C6 39 6 39 5 41 C3 39 3 39 2.875 36.375 C2.936875 35.199375 2.936875 35.199375 3 34 C2.34 34 1.68 34 1 34 C-2.09958876 22.89314027 -4.22430945 11.08881232 0 0 Z " fill="#170302" transform="translate(281,153)"/>
<path d="M0 0 C-0.33 0.66 -0.66 1.32 -1 2 C-4.62564187 1.89045592 -8.25021431 1.7597504 -11.875 1.625 C-12.90753906 1.5940625 -13.94007813 1.563125 -15.00390625 1.53125 C-15.99003906 1.49257812 -16.97617188 1.45390625 -17.9921875 1.4140625 C-18.90339355 1.3826416 -19.81459961 1.3512207 -20.75341797 1.31884766 C-23 1 -23 1 -25 -1 C-15.9862186 -4.06852133 -8.82383322 -3.50450114 0 0 Z " fill="#B87C5D" transform="translate(247,107)"/>
<path d="M0 0 C7.42857143 1 7.42857143 1 11 2 C11 2.66 11 3.32 11 4 C12.65 4.33 14.3 4.66 16 5 C16 5.99 16 6.98 16 8 C13.09704195 9.45147903 11.22738221 9.37239025 8 9 C4.8125 6.625 4.8125 6.625 2 4 C1.01 3.34 0.02 2.68 -1 2 C-0.67 1.34 -0.34 0.68 0 0 Z " fill="#BC8367" transform="translate(361,108)"/>
<path d="M0 0 C0.33 0 0.66 0 1 0 C1.33 1.98 1.66 3.96 2 6 C3.32 6.33 4.64 6.66 6 7 C4.72232235 11.99455809 2.87088216 14.61297811 -1 18 C-1.66 18.33 -2.32 18.66 -3 19 C-2.88485851 16.95775363 -2.75742674 14.91619841 -2.625 12.875 C-2.55539062 11.73804688 -2.48578125 10.60109375 -2.4140625 9.4296875 C-2.00556124 6.04606384 -1.19032431 3.18387559 0 0 Z " fill="#CC957C" transform="translate(399,179)"/>
<path d="M0 0 C3 1 3 1 4.203125 2.99609375 C4.54859375 3.80175781 4.8940625 4.60742188 5.25 5.4375 C5.60578125 6.24058594 5.9615625 7.04367188 6.328125 7.87109375 C7 10 7 10 6 12 C5.34 12 4.68 12 4 12 C3.34 11.01 2.68 10.02 2 9 C1.34 8.67 0.68 8.34 0 8 C-0.36351562 8.81404297 -0.36351562 8.81404297 -0.734375 9.64453125 C-4.06326889 16.75043937 -4.06326889 16.75043937 -8 19 C-6.00386732 12.2813095 -3.2708579 6.19265192 0 0 Z " fill="#A57863" transform="translate(474,104)"/>
<path d="M0 0 C20.83609377 -0.28983747 20.83609377 -0.28983747 26 4 C25.28972656 4.06058594 24.57945312 4.12117188 23.84765625 4.18359375 C22.92855469 4.26738281 22.00945312 4.35117188 21.0625 4.4375 C20.14597656 4.51871094 19.22945313 4.59992188 18.28515625 4.68359375 C16.03840268 4.76044976 16.03840268 4.76044976 15 6 C12.32941149 6.14115161 9.67567762 6.04247107 7 6 C7.99 5.01 8.98 4.02 10 3 C6.7 2.34 3.4 1.68 0 1 C0 0.67 0 0.34 0 0 Z " fill="#A7775F" transform="translate(342,103)"/>
<path d="M0 0 C3.875 1.75 3.875 1.75 5 4 C5.66 2.68 6.32 1.36 7 0 C8.82518575 2.33623775 10.01010373 4.08898065 9.9765625 7.11328125 C9.71735287 9.08537617 9.36455921 11.04463697 9 13 C2.44660194 9.60194175 2.44660194 9.60194175 0.5625 7.0625 C-0.09971886 4.63436419 -0.13918539 2.50533707 0 0 Z " fill="#E5B396" transform="translate(489,151)"/>
<path d="M0 0 C-2.64738916 1.4606285 -3.89448334 2 -7 2 C-7 3.65 -7 5.3 -7 7 C-10.3 7.33 -13.6 7.66 -17 8 C-17.33 7.01 -17.66 6.02 -18 5 C-16.42065361 4.01441551 -14.83634827 3.03677459 -13.25 2.0625 C-12.36828125 1.51722656 -11.4865625 0.97195312 -10.578125 0.41015625 C-6.32007472 -1.91886822 -4.23778163 -2.57293884 0 0 Z " fill="#BC8464" transform="translate(327,108)"/>
<path d="M0 0 C0.7425 1.0828125 0.7425 1.0828125 1.5 2.1875 C4.58567566 5.65888511 7.99631864 7.7163468 12 10 C10 12 10 12 6.375 12.125 C5.26125 12.08375 4.1475 12.0425 3 12 C3 11.01 3 10.02 3 9 C2.34 9 1.68 9 1 9 C1 10.32 1 11.64 1 13 C1.99 13 2.98 13 4 13 C4.33 13.99 4.66 14.98 5 16 C2.19042478 15.11276572 0.4011968 14.48477947 -1.5 12.1875 C-2.22498359 9.0156968 -0.65045814 7.70675135 1 5 C0.78670551 2.25760857 0.78670551 2.25760857 0 0 Z " fill="#CFA48C" transform="translate(208,139)"/>
<path d="M0 0 C0.66 0 1.32 0 2 0 C-0.65941495 9.54260659 -4.88948433 18.0216302 -13 24 C-13.25 21.75 -13.25 21.75 -13 19 C-11.125 16.875 -11.125 16.875 -9 15 C-8.34 14.01 -7.68 13.02 -7 12 C-6.34 12 -5.68 12 -5 12 C-4.01 8.7 -3.02 5.4 -2 2 C-1.34 2 -0.68 2 0 2 C0 1.34 0 0.68 0 0 Z " fill="#1D0905" transform="translate(396,183)"/>
<path d="M0 0 C2.62404613 3.93606919 2.36302306 7.42590939 2 12 C0.5 14 0.5 14 -1 15 C-1.33 13.68 -1.66 12.36 -2 11 C-2.99 11 -3.98 11 -5 11 C-5.33 9.35 -5.66 7.7 -6 6 C-5.01 5.67 -4.02 5.34 -3 5 C-1.30117552 2.50240018 -1.30117552 2.50240018 0 0 Z " fill="#CC9377" transform="translate(290,178)"/>
<path d="M0 0 C0.33 0.99 0.66 1.98 1 3 C0.67 3.66 0.34 4.32 0 5 C0.66 5.33 1.32 5.66 2 6 C1.9278125 6.77859375 1.855625 7.5571875 1.78125 8.359375 C1.16112858 15.8352832 0.89121575 23.25021368 0.875 30.75 C0.87048828 31.63139648 0.86597656 32.51279297 0.86132812 33.42089844 C0.86326172 34.2462207 0.86519531 35.07154297 0.8671875 35.921875 C0.86831543 36.66018555 0.86944336 37.39849609 0.87060547 38.15917969 C0.88858653 40.09667032 0.88858653 40.09667032 2 42 C1.01 42.99 0.02 43.98 -1 45 C-1.02527124 38.75204325 -1.04283344 32.50409959 -1.05493164 26.25610352 C-1.05997298 24.12881986 -1.06680591 22.00153969 -1.07543945 19.87426758 C-1.08751379 16.82372174 -1.09323014 13.77322155 -1.09765625 10.72265625 C-1.10281754 9.76537125 -1.10797882 8.80808624 -1.11329651 7.8217926 C-1.11337204 6.94095505 -1.11344757 6.06011749 -1.11352539 5.15258789 C-1.115746 4.37315323 -1.11796661 3.59371857 -1.12025452 2.79066467 C-1 1 -1 1 0 0 Z " fill="#DEB09D" transform="translate(122,131)"/>
<path d="M0 0 C2.64 0 5.28 0 8 0 C8 0.66 8 1.32 8 2 C7.34 2 6.68 2 6 2 C8.05233685 4.2477975 9.00667261 5.0022242 12 6 C12.33 5.34 12.66 4.68 13 4 C14.5625 5.25 14.5625 5.25 16 7 C15.6875 9.1875 15.6875 9.1875 15 11 C11.34342968 9.67033807 8.13116287 7.92193344 4.78125 5.953125 C2.2905712 4.62039336 -0.29592932 3.79143532 -3 3 C-2.01 2.67 -1.02 2.34 0 2 C0 1.34 0 0.68 0 0 Z " fill="#DAA691" transform="translate(235,162)"/>
<path d="M0 0 C1.875 0.3125 1.875 0.3125 4 1 C6 4 6 4 6 7 C3.83409519 8.31501363 2.49878708 9.03022952 -0.0625 8.875 C-2.62582185 7.71737078 -3.63669086 6.43960583 -5 4 C-4.67 3.01 -4.34 2.02 -4 1 C-3.01 1.33 -2.02 1.66 -1 2 C-0.67 1.34 -0.34 0.68 0 0 Z " fill="#AF8374" transform="translate(259,114)"/>
<path d="M0 0 C0.495 0.99 0.495 0.99 1 2 C0.15405273 2.02505615 -0.69189453 2.0501123 -1.56347656 2.07592773 C-4.76180218 2.17219183 -7.96002305 2.27133905 -11.15820312 2.37231445 C-12.53121556 2.41510091 -13.9042623 2.45680326 -15.27734375 2.49731445 C-29.49766075 1.98467013 -29.49766075 1.98467013 -43 5 C-43 3.68 -43 2.36 -43 1 C-28.81 0.67 -14.62 0.34 0 0 Z " fill="#371C0B" transform="translate(491,181)"/>
<path d="M0 0 C1.74627478 2.61941217 2.38722388 4.03824877 3 7 C3.66 6.67 4.32 6.34 5 6 C5.33 6.99 5.66 7.98 6 9 C2.92000054 12.67230705 0.7517398 13.56802365 -4 14 C-3.00956295 9.16371695 -2.04301154 4.52381127 0 0 Z " fill="#C98668" transform="translate(436,190)"/>
<path d="M0 0 C2.28001203 0.95911945 4.52619182 1.97828637 6.7734375 3.01171875 C9.45917912 4.20381108 12.19292724 5.1362853 15 6 C11.34937983 7.31491532 9.01989674 6.63964426 5.375 5.5 C1.61324198 4.06369427 1.61324198 4.06369427 -2 5 C-4.01927511 4.39421747 -6.02253397 3.73080266 -8 3 C-7.67 2.01 -7.34 1.02 -7 0 C-4.18238799 -1.40880601 -3.05754978 -0.84570526 0 0 Z " fill="#9E6952" transform="translate(319,216)"/>
<path d="M0 0 C2.64 1.98 5.28 3.96 8 6 C7.34 7.32 6.68 8.64 6 10 C5.34 9.34 4.68 8.68 4 8 C2.865625 8 1.73125 8 0.5625 8 C-3 8 -3 8 -6 6 C-6 5.34 -6 4.68 -6 4 C-4.68 4 -3.36 4 -2 4 C-2 3.34 -2 2.68 -2 2 C-1.34 2 -0.68 2 0 2 C0 1.34 0 0.68 0 0 Z " fill="#BC8970" transform="translate(382,115)"/>
<path d="M0 0 C1.17949219 0.10183594 2.35898437 0.20367187 3.57421875 0.30859375 C4.47785156 0.39238281 5.38148438 0.47617188 6.3125 0.5625 C6.3125 1.5525 6.3125 2.5425 6.3125 3.5625 C0.3725 3.8925 -5.5675 4.2225 -11.6875 4.5625 C-8.70646247 -1.39957506 -6.11877636 -0.5452375 0 0 Z " fill="#B97D5C" transform="translate(345.6875,104.4375)"/>
<path d="M0 0 C1.6396875 0.0928125 1.6396875 0.0928125 3.3125 0.1875 C-3.10950485 6.05106965 -11.47310808 6.62542574 -19.75 6.375 C-20.61560547 6.36146484 -21.48121094 6.34792969 -22.37304688 6.33398438 C-24.47814174 6.2990933 -26.58290974 6.24530665 -28.6875 6.1875 C-26.25021459 3.75021459 -25.56603689 3.92989172 -22.22265625 3.87890625 C-21.34029297 3.85376953 -20.45792969 3.82863281 -19.54882812 3.80273438 C-17.6869172 3.76765301 -15.82493039 3.7363865 -13.96289062 3.70898438 C-13.07923828 3.68255859 -12.19558594 3.65613281 -11.28515625 3.62890625 C-10.07098022 3.60872437 -10.07098022 3.60872437 -8.83227539 3.58813477 C-4.72386536 2.82070154 -4.65507077 0.23669851 0 0 Z " fill="#986550" transform="translate(251.6875,219.8125)"/>
<path d="M0 0 C5.66153846 2.46153846 5.66153846 2.46153846 7.375 5.1875 C7.58125 5.785625 7.7875 6.38375 8 7 C5.69 6.67 3.38 6.34 1 6 C1 6.99 1 7.98 1 9 C-2.95820859 8.43454163 -5.6659053 7.19097652 -9 5 C-6.23776722 2.23776722 -3.79293383 2.42143709 0 2 C0 1.34 0 0.68 0 0 Z " fill="#B6785B" transform="translate(358,206)"/>
<path d="M0 0 C3.36009051 5.04013577 3.19201227 9.10482336 3.1875 14.9375 C3.1884668 16.20944214 3.1884668 16.20944214 3.18945312 17.50708008 C3.13394034 24.1503198 2.4517889 30.50583714 1 37 C0.67 37 0.34 37 0 37 C-0.19466332 35.20909747 -0.38051213 33.41723495 -0.5625 31.625 C-0.66691406 30.62726563 -0.77132813 29.62953125 -0.87890625 28.6015625 C-1 26 -1 26 0 24 C2.37879293 16.57883615 1.4082947 7.569584 0 0 Z " fill="#BD927B" transform="translate(405,148)"/>
<path d="M0 0 C1.32 0.33 2.64 0.66 4 1 C4.02725341 2.7290774 4.04650987 4.45828176 4.0625 6.1875 C4.07410156 7.15042969 4.08570313 8.11335937 4.09765625 9.10546875 C4.00486622 11.85576513 3.62111685 14.32479591 3 17 C0.4787853 13.21817796 -1.07129815 9.45620802 -2 5 C-1.1875 1.9375 -1.1875 1.9375 0 0 Z " fill="#C89A80" transform="translate(479,121)"/>
<path d="M0 0 C0.66 0.33 1.32 0.66 2 1 C2 2.32 2 3.64 2 5 C-3.22727273 10 -3.22727273 10 -6 10 C-7.36161311 10.96113866 -8.69855198 11.95884159 -10 13 C-10.66 12.67 -11.32 12.34 -12 12 C-8.27653164 7.57905197 -4.70478962 3.42166518 0 0 Z " fill="#B38168" transform="translate(307,114)"/>
<path d="M0 0 C0.99 0 1.98 0 3 0 C4.4783226 2.95664519 4.06032783 5.74229737 4 9 C3.01 9 2.02 9 1 9 C0.67 9.66 0.34 10.32 0 11 C-3.48331435 7.98112756 -4.79157144 5.43090471 -6 1 C-5.01 1 -4.02 1 -3 1 C-2.34 2.32 -1.68 3.64 -1 5 C0.10540926 2.21081851 0.10540926 2.21081851 0 0 Z " fill="#CC9278" transform="translate(508,183)"/>
<path d="M0 0 C0.66 0.33 1.32 0.66 2 1 C3.50509726 6.78883562 2.83080822 9.94498532 0 15 C-0.99 15.33 -1.98 15.66 -3 16 C-4.57726156 12.84547687 -3.66986721 10.40515834 -3 7 C-2.11714476 4.58966507 -1.09272219 2.32797336 0 0 Z " fill="#D48A65" transform="translate(265,192)"/>
<path d="M0 0 C2.72200888 2.72200888 2.82963057 5.30639079 3 9 C2.83281328 15.75434348 1.41544727 21.7107222 -1 28 C-2.39077316 25.21845369 -1.91544401 23.21067445 -1.66015625 20.1171875 C-1.56669922 18.95058594 -1.47324219 17.78398437 -1.37695312 16.58203125 C-1.27318359 15.35871094 -1.16941406 14.13539063 -1.0625 12.875 C-0.96259766 11.64394531 -0.86269531 10.41289062 -0.75976562 9.14453125 C-0.51162102 6.09589748 -0.2581436 3.04780074 0 0 Z " fill="#2C1610" transform="translate(408,155)"/>
<path d="M0 0 C0.66 0.33 1.32 0.66 2 1 C2 3.31 2 5.62 2 8 C1.01 8.33 0.02 8.66 -1 9 C-1.66 12.3 -2.32 15.6 -3 19 C-3.33 19 -3.66 19 -4 19 C-4.054348 16.9377952 -4.09294961 14.87517184 -4.125 12.8125 C-4.14820313 11.66394531 -4.17140625 10.51539063 -4.1953125 9.33203125 C-4.00313312 6.05345101 -3.51407144 3.89579398 -2 1 C-1.34 0.67 -0.68 0.34 0 0 Z " fill="#C59379" transform="translate(203,121)"/>
<path d="M0 0 C2 1 2 1 3.3125 2.75 C3.539375 3.4925 3.76625 4.235 4 5 C2.6875 7.4375 2.6875 7.4375 1 10 C0.29329272 12.69254991 0.29329272 12.69254991 0 15 C-1.32 15.33 -2.64 15.66 -4 16 C-4 13.03 -4 10.06 -4 7 C-2.33333333 7 -0.66666667 7 1 7 C0.67 4.69 0.34 2.38 0 0 Z " fill="#EFB797" transform="translate(458,144)"/>
<path d="M0 0 C1.485 0.2475 1.485 0.2475 3 0.5 C12.47292303 1.68411538 22.58930543 1.56844909 32 0 C32 0.66 32 1.32 32 2 C29.23382437 3.38308781 26.98982 3.11210196 23.8984375 3.09765625 C22.68671875 3.09443359 21.475 3.09121094 20.2265625 3.08789062 C18.95554687 3.07951172 17.68453125 3.07113281 16.375 3.0625 C15.09625 3.05798828 13.8175 3.05347656 12.5 3.04882812 C9.33328708 3.03701203 6.16666644 3.02053815 3 3 C3 2.34 3 1.68 3 1 C1.68 1.33 0.36 1.66 -1 2 C-0.67 1.34 -0.34 0.68 0 0 Z " fill="#1D0804" transform="translate(328,229)"/>
<path d="M0 0 C10.9490778 -0.63248845 18.94715003 0.18014042 29 5 C29 5.99 29 6.98 29 8 C27.576875 7.319375 27.576875 7.319375 26.125 6.625 C21.57616599 4.65414994 16.86497776 3.83203845 12 3 C12 2.67 12 2.34 12 2 C8.04 1.67 4.08 1.34 0 1 C0 0.67 0 0.34 0 0 Z " fill="#B1816A" transform="translate(320,195)"/>
<path d="M0 0 C13.2 0 26.4 0 40 0 C40 0.33 40 0.66 40 1 C38.99622314 1.01981934 37.99244629 1.03963867 36.95825195 1.06005859 C33.22135034 1.13633749 29.48482683 1.22501986 25.74829102 1.31738281 C24.1334583 1.35558072 22.51854316 1.39044945 20.90356445 1.421875 C18.57733783 1.46772609 16.25167408 1.52568584 13.92578125 1.5859375 C12.84892815 1.60326431 12.84892815 1.60326431 11.75032043 1.62094116 C7.75341398 1.73767501 4.60665231 2.24740681 1 4 C0.67 2.68 0.34 1.36 0 0 Z " fill="#AC816D" transform="translate(121,106)"/>
<path d="M0 0 C0.66 0 1.32 0 2 0 C4.3992233 4.64849515 4.19957409 8.91086074 4 14 C3.01 12.68 2.02 11.36 1 10 C0.67 11.65 0.34 13.3 0 15 C-0.33 15 -0.66 15 -1 15 C-1.02685412 12.68756208 -1.04632841 10.3750373 -1.0625 8.0625 C-1.07410156 6.77472656 -1.08570313 5.48695313 -1.09765625 4.16015625 C-1 1 -1 1 0 0 Z " fill="#DB9875" transform="translate(264,183)"/>
<path d="M0 0 C0.33 0.99 0.66 1.98 1 3 C-0.75 5.6875 -0.75 5.6875 -3 8 C-3.99 8 -4.98 8 -6 8 C-6 7.34 -6 6.68 -6 6 C-6.66 6 -7.32 6 -8 6 C-8.33 6.66 -8.66 7.32 -9 8 C-9 4 -9 4 -7.6875 2.3125 C-5.13753759 0.3291959 -3.2018707 0 0 0 Z " fill="#BF7C5E" transform="translate(394,203)"/>
<path d="M0 0 C0.66 0.33 1.32 0.66 2 1 C2.6328125 3.06640625 2.6328125 3.06640625 3.125 5.5625 C3.29257812 6.38878906 3.46015625 7.21507812 3.6328125 8.06640625 C3.75398438 8.70449219 3.87515625 9.34257812 4 10 C4.66 10 5.32 10 6 10 C9.42857143 18.42857143 9.42857143 18.42857143 9 23 C5.91100795 19.34850631 4.14879064 15.27815103 2.25 10.9375 C1.92128906 10.21755859 1.59257812 9.49761719 1.25390625 8.75585938 C-1.12037628 3.36112883 -1.12037628 3.36112883 0 0 Z " fill="#25110A" transform="translate(500,155)"/>
<path d="M0 0 C0.12375 0.639375 0.2475 1.27875 0.375 1.9375 C0.684375 2.9584375 0.684375 2.9584375 1 4 C1.66 4.33 2.32 4.66 3 5 C1.02 7.97 1.02 7.97 -1 11 C-3.0625 9.3125 -3.0625 9.3125 -5 7 C-4.75 4.25 -4.75 4.25 -4 2 C-2.68 2 -1.36 2 0 2 C0 1.34 0 0.68 0 0 Z " fill="#E8B295" transform="translate(207,139)"/>
<path d="M0 0 C4.53675697 -0.17791204 7.907775 -0.0461125 12 2 C12.33 2.33 12.66 2.66 13 3 C15.52596259 3.23653523 18.03107207 3.42173692 20.5625 3.5625 C21.27341797 3.60568359 21.98433594 3.64886719 22.71679688 3.69335938 C24.47761912 3.79971777 26.2387832 3.90038846 28 4 C28 4.33 28 4.66 28 5 C9.28488232 5.63401277 9.28488232 5.63401277 1 2 C0.67 1.34 0.34 0.68 0 0 Z " fill="#875C47" transform="translate(324,226)"/>
<path d="M0 0 C2.83022097 3.99560608 1.76210446 7.42737323 1 12 C1.66 12 2.32 12 3 12 C3 11.34 3 10.68 3 10 C3.66 10 4.32 10 5 10 C4.34 11.98 3.68 13.96 3 16 C-1.5959596 11.75757576 -1.5959596 11.75757576 -3 9.125 C-3 5.67973965 -1.48298716 3.0846133 0 0 Z " fill="#9A6B57" transform="translate(429,206)"/>
<path d="M0 0 C0.33 0 0.66 0 1 0 C1 2.31 1 4.62 1 7 C0.01 7.33 -0.98 7.66 -2 8 C-1.67 9.98 -1.34 11.96 -1 14 C-1.99 14.495 -1.99 14.495 -3 15 C-3.33 15.99 -3.66 16.98 -4 18 C-4.99 18 -5.98 18 -7 18 C-5.06375702 11.79522136 -2.74390859 5.89174281 0 0 Z " fill="#C89279" transform="translate(444,172)"/>
<path d="M0 0 C2.61074979 0.37296426 4.1530953 1.1007206 6.375 2.5625 C8 5 8 5 7.8046875 7.04296875 C7.29896125 9.05518938 6.65610906 11.03167283 6 13 C3.05454944 10.56680171 2.67713283 8.67586393 2 5 C1.34 4.67 0.68 4.34 0 4 C0 2.68 0 1.36 0 0 Z " fill="#E3A180" transform="translate(502,177)"/>
<path d="M0 0 C0.8971875 0.309375 0.8971875 0.309375 1.8125 0.625 C0.90757812 1.40423828 0.90757812 1.40423828 -0.015625 2.19921875 C-4.11341117 5.77486765 -7.99435744 9.18236688 -11.1875 13.625 C-11.1875 12.965 -11.1875 12.305 -11.1875 11.625 C-11.8475 11.295 -12.5075 10.965 -13.1875 10.625 C-11.92097137 9.16292657 -10.64911082 7.70547074 -9.375 6.25 C-8.66730469 5.43789062 -7.95960938 4.62578125 -7.23046875 3.7890625 C-3.14453125 -0.5390625 -3.14453125 -0.5390625 0 0 Z " fill="#1D0B07" transform="translate(305.1875,114.375)"/>
<path d="M0 0 C0.66 0 1.32 0 2 0 C2 0.99 2 1.98 2 3 C2.99 3 3.98 3 5 3 C5 2.34 5 1.68 5 1 C5.99 1 6.98 1 8 1 C8 2.65 8 4.3 8 6 C8.66 6 9.32 6 10 6 C9.67 6.99 9.34 7.98 9 9 C6.75 8.875 6.75 8.875 4 8 C0 2.91891892 0 2.91891892 0 0 Z " fill="#B57352" transform="translate(512,208)"/>
<path d="M0 0 C0.99 0.66 1.98 1.32 3 2 C3.2208564 4.95064148 3.28060989 7.68368231 3.1875 10.625 C3.17396484 11.42679688 3.16042969 12.22859375 3.14648438 13.0546875 C3.11109051 15.03674378 3.05728234 17.01845551 3 19 C2.67 19 2.34 19 2 19 C1.67 15.7 1.34 12.4 1 9 C0.01 9 -0.98 9 -2 9 C-2 6.36 -2 3.72 -2 1 C-1.34 1.66 -0.68 2.32 0 3 C0 2.01 0 1.02 0 0 Z " fill="#ECB899" transform="translate(285,151)"/>
<path d="M0 0 C0.33 0 0.66 0 1 0 C1.06058594 0.75925781 1.12117187 1.51851563 1.18359375 2.30078125 C1.26738281 3.29464844 1.35117188 4.28851563 1.4375 5.3125 C1.51871094 6.29863281 1.59992188 7.28476563 1.68359375 8.30078125 C1.91812559 11.09375599 1.91812559 11.09375599 3 14 C3.66 14 4.32 14 5 14 C5.0825 14.61875 5.165 15.2375 5.25 15.875 C5.79394438 18.17972859 5.79394438 18.17972859 8 19.0625 C8.66 19.371875 9.32 19.68125 10 20 C10.33 20.99 10.66 21.98 11 23 C5.95149057 21.33149773 3.96693886 19.13087217 1.16015625 14.73046875 C-0.8813089 9.92580835 -0.46729076 5.11423776 0 0 Z " fill="#25110A" transform="translate(207,125)"/>
<path d="M0 0 C0.99 0 1.98 0 3 0 C3.66 1.65 4.32 3.3 5 5 C3.9375 6.5 3.9375 6.5 2 8 C-1.6875 8.1875 -1.6875 8.1875 -5 8 C-4.54625 7.608125 -4.0925 7.21625 -3.625 6.8125 C-1.72357081 4.69167513 -0.93795972 2.66957765 0 0 Z " fill="#AA6649" transform="translate(414,224)"/>
<path d="M0 0 C0.33 0.99 0.66 1.98 1 3 C-5.28609179 6.69598916 -9.77372899 7.53860683 -17 7.25 C-17.87011719 7.23195312 -18.74023438 7.21390625 -19.63671875 7.1953125 C-21.75829907 7.14868436 -23.87930335 7.07696077 -26 7 C-26 6.67 -26 6.34 -26 6 C-20.39 6 -14.78 6 -9 6 C-9 5.34 -9 4.68 -9 4 C-5.535 3.505 -5.535 3.505 -2 3 C-2 2.34 -2 1.68 -2 1 C-1.34 0.67 -0.68 0.34 0 0 Z " fill="#210903" transform="translate(249,211)"/>
<path d="M0 0 C-3.86991424 1.97485314 -7.8110825 3.79329168 -11.75 5.625 C-12.44738281 5.94984375 -13.14476562 6.2746875 -13.86328125 6.609375 C-15.5752888 7.40674838 -17.28761299 8.20344186 -19 9 C-18.6875 7.125 -18.6875 7.125 -18 5 C-12.170776 1.11385067 -6.96291317 -0.13137572 0 0 Z " fill="#1E0C07" transform="translate(328,104)"/>
<path d="M0 0 C0.60070312 0.20496094 1.20140625 0.40992188 1.8203125 0.62109375 C0.41658448 1.8238607 -1.00320847 3.00789894 -2.4296875 4.18359375 C-3.61304688 5.17552734 -3.61304688 5.17552734 -4.8203125 6.1875 C-7.1796875 7.62109375 -7.1796875 7.62109375 -9.3671875 7.43359375 C-11.46384792 6.49371149 -12.68039005 5.34528582 -14.1796875 3.62109375 C-13.3134375 3.70359375 -12.4471875 3.78609375 -11.5546875 3.87109375 C-6.99498868 3.53333828 -4.25428569 -0.73954429 0 0 Z " fill="#270D08" transform="translate(381.1796875,207.37890625)"/>
<path d="M0 0 C0.66 0 1.32 0 2 0 C0.41959721 6.50149439 -1.15027899 11.27463081 -6 16 C-6.66 16 -7.32 16 -8 16 C-8 13 -8 13 -6 11 C-5.49855469 10.55011719 -4.99710937 10.10023438 -4.48046875 9.63671875 C-2.79123614 7.76920302 -2.12870713 6.18338739 -1.3125 3.8125 C-1.06113281 3.09707031 -0.80976563 2.38164062 -0.55078125 1.64453125 C-0.36902344 1.10183594 -0.18726563 0.55914062 0 0 Z " fill="#AF795F" transform="translate(267,200)"/>
<path d="M0 0 C0.66 0 1.32 0 2 0 C1.34496718 4.05819183 0.05440879 7.53971282 -1.5625 11.3125 C-2.01753906 12.38113281 -2.47257812 13.44976562 -2.94140625 14.55078125 C-3.46541016 15.76314453 -3.46541016 15.76314453 -4 17 C-5.13732426 13.59598052 -4.83989957 11.22543336 -4.0625 7.75 C-3.86785156 6.85796875 -3.67320312 5.9659375 -3.47265625 5.046875 C-3.31667969 4.37140625 -3.16070312 3.6959375 -3 3 C-2.34 3 -1.68 3 -1 3 C-0.67 2.01 -0.34 1.02 0 0 Z " fill="#CEA289" transform="translate(470,127)"/>
<path d="M0 0 C0 0.66 0 1.32 0 2 C0.66 2 1.32 2 2 2 C2 4.31 2 6.62 2 9 C-0.22189824 6.77810176 -0.92598892 4.91517292 -2 2 C-2.66 2 -3.32 2 -4 2 C-4.99 4.31 -5.98 6.62 -7 9 C-7.33 8.01 -7.66 7.02 -8 6 C-8.66 5.67 -9.32 5.34 -10 5 C-9.01 4.34 -8.02 3.68 -7 3 C-6.67 2.01 -6.34 1.02 -6 0 C-3.50907189 -1.24546405 -2.58919267 -0.7767578 0 0 Z " fill="#210F0B" transform="translate(478,103)"/>
<path d="M0 0 C0 0.66 0 1.32 0 2 C0.99 2.33 1.98 2.66 3 3 C0.36 3.66 -2.28 4.32 -5 5 C-5 5.33 -5 5.66 -5 6 C-6.98 6 -8.96 6 -11 6 C-11 5.01 -11 4.02 -11 3 C-9.73160474 2.49384702 -8.46016898 1.99530901 -7.1875 1.5 C-6.12595703 1.08234375 -6.12595703 1.08234375 -5.04296875 0.65625 C-3 0 -3 0 0 0 Z " fill="#BB8169" transform="translate(319,196)"/>
<path d="M0 0 C0.66 0 1.32 0 2 0 C2.66 2.31 3.32 4.62 4 7 C4.66 7 5.32 7 6 7 C6 8.32 6 9.64 6 11 C6.99 11.33 7.98 11.66 9 12 C9.33 13.98 9.66 15.96 10 18 C6.83673624 15.09117267 4.78533387 12.21520301 2.75 8.4375 C2.22921875 7.48746094 1.7084375 6.53742188 1.171875 5.55859375 C0 3 0 3 0 0 Z " fill="#B9856B" transform="translate(286,189)"/>
<path d="M0 0 C4.31924088 6.47886133 4.27529541 13.47366827 4.125 21 C4.11597656 21.87011719 4.10695313 22.74023438 4.09765625 23.63671875 C4.07434619 25.7579342 4.03848579 27.87900562 4 30 C3.67 30 3.34 30 3 30 C2.67 22.41 2.34 14.82 2 7 C1.34 7 0.68 7 0 7 C-1.04449911 3.86650268 -0.93423645 3.01031744 0 0 Z " fill="#56392E" transform="translate(397,147)"/>
<path d="M0 0 C0 0.33 0 0.66 0 1 C-1.73636719 1.18175781 -1.73636719 1.18175781 -3.5078125 1.3671875 C-5.04691292 1.53611316 -6.58597337 1.70540332 -8.125 1.875 C-9.26582031 1.99294922 -9.26582031 1.99294922 -10.4296875 2.11328125 C-14.88099897 2.61213512 -18.74764316 3.53192442 -23 5 C-25.875 4.625 -25.875 4.625 -28 4 C-19.6805644 -0.66987187 -9.26736904 -0.2957671 0 0 Z " fill="#8D6857" transform="translate(352,102)"/>
<path d="M0 0 C3 3.625 3 3.625 3 7 C0.03 7 -2.94 7 -6 7 C-6.33 6.01 -6.66 5.02 -7 4 C-5.02 4 -3.04 4 -1 4 C-0.67 2.68 -0.34 1.36 0 0 Z " fill="#8D5F4A" transform="translate(526,220)"/>
<path d="M0 0 C0.33 0.99 0.66 1.98 1 3 C4.0745356 2.2236068 4.0745356 2.2236068 6 0 C6.33 2.31 6.66 4.62 7 7 C6.34 7 5.68 7 5 7 C4.67 7.66 4.34 8.32 4 9 C3.67 8.67 3.34 8.34 3 8 C2.34 8.66 1.68 9.32 1 10 C-0.60725635 6.78548731 -0.05748185 3.56387464 0 0 Z " fill="#DBA98E" transform="translate(200,134)"/>
<path d="M0 0 C0.33 0.66 0.66 1.32 1 2 C0.328125 3.91796875 0.328125 3.91796875 -0.75 6.1875 C-1.12125 6.98414063 -1.4925 7.78078125 -1.875 8.6015625 C-2.24625 9.39304688 -2.6175 10.18453125 -3 11 C-3.58970385 12.35140464 -4.17386365 13.70525572 -4.75 15.0625 C-5.36875 16.5165625 -5.36875 16.5165625 -6 18 C-6.33 18 -6.66 18 -7 18 C-7.37121722 10.45191661 -7.37121722 10.45191661 -5.5625 8.25 C-4.7890625 7.63125 -4.7890625 7.63125 -4 7 C-3.28552357 4.89667109 -3.28552357 4.89667109 -3 3 C-2.34 3 -1.68 3 -1 3 C-0.67 2.01 -0.34 1.02 0 0 Z " fill="#1C0A06" transform="translate(463,126)"/>
<path d="M0 0 C1.27875 0.103125 2.5575 0.20625 3.875 0.3125 C4.95394531 0.39951172 4.95394531 0.39951172 6.0546875 0.48828125 C8 1 8 1 10 4 C9.34 4 8.68 4 8 4 C7.67 4.99 7.34 5.98 7 7 C6.67 6.34 6.34 5.68 6 5 C3.67843403 4.59270772 1.3431213 4.25561323 -1 4 C-0.67 2.68 -0.34 1.36 0 0 Z " fill="#BA8263" transform="translate(251,110)"/>
<path d="M0 0 C0.33 1.32 0.66 2.64 1 4 C-0.07543783 4.98783194 -1.16073217 5.96493943 -2.25 6.9375 C-3.15492188 7.75541016 -3.15492188 7.75541016 -4.078125 8.58984375 C-6.12034484 10.0883018 -7.48171019 10.75545533 -10 11 C-10.66 10.34 -11.32 9.68 -12 9 C-11.20335937 8.52820313 -11.20335937 8.52820313 -10.390625 8.046875 C-6.48458848 5.68044412 -3.06395074 3.44694458 0 0 Z " fill="#240E09" transform="translate(263,213)"/>
<path d="M0 0 C0.66 0 1.32 0 2 0 C2 2.97 2 5.94 2 9 C2.66 9.33 3.32 9.66 4 10 C4 14 4 14 3 16 C2.34 16 1.68 16 1 16 C-0.50156874 12.99686252 -0.09281204 10.20932478 -0.0625 6.875 C-0.05347656 5.59367188 -0.04445313 4.31234375 -0.03515625 2.9921875 C-0.02355469 2.00476563 -0.01195313 1.01734375 0 0 Z " fill="#B97E5E" transform="translate(121,200)"/>
<path d="M0 0 C2.4294516 3.6441774 2.16179575 5.71241272 2 10 C1.01 10.33 0.02 10.66 -1 11 C-1.66 10.67 -2.32 10.34 -3 10 C-2.25 3.375 -2.25 3.375 0 0 Z " fill="#DEA183" transform="translate(403,176)"/>
<path d="M0 0 C1.32 0.99 2.64 1.98 4 3 C4.66 2.67 5.32 2.34 6 2 C6.625 4.3125 6.625 4.3125 7 7 C6.01 8.485 6.01 8.485 5 10 C4.34 10 3.68 10 3 10 C3 9.01 3 8.02 3 7 C2.01 7 1.02 7 0 7 C0 4.69 0 2.38 0 0 Z " fill="#E8B091" transform="translate(485,137)"/>
<path d="M0 0 C3.7762928 2.73754177 4.22469744 6.8979711 5.1875 11.1875 C5.36474609 11.93708984 5.54199219 12.68667969 5.72460938 13.45898438 C6.15936263 15.30374819 6.58097276 17.15160066 7 19 C6.01 18.34 5.02 17.68 4 17 C3.8125 14.375 3.8125 14.375 4 12 C3.34 12 2.68 12 2 12 C0.86235649 7.73383684 0 4.43513689 0 0 Z " fill="#301811" transform="translate(280,175)"/>
<path d="M0 0 C0.66 0 1.32 0 2 0 C2 2.31 2 4.62 2 7 C6.62 7 11.24 7 16 7 C16 7.33 16 7.66 16 8 C10.39 8 4.78 8 -1 8 C-1 2 -1 2 0 0 Z " fill="#30170F" transform="translate(221,219)"/>
<path d="M0 0 C0.66 0.33 1.32 0.66 2 1 C0.7874262 4.72433382 -0.50859979 8.37802806 -2 12 C0.64 11.34 3.28 10.68 6 10 C6.33 10.99 6.66 11.98 7 13 C3.7 13 0.4 13 -3 13 C-2.52060632 8.28596212 -2.03165952 4.33420699 0 0 Z " fill="#100000" transform="translate(458,160)"/>
<path d="M0 0 C0.33 0.66 0.66 1.32 1 2 C0.07421875 4.49609375 0.07421875 4.49609375 -1.3125 7.4375 C-1.76238281 8.40558594 -2.21226562 9.37367188 -2.67578125 10.37109375 C-4 13 -4 13 -6 16 C-6.38349307 10.88675913 -5.45775975 6.49072152 -3 2 C-2.01 1.34 -1.02 0.68 0 0 Z " fill="#291610" transform="translate(453,150)"/>
<path d="M0 0 C0.33 0 0.66 0 1 0 C2.23076923 5.41538462 2.23076923 5.41538462 1.0625 8.375 C0.711875 8.91125 0.36125 9.4475 0 10 C-0.66 10 -1.32 10 -2 10 C-2 10.99 -2 11.98 -2 13 C-2.99 13.33 -3.98 13.66 -5 14 C-4.54636829 12.41531323 -4.08688548 10.83230076 -3.625 9.25 C-3.36976563 8.36828125 -3.11453125 7.4865625 -2.8515625 6.578125 C-2.0790066 4.23919428 -1.16374324 2.16557438 0 0 Z " fill="#2F1B14" transform="translate(471,130)"/>
<path d="M0 0 C1.32 0 2.64 0 4 0 C3.67 2.31 3.34 4.62 3 7 C1.02 7 -0.96 7 -3 7 C-2.25 2.25 -2.25 2.25 0 0 Z " fill="#CA9379" transform="translate(470,121)"/>
<path d="M0 0 C0.309375 0.928125 0.309375 0.928125 0.625 1.875 C2.54775888 4.84653645 4.66594527 5.13024659 8 6 C8 6.66 8 7.32 8 8 C8.66 8 9.32 8 10 8 C10 9.65 10 11.3 10 13 C9.319375 12.29875 8.63875 11.5975 7.9375 10.875 C4.79219487 7.72065663 1.4111614 4.86065696 -2 2 C-1.34 1.34 -0.68 0.68 0 0 Z " fill="#2C1610" transform="translate(384,113)"/>
<path d="M0 0 C0.99 0.33 1.98 0.66 3 1 C1.35 2.32 -0.3 3.64 -2 5 C-1.2236068 8.0745356 -1.2236068 8.0745356 1 10 C-0.32 10 -1.64 10 -3 10 C-3 9.34 -3 8.68 -3 8 C-3.66 8 -4.32 8 -5 8 C-5.33 5.69 -5.66 3.38 -6 1 C-4.7934375 1.0309375 -4.7934375 1.0309375 -3.5625 1.0625 C-1.06645115 1.29633621 -1.06645115 1.29633621 0 0 Z " fill="#9A654D" transform="translate(384,214)"/>
<path d="M0 0 C0.33 0 0.66 0 1 0 C1.02712153 1.916588 1.04645097 3.8332873 1.0625 5.75 C1.07410156 6.81734375 1.08570313 7.8846875 1.09765625 8.984375 C1.01510087 11.53368501 0.74617558 13.57933591 0 16 C-0.66 16 -1.32 16 -2 16 C-2.66 17.32 -3.32 18.64 -4 20 C-3.25 13.25 -3.25 13.25 -1 11 C-0.79492953 8.59255904 -0.79492953 8.59255904 -0.9375 5.9375 C-0.99178494 4.29243023 -1.02031901 2.64583976 -1 1 C-0.67 0.67 -0.34 0.34 0 0 Z " fill="#1E0A05" transform="translate(260,188)"/>
<path d="M0 0 C0.33 1.32 0.66 2.64 1 4 C0.34 4 -0.32 4 -1 4 C-1.99 4.33 -2.98 4.66 -4 5 C-6.6875 3.6875 -6.6875 3.6875 -9 2 C-9 1.34 -9 0.68 -9 0 C-5.93109813 -1.53445094 -3.29905734 -0.54984289 0 0 Z " fill="#EDB396" transform="translate(250,164)"/>
<path d="M0 0 C3 1 3 1 4.421875 3.3984375 C4.86015625 4.38070312 5.2984375 5.36296875 5.75 6.375 C6.42289062 7.84066406 6.42289062 7.84066406 7.109375 9.3359375 C8 12 8 12 7 15 C3.53732345 12.32429539 3.06318899 9.11099743 2 5 C1.35800351 3.32367583 0.70105843 1.65249487 0 0 Z " fill="#311810" transform="translate(504,194)"/>
<path d="M0 0 C0 0.66 0 1.32 0 2 C0.66 2.33 1.32 2.66 2 3 C1.01 3 0.02 3 -1 3 C-1 2.34 -1 1.68 -1 1 C-1.90492188 1.25136719 -1.90492188 1.25136719 -2.828125 1.5078125 C-4.02695312 1.81332031 -4.02695312 1.81332031 -5.25 2.125 C-6.03890625 2.33382812 -6.8278125 2.54265625 -7.640625 2.7578125 C-10.4203071 3.04314411 -11.65887549 2.44977894 -14 1 C-8.80451575 -1.20808081 -5.41735797 -0.93402724 0 0 Z " fill="#220C05" transform="translate(376,227)"/>
<path d="M0 0 C4.19795804 4.19795804 4.42576654 9.35337097 5 15 C4.01 14.67 3.02 14.34 2 14 C0.30737336 9.619084 -0.30153263 4.67375574 0 0 Z " fill="#B18167" transform="translate(512,187)"/>
<path d="M0 0 C0.28875 0.61875 0.5775 1.2375 0.875 1.875 C1.93720042 4.13325765 1.93720042 4.13325765 4 6 C2.68 8.31 1.36 10.62 0 13 C-0.33 13 -0.66 13 -1 13 C-1.33 10.03 -1.66 7.06 -2 4 C-1.34 4 -0.68 4 0 4 C0 2.68 0 1.36 0 0 Z " fill="#E8B295" transform="translate(499,161)"/>
<path d="M0 0 C4.42580434 5.63284189 5.23709676 8.88709728 5 16 C3.26453924 13.39680887 2.34824767 11.47732763 1.375 8.5625 C1.11460937 7.80066406 0.85421875 7.03882813 0.5859375 6.25390625 C0 4 0 4 0 0 Z " fill="#CBA28D" transform="translate(400,136)"/>
<path d="M0 0 C0.66 0.33 1.32 0.66 2 1 C1.67 1.99 1.34 2.98 1 4 C0.34 4 -0.32 4 -1 4 C-1.33 4.66 -1.66 5.32 -2 6 C-3.258125 6.04125 -4.51625 6.0825 -5.8125 6.125 C-6.52019531 6.14820313 -7.22789062 6.17140625 -7.95703125 6.1953125 C-10 6 -10 6 -13 4 C-8.71 3.34 -4.42 2.68 0 2 C0 1.34 0 0.68 0 0 Z " fill="#966149" transform="translate(362,218)"/>
<path d="M0 0 C5.73213046 -0.23396451 10.61262348 -0.08898273 16 2 C16.99 3.485 16.99 3.485 18 5 C17.2575 4.71125 16.515 4.4225 15.75 4.125 C10.57841343 2.57352403 5.33092452 1.8108526 0 1 C0 0.67 0 0.34 0 0 Z " fill="#27110A" transform="translate(352,102)"/>
<path d="M0 0 C2.31 0.66 4.62 1.32 7 2 C4.68143083 3.54571278 2.49361571 4.79618552 0 6 C0 6.99 0 7.98 0 9 C-0.66 9 -1.32 9 -2 9 C-2.6875 6.75 -2.6875 6.75 -3 4 C-1.5625 1.6875 -1.5625 1.6875 0 0 Z " fill="#1B0B06" transform="translate(310,212)"/>
<path d="M0 0 C2.97 0 5.94 0 9 0 C9.33 0.66 9.66 1.32 10 2 C9.01 2 8.02 2 7 2 C7 2.66 7 3.32 7 4 C5.02 4 3.04 4 1 4 C0.67 2.68 0.34 1.36 0 0 Z " fill="#C8815F" transform="translate(295,203)"/>
<path d="M0 0 C0.66 0.33 1.32 0.66 2 1 C1.690625 2.134375 1.38125 3.26875 1.0625 4.4375 C-0.06931233 8.92461414 -0.59511294 13.39707347 -1 18 C-1.33 18 -1.66 18 -2 18 C-2.24809955 15.3755252 -2.4741699 12.75232855 -2.6875 10.125 C-2.76033203 9.37863281 -2.83316406 8.63226563 -2.90820312 7.86328125 C-3.07421875 5.6953125 -3.07421875 5.6953125 -3 2 C-2.01 1.34 -1.02 0.68 0 0 Z " fill="#35211B" transform="translate(200,118)"/>
<path d="M0 0 C-1.44 3.72 -1.44 3.72 -3.625 4.8125 C-7.18089699 5.09322871 -10.47407819 4.52888827 -14 4 C-14 3.67 -14 3.34 -14 3 C-12.0424015 2.49713066 -10.08389623 1.9977901 -8.125 1.5 C-7.03445312 1.2215625 -5.94390625 0.943125 -4.8203125 0.65625 C-2 0 -2 0 0 0 Z " fill="#1E0804" transform="translate(251,223)"/>
<path d="M0 0 C4.05281712 1.22527029 7.44360764 2.69880494 11 5 C10.67 6.32 10.34 7.64 10 9 C9.34 9 8.68 9 8 9 C7.195625 8.030625 6.39125 7.06125 5.5625 6.0625 C3.29315623 2.80624673 3.29315623 2.80624673 0 2 C0 1.34 0 0.68 0 0 Z " fill="#190603" transform="translate(339,206)"/>
<path d="M0 0 C1 2 1 2 0.4375 4.3125 C-1.47539467 7.88878134 -3.78248866 9.55189355 -7 12 C-7.66 11.67 -8.32 11.34 -9 11 C-6.03 7.37 -3.06 3.74 0 0 Z " fill="#321410" transform="translate(397,202)"/>
<path d="M0 0 C0.66 0.99 1.32 1.98 2 3 C1.01 3.33 0.02 3.66 -1 4 C-1.67441131 5.6635479 -2.3400321 7.33066942 -3 9 C-5.125 11.3125 -5.125 11.3125 -7 13 C-7.66 12.67 -8.32 12.34 -9 12 C-8.21654285 10.82780457 -7.42297164 9.66236332 -6.625 8.5 C-6.18414062 7.8503125 -5.74328125 7.200625 -5.2890625 6.53125 C-4.86367188 6.0259375 -4.43828125 5.520625 -4 5 C-3.34 5 -2.68 5 -2 5 C-1.34 3.35 -0.68 1.7 0 0 Z " fill="#A8735C" transform="translate(390,198)"/>
<path d="M0 0 C0.33 0 0.66 0 1 0 C1.24875561 2.26877104 1.47339246 4.54019735 1.6875 6.8125 C1.81511719 8.07707031 1.94273437 9.34164062 2.07421875 10.64453125 C2 14 2 14 0.51953125 15.94921875 C0.01808594 16.29597656 -0.48335938 16.64273438 -1 17 C-1.66 16.67 -2.32 16.34 -3 16 C-3 15.34 -3 14.68 -3 14 C-2.34 14 -1.68 14 -1 14 C-0.67 9.38 -0.34 4.76 0 0 Z " fill="#9F6C56" transform="translate(261,190)"/>
<path d="M0 0 C0.88336837 2.4667645 1.1312406 3.63859372 0.22265625 6.140625 C-0.16019531 6.83671875 -0.54304688 7.5328125 -0.9375 8.25 C-1.31777344 8.95640625 -1.69804687 9.6628125 -2.08984375 10.390625 C-2.39019531 10.92171875 -2.69054687 11.4528125 -3 12 C-3.66 12 -4.32 12 -5 12 C-4.42365861 7.24518354 -2.44931479 4.02951788 0 0 Z " fill="#BD937E" transform="translate(293,128)"/>
<path d="M0 0 C2.3979567 2.86440855 3.48740082 5.08794276 4.1875 8.75 C4.34605469 9.54921875 4.50460937 10.3484375 4.66796875 11.171875 C4.83232422 12.07679688 4.83232422 12.07679688 5 13 C4.01 13.495 4.01 13.495 3 14 C1.20724134 10.88089144 0.65709282 8.32317572 0.375 4.75 C0.30023437 3.85796875 0.22546875 2.9659375 0.1484375 2.046875 C0.09945312 1.37140625 0.05046875 0.6959375 0 0 Z " fill="#9C6A53" transform="translate(521,208)"/>
<path d="M0 0 C0 1.65 0 3.3 0 5 C-0.99 5.33 -1.98 5.66 -3 6 C-3 6.99 -3 7.98 -3 9 C-4.32 8.34 -5.64 7.68 -7 7 C-5.80061288 4.10148113 -3.63852862 0 0 0 Z " fill="#240A06" transform="translate(388,214)"/>
<path d="M0 0 C12.12195122 -0.2195122 12.12195122 -0.2195122 17 1 C18.1875 3.046875 18.1875 3.046875 19 5 C18.29875 4.79503906 17.5975 4.59007812 16.875 4.37890625 C11.23146391 2.77632603 5.84123457 1.55105987 0 1 C0 0.67 0 0.34 0 0 Z " fill="#966852" transform="translate(326,203)"/>
<path d="M0 0 C1.38637137 3.85103158 0.99896929 7.0754778 0 11 C-2.5625 12.9375 -2.5625 12.9375 -5 14 C-3.45730076 9.27934033 -1.92205381 4.58335908 0 0 Z " fill="#2C140F" transform="translate(405,185)"/>
<path d="M0 0 C0.33 0.66 0.66 1.32 1 2 C0.10333658 4.24310013 -0.89146683 6.44754321 -1.9375 8.625 C-2.50339844 9.81351563 -3.06929688 11.00203125 -3.65234375 12.2265625 C-4.09707031 13.14179688 -4.54179687 14.05703125 -5 15 C-5.33 15 -5.66 15 -6 15 C-6.66452859 9.84990344 -4.49037067 5.39904892 -2 1 C-1.34 0.67 -0.68 0.34 0 0 Z " fill="#220E08" transform="translate(446,166)"/>
<path d="M0 0 C1.62723299 0.45034123 3.25173664 0.91055354 4.875 1.375 C5.77992188 1.63023437 6.68484375 1.88546875 7.6171875 2.1484375 C10 3 10 3 12 5 C10.02 5.33 8.04 5.66 6 6 C6 5.34 6 4.68 6 4 C5.071875 3.7834375 5.071875 3.7834375 4.125 3.5625 C2 3 2 3 0 2 C0 1.34 0 0.68 0 0 Z " fill="#D7AB95" transform="translate(222,151)"/>
<path d="M0 0 C-0.33 0.99 -0.66 1.98 -1 3 C-1.66 3 -2.32 3 -3 3 C-3.928125 4.2065625 -3.928125 4.2065625 -4.875 5.4375 C-7.02540985 8.03064129 -7.75394458 8.65220835 -11 9 C-8.81638059 4.63276119 -5.32701042 0 0 0 Z " fill="#2D150F" transform="translate(220,113)"/>
<path d="M0 0 C1.2 4.8 1.2 4.8 0 8 C-1.5625 10.25 -1.5625 10.25 -3 12 C-4.32 11.67 -5.64 11.34 -7 11 C-6.67 10.34 -6.34 9.68 -6 9 C-5.34 9.33 -4.68 9.66 -4 10 C-2.68 6.7 -1.36 3.4 0 0 Z " fill="#3A1E15" transform="translate(436,211)"/>
<path d="M0 0 C1.32 0.33 2.64 0.66 4 1 C4 2.65 4 4.3 4 6 C3.01 6.33 2.02 6.66 1 7 C1 6.34 1 5.68 1 5 C0.01 5 -0.98 5 -2 5 C-1.34 3.35 -0.68 1.7 0 0 Z " fill="#D09375" transform="translate(479,121)"/>
<path d="M0 0 C5.26170694 1.41167747 8.72171358 3.74850232 13 7 C11 8 11 8 7.9375 7.3125 C5 6 5 6 4.125 3.875 C4.063125 2.946875 4.063125 2.946875 4 2 C2.68 1.67 1.36 1.34 0 1 C0 0.67 0 0.34 0 0 Z " fill="#26140D" transform="translate(243,112)"/>
<path d="M0 0 C0.99 0.495 0.99 0.495 2 1 C2 2.98 2 4.96 2 7 C2.66 7 3.32 7 4 7 C4.66 8.65 5.32 10.3 6 12 C5.34 12.66 4.68 13.32 4 14 C3.32471777 12.42032193 2.66010306 10.83608097 2 9.25 C1.62875 8.36828125 1.2575 7.4865625 0.875 6.578125 C0 4 0 4 0 0 Z " fill="#230C08" transform="translate(291,178)"/>
<path d="M0 0 C0.33 0 0.66 0 1 0 C1.05401695 2.91691525 1.09368066 5.83282724 1.125 8.75 C1.15013672 9.9875 1.15013672 9.9875 1.17578125 11.25 C1.18222656 12.04921875 1.18867188 12.8484375 1.1953125 13.671875 C1.20578613 14.4050293 1.21625977 15.13818359 1.22705078 15.89355469 C0.96777544 18.29896076 0.19225925 19.91251494 -1 22 C-1.38218767 20.34385343 -1.71395102 18.67542976 -2 17 C-1.67 16.67 -1.34 16.34 -1 16 C-0.76321284 13.30764224 -0.57801975 10.63501844 -0.4375 7.9375 C-0.39431641 7.17888672 -0.35113281 6.42027344 -0.30664062 5.63867188 C-0.20026367 3.75934562 -0.09960066 1.87969756 0 0 Z " fill="#200F0B" transform="translate(399,161)"/>
<path d="M0 0 C0.96136276 2.59567945 1.0768013 3.7695961 0.1875 6.4375 C-0.204375 7.283125 -0.59625 8.12875 -1 9 C-1.37125 9.928125 -1.7425 10.85625 -2.125 11.8125 C-2.41375 12.534375 -2.7025 13.25625 -3 14 C-3.66 14 -4.32 14 -5 14 C-4.54636829 12.41531323 -4.08688548 10.83230076 -3.625 9.25 C-3.36976563 8.36828125 -3.11453125 7.4865625 -2.8515625 6.578125 C-2.0790066 4.23919428 -1.16374324 2.16557438 0 0 Z " fill="#3F2720" transform="translate(464,146)"/>
<path d="M0 0 C3.3 0.33 6.6 0.66 10 1 C9.67 1.99 9.34 2.98 9 4 C3.375 4.25 3.375 4.25 0 2 C0 1.34 0 0.68 0 0 Z " fill="#190702" transform="translate(519,226)"/>
<path d="M0 0 C0.33 1.32 0.66 2.64 1 4 C-0.98 4 -2.96 4 -5 4 C-5 3.34 -5 2.68 -5 2 C-5.66 1.67 -6.32 1.34 -7 1 C-4.53721199 -0.231394 -2.7204945 -0.07159196 0 0 Z " fill="#BE754E" transform="translate(364,211)"/>
<path d="M0 0 C1.66666667 0 3.33333333 0 5 0 C5.33 2.97 5.66 5.94 6 9 C5.01 9.495 5.01 9.495 4 10 C3.32845067 8.71086513 2.66291141 7.41859796 2 6.125 C1.62875 5.40570313 1.2575 4.68640625 0.875 3.9453125 C0 2 0 2 0 0 Z " fill="#B8856B" transform="translate(505,192)"/>
<path d="M0 0 C2.64465038 3.1254959 3.84414715 6.08788267 5 10 C4.34 10.66 3.68 11.32 3 12 C3 11.01 3 10.02 3 9 C2.34 9 1.68 9 1 9 C0.67 6.03 0.34 3.06 0 0 Z " fill="#BA846D" transform="translate(292,186)"/>
<path d="M0 0 C0.33 0 0.66 0 1 0 C1.33 2.97 1.66 5.94 2 9 C1.01 9.33 0.02 9.66 -1 10 C-1.66 9.67 -2.32 9.34 -3 9 C-2.01 6.03 -1.02 3.06 0 0 Z " fill="#CD9F89" transform="translate(457,142)"/>
<path d="M0 0 C0.66 0 1.32 0 2 0 C2.66 1.65 3.32 3.3 4 5 C3.4225 4.814375 2.845 4.62875 2.25 4.4375 C-0.20692525 3.95976454 -1.64397534 4.24270636 -4 5 C-4 3.68 -4 2.36 -4 1 C-3.01 1.33 -2.02 1.66 -1 2 C-0.67 1.34 -0.34 0.68 0 0 Z " fill="#BF8A73" transform="translate(259,114)"/>
<path d="M0 0 C-0.8125 1.9375 -0.8125 1.9375 -2 4 C-5.47325181 5.1577506 -8.36067448 5.06866652 -12 5 C-8.45976076 2.63984051 -4.36489861 0 0 0 Z " fill="#251209" transform="translate(420,232)"/>
<path d="M0 0 C0.66 0 1.32 0 2 0 C2.66 1.98 3.32 3.96 4 6 C2.68 6.33 1.36 6.66 0 7 C-0.66 5.35 -1.32 3.7 -2 2 C-1.34 1.34 -0.68 0.68 0 0 Z " fill="#95634D" transform="translate(418,221)"/>
<path d="M0 0 C2.31 0.33 4.62 0.66 7 1 C6.67 1.66 6.34 2.32 6 3 C4.03096629 3.29535506 2.05916424 3.58172087 0.078125 3.78125 C-2.31913458 4.03359311 -4.64629057 4.48512606 -7 5 C-6.67 4.01 -6.34 3.02 -6 2 C-3 1 -3 1 0 2 C0 1.34 0 0.68 0 0 Z " fill="#875743" transform="translate(367,224)"/>
<path d="M0 0 C2 1 2 1 3.1875 3.9375 C4 7 4 7 3 9 C2.01 9 1.02 9 0 9 C-1.125 3.375 -1.125 3.375 0 0 Z " fill="#C47D59" transform="translate(514,202)"/>
<path d="M0 0 C0.33 0.66 0.66 1.32 1 2 C0.05125 1.690625 -0.8975 1.38125 -1.875 1.0625 C-6.50938425 -0.27928271 -11.20552041 -0.63342007 -16 -1 C-16 -1.33 -16 -1.66 -16 -2 C-9.66994194 -3.19137147 -5.67875836 -3.19430158 0 0 Z " fill="#31170F" transform="translate(342,196)"/>
<path d="M0 0 C6.93 0.495 6.93 0.495 14 1 C14 1.33 14 1.66 14 2 C12.73542969 2.09087891 12.73542969 2.09087891 11.4453125 2.18359375 C10.34960938 2.26738281 9.25390625 2.35117188 8.125 2.4375 C7.03445313 2.51871094 5.94390625 2.59992188 4.8203125 2.68359375 C2.05271029 2.83001703 2.05271029 2.83001703 0 4 C0 2.68 0 1.36 0 0 Z " fill="#280F0A" transform="translate(448,182)"/>
<path d="M0 0 C5.57142857 5.14285714 5.57142857 5.14285714 6 9 C5.2575 8.525625 4.515 8.05125 3.75 7.5625 C1.38949985 6.22130673 -0.36648477 5.487688 -3 5 C-2.01 4.67 -1.02 4.34 0 4 C0 2.68 0 1.36 0 0 Z " fill="#33211A" transform="translate(254,177)"/>
<path d="M0 0 C2.02045442 0.60183749 4.02111039 1.27306096 6 2 C6.33 2.66 6.66 3.32 7 4 C6.67 4.99 6.34 5.98 6 7 C3.00675737 5.9024777 2.15389099 5.32317108 0.75 2.375 C0.5025 1.59125 0.255 0.8075 0 0 Z " fill="#130907" transform="translate(241,169)"/>
<path d="M0 0 C-1.29299694 2.88437779 -2.65941363 4.87219421 -5 7 C-5 6.34 -5 5.68 -5 5 C-5.66 5 -6.32 5 -7 5 C-7 4.01 -7 3.02 -7 2 C-2.25 0 -2.25 0 0 0 Z " fill="#190A08" transform="translate(265,121)"/>
<path d="M0 0 C2 1.8125 2 1.8125 4 4 C4 4.99 4 5.98 4 7 C2.35 7.66 0.7 8.32 -1 9 C-1 8.01 -1 7.02 -1 6 C-0.01 5.67 0.98 5.34 2 5 C1.34 3.35 0.68 1.7 0 0 Z " fill="#805A46" transform="translate(420,222)"/>
<path d="M0 0 C-0.1875 1.875 -0.1875 1.875 -1 4 C-3.375 5.3125 -3.375 5.3125 -6 6 C-6.99 5.67 -7.98 5.34 -9 5 C-7.73223544 2.46447088 -6.53176935 2.15080425 -4 1 C-2 0 -2 0 0 0 Z " fill="#28110A" transform="translate(309,209)"/>
<path d="M0 0 C2.1519437 3.22791555 2.20086443 4.28400809 2 8 C0.35 8.33 -1.3 8.66 -3 9 C-2.01 6.03 -1.02 3.06 0 0 Z " fill="#AE7A64" transform="translate(436,190)"/>
<path d="M0 0 C0.99 0 1.98 0 3 0 C3 2.97 3 5.94 3 9 C2.67 8.34 2.34 7.68 2 7 C1.34 7 0.68 7 0 7 C0 4.69 0 2.38 0 0 Z " fill="#D78E62" transform="translate(510,192)"/>
<path d="M0 0 C0.99 0.33 1.98 0.66 3 1 C3.33 5.29 3.66 9.58 4 14 C3.67 14 3.34 14 3 14 C2.49528803 12.23050388 1.99639315 10.45934777 1.5 8.6875 C1.2215625 7.70136719 0.943125 6.71523437 0.65625 5.69921875 C0 3 0 3 0 0 Z " fill="#DAAE9B" transform="translate(397,144)"/>
<path d="M0 0 C0.99 0.33 1.98 0.66 3 1 C3.33 2.65 3.66 4.3 4 6 C2.35 5.67 0.7 5.34 -1 5 C-0.67 3.35 -0.34 1.7 0 0 Z " fill="#B56A44" transform="translate(521,218)"/>
<path d="M0 0 C2 0.875 2 0.875 3.25 3.4375 C3.4975 4.241875 3.745 5.04625 4 5.875 C0.62496331 4.6891763 -1.64722731 3.59926311 -4 0.875 C-2 -0.125 -2 -0.125 0 0 Z " fill="#9C6951" transform="translate(353,209.125)"/>
<path d="M0 0 C0.66 1.32 1.32 2.64 2 4 C1.01 5.485 1.01 5.485 0 7 C0 6.34 0 5.68 0 5 C-0.99 5 -1.98 5 -3 5 C-3.33 5.66 -3.66 6.32 -4 7 C-4.33 6.01 -4.66 5.02 -5 4 C-4.0409375 3.8453125 -4.0409375 3.8453125 -3.0625 3.6875 C-2.381875 3.460625 -1.70125 3.23375 -1 3 C-0.67 2.01 -0.34 1.02 0 0 Z " fill="#CB8567" transform="translate(394,198)"/>
<path d="M0 0 C5.4770206 2.16798732 5.4770206 2.16798732 7.375 5.1875 C7.58125 5.785625 7.7875 6.38375 8 7 C4.00499382 5.6302836 1.19990508 3.74277578 -2 1 C-1.34 0.67 -0.68 0.34 0 0 Z " fill="#30160F" transform="translate(354,201)"/>
<path d="M0 0 C0.33 0 0.66 0 1 0 C1.36368892 1.60203467 1.71561952 3.20674203 2.0625 4.8125 C2.25972656 5.70582031 2.45695312 6.59914062 2.66015625 7.51953125 C3 10 3 10 2 13 C1.34 13 0.68 13 0 13 C0 8.71 0 4.42 0 0 Z " fill="#C99276" transform="translate(121,187)"/>
<path d="M0 0 C0.99 0.33 1.98 0.66 3 1 C3.33 1.99 3.66 2.98 4 4 C4.66 3.01 5.32 2.02 6 1 C5.67 2.98 5.34 4.96 5 7 C4.01 7 3.02 7 2 7 C2 6.01 2 5.02 2 4 C1.34 4 0.68 4 0 4 C0 2.68 0 1.36 0 0 Z " fill="#DA9B79" transform="translate(286,185)"/>
<path d="M0 0 C2.475 0.495 2.475 0.495 5 1 C5 1.66 5 2.32 5 3 C5.66 3 6.32 3 7 3 C7.33 4.65 7.66 6.3 8 8 C6.85073734 7.04578192 5.70569459 6.08647955 4.5625 5.125 C3.92441406 4.59132812 3.28632813 4.05765625 2.62890625 3.5078125 C1 2 1 2 0 0 Z " fill="#C69C88" transform="translate(250,173)"/>
<path d="M0 0 C0.66 0 1.32 0 2 0 C5.42857143 8.42857143 5.42857143 8.42857143 5 13 C1.42988974 9.267612 0.89086558 4.9050011 0 0 Z " fill="#1B0903" transform="translate(504,165)"/>
<path d="M0 0 C1.41750563 0.11509661 2.83401169 0.24253658 4.25 0.375 C5.03890625 0.44460937 5.8278125 0.51421875 6.640625 0.5859375 C9.085877 1.01507113 10.84836903 1.78600638 13 3 C11.39667209 3.08121924 9.79215974 3.13929134 8.1875 3.1875 C7.29417969 3.22230469 6.40085937 3.25710937 5.48046875 3.29296875 C2.58352485 2.95081002 1.77444972 2.24606427 0 0 Z " fill="#210A06" transform="translate(322,217)"/>
<path d="M0 0 C0.66 0 1.32 0 2 0 C1.67 2.31 1.34 4.62 1 7 C0.34 7 -0.32 7 -1 7 C-1.625 4.625 -1.625 4.625 -2 2 C-1.34 1.34 -0.68 0.68 0 0 Z " fill="#BF714E" transform="translate(431,211)"/>
<path d="M0 0 C1.04005702 3.38018531 1.08004482 6.4780279 1 10 C-0.65 10.33 -2.3 10.66 -4 11 C-3.71125 10.29875 -3.4225 9.5975 -3.125 8.875 C-1.97866412 5.94547497 -0.97374346 2.99078347 0 0 Z " fill="#32150F" transform="translate(268,202)"/>
<path d="M0 0 C0.33 0 0.66 0 1 0 C0.67 2.31 0.34 4.62 0 7 C-0.99 7.33 -1.98 7.66 -3 8 C-3.33 7.34 -3.66 6.68 -4 6 C-2.69593116 3.98079663 -1.36176581 1.98075027 0 0 Z " fill="#CD815C" transform="translate(265,200)"/>
<path d="M0 0 C0.33 0.66 0.66 1.32 1 2 C-1.40983607 6.70491803 -1.40983607 6.70491803 -4 8 C-4 6.02 -4 4.04 -4 2 C-2.68 1.34 -1.36 0.68 0 0 Z " fill="#D59072" transform="translate(400,190)"/>
<path d="M0 0 C1.32 0.66 2.64 1.32 4 2 C3.67 3.65 3.34 5.3 3 7 C0.08482708 5.92598892 -1.77810176 5.22189824 -4 3 C-2.68 2.67 -1.36 2.34 0 2 C0 1.34 0 0.68 0 0 Z " fill="#CC9B85" transform="translate(247,166)"/>
<path d="M0 0 C0.33 0 0.66 0 1 0 C1 3.63 1 7.26 1 11 C0.01 11.495 0.01 11.495 -1 12 C-1.92470553 7.28400182 -2.22923777 4.32734391 0 0 Z " fill="#CFA691" transform="translate(285,144)"/>
<path d="M0 0 C2.6855594 2.6855594 3.06049974 5.37621328 4 9 C3.34 9.66 2.68 10.32 2 11 C1.46770674 9.73392393 0.94955456 8.46189588 0.4375 7.1875 C0.14746094 6.47980469 -0.14257812 5.77210937 -0.44140625 5.04296875 C-1 3 -1 3 0 0 Z " fill="#A27B6A" transform="translate(481,116)"/>
<path d="M0 0 C-2.75924185 1.80411967 -3.88972103 2.0127245 -7.25 1.625 C-8.1575 1.41875 -9.065 1.2125 -10 1 C-6.54366026 -2.45633974 -4.11562231 -2.49877069 0 0 Z " fill="#A57761" transform="translate(327,108)"/>
<path d="M0 0 C0.99 0 1.98 0 3 0 C3.66 1.65 4.32 3.3 5 5 C3.68 5.33 2.36 5.66 1 6 C1 4.68 1 3.36 1 2 C0.34 1.67 -0.32 1.34 -1 1 C-0.67 0.67 -0.34 0.34 0 0 Z " fill="#A36243" transform="translate(414,224)"/>
<path d="M0 0 C-0.33 1.32 -0.66 2.64 -1 4 C-2.65 3.67 -4.3 3.34 -6 3 C-6 2.34 -6 1.68 -6 1 C-4 0 -4 0 0 0 Z " fill="#BF744A" transform="translate(384,212)"/>
<path d="M0 0 C0.66 0 1.32 0 2 0 C2 0.66 2 1.32 2 2 C2.66 2.33 3.32 2.66 4 3 C3.34 3.66 2.68 4.32 2 5 C0.68 5 -0.64 5 -2 5 C-1.125 1.125 -1.125 1.125 0 0 Z " fill="#B27557" transform="translate(386,209)"/>
<path d="M0 0 C0.125 2.875 0.125 2.875 0 6 C-0.66 6.66 -1.32 7.32 -2 8 C-2 7.34 -2 6.68 -2 6 C-2.99 6.33 -3.98 6.66 -5 7 C-4.53479806 4.30182875 -3.4249099 0 0 0 Z " fill="#C37B56" transform="translate(435,205)"/>
<path d="M0 0 C2.52349243 3.12432397 4.27256146 6.38060496 6 10 C4.125 9.8125 4.125 9.8125 2 9 C0.21715186 5.70173093 0 3.8225249 0 0 Z " fill="#2A170D" transform="translate(287,194)"/>
<path d="M0 0 C4.455 0.99 4.455 0.99 9 2 C9 2.99 9 3.98 9 5 C4.89198233 3.81323934 3.10551666 3.10551666 0 0 Z " fill="#CCA694" transform="translate(223,159)"/>
<path d="M0 0 C2 2 2 2 2 5 C-3.75 3.25 -3.75 3.25 -6 1 C-3.125 0.375 -3.125 0.375 0 0 Z " fill="#281611" transform="translate(240,154)"/>
<path d="M0 0 C0.99 0 1.98 0 3 0 C1.90931332 3.77545388 1.0916909 6.47043472 -2 9 C-1.125 1.125 -1.125 1.125 0 0 Z " fill="#DFB49F" transform="translate(462,144)"/>
<path d="M0 0 C0.66 0 1.32 0 2 0 C2.66 2.31 3.32 4.62 4 7 C3.38125 6.814375 2.7625 6.62875 2.125 6.4375 C-0.04160178 5.76313824 -0.04160178 5.76313824 -2 7 C-1.34 4.69 -0.68 2.38 0 0 Z " fill="#391F15" transform="translate(474,123)"/>
<path d="M0 0 C2.88437779 1.29299694 4.87219421 2.65941363 7 5 C4.625 5.625 4.625 5.625 2 6 C1.34 5.34 0.68 4.68 0 4 C0 2.68 0 1.36 0 0 Z " fill="#1E0B08" transform="translate(377,122)"/>
<path d="M0 0 C-1 2 -1 2 -3.3125 3.1875 C-6.11989571 4.03624754 -7.301935 3.99928333 -10 3 C-6.48812804 0.59185923 -4.27343092 -0.36629408 0 0 Z " fill="#190700" transform="translate(414,224)"/>
<path d="M0 0 C0.66 0.66 1.32 1.32 2 2 C0.68 4.97 -0.64 7.94 -2 11 C-3.28485596 5.86057616 -2.22194431 4.62164416 0 0 Z " fill="#1C0602" transform="translate(429,202)"/>
<path d="M0 0 C0.66 0 1.32 0 2 0 C2.33 2.31 2.66 4.62 3 7 C2.01 7 1.02 7 0 7 C0 4.69 0 2.38 0 0 Z " fill="#D99272" transform="translate(437,190)"/>
<path d="M0 0 C0.33 0 0.66 0 1 0 C1 2.31 1 4.62 1 7 C-0.32 7.33 -1.64 7.66 -3 8 C-1.125 2.25 -1.125 2.25 0 0 Z " fill="#B88D79" transform="translate(444,172)"/>
<path d="M0 0 C3.0916909 2.52956528 3.90931332 5.22454612 5 9 C2 8 2 8 0 5 C-0.125 2.3125 -0.125 2.3125 0 0 Z " fill="#C59B85" transform="translate(498,157)"/>
<path d="M0 0 C0.33 0.66 0.66 1.32 1 2 C-1.17508418 6.69360269 -1.17508418 6.69360269 -4.1875 7.8125 C-4.785625 7.874375 -5.38375 7.93625 -6 8 C-2.25 2.25 -2.25 2.25 0 0 Z " fill="#2B1711" transform="translate(305,127)"/>
<path d="M0 0 C-0.33 0.99 -0.66 1.98 -1 3 C-3.91517292 1.92598892 -5.77810176 1.22189824 -8 -1 C-4.37673261 -2.2077558 -3.35853631 -1.54311128 0 0 Z " fill="#23120C" transform="translate(260,108)"/>
<path d="M0 0 C-1.32 1.32 -2.64 2.64 -4 4 C-4.66 3.67 -5.32 3.34 -6 3 C-6 2.01 -6 1.02 -6 0 C-3.50907189 -1.24546405 -2.58919267 -0.7767578 0 0 Z " fill="#986C5B" transform="translate(220,106)"/>
<path d="M0 0 C2.31 0.33 4.62 0.66 7 1 C7 1.99 7 2.98 7 4 C4.69 3.67 2.38 3.34 0 3 C0 2.01 0 1.02 0 0 Z " fill="#B47351" transform="translate(312,217)"/>
<path d="M0 0 C0.99 0.33 1.98 0.66 3 1 C3 2.32 3 3.64 3 5 C0.03 4.505 0.03 4.505 -3 4 C-2.67 3.01 -2.34 2.02 -2 1 C-1.34 0.67 -0.68 0.34 0 0 Z " fill="#B37256" transform="translate(348,205)"/>
<path d="M0 0 C0.66 0.99 1.32 1.98 2 3 C1.34 3 0.68 3 0 3 C0.66 4.32 1.32 5.64 2 7 C0.35 7.66 -1.3 8.32 -3 9 C-2.01 6.03 -1.02 3.06 0 0 Z " fill="#CC9D86" transform="translate(450,158)"/>
<path d="M0 0 C2.11180592 2.57089417 3.66306057 4.63060567 4 8 C3.34 8.66 2.68 9.32 2 10 C0.39644899 6.49223216 -0.22036864 3.85645121 0 0 Z " fill="#2F1913" transform="translate(489,156)"/>
<path d="M0 0 C1.98 0.66 3.96 1.32 6 2 C5.67 2.99 5.34 3.98 5 5 C3.02 4.34 1.04 3.68 -1 3 C-0.67 2.01 -0.34 1.02 0 0 Z " fill="#CBA18A" transform="translate(216,154)"/>
<path d="M0 0 C1.23666047 3.57257469 0.89093449 6.35526801 0 10 C-0.99 10.495 -0.99 10.495 -2 11 C-1.85892253 9.54119891 -1.71197585 8.08296449 -1.5625 6.625 C-1.48128906 5.81289062 -1.40007812 5.00078125 -1.31640625 4.1640625 C-1 2 -1 2 0 0 Z " fill="#3A231B" transform="translate(292,147)"/>
<path d="M0 0 C0.66 0 1.32 0 2 0 C2.80967438 2.91482778 3.21845993 4.46113217 2.0625 7.3125 C1.5365625 8.1478125 1.5365625 8.1478125 1 9 C1 7.68 1 6.36 1 5 C0.34 5 -0.32 5 -1 5 C-0.67 3.35 -0.34 1.7 0 0 Z " fill="#E4AD8A" transform="translate(398,136)"/>
<path d="M0 0 C0.66 0.33 1.32 0.66 2 1 C-0.97 3.475 -0.97 3.475 -4 6 C-4.66 5.67 -5.32 5.34 -6 5 C-3.375 1.125 -3.375 1.125 0 0 Z " fill="#B58975" transform="translate(301,121)"/>
<path d="M0 0 C1.65 0 3.3 0 5 0 C5 2.64 5 5.28 5 8 C4.34 7.67 3.68 7.34 3 7 C3 5.68 3 4.36 3 3 C2.34 3 1.68 3 1 3 C0.67 2.01 0.34 1.02 0 0 Z " fill="#B8856D" transform="translate(473,120)"/>
<path d="M0 0 C0.66 0 1.32 0 2 0 C1.50769231 5.53846154 1.50769231 5.53846154 -1.0625 7.875 C-2.0215625 8.431875 -2.0215625 8.431875 -3 9 C-2.01 6.03 -1.02 3.06 0 0 Z " fill="#94705F" transform="translate(469,114)"/>
<path d="M0 0 C-0.3125 1.9375 -0.3125 1.9375 -1 4 C-1.99 4.33 -2.98 4.66 -4 5 C-4.33 3.68 -4.66 2.36 -5 1 C-3 0 -3 0 0 0 Z " fill="#B88670" transform="translate(319,114)"/>
<path d="M0 0 C0 0.66 0 1.32 0 2 C-0.99 2 -1.98 2 -3 2 C-3.33 3.32 -3.66 4.64 -4 6 C-5.32 5.34 -6.64 4.68 -8 4 C-2.25 0 -2.25 0 0 0 Z " fill="#A2765C" transform="translate(317,109)"/>
<path d="M0 0 C0.66 0 1.32 0 2 0 C1.67 1.65 1.34 3.3 1 5 C-0.65 5.33 -2.3 5.66 -4 6 C-3.34 5.01 -2.68 4.02 -2 3 C-1.34 3 -0.68 3 0 3 C0 2.01 0 1.02 0 0 Z " fill="#1E0B03" transform="translate(424,226)"/>
<path d="M0 0 C0.66 0 1.32 0 2 0 C3.09658936 3.28976808 2.79953138 4.71303767 2 8 C1.34 8 0.68 8 0 8 C0 5.36 0 2.72 0 0 Z " fill="#1E0A04" transform="translate(214,218)"/>
<path d="M0 0 C2.3125 0.1875 2.3125 0.1875 4 1 C4 1.66 4 2.32 4 3 C1.03 3.66 -1.94 4.32 -5 5 C-2.75 2.4375 -2.75 2.4375 0 0 Z " fill="#A0674C" transform="translate(380,209)"/>
<path d="M0 0 C0.66 0.33 1.32 0.66 2 1 C0.125 6.75 0.125 6.75 -1 9 C-1.66 8.67 -2.32 8.34 -3 8 C-2.01 5.36 -1.02 2.72 0 0 Z " fill="#29160F" transform="translate(458,160)"/>
<path d="M0 0 C1.32 0 2.64 0 4 0 C4.33 1.65 4.66 3.3 5 5 C4.01 5 3.02 5 2 5 C1.34 3.35 0.68 1.7 0 0 Z " fill="#D9AC98" transform="translate(202,144)"/>
<path d="M0 0 C0.99 0.66 1.98 1.32 3 2 C2.34 3.32 1.68 4.64 1 6 C0.01 5.67 -0.98 5.34 -2 5 C-1.34 3.35 -0.68 1.7 0 0 Z " fill="#D7A58D" transform="translate(488,135)"/>
</svg>
