<?xml version="1.0" encoding="UTF-8"?>
<svg version="1.1" xmlns="http://www.w3.org/2000/svg" width="1600" height="640">
<path d="M0 0 C528 0 1056 0 1600 0 C1600 211.2 1600 422.4 1600 640 C1072 640 544 640 0 640 C0 428.8 0 217.6 0 0 Z " fill="#FEFEFE" transform="translate(0,0)"/>
<path d="M0 0 C0.66 0 1.32 0 2 0 C11.40796555 23.79824696 11.40796555 23.79824696 14.734375 33.671875 C16.20459039 37.53799695 17.92523466 41.25347564 19.65283203 45.01025391 C21.92602385 50.05510839 23.98924677 55.18295915 26.0625 60.3125 C26.53365234 61.47330078 27.00480469 62.63410156 27.49023438 63.83007812 C31.27654948 73.17364623 35.02029069 82.53415678 38.75732422 91.89752197 C42.32689214 100.8406917 45.92583147 109.77135611 49.5625 118.6875 C50.00803223 119.78022217 50.45356445 120.87294434 50.91259766 121.9987793 C53.25314574 127.73409627 55.60184892 133.46598991 57.95703125 139.1953125 C62.16843132 149.45872289 66.35164428 159.68226842 69.96875 170.171875 C71.3055141 173.83784927 72.93857199 177.32432785 74.6015625 180.8515625 C76.82081593 185.84798224 78.73987446 190.96005584 80.67724609 196.07128906 C81.86775175 199.81411242 81.86775175 199.81411242 84 203 C84.32162109 202.0298999 84.64324219 201.0597998 84.97460938 200.06030273 C95.75265182 167.56619178 95.75265182 167.56619178 101.11987305 152.2824707 C105.51256402 139.73995557 109.65587568 127.11220618 113.82836914 114.49511719 C115.43725582 109.64408793 117.10221359 104.81615725 118.8125 100 C119.06894287 99.27506348 119.32538574 98.55012695 119.58959961 97.80322266 C120.90546994 94.08381351 122.22535519 90.36584247 123.546875 86.6484375 C123.80106201 85.93171875 124.05524902 85.215 124.31713867 84.4765625 C124.78741725 83.15060181 125.25878601 81.8250268 125.73168945 80.5 C128.25937389 73.36900108 130.61810229 66.18062803 133 59 C133.48180494 57.54848691 133.96365801 56.0969898 134.44555664 54.64550781 C134.81240318 53.54054962 134.81240318 53.54054962 135.18666077 52.41326904 C136.20035079 49.36084807 137.21481402 46.30868442 138.22949219 43.2565918 C138.7436998 41.70891813 139.25737062 40.16106601 139.77050781 38.61303711 C148.18242169 13.24101605 148.18242169 13.24101605 153 2 C163.56 2 174.12 2 185 2 C184.19129258 6.85224454 183.06931511 10.91830598 181.3125 15.4375 C181.04848389 16.12980713 180.78446777 16.82211426 180.51245117 17.53540039 C178.41898344 22.99675524 176.23352857 28.42052186 174.04248047 33.84326172 C172.47381406 37.74779804 171.04723218 41.66281418 169.76171875 45.66796875 C163.02389565 66.29607331 154.9220406 86.51930105 147.21582031 106.79882812 C143.0431022 117.78531002 138.96785277 128.80334047 134.96679688 139.85351562 C132.95665239 145.3978105 130.9063236 150.92433568 128.8125 156.4375 C126.88971914 161.50251126 125.11320947 166.59906036 123.4375 171.75 C122.014595 176.09076081 120.50416271 180.30956468 118.6875 184.5 C116.17515959 190.33842629 114.120949 196.30337518 112.0625 202.3125 C109.40437672 210.06391448 106.59895961 217.6886543 103.49609375 225.2734375 C99.24183654 235.74851572 95.52947244 246.45028265 91.8125 257.125 C89.80468856 262.88835855 87.6092635 268.48040414 85 274 C82.99977938 271.99977938 82.33784773 270.76967825 81.265625 268.2109375 C80.78077637 267.05984497 80.78077637 267.05984497 80.28613281 265.88549805 C79.94420898 265.05703369 79.60228516 264.22856934 79.25 263.375 C78.8900293 262.51108643 78.53005859 261.64717285 78.15917969 260.75708008 C75.84472642 255.16107008 73.66054011 249.53405615 71.57568359 243.84863281 C68.81660106 236.38545114 65.83728986 229.00916975 62.875 221.625 C62.61497192 220.97679291 62.35494385 220.32858582 62.08703613 219.66073608 C60.83892545 216.55065185 59.58935107 213.4411624 58.33886719 210.33203125 C57.20363891 207.50679502 56.07318896 204.67973818 54.9453125 201.8515625 C53.10284049 197.24207716 51.22768964 192.64624419 49.34936523 188.05126953 C45.0058822 177.42478545 40.69736776 166.78530256 36.4375 156.125 C35.95982178 154.9299585 35.48214355 153.73491699 34.98999023 152.50366211 C32.19412829 145.50570867 29.4046504 138.50522622 26.61784363 131.50366211 C25.00295861 127.44801648 23.38590809 123.39323599 21.76858521 119.33856201 C20.97273019 117.34176559 20.17784844 115.34458094 19.38400269 113.34698486 C13.95256406 99.65368902 13.95256406 99.65368902 7.99047852 86.18579102 C6.5251607 82.95212319 5.34996379 79.66703835 4.1875 76.3125 C3.76855469 75.11238281 3.34960938 73.91226563 2.91796875 72.67578125 C2.61503906 71.79277344 2.31210937 70.90976563 2 70 C1.34 70 0.68 70 0 70 C-6.32901135 85.18487878 -12.59157966 100.39139854 -18.67932129 115.67486572 C-22.57962569 125.46639423 -26.52439447 135.23880879 -30.5 145 C-36.24095452 159.10072101 -41.90957358 173.22943345 -47.55126953 187.37011719 C-49.39642619 191.99327007 -51.2450914 196.6150142 -53.09423828 201.23657227 C-54.28153482 204.20398882 -55.46837294 207.17158826 -56.65509033 210.13923645 C-59.36685717 216.92021054 -62.08126905 223.7001218 -64.79696655 230.47952271 C-66.63401399 235.06586446 -68.47036205 239.6524861 -70.30664062 244.23913574 C-71.22511256 246.53279856 -72.14389371 248.82633758 -73.06298828 251.11975098 C-74.35918724 254.35425832 -75.65431473 257.58919281 -76.94921875 260.82421875 C-77.34344528 261.80720444 -77.73767181 262.79019012 -78.1438446 263.80296326 C-78.50589493 264.7080513 -78.86794525 265.61313934 -79.2409668 266.5456543 C-79.55784958 267.33675095 -79.87473236 268.1278476 -80.20121765 268.94291687 C-80.84884922 270.61074539 -81.43421924 272.30265773 -82 274 C-82.66 274 -83.32 274 -84 274 C-84.25168945 273.29504395 -84.50337891 272.59008789 -84.76269531 271.86376953 C-85.92319476 268.61681759 -87.08657961 265.37090642 -88.25 262.125 C-88.64574219 261.01640625 -89.04148437 259.9078125 -89.44921875 258.765625 C-91.53326099 252.95763842 -93.69833013 247.20277945 -96.01708984 241.48486328 C-97.86014256 236.82550149 -99.50995563 232.09588039 -101.1875 227.375 C-105.66087021 214.86656391 -110.30592742 202.42698838 -115 190 C-118.8023927 179.92826432 -122.5324379 169.83302867 -126.19750977 159.71044922 C-127.82860944 155.2073831 -129.47782988 150.71280723 -131.16625977 146.23095703 C-132.63565898 142.29907708 -134.07103818 138.35471544 -135.51269531 134.41259766 C-144.46819305 109.9246076 -153.55814328 85.48714413 -162.72070312 61.07592773 C-165.19951322 54.47140114 -167.67643889 47.86616769 -170.15252686 41.26062012 C-170.70434895 39.78864411 -171.25630342 38.31671772 -171.80841064 36.84484863 C-173.46050188 32.44004964 -175.10686618 28.03315066 -176.75 23.625 C-177.34107544 22.05008789 -177.34107544 22.05008789 -177.9440918 20.44335938 C-178.30801025 19.46431641 -178.67192871 18.48527344 -179.046875 17.4765625 C-179.35463867 16.65236816 -179.66240234 15.82817383 -179.97949219 14.97900391 C-181.44729335 10.69428865 -182.69855752 6.3381416 -184 2 C-173.11 2 -162.22 2 -151 2 C-149.494375 6.3725 -147.98875 10.745 -146.4375 15.25 C-143.76432287 23.01178229 -141.08948251 30.77237976 -138.35327148 38.51220703 C-135.08409273 47.76360945 -131.96579426 57.06277971 -128.875 66.375 C-124.87134787 78.43712907 -120.8089738 90.47760898 -116.6875 102.5 C-116.42064392 103.27850311 -116.15378784 104.05700623 -115.87884521 104.85910034 C-114.78114703 108.0608368 -113.68310414 111.26245474 -112.58459473 114.46391296 C-109.520611 123.39405756 -106.4661033 132.3274341 -103.41421509 141.26171875 C-102.52885643 143.85304123 -101.64275313 146.44410818 -100.7565918 149.03515625 C-98.2663889 156.32140758 -95.7868896 163.610564 -93.359375 170.91796875 C-91.19900105 177.4187542 -88.99377981 183.90255824 -86.75 190.375 C-86.399375 191.3959375 -86.04875 192.416875 -85.6875 193.46875 C-85.18476563 194.91894531 -85.18476563 194.91894531 -84.671875 196.3984375 C-84.3737793 197.26130371 -84.07568359 198.12416992 -83.76855469 199.01318359 C-83.16602095 200.96877181 -83.16602095 200.96877181 -82 202 C-75.45458813 186.50000537 -69.1295022 170.91947379 -62.91162109 155.28588867 C-60.14139556 148.32458427 -57.33869298 141.38219803 -54.44116211 134.47265625 C-50.87640735 125.88294395 -47.42009395 117.24826267 -43.9375 108.625 C-43.51515076 107.57988251 -43.09280151 106.53476501 -42.65765381 105.45797729 C-37.15156373 91.83280584 -31.66952005 78.19845323 -26.22314453 64.54931641 C-17.60888357 42.9819161 -8.80929611 21.48830886 0 0 Z " fill="#209A97" transform="translate(257,108)"/>
<path d="M0 0 C16.42159279 12.9123209 27.04484137 30.23966177 30.3515625 50.9921875 C32.98403475 73.79850958 28.12578911 96.03101391 14.01171875 114.5234375 C0.96430023 129.81227512 -17.10931229 139.18389366 -36.9609375 141.8671875 C-59.1943592 143.04684551 -78.53417348 138.8956541 -95.69433594 123.8581543 C-100.73740658 119.2961558 -105.30533628 114.62816363 -108.9609375 108.8671875 C-109.83685547 107.49433594 -109.83685547 107.49433594 -110.73046875 106.09375 C-114.70710252 99.58044248 -117.77131208 93.17607606 -119.9609375 85.8671875 C-120.26 84.90683594 -120.5590625 83.94648438 -120.8671875 82.95703125 C-124.62726438 69.18749044 -124.19437379 54.46162732 -119.9609375 40.8671875 C-119.6825 39.93777344 -119.4040625 39.00835937 -119.1171875 38.05078125 C-112.52540442 18.07654201 -98.76228632 3.07663126 -80.63671875 -6.9765625 C-54.72768991 -19.72793013 -23.33735881 -16.81028748 0 0 Z " fill="#FDFEFE" transform="translate(1233.9609375,218.1328125)"/>
<path d="M0 0 C1.06444336 0.00491455 2.12888672 0.0098291 3.22558594 0.01489258 C10.58708311 0.12494256 17.2495385 0.69242391 24.1875 3.3125 C25.18523437 3.67601562 26.18296875 4.03953125 27.2109375 4.4140625 C38.54855116 8.84058673 47.5122761 14.79422917 56.1875 23.3125 C56.88875 23.98925781 57.59 24.66601562 58.3125 25.36328125 C67.65347184 35.05089072 72.89490752 47.42116333 76.1875 60.3125 C76.36039551 60.90844971 76.53329102 61.50439941 76.71142578 62.1184082 C81.15475469 82.5964579 76.62450417 105.01348629 65.49511719 122.49829102 C64.41480944 124.11807688 63.30252022 125.71641073 62.1875 127.3125 C61.48560547 128.34697266 61.48560547 128.34697266 60.76953125 129.40234375 C49.5650818 144.05431611 30.96049618 152.13323253 13.46484375 155.8984375 C-7.63266855 158.56391581 -27.26055824 154.89283534 -44.5625 142 C-53.24267151 134.75576764 -60.25980002 127.19003018 -65.8125 117.3125 C-66.61494141 115.94351563 -66.61494141 115.94351563 -67.43359375 114.546875 C-76.84535367 97.36630577 -79.29248641 75.17558246 -73.8125 56.3125 C-66.49838676 33.74614403 -51.83357283 17.08639837 -30.8125 6.3125 C-20.67171179 1.53870276 -11.17103915 -0.06076961 0 0 Z " fill="#FDFEFE" transform="translate(549.8125,203.6875)"/>
<path d="M0 0 C15.43711109 12.00385749 26.93933396 28.68187253 30.10888672 48.31347656 C32.79905591 71.45158206 29.63200668 92.78671987 16.16796875 112.078125 C4.43033994 126.89713477 -12.656621 138.51709268 -31.61328125 141.62890625 C-54.63869112 143.49990941 -75.30217954 140.36115512 -93.6640625 125.36328125 C-108.54442901 112.51131549 -119.46794554 94.68519569 -121.59375 74.87109375 C-122.85708571 51.94429691 -120.17666091 31.27473486 -104.7421875 13.23828125 C-104.03320312 12.45710938 -103.32421875 11.6759375 -102.59375 10.87109375 C-101.84351563 10.02804688 -101.09328125 9.185 -100.3203125 8.31640625 C-92.10633097 -0.42922457 -81.90672518 -7.0633058 -70.59375 -11.12890625 C-69.81 -11.42667969 -69.02625 -11.72445312 -68.21875 -12.03125 C-45.65884315 -19.14680201 -18.79022145 -13.82508382 0 0 Z " fill="#FDFEFE" transform="translate(978.59375,218.12890625)"/>
<path d="M0 0 C8.58 0 17.16 0 26 0 C26 88.44 26 176.88 26 268 C17.75 268 9.5 268 1 268 C1 257.11 1 246.22 1 235 C0.34 235 -0.32 235 -1 235 C-1.26167969 235.74894531 -1.52335938 236.49789062 -1.79296875 237.26953125 C-7.76716926 250.78398482 -27.74659968 261.41684824 -40.94824219 266.79345703 C-52.70146233 271.26344737 -64.19227867 273.38275726 -76.75 273.3125 C-77.79841064 273.30758545 -78.84682129 273.3026709 -79.92700195 273.29760742 C-93.17949349 273.09862106 -104.82895844 270.32980251 -117 265 C-117.87269531 264.61972656 -118.74539063 264.23945313 -119.64453125 263.84765625 C-143.47968163 252.6995623 -161.27397003 230.87561478 -170.45703125 206.56640625 C-177.47201826 186.62386185 -178.6235904 164.41607819 -173 144 C-172.74476563 143.01644531 -172.48953125 142.03289062 -172.2265625 141.01953125 C-168.50668781 128.37537003 -161.70294019 115.88364543 -153 106 C-152.35933594 105.21753906 -151.71867188 104.43507813 -151.05859375 103.62890625 C-135.63086597 85.41680035 -113.64449249 73.36271712 -90 70 C-75.32768537 68.94306138 -60.96444084 69.13865882 -47 74 C-45.28490234 74.56074219 -45.28490234 74.56074219 -43.53515625 75.1328125 C-26.49226551 81.13859197 -12.19264366 93.00919543 -1 107 C-0.67 71.69 -0.34 36.38 0 0 Z M-134 122 C-145.02074271 136.97965029 -150.39175005 152.40368086 -150.25 170.9375 C-150.25773438 171.94490234 -150.26546875 172.95230469 -150.2734375 173.99023438 C-150.21803466 195.52808891 -141.63521325 213.97467725 -126.72265625 229.34765625 C-109.51039752 245.61142747 -90.80378544 250.50878371 -67.8828125 250.21484375 C-61.93391133 250.03171314 -56.61742201 248.95901692 -51 247 C-49.93523437 246.64808594 -48.87046875 246.29617188 -47.7734375 245.93359375 C-27.52306023 238.74874092 -13.0485269 224.69435822 -3.625 205.5 C1.26584937 195.08906918 2.54260049 184.06216489 2.4375 172.6875 C2.42847656 171.50760498 2.41945313 170.32770996 2.41015625 169.11206055 C1.98382661 147.54244519 -5.90389674 129.34911057 -21 114 C-38.8695006 97.52153837 -60.51490798 92.9149814 -84.13623047 93.80908203 C-104.07859047 95.1385727 -121.1457157 107.41902079 -134 122 Z " fill="#219B98" transform="translate(1007,110)"/>
<path d="M0 0 C1.00740234 -0.00773438 2.01480469 -0.01546875 3.05273438 -0.0234375 C27.92900139 0.0405529 50.13824287 10.47300162 67.59375 27.76708984 C76.0625 36.38194784 76.0625 36.38194784 76.0625 40.25 C76.7225 40.25 77.3825 40.25 78.0625 40.25 C78.0625 28.7 78.0625 17.15 78.0625 5.25 C85.9825 5.25 93.9025 5.25 102.0625 5.25 C102.0625 68.94 102.0625 132.63 102.0625 198.25 C94.1425 198.25 86.2225 198.25 78.0625 198.25 C78.0625 187.36 78.0625 176.47 78.0625 165.25 C77.4025 165.25 76.7425 165.25 76.0625 165.25 C75.78664063 165.8378125 75.51078125 166.425625 75.2265625 167.03125 C66.68526165 183.31131337 45.09059874 194.14562091 28.3125 199.625 C26.23709834 200.19630423 24.15379328 200.73992847 22.0625 201.25 C20.72638672 201.58644531 20.72638672 201.58644531 19.36328125 201.9296875 C-5.17790323 207.04097557 -30.52190666 202.15614883 -51.796875 189.30859375 C-64.22182911 181.16437631 -75.01349378 170.84763125 -82.9375 158.25 C-83.79601562 156.96802734 -83.79601562 156.96802734 -84.671875 155.66015625 C-88.62964082 149.41704336 -91.29934634 143.07924462 -93.75 136.125 C-94.04003906 135.30209473 -94.33007812 134.47918945 -94.62890625 133.63134766 C-98.20979993 123.0301288 -99.30088634 113.25313319 -99.25 102.0625 C-99.24436035 100.77327637 -99.2387207 99.48405273 -99.23291016 98.15576172 C-98.86280121 69.16633687 -86.48688365 45.00905717 -65.9140625 24.91796875 C-53.27986936 13.59361978 -38.41258471 6.07846131 -21.9375 2.25 C-21.20265381 2.07194824 -20.46780762 1.89389648 -19.71069336 1.71044922 C-13.09856024 0.2246803 -6.76156776 -0.05171371 0 0 Z M-55.125 49.4375 C-66.98961872 63.37294539 -74.57924347 82.06850079 -74.375 100.375 C-74.36452637 101.37563477 -74.35405273 102.37626953 -74.34326172 103.40722656 C-73.84144165 124.19121811 -66.29101432 142.97136638 -51.51171875 157.8125 C-50.66222656 158.616875 -49.81273437 159.42125 -48.9375 160.25 C-48.28394531 160.91 -47.63039063 161.57 -46.95703125 162.25 C-32.21023175 176.33649505 -13.44257244 180.78185139 6.32421875 180.53125 C24.99756269 179.91405139 44.90601811 171.65182421 58.0625 158.25 C74.89016987 139.54139297 80.37751918 119.42231319 79.5078125 94.6484375 C78.60184413 78.89187208 71.75031654 62.0838295 61.0625 50.25 C60.33417969 49.44175781 59.60585938 48.63351563 58.85546875 47.80078125 C50.2348282 38.71856309 40.55357014 33.02899646 29.0625 28.25 C27.97582031 27.74919922 27.97582031 27.74919922 26.8671875 27.23828125 C-2.77777068 16.79235587 -34.1216181 27.45721661 -55.125 49.4375 Z " fill="#209A97" transform="translate(547.9375,179.75)"/>
<path d="M0 0 C1.03495605 0.28206299 1.03495605 0.28206299 2.09082031 0.56982422 C21.27757995 6.00419936 36.53625676 18.60743981 49 34 C49.33 34.66 49.66 35.32 50 36 C50.33 24.78 50.66 13.56 51 2 C58.92 2 66.84 2 75 2 C75 65.69 75 129.38 75 195 C67.08 195 59.16 195 51 195 C50.67 184.44 50.34 173.88 50 163 C47.03 166.3 44.06 169.6 41 173 C21.29216001 191.86431376 -3.80093635 200.60862795 -30.83007812 200.28125 C-43.95103654 199.93462017 -55.00118759 197.09126079 -67 192 C-68.05316406 191.55785156 -69.10632812 191.11570312 -70.19140625 190.66015625 C-92.53598274 180.39533749 -108.09778555 160.9371206 -118 139 C-118.42152344 138.09378906 -118.84304688 137.18757812 -119.27734375 136.25390625 C-129.5177764 112.72023274 -128.61513647 83.3499588 -119.46533203 59.72387695 C-109.19801404 34.62564429 -89.3170485 14.4416839 -64.45703125 3.76171875 C-43.87369439 -4.57554942 -21.49863821 -5.87748633 0 0 Z M-82.5625 46.9140625 C-96.74403341 65.07217453 -102.72952292 85.16580516 -101 108 C-100.20045026 113.48883265 -98.69105144 118.72720767 -97 124 C-96.71125 124.91007812 -96.4225 125.82015625 -96.125 126.7578125 C-90.65538656 141.94575698 -79.59253708 156.22976653 -66 165 C-65.26652344 165.49886719 -64.53304688 165.99773437 -63.77734375 166.51171875 C-47.21312034 177.2043963 -26.99779725 179.52785988 -7.8125 175.9375 C4.14707062 172.9580982 15.39080784 167.73792842 25 160 C26.13308594 159.12794922 26.13308594 159.12794922 27.2890625 158.23828125 C42.15230482 146.05655172 49.949544 127.48220665 52.75 108.8125 C54.2972207 85.21738431 48.89374171 63.75634412 33.3359375 45.5625 C24.75481004 36.14908928 13.79685453 28.07170075 1.33520508 24.64355469 C-0.25670576 24.20484303 -1.84072456 23.73668962 -3.41650391 23.24316406 C-10.27135827 21.17815673 -16.54496661 20.48809256 -23.6875 20.5625 C-24.73478271 20.57152344 -25.78206543 20.58054688 -26.86108398 20.58984375 C-48.92805696 21.07807362 -68.00314553 30.35723562 -82.5625 46.9140625 Z " fill="#1F9A97" transform="translate(1212,183)"/>
<path d="M0 0 C8.25 0 16.5 0 25 0 C25.33 35.64 25.66 71.28 26 108 C30.455 102.555 30.455 102.555 35 97 C49.25415396 81.96834673 69.1506501 70.35458701 90.21875 69.6015625 C92.31249996 69.59374027 94.40636627 69.60159291 96.5 69.625 C97.53769531 69.61339844 98.57539062 69.60179687 99.64453125 69.58984375 C115.18928579 69.6479188 128.75448661 74.59312508 141 84 C141.94166016 84.69222656 141.94166016 84.69222656 142.90234375 85.3984375 C158.8983377 97.94858241 165.64487229 119.59707986 168.63664246 138.93681335 C169.83559524 149.04425772 169.49273898 159.31127395 169.40557575 169.4709444 C169.38014532 172.94883736 169.378188 176.42675253 169.37347412 179.90472412 C169.36116416 186.45614357 169.32850965 193.00728807 169.28807616 199.55858779 C169.24297939 207.03166348 169.22127732 214.50475403 169.20129442 221.97793245 C169.15976235 237.31880682 169.08656526 252.65930358 169 268 C160.75 268 152.5 268 144 268 C143.98018066 264.43292236 143.96036133 260.86584473 143.93994141 257.19067383 C143.87287386 245.3721827 143.79533357 233.55377588 143.71247292 221.73538685 C143.66251435 214.57369397 143.6160707 207.41201158 143.578125 200.25024414 C143.54501281 194.00247088 143.50507816 187.7547833 143.45720994 181.50710505 C143.43213427 178.20407037 143.41131748 174.9011011 143.39665604 171.59800148 C143.3796422 167.89569636 143.35057171 164.19365954 143.31884766 160.49145508 C143.31668747 159.41610504 143.31452728 158.340755 143.31230164 157.2328186 C143.10244573 137.9161364 139.29223107 117.40500383 125.296875 103.28125 C114.14057269 93.7741402 99.49154439 92.83422926 85.53320312 93.75634766 C67.09063775 95.53021815 53.47594765 104.73142072 41.65625 118.78125 C28.52043279 136.37828814 25.93068303 156.13744674 25.79467773 177.52026367 C25.77982834 179.00033905 25.77982834 179.00033905 25.76467896 180.51031494 C25.73342007 183.72950957 25.7084494 186.94871888 25.68359375 190.16796875 C25.66299336 192.41669571 25.64199614 194.66541907 25.62062073 196.91413879 C25.56571844 202.80108705 25.51617019 208.68806839 25.46777344 214.57507324 C25.41732428 220.59500026 25.36176106 226.61487989 25.30664062 232.63476562 C25.19944917 244.42313791 25.09839263 256.21155098 25 268 C16.75 268 8.5 268 0 268 C0 179.56 0 91.12 0 0 Z " fill="#209A97" transform="translate(1349,110)"/>
<path d="M0 0 C0.70890381 0.00676758 1.41780762 0.01353516 2.14819336 0.02050781 C10.38082132 0.18347386 16.16375562 1.89922227 23.125 6.25 C22.63842376 11.49881176 19.85952602 15.2573114 17.0625 19.5625 C16.59005859 20.30306641 16.11761719 21.04363281 15.63085938 21.80664062 C14.46912851 23.62551219 13.29798518 25.4383659 12.125 27.25 C11.54854736 27.11142578 10.97209473 26.97285156 10.37817383 26.83007812 C-0.53217266 24.29137003 -9.2240488 23.87858739 -19.23046875 29.5703125 C-20.10316406 30.12460938 -20.97585938 30.67890625 -21.875 31.25 C-22.53113281 31.65992188 -23.18726563 32.06984375 -23.86328125 32.4921875 C-36.18237283 41.61114725 -42.98521444 59.9603892 -45.1875 74.5625 C-45.44722475 76.78831321 -45.6725569 79.01824773 -45.875 81.25 C-45.9552539 82.03187085 -46.03550779 82.8137417 -46.11819363 83.61930561 C-46.76697515 90.16974572 -47.04052595 96.64917318 -47.08032227 103.22924805 C-47.09517166 104.7824752 -47.09517166 104.7824752 -47.11032104 106.36708069 C-47.14160386 109.74860442 -47.16656038 113.13014214 -47.19140625 116.51171875 C-47.21200456 118.87254679 -47.23300173 121.23337139 -47.25437927 123.5941925 C-47.30930305 129.77706084 -47.35884204 135.9599608 -47.40722656 142.1428833 C-47.45765979 148.46442444 -47.51323142 154.78592024 -47.56835938 161.10742188 C-47.67557721 173.48824377 -47.77662596 185.86910467 -47.875 198.25 C-56.455 198.25 -65.035 198.25 -73.875 198.25 C-73.875 134.56 -73.875 70.87 -73.875 5.25 C-65.295 5.25 -56.715 5.25 -47.875 5.25 C-47.545 13.83 -47.215 22.41 -46.875 31.25 C-44.235 27.95 -41.595 24.65 -38.875 21.25 C-28.80763271 9.66523242 -16.00609935 -0.21959876 0 0 Z " fill="#1F9A97" transform="translate(785.875,179.75)"/>
<path d="M0 0 C6.95609364 4.91895193 11.7405833 10.68994198 14 19 C15.28955574 31.06454171 14.34112985 41.81000369 8 52.3125 C2.22784143 58.27590479 -5.28730189 61.24435916 -13.45849609 61.66455078 C-22.3357401 61.75594847 -28.32814028 60.22246239 -34.94921875 54.23828125 C-43.0410453 45.87503075 -44.60110766 37.17488652 -44.47070312 25.90576172 C-44.12080807 16.5274576 -41.24450752 10.59655102 -34.8671875 3.7265625 C-25.77245547 -4.68321064 -10.85318939 -5.83770035 0 0 Z " fill="#F7FCFC" transform="translate(395,471)"/>
<path d="M0 0 C6.35035223 3.82317124 10.49156357 9.10786443 13.3125 15.9375 C14.3125 20.9375 14.3125 20.9375 14.3125 31.9375 C-1.8575 31.9375 -18.0275 31.9375 -34.6875 31.9375 C-32.04439766 43.14288322 -32.04439766 43.14288322 -25.08203125 51.06640625 C-20.87246228 53.38675554 -17.89930443 53.53687022 -13.1875 53.4375 C-12.45402344 53.45296875 -11.72054687 53.4684375 -10.96484375 53.484375 C-5.78171728 53.44728644 -2.7891533 52.33796295 1.3125 48.9375 C1.910625 48.03 2.50875 47.1225 3.125 46.1875 C5.3125 43.9375 5.3125 43.9375 7.55859375 43.62109375 C9.83063389 43.62463827 12.05154184 43.72010018 14.3125 43.9375 C13.22082682 49.57153745 9.75340763 54.02600227 5.27734375 57.53125 C-3.03424952 62.8755268 -12.04668965 62.80152378 -21.6875 61.9375 C-25.13433817 61.11682424 -27.7605741 59.91348373 -30.6875 57.9375 C-31.31914063 57.525 -31.95078125 57.1125 -32.6015625 56.6875 C-38.52573868 52.25067018 -42.4087667 45.22240488 -43.6875 37.9375 C-44.42139546 26.36360765 -44.35573592 16.51139553 -36.8125 7.0625 C-27.60486965 -2.79453501 -12.36438941 -5.72983899 0 0 Z " fill="#259996" transform="translate(1000.6875,470.0625)"/>
<path d="M0 0 C3.04451287 2.81617441 5.63613904 5.58477809 7.5 9.3125 C8.02787109 8.62414062 8.02787109 8.62414062 8.56640625 7.921875 C12.84006778 2.61048365 16.62128071 -1.1617401 23.5546875 -2.1015625 C29.7789247 -2.37468145 34.80854224 -2.09707631 39.9140625 1.68359375 C44.72675995 6.62668448 46.63252701 13.13288366 46.61352539 19.89746094 C46.61341209 21.24840851 46.61341209 21.24840851 46.61329651 22.62664795 C46.60813522 23.59032288 46.60297394 24.5539978 46.59765625 25.546875 C46.5962413 26.54003723 46.59482635 27.53319946 46.59336853 28.55645752 C46.58777588 31.72516912 46.5752247 34.89380979 46.5625 38.0625 C46.55748405 40.21223856 46.55292131 42.36197823 46.54882812 44.51171875 C46.53780885 49.77867312 46.52054923 55.04557454 46.5 60.3125 C43.53 60.3125 40.56 60.3125 37.5 60.3125 C37.48541748 58.98597412 37.47083496 57.65944824 37.45581055 56.29272461 C37.39765878 51.3518636 37.32042666 46.41145028 37.23754883 41.47094727 C37.20437883 39.33625578 37.17632242 37.20147827 37.15356445 35.06665039 C37.11987283 31.99067669 37.06754897 28.91548574 37.01171875 25.83984375 C37.00532883 24.89165268 36.9989389 23.94346161 36.99235535 22.96653748 C36.86874053 17.34349408 36.17793809 13.28995836 33.5 8.3125 C30.21751404 5.61617225 26.5970682 5.95930447 22.5 6.3125 C17.03510473 8.34844137 14.10131096 11.24879306 11.41650391 16.38549805 C10.12259776 20.51779449 10.14306595 24.46176216 10.0859375 28.76953125 C10.06657135 29.67249435 10.0472052 30.57545746 10.0272522 31.50578308 C9.96765918 34.37876047 9.92115231 37.25177837 9.875 40.125 C9.83680155 42.07749105 9.79774873 44.02996559 9.7578125 45.98242188 C9.66197431 50.75897984 9.57786848 55.53561667 9.5 60.3125 C6.53 60.3125 3.56 60.3125 0.5 60.3125 C0.48541748 58.95044434 0.47083496 57.58838867 0.45581055 56.18505859 C0.39772695 51.11936527 0.32049409 46.05411175 0.23754883 40.98876953 C0.2043469 38.79873812 0.1763003 36.60862211 0.15356445 34.41845703 C0.11993191 31.2655847 0.06761052 28.11348427 0.01171875 24.9609375 C0.00532883 23.98571136 -0.0010611 23.01048523 -0.00764465 22.00570679 C-0.1215581 16.70831135 -0.52543114 12.88812074 -3.5 8.3125 C-6.43587436 5.92030608 -9.75429962 5.88930073 -13.4765625 6 C-18.28185414 6.74212998 -20.95917633 9.61089091 -23.8125 13.3125 C-25.94560109 17.10467971 -26.60980785 20.12668313 -26.70532227 24.43847656 C-26.72526749 25.23900452 -26.74521271 26.03953247 -26.76576233 26.86431885 C-26.79083107 28.14577789 -26.79083107 28.14577789 -26.81640625 29.453125 C-26.83718735 30.33530701 -26.85796844 31.21748901 -26.87937927 32.12640381 C-26.94464867 34.93835831 -27.00365447 37.75040445 -27.0625 40.5625 C-27.10570673 42.47136356 -27.14932171 44.38021793 -27.19335938 46.2890625 C-27.30030687 50.96344826 -27.40163785 55.63792602 -27.5 60.3125 C-30.47 60.3125 -33.44 60.3125 -36.5 60.3125 C-36.5 40.5125 -36.5 20.7125 -36.5 0.3125 C-33.86 0.3125 -31.22 0.3125 -28.5 0.3125 C-28.17 2.9525 -27.84 5.5925 -27.5 8.3125 C-27.13648438 7.84199219 -26.77296875 7.37148438 -26.3984375 6.88671875 C-19.58716347 -1.54878216 -10.32326966 -4.97729073 0 0 Z " fill="#2A9B98" transform="translate(771.5,469.6875)"/>
<path d="M0 0 C3.59509495 1.24579297 7.22492955 2.37608489 10.85888672 3.50244141 C12.10025391 3.88916016 13.34162109 4.27587891 14.62060547 4.67431641 C15.79236328 5.03009766 16.96412109 5.38587891 18.17138672 5.75244141 C19.88261719 6.28611328 19.88261719 6.28611328 21.62841797 6.83056641 C30.56851538 9.15676595 39.50374643 8.87199694 48.67138672 8.81494141 C50.0802393 8.80991674 51.48909361 8.80535554 52.89794922 8.80126953 C56.3224731 8.78954171 59.74690719 8.77312832 63.17138672 8.75244141 C60.74109085 11.18273728 59.17887375 11.44333198 55.85888672 12.25244141 C54.91400391 12.48962891 53.96912109 12.72681641 52.99560547 12.97119141 C43.08670396 14.99548181 33.47624927 16.11602402 23.35888672 16.06494141 C22.2003418 16.06075195 21.04179688 16.0565625 19.84814453 16.05224609 C4.06457701 15.85027831 -11.42604928 14.11182894 -26.59033203 9.65869141 C-30.63438123 8.52694302 -34.66776617 7.87123851 -38.81689453 7.25634766 C-42.1191137 6.70383628 -45.32553029 5.9177384 -48.57861328 5.12744141 C-59.7833782 2.69808972 -71.04989175 2.42829676 -81.82861328 6.75244141 C-82.85986328 7.14431641 -83.89111328 7.53619141 -84.95361328 7.93994141 C-85.57236328 8.20806641 -86.19111328 8.47619141 -86.82861328 8.75244141 C-84.17088629 2.12990858 -76.69447949 -1.52278968 -70.51611328 -4.49755859 C-46.87038748 -14.07139522 -23.047621 -8.15307647 0 0 Z " fill="#259B98" transform="translate(1211.82861328125,140.24755859375)"/>
<path d="M0 0 C6.95609364 4.91895193 11.7405833 10.68994198 14 19 C15.28955574 31.06454171 14.34112985 41.81000369 8 52.3125 C2.22784143 58.27590479 -5.28730189 61.24435916 -13.45849609 61.66455078 C-22.3357401 61.75594847 -28.32814028 60.22246239 -34.94921875 54.23828125 C-43.0410453 45.87503075 -44.60110766 37.17488652 -44.47070312 25.90576172 C-44.12080807 16.5274576 -41.24450752 10.59655102 -34.8671875 3.7265625 C-25.77245547 -4.68321064 -10.85318939 -5.83770035 0 0 Z M-29.8125 10.875 C-34.08354635 16.97649478 -35.56040425 21.48141144 -35.5 28.8125 C-35.49427979 29.61204102 -35.48855957 30.41158203 -35.48266602 31.23535156 C-35.2567129 38.69408667 -33.43183682 43.41495618 -28.25 48.828125 C-23.59034963 53.12625077 -19.73860764 54.4403724 -13.2890625 54.34375 C-7.32938415 53.44878124 -2.31924006 50.58308807 1.5 46 C1.995 45.01 2.49 44.02 3 43 C3.35320312 42.29488281 3.70640625 41.58976563 4.0703125 40.86328125 C5.34549083 36.93594631 5.36822127 33.29202164 5.375 29.1875 C5.41173828 28.03411133 5.41173828 28.03411133 5.44921875 26.85742188 C5.48309361 20.16713633 3.64428108 15.06428993 -0.74609375 9.9765625 C-5.95833185 5.81158702 -9.93379202 3.47771825 -16.8828125 3.6875 C-22.07975181 4.45457591 -26.36248712 6.94983565 -29.8125 10.875 Z " fill="#269997" transform="translate(395,471)"/>
<path d="M0 0 C4.87920389 2.55697111 9.28593408 6.3038103 12.0234375 11.12890625 C12.75256327 13.89958416 12.9220021 16.23799745 13.0234375 19.12890625 C10.0534375 19.12890625 7.0834375 19.12890625 4.0234375 19.12890625 C3.7759375 18.03578125 3.5284375 16.94265625 3.2734375 15.81640625 C1.9639081 11.95329453 1.5231883 10.97599695 -1.9765625 9.12890625 C-6.92023419 6.94449318 -11.65027328 6.49891505 -16.9765625 7.12890625 C-20.48839973 8.49462073 -23.84282183 9.92829525 -25.9765625 13.12890625 C-26.35557937 16.16104119 -26.57330578 18.1811375 -24.9140625 20.81640625 C-18.78480373 24.96848477 -11.86743534 26.15315167 -4.73632812 27.50195312 C1.48001068 28.77070204 7.25655388 30.56514702 11.9921875 34.953125 C14.54067355 40.33004443 14.12270729 47.86440808 12.25 53.42578125 C9.03292552 58.58222687 3.7569047 61.5283726 -1.9765625 63.12890625 C-12.22526299 64.43826696 -21.51753336 63.80325279 -30.2265625 57.94140625 C-34.16322747 53.91527162 -36.75301429 49.81148483 -37.2265625 44.12890625 C-37.1028125 43.13890625 -37.1028125 43.13890625 -36.9765625 42.12890625 C-34.3365625 42.12890625 -31.6965625 42.12890625 -28.9765625 42.12890625 C-28.69683594 42.81597656 -28.41710937 43.50304687 -28.12890625 44.2109375 C-26.20076559 48.54460414 -24.8692715 51.50947551 -20.9140625 54.25390625 C-14.64454843 56.17875706 -7.54781528 56.03110021 -1.4140625 53.87890625 C1.89820564 51.50735245 1.89820564 51.50735245 4.0234375 48.12890625 C4.25836579 45.40895876 4.16045901 42.86933648 4.0234375 40.12890625 C-0.43052343 38.19974553 -4.99099194 36.95526273 -9.6640625 35.69140625 C-11.27611247 35.24504731 -12.88809218 34.7984345 -14.5 34.3515625 C-17.06294442 33.64581643 -19.6256963 32.96465811 -22.203125 32.3125 C-28.31359705 30.69719395 -31.51221983 28.53204612 -35.2890625 23.31640625 C-36.64269 19.00940966 -36.81767035 15.1678418 -35.1015625 11.0078125 C-27.92267093 -1.48440342 -13.16671613 -3.85325157 0 0 Z " fill="#299A97" transform="translate(580.9765625,468.87109375)"/>
<path d="M0 0 C5.84609272 3.43372834 10.63145855 8.25514664 12.4375 14.9375 C12.4375 16.2575 12.4375 17.5775 12.4375 18.9375 C9.4675 18.9375 6.4975 18.9375 3.4375 18.9375 C2.880625 17.7 2.32375 16.4625 1.75 15.1875 C-0.11436324 11.45216231 -1.99182247 9.22639585 -5.5625 6.9375 C-10.34221251 5.3442625 -14.92007196 5.05669065 -19.75390625 6.66796875 C-25.01652522 9.43408916 -27.54379788 13.2536584 -29.71484375 18.70703125 C-31.99069525 27.38043764 -31.71648072 36.65810599 -27.91015625 44.84375 C-25.31639781 48.87347326 -21.83315537 51.80217231 -17.5625 53.9375 C-12.58183027 54.48394038 -8.6666693 54.47954675 -4.125 52.25 C-0.17555877 48.68587011 1.6065428 44.86700016 3.4375 39.9375 C6.4075 39.9375 9.3775 39.9375 12.4375 39.9375 C11.13256748 47.11462886 9.57828021 51.96649169 4.125 57.125 C-4.00228681 62.60619343 -12.02319178 63.06752664 -21.5625 61.9375 C-28.36797174 59.63705885 -32.54607281 55.47413319 -36.30859375 49.4765625 C-39.63379597 42.74328698 -41.09499288 37.10341486 -41 29.5625 C-40.99315186 28.72759033 -40.98630371 27.89268066 -40.97924805 27.0324707 C-40.73793134 17.75849801 -38.26347287 10.48617803 -31.5625 3.9375 C-22.31824707 -2.7328629 -10.70536082 -4.97734001 0 0 Z " fill="#279A97" transform="translate(1514.5625,470.0625)"/>
<path d="M0 0 C6.50930566 2.60855292 10.43329282 6.57604796 13.3203125 12.875 C14.16017767 15.26909843 14.31423639 17.29860892 14 19.8125 C11.03 19.8125 8.06 19.8125 5 19.8125 C4.38125 18.20375 4.38125 18.20375 3.75 16.5625 C1.67197517 11.73328737 -1.14121952 8.86243431 -6 6.8125 C-10.93804153 6.11172183 -14.88883198 6.25691599 -19.375 8.5 C-25.14451572 13.58266861 -28.51134931 18.96561342 -29.2890625 26.6796875 C-29.54497896 35.82288466 -27.87368977 43.59625256 -22 50.8125 C-17.60283457 54.79088777 -14.0596245 55.39042539 -8.33203125 55.1328125 C-3.9324648 54.52851694 -1.78925787 52.64685832 1.1875 49.5 C3.09937012 46.6651581 4.08437152 44.09350205 5 40.8125 C7.97 40.8125 10.94 40.8125 14 40.8125 C13.40535846 48.09685889 11.02032698 53.22603547 5.5625 58.125 C-1.29401542 63.93156179 -9.53042812 63.58415838 -18.06396484 63.04638672 C-22.32269814 62.53190166 -24.99423047 60.74636117 -28 57.8125 C-28.93199219 56.99265625 -28.93199219 56.99265625 -29.8828125 56.15625 C-37.1174082 49.01246512 -39.16344041 39.58886592 -39.5 29.6875 C-39.16960284 20.09532437 -36.53046015 12.46845809 -29.875 5.46875 C-27.10486372 3.02179628 -24.31782726 1.43888591 -21 -0.1875 C-15.28109277 -3.04695362 -5.98109011 -1.80966316 0 0 Z " fill="#289A97" transform="translate(203,469.1875)"/>
<path d="M0 0 C2.64 0 5.28 0 8 0 C8 6.27 8 12.54 8 19 C12.95 19 17.9 19 23 19 C23 21.64 23 24.28 23 27 C18.05 27 13.1 27 8 27 C8.09347898 32.92679536 8.19956058 38.85317951 8.31738281 44.77954102 C8.35569104 46.79607952 8.39054065 48.81268678 8.421875 50.8293457 C8.46748549 53.72632442 8.52548639 56.62282896 8.5859375 59.51953125 C8.59748871 60.42274612 8.60903992 61.325961 8.62094116 62.25654602 C8.64081085 63.09719101 8.66068054 63.937836 8.68115234 64.80395508 C8.69447601 65.54341873 8.70779968 66.28288239 8.7215271 67.04475403 C8.90214412 69.32104165 8.90214412 69.32104165 11 72 C15.1944205 72.27060777 18.97542684 72.34152439 23 71 C23 73.64 23 76.28 23 79 C17.80919068 82.16017487 11.86003168 81.71391249 6 81 C1.8773335 78.33239226 0.65295588 75.72711376 -0.60516357 71.06564331 C-1.36147108 67.10891225 -1.2422645 63.14325602 -1.1953125 59.12890625 C-1.19106766 57.74541237 -1.19106766 57.74541237 -1.18673706 56.33396912 C-1.17560974 53.41000987 -1.15051912 50.48636549 -1.125 47.5625 C-1.11496057 45.57096799 -1.1058364 43.57943114 -1.09765625 41.58789062 C-1.07569483 36.7251405 -1.04121673 31.8626235 -1 27 C-3.64 27 -6.28 27 -9 27 C-9 24.36 -9 21.72 -9 19 C-6.03 19 -3.06 19 0 19 C0 12.73 0 6.46 0 0 Z " fill="#299B98" transform="translate(1160,451)"/>
<path d="M0 0 C4.13905054 3.02857356 7.86622802 6.9403906 9.5625 11.875 C9.5625 13.855 9.5625 15.835 9.5625 17.875 C-3.6375 17.875 -16.8375 17.875 -30.4375 17.875 C-25.67126623 3.5762987 -25.67126623 3.5762987 -19.4375 -0.125 C-13.28886656 -2.07889907 -6.08111835 -1.99018419 0 0 Z " fill="#F9FDFD" transform="translate(995.4375,477.125)"/>
<path d="M0 0 C8.91 0 17.82 0 27 0 C27 0.33 27 0.66 27 1 C18.75 1 10.5 1 2 1 C2 89.44 2 177.88 2 269 C1.34 269 0.68 269 0 269 C-0.15030709 235.01984494 -0.29533615 201.03967205 -0.4332476 167.05946449 C-0.44951936 163.05136159 -0.46583499 159.04325886 -0.48217773 155.03515625 C-0.48543066 154.23718673 -0.48868358 153.4392172 -0.49203508 152.61706679 C-0.54486917 139.68211884 -0.60126083 126.74718872 -0.6589582 113.81226166 C-0.71804495 100.54818066 -0.77332955 87.28408778 -0.82505554 74.01997602 C-0.85711564 65.82974968 -0.89217141 57.63954726 -0.93101191 49.44935022 C-0.96043539 43.17804699 -0.98457897 36.90673375 -1.00670624 30.63540077 C-1.01664481 28.05614174 -1.02832538 25.47688878 -1.04183006 22.89764595 C-1.059938 19.39071704 -1.07192047 15.88382061 -1.08229065 12.37686157 C-1.08909444 11.34380406 -1.09589823 10.31074655 -1.10290819 9.24638426 C-1.10440054 8.31233555 -1.10589289 7.37828683 -1.10743046 6.41593361 C-1.11084794 5.60561042 -1.11426542 4.79528724 -1.11778647 3.96040881 C-1 2 -1 2 0 0 Z " fill="#DEFCFA" transform="translate(1347,109)"/>
<path d="M0 0 C2.97 0 5.94 0 9 0 C9 19.8 9 39.6 9 60 C6.03 60 3.06 60 0 60 C0 40.2 0 20.4 0 0 Z " fill="#2B9C99" transform="translate(1325,470)"/>
<path d="M0 0 C9.24 0 18.48 0 28 0 C28 7.92 28 15.84 28 24 C28.66 24 29.32 24 30 24 C29.34 25.32 28.68 26.64 28 28 C27.67 28 27.34 28 27 28 C27 19.09 27 10.18 27 1 C18.42 1 9.84 1 1 1 C1 64.69 1 128.38 1 194 C0.67 194 0.34 194 0 194 C0 129.98 0 65.96 0 0 Z " fill="#C3F1EE" transform="translate(711,184)"/>
<path d="M0 0 C0.33 0 0.66 0 1 0 C1 33.99 1 67.98 1 103 C5.03378366 102.49019039 5.03378366 102.49019039 6.25 99.9375 C6.4975 99.298125 6.745 98.65875 7 98 C7.33 98.99 7.66 99.98 8 101 C6.6015625 103.04296875 6.6015625 103.04296875 4.625 105.1875 C3.97789063 105.90292969 3.33078125 106.61835938 2.6640625 107.35546875 C1 109 1 109 0 109 C0 73.03 0 37.06 0 0 Z " fill="#C9F0F1" transform="translate(1374,110)"/>
<path d="M0 0 C0.87011719 0.12181641 0.87011719 0.12181641 1.7578125 0.24609375 C0.65770037 5.92368392 -2.85384885 10.29324872 -7.27734375 13.91015625 C-12.4601176 17.37825539 -12.4601176 17.37825539 -15.484375 16.8671875 C-16.06445312 16.66222656 -16.64453125 16.45726562 -17.2421875 16.24609375 C-16.4584375 15.97796875 -15.6746875 15.70984375 -14.8671875 15.43359375 C-11.96103827 14.39794943 -11.96103827 14.39794943 -10.2421875 11.24609375 C-10.5721875 10.25609375 -10.9021875 9.26609375 -11.2421875 8.24609375 C-11.9021875 7.91609375 -12.5621875 7.58609375 -13.2421875 7.24609375 C-9.49734677 1.48931898 -6.97949221 -0.56434838 0 0 Z " fill="#279996" transform="translate(1013.2421875,513.75390625)"/>
<path d="M0 0 C0.33 0 0.66 0 1 0 C1.19441368 2.2910905 1.38033135 4.58290337 1.5625 6.875 C1.66691406 8.15117187 1.77132813 9.42734375 1.87890625 10.7421875 C2 14 2 14 1 16 C0.87701041 19.01999999 0.81420445 22.01839375 0.79467773 25.03955078 C0.78477814 25.97618561 0.77487854 26.91282043 0.76467896 27.87783813 C0.73301078 30.98363693 0.70828552 34.08945104 0.68359375 37.1953125 C0.66302881 39.34480189 0.64203247 41.49428719 0.62062073 43.64376831 C0.5653525 49.30890601 0.51596419 54.97408049 0.46777344 60.63928223 C0.41759306 66.41710698 0.36188894 72.19487813 0.30664062 77.97265625 C0.19900096 89.31505841 0.09756891 100.65750705 0 112 C-0.33 112 -0.66 112 -1 112 C-1.02322558 99.02121708 -1.04096704 86.04243915 -1.05181217 73.06363964 C-1.0570187 67.03631541 -1.06407566 61.00900547 -1.07543945 54.98168945 C-1.08634782 49.15913567 -1.09229363 43.33659558 -1.09487724 37.51403236 C-1.09671721 35.29862566 -1.10031009 33.08321967 -1.10573006 30.86781883 C-1.11304611 27.75195096 -1.11398652 24.63613882 -1.11352539 21.52026367 C-1.11712067 20.61538712 -1.12071594 19.71051056 -1.12442017 18.7782135 C-1.11439906 12.47284817 -0.66118559 6.26952602 0 0 Z " fill="#C9EFF0" transform="translate(1375,266)"/>
<path d="M0 0 C0.33 0 0.66 0 1 0 C1 34.98 1 69.96 1 106 C-0.32 104.68 -1.64 103.36 -3 102 C-2.01 101.505 -2.01 101.505 -1 101 C-0.67 67.67 -0.34 34.34 0 0 Z " fill="#ECFEFE" transform="translate(1006,112)"/>
<path d="M0 0 C3.96434573 0.97448696 7.97554498 1.71178013 11.98242188 2.48730469 C11.98242188 2.81730469 11.98242188 3.14730469 11.98242188 3.48730469 C6.70242188 3.15730469 1.42242188 2.82730469 -4.01757812 2.48730469 C-4.01757812 1.82730469 -4.01757812 1.16730469 -4.01757812 0.48730469 C-18.13027239 -1.96882755 -35.4605764 -3.37837872 -48.01757812 4.48730469 C-48.01757812 3.49730469 -48.01757812 2.50730469 -48.01757812 1.48730469 C-46.0228893 0.80491114 -44.02100546 0.14359985 -42.01757812 -0.51269531 C-41.33695313 -0.77695313 -40.65632813 -1.04121094 -39.95507812 -1.31347656 C-26.5664581 -6.08543404 -13.32056733 -3.35766366 0 0 Z " fill="#C3EAEA" transform="translate(1172.017578125,146.5126953125)"/>
<path d="M0 0 C1.1147168 -0.0309375 1.1147168 -0.0309375 2.25195312 -0.0625 C7.52026942 -0.09943824 11.10392688 0.88012214 15.8125 3.25 C15.4825 3.91 15.1525 4.57 14.8125 5.25 C14.1525 5.25 13.4925 5.25 12.8125 5.25 C12.8125 6.9 12.8125 8.55 12.8125 10.25 C11.8225 10.745 11.8225 10.745 10.8125 11.25 C10.09707031 10.94320313 9.38164063 10.63640625 8.64453125 10.3203125 C5.1196234 8.98814043 2.25670971 9.05478113 -1.5 9.125 C-2.75425781 9.14304687 -4.00851562 9.16109375 -5.30078125 9.1796875 C-6.72970703 9.21449219 -6.72970703 9.21449219 -8.1875 9.25 C-7.8575 8.59 -7.5275 7.93 -7.1875 7.25 C-4.68359375 6.8359375 -4.68359375 6.8359375 -1.625 6.625 C-0.61308594 6.55023438 0.39882813 6.47546875 1.44140625 6.3984375 C2.22386719 6.34945313 3.00632812 6.30046875 3.8125 6.25 C3.8125 5.59 3.8125 4.93 3.8125 4.25 C5.1325 3.92 6.4525 3.59 7.8125 3.25 C7.8125 2.59 7.8125 1.93 7.8125 1.25 C2.8625 1.25 -2.0875 1.25 -7.1875 1.25 C-7.5175 1.91 -7.8475 2.57 -8.1875 3.25 C-8.8475 2.59 -9.5075 1.93 -10.1875 1.25 C-6.97932025 -0.35408988 -3.5207767 0.02380914 0 0 Z " fill="#3DA4A1" transform="translate(986.1875,467.75)"/>
<path d="M0 0 C0.33 0 0.66 0 1 0 C1 10.89 1 21.78 1 33 C8.92 33 16.84 33 25 33 C25 33.33 25 33.66 25 34 C16.42 34 7.84 34 -1 34 C-1 24.76 -1 15.52 -1 6 C-1.99 5.67 -2.98 5.34 -4 5 C-2.69254251 3.31295807 -1.35827971 1.64639965 0 0 Z " fill="#CBF2F2" transform="translate(1262,345)"/>
<path d="M0 0 C2.97 0 5.94 0 9 0 C9 3.3 9 6.6 9 10 C6.03 10 3.06 10 0 10 C0 6.7 0 3.4 0 0 Z " fill="#309B97" transform="translate(1325,448)"/>
<path d="M0 0 C8.25 0.33 16.5 0.66 25 1 C25 1.66 25 2.32 25 3 C17.08 3 9.16 3 1 3 C1 14.55 1 26.1 1 38 C-1 36 -1 36 -1.13525391 32.46826172 C-1.09289483 30.95507192 -1.03922419 29.4421726 -0.9765625 27.9296875 C-0.95153656 27.13345978 -0.92651062 26.33723206 -0.90072632 25.51687622 C-0.81843302 22.96915696 -0.72188097 20.42220226 -0.625 17.875 C-0.56676988 16.149771 -0.5094664 14.42451046 -0.453125 12.69921875 C-0.31458312 8.46554179 -0.15678512 4.23319834 0 0 Z " fill="#C1EFED" transform="translate(1262,182)"/>
<path d="M0 0 C1.2375 -0.020625 2.475 -0.04125 3.75 -0.0625 C4.44609375 -0.07410156 5.1421875 -0.08570313 5.859375 -0.09765625 C8 0 8 0 9.80322266 0.49780273 C12.35640868 1.08147729 14.6700076 1.12960456 17.2890625 1.1328125 C18.82626953 1.13474609 18.82626953 1.13474609 20.39453125 1.13671875 C21.46058594 1.13285156 22.52664063 1.12898438 23.625 1.125 C24.66785156 1.12886719 25.71070313 1.13273437 26.78515625 1.13671875 C33.25061266 1.12864702 39.58196671 0.78504224 46 0 C45.67 0.66 45.34 1.32 45 2 C42.67284 2.37400786 40.33882138 2.70764733 38 3 C37.67 3.33 37.34 3.66 37 4 C35.24314326 4.09949077 33.48232667 4.1308026 31.72265625 4.1328125 C30.11680664 4.13474609 30.11680664 4.13474609 28.47851562 4.13671875 C27.35123047 4.13285156 26.22394531 4.12898438 25.0625 4.125 C23.93908203 4.12886719 22.81566406 4.13273437 21.65820312 4.13671875 C20.58634766 4.13542969 19.51449219 4.13414062 18.41015625 4.1328125 C17.42152588 4.13168457 16.43289551 4.13055664 15.41430664 4.12939453 C13 4 13 4 11 3 C9.12943209 2.7724985 7.25314042 2.59037189 5.375 2.4375 C4.37210938 2.35371094 3.36921875 2.26992188 2.3359375 2.18359375 C1.56507813 2.12300781 0.79421875 2.06242187 0 2 C0 1.34 0 0.68 0 0 Z " fill="#D8F7F7" transform="translate(906,381)"/>
<path d="M0 0 C1.07765625 0.01804687 2.1553125 0.03609375 3.265625 0.0546875 C4.49539063 0.08949219 4.49539063 0.08949219 5.75 0.125 C5.75 0.455 5.75 0.785 5.75 1.125 C4.82767578 1.21587891 4.82767578 1.21587891 3.88671875 1.30859375 C3.07847656 1.39238281 2.27023437 1.47617187 1.4375 1.5625 C0.63699219 1.64371094 -0.16351562 1.72492188 -0.98828125 1.80859375 C-3.41087179 2.07765693 -3.41087179 2.07765693 -6.25 3.125 C-6.12625 3.8675 -6.0025 4.61 -5.875 5.375 C-6.25 8.125 -6.25 8.125 -9.125 10.375 C-10.81655506 11.32227083 -12.51594566 12.25797283 -14.25 13.125 C-14.25 12.465 -14.25 11.805 -14.25 11.125 C-14.91 11.125 -15.57 11.125 -16.25 11.125 C-16.58 10.135 -16.91 9.145 -17.25 8.125 C-16.17130607 7.16144756 -15.08681257 6.20438583 -14 5.25 C-13.09507812 4.44949219 -13.09507812 4.44949219 -12.171875 3.6328125 C-8.06391295 0.40989919 -5.23682736 -0.11384407 0 0 Z " fill="#279A95" transform="translate(762.25,467.875)"/>
<path d="M0 0 C2.31 0 4.62 0 7 0 C7 2.97 7 5.94 7 9 C6.34 8.67 5.68 8.34 5 8 C4.375 4.9375 4.375 4.9375 4 2 C3.01 1.67 2.02 1.34 1 1 C1 19.81 1 38.62 1 58 C0.67 58 0.34 58 0 58 C0 38.86 0 19.72 0 0 Z " fill="#25918E" transform="translate(736,471)"/>
<path d="M0 0 C-0.09849243 1.03398926 -0.09849243 1.03398926 -0.19897461 2.08886719 C-0.95239857 10.47131413 -1.3046829 18.83924551 -1.5625 27.25 C-1.60584172 28.59245692 -1.64946003 29.93490495 -1.69335938 31.27734375 C-1.79827765 34.5181527 -1.90044015 37.75902277 -2 41 C-4.34963594 37.47554609 -4.24591382 36.00489606 -4.23046875 31.8359375 C-4.22756836 30.02996094 -4.22756836 30.02996094 -4.22460938 28.1875 C-4.21236328 26.929375 -4.20011719 25.67125 -4.1875 24.375 C-4.18685547 23.10914063 -4.18621094 21.84328125 -4.18554688 20.5390625 C-4.14016594 11.14016594 -4.14016594 11.14016594 -3 10 C-2.92820036 8.48071962 -2.91607993 6.95832518 -2.9375 5.4375 C-2.94652344 4.61121094 -2.95554687 3.78492188 -2.96484375 2.93359375 C-2.97644531 2.29550781 -2.98804688 1.65742188 -3 1 C-1 0 -1 0 0 0 Z " fill="#D4F4F4" transform="translate(451,255)"/>
<path d="M0 0 C9.19030933 13.785464 5.01237044 34.86642472 2 50 C1.67 50 1.34 50 1 50 C1.06566162 49.44199707 1.13132324 48.88399414 1.19897461 48.30908203 C2.01746873 40.83966549 2.31734406 33.38239824 2.5625 25.875 C2.60568359 24.63234375 2.64886719 23.3896875 2.69335938 22.109375 C2.79846455 19.07300329 2.90061343 16.03656335 3 13 C2.34 13 1.68 13 1 13 C0.67 8.71 0.34 4.42 0 0 Z " fill="#CBF1F0" transform="translate(1260,255)"/>
<path d="M0 0 C2.01822917 0.06510417 4.03645833 0.13020833 6.0546875 0.1953125 C6.3846875 1.5153125 6.7146875 2.8353125 7.0546875 4.1953125 C6.3946875 4.1953125 5.7346875 4.1953125 5.0546875 4.1953125 C5.0546875 5.1853125 5.0546875 6.1753125 5.0546875 7.1953125 C9.3446875 7.1953125 13.6346875 7.1953125 18.0546875 7.1953125 C18.0546875 7.5253125 18.0546875 7.8553125 18.0546875 8.1953125 C15.28359443 8.24923647 12.51354932 8.28894705 9.7421875 8.3203125 C8.95650391 8.33707031 8.17082031 8.35382812 7.36132812 8.37109375 C6.60400391 8.37753906 5.84667969 8.38398437 5.06640625 8.390625 C4.02166138 8.40633545 4.02166138 8.40633545 2.95581055 8.42236328 C1.0546875 8.1953125 1.0546875 8.1953125 -1.9453125 6.1953125 C-3.1328125 4.0703125 -3.1328125 4.0703125 -3.9453125 2.1953125 C-1.9453125 0.1953125 -1.9453125 0.1953125 0 0 Z " fill="#2F9E9B" transform="translate(369.9453125,523.8046875)"/>
<path d="M0 0 C0.66 0 1.32 0 2 0 C2 10.89 2 21.78 2 33 C1.67 33 1.34 33 1 33 C1 23.76 1 14.52 1 5 C-3.71701921 8.62269229 -3.71701921 8.62269229 -6.5625 11.5625 C-8.61694931 13.61694931 -10.63116166 15.33303969 -13 17 C-13.66 16.67 -14.32 16.34 -15 16 C-14.16855469 15.26394531 -13.33710937 14.52789062 -12.48046875 13.76953125 C-11.38251372 12.78418699 -10.28487407 11.79849123 -9.1875 10.8125 C-8.64029297 10.32974609 -8.09308594 9.84699219 -7.52929688 9.34960938 C-4.32521499 6.45622634 -2.18214603 3.76540656 0 0 Z " fill="#B7E2DF" transform="translate(1006,345)"/>
<path d="M0 0 C10.89 0 21.78 0 33 0 C33 1.65 33 3.3 33 5 C32.505 3.515 32.505 3.515 32 2 C16.655 2.495 16.655 2.495 1 3 C0.67 2.01 0.34 1.02 0 0 Z " fill="#4AA6A3" transform="translate(73,110)"/>
<path d="M0 0 C1.14988403 0.1071936 1.14988403 0.1071936 2.32299805 0.21655273 C10.83853832 0.94872166 19.26901185 1.12086329 27.8125 1.0625 C29.72772461 1.05573242 29.72772461 1.05573242 31.68164062 1.04882812 C34.78781211 1.03719452 37.89387908 1.02085075 41 1 C40.0409375 1.4640625 40.0409375 1.4640625 39.0625 1.9375 C37.06389179 2.8345163 37.06389179 2.8345163 36 4 C34.38916255 4.0991918 32.77404356 4.1307982 31.16015625 4.1328125 C30.17982422 4.13410156 29.19949219 4.13539063 28.18945312 4.13671875 C26.64161133 4.13091797 26.64161133 4.13091797 25.0625 4.125 C23.52045898 4.13080078 23.52045898 4.13080078 21.94726562 4.13671875 C20.96564453 4.13542969 19.98402344 4.13414062 18.97265625 4.1328125 C18.06781494 4.13168457 17.16297363 4.13055664 16.23071289 4.12939453 C14 4 14 4 12 3 C9.96416877 2.61369961 7.9212682 2.26403216 5.875 1.9375 C4.77929688 1.76089844 3.68359375 1.58429688 2.5546875 1.40234375 C1.71164062 1.26957031 0.86859375 1.13679688 0 1 C0 0.67 0 0.34 0 0 Z " fill="#E6FAFA" transform="translate(1161,381)"/>
<path d="M0 0 C-0.33 1.98 -0.66 3.96 -1 6 C-1.99 6 -2.98 6 -4 6 C-4 6.66 -4 7.32 -4 8 C-6.97 8 -9.94 8 -13 8 C-12.5 5.6875 -12.5 5.6875 -11 3 C-7.44007019 1.03165868 -4.06351009 0 0 0 Z " fill="#1E9895" transform="translate(1182,523)"/>
<path d="M0 0 C0.33 0 0.66 0 1 0 C1.14285714 7.42857143 1.14285714 7.42857143 0 11 C0.99 11.33 1.98 11.66 3 12 C2 15 2 15 -0.0625 16.1875 C-0.701875 16.455625 -1.34125 16.72375 -2 17 C-2.66 15.02 -3.32 13.04 -4 11 C-4.99 11.66 -5.98 12.32 -7 13 C-9.1875 12.625 -9.1875 12.625 -11 12 C-6.25 9 -6.25 9 -4 9 C-2.47700477 6.06279492 -1.19899698 3.0831351 0 0 Z " fill="#329D9A" transform="translate(398,511)"/>
<path d="M0 0 C0.66 0.33 1.32 0.66 2 1 C1.525625 1.763125 1.05125 2.52625 0.5625 3.3125 C-1.10106097 5.96410548 -1.10106097 5.96410548 -2 9 C-4.0625 9.6875 -4.0625 9.6875 -6 10 C-6 12.31 -6 14.62 -6 17 C-6.66 17 -7.32 17 -8 17 C-8.33 22.61 -8.66 28.22 -9 34 C-9.33 34 -9.66 34 -10 34 C-10.49557641 22.13369813 -10.7556132 12.43620629 -2.75 2.875 C-1.8425 1.92625 -0.935 0.9775 0 0 Z " fill="#439F9C" transform="translate(967,474)"/>
<path d="M0 0 C0.804375 0.495 1.60875 0.99 2.4375 1.5 C2.4375 1.83 2.4375 2.16 2.4375 2.5 C0.7875 2.5 -0.8625 2.5 -2.5625 2.5 C-2.5625 1.84 -2.5625 1.18 -2.5625 0.5 C-7.60166798 0.23195915 -11.27121327 0.57515951 -15.453125 3.5703125 C-17.91026645 5.80982142 -20.27363605 8.08938797 -22.5625 10.5 C-22.8925 9.84 -23.2225 9.18 -23.5625 8.5 C-18.26704107 -0.82000771 -10.06541596 -4.23806988 0 0 Z " fill="#E1F8F7" transform="translate(1509.5625,476.5)"/>
<path d="M0 0 C0.33 0 0.66 0 1 0 C2.02284708 7.617491 1.9675604 14.9614434 1.5625 22.625 C1.51029297 23.72457031 1.45808594 24.82414062 1.40429688 25.95703125 C1.27605696 28.63841122 1.14117502 31.31927531 1 34 C-1 32 -1 32 -1.24291992 29.15844727 C-1.23881104 27.97307373 -1.23470215 26.7877002 -1.23046875 25.56640625 C-1.22853516 24.27798828 -1.22660156 22.98957031 -1.22460938 21.66210938 C-1.21840576 20.98946045 -1.21220215 20.31681152 -1.20581055 19.6237793 C-1.18760153 17.57392905 -1.18530058 15.52453192 -1.18554688 13.47460938 C-1.14032817 3.42098452 -1.14032817 3.42098452 0 0 Z " fill="#319793" transform="translate(450,264)"/>
<path d="M0 0 C19.8 0.495 19.8 0.495 40 1 C40.495 2.485 40.495 2.485 41 4 C39.19402344 3.75636719 39.19402344 3.75636719 37.3515625 3.5078125 C31.03106075 2.80773344 24.72719455 2.85419587 18.375 2.875 C17.18648437 2.87113281 15.99796875 2.86726562 14.7734375 2.86328125 C9.08049332 2.86963498 3.60418568 2.96462259 -2 4 C-1.34 2.68 -0.68 1.36 0 0 Z " fill="#D9F6F5" transform="translate(912,178)"/>
<path d="M0 0 C0 0.66 0 1.32 0 2 C-0.639375 2.268125 -1.27875 2.53625 -1.9375 2.8125 C-4.33131686 3.88667752 -4.33131686 3.88667752 -5 7 C-4.34 7.33 -3.68 7.66 -3 8 C-3.66386719 8.19335938 -4.32773438 8.38671875 -5.01171875 8.5859375 C-11.59789309 10.52751352 -11.59789309 10.52751352 -18 13 C-16.51453018 9.21121744 -14.46285806 7.62334949 -11.125 5.375 C-10.26132813 4.78460938 -9.39765625 4.19421875 -8.5078125 3.5859375 C-2.83743842 0 -2.83743842 0 0 0 Z " fill="#349A97" transform="translate(1143,136)"/>
<path d="M0 0 C2 2 2 2 2 8 C-11.2 8 -24.4 8 -38 8 C-37.67 6.35 -37.34 4.7 -37 3 C-36.67 4.32 -36.34 5.64 -36 7 C-24.12 6.67 -12.24 6.34 0 6 C0 4.02 0 2.04 0 0 Z " fill="#C3F4F3" transform="translate(1003,487)"/>
<path d="M0 0 C0.33 0 0.66 0 1 0 C1 13.53 1 27.06 1 41 C1.66 41 2.32 41 3 41 C3.33 42.32 3.66 43.64 4 45 C6.31 45 8.62 45 11 45 C11 45.33 11 45.66 11 46 C5.04296875 46.390625 5.04296875 46.390625 3 46 C0.9742878 44.20537632 0.09273367 42.7079977 -0.26017761 40.01361084 C-0.34793677 37.47773931 -0.33671121 34.95890946 -0.29296875 32.421875 C-0.28872391 31.4953009 -0.28447906 30.56872681 -0.28010559 29.61407471 C-0.26333322 26.65908566 -0.22568355 23.70478239 -0.1875 20.75 C-0.1724513 18.74480153 -0.15876322 16.73959235 -0.14648438 14.734375 C-0.11343438 9.82265304 -0.06166182 4.91144274 0 0 Z " fill="#C2ECEC" transform="translate(1168,478)"/>
<path d="M0 0 C3.3 0 6.6 0 10 0 C10 0.33 10 0.66 10 1 C11.65 1.33 13.3 1.66 15 2 C15 2.66 15 3.32 15 4 C21.93 4 28.86 4 36 4 C36 4.33 36 4.66 36 5 C23.31610135 5.44795078 12.01491087 5.59273044 0 1 C0 0.67 0 0.34 0 0 Z " fill="#CDF1F1" transform="translate(524,355)"/>
<path d="M0 0 C1.51400391 0.01740234 1.51400391 0.01740234 3.05859375 0.03515625 C4.07050781 0.04417969 5.08242188 0.05320313 6.125 0.0625 C7.29869141 0.07990234 7.29869141 0.07990234 8.49609375 0.09765625 C8.49609375 0.42765625 8.49609375 0.75765625 8.49609375 1.09765625 C7.35914063 1.31679687 6.2221875 1.5359375 5.05078125 1.76171875 C-5.11312298 3.81614842 -14.15045255 6.58634417 -23.50390625 11.09765625 C-23.50390625 9.77765625 -23.50390625 8.45765625 -23.50390625 7.09765625 C-22.50617187 6.9275 -22.50617187 6.9275 -21.48828125 6.75390625 C-17.82284235 5.94789351 -14.30520152 4.79510649 -10.75390625 3.59765625 C-9.72716797 3.25927734 -9.72716797 3.25927734 -8.6796875 2.9140625 C-5.62951205 1.89331071 -3.06666472 0.11960471 0 0 Z " fill="#309290" transform="translate(535.50390625,202.90234375)"/>
<path d="M0 0 C11.55 0 23.1 0 35 0 C32.73560813 2.26439187 31.62863112 2.51788516 28.5625 3.1875 C27.38880859 3.45626953 27.38880859 3.45626953 26.19140625 3.73046875 C24 4 24 4 21 3 C17.41556529 2.77212978 13.83719392 2.60660333 10.24804688 2.48242188 C9.50748047 2.44826172 8.76691406 2.41410156 8.00390625 2.37890625 C7.33174072 2.3538501 6.6595752 2.32879395 5.96704102 2.30297852 C4 2 4 2 0 0 Z " fill="#3E9C9B" transform="translate(1240,149)"/>
<path d="M0 0 C5.75 2.75 5.75 2.75 8 5 C8 8 8 8 6.125 10.1875 C4 12 4 12 2 12 C2.04125 11.05125 2.0825 10.1025 2.125 9.125 C2.34973818 5.89755144 2.34973818 5.89755144 0 4 C0 2.68 0 1.36 0 0 Z " fill="#239794" transform="translate(1513,470)"/>
<path d="M0 0 C0.7734375 -0.00257813 1.546875 -0.00515625 2.34375 -0.0078125 C4.5 0.125 4.5 0.125 7.5 1.125 C7.17 1.785 6.84 2.445 6.5 3.125 C-3.4 3.125 -13.3 3.125 -23.5 3.125 C-23.5 2.795 -23.5 2.465 -23.5 2.125 C-22.37980469 2.06441406 -21.25960938 2.00382813 -20.10546875 1.94140625 C-18.63280016 1.85698576 -17.16014456 1.77233851 -15.6875 1.6875 C-14.94951172 1.64818359 -14.21152344 1.60886719 -13.45117188 1.56835938 C-8.81986307 1.29592945 -4.61224724 -0.01537416 0 0 Z " fill="#CEEEED" transform="translate(1268.5,146.875)"/>
<path d="M0 0 C0.33 0 0.66 0 1 0 C2.03360443 13.62826582 2.03360443 13.62826582 -1.9375 18.8125 C-2.92433467 19.90665002 -3.93773063 20.97892667 -5 22 C-5.33 22.33 -5.66 22.66 -6 23 C-8.33297433 23.04092937 -10.66705225 23.04241723 -13 23 C-11.0283713 21.68558087 -9.02817985 20.41285866 -7 19.1875 C-3.00553682 16.27487059 -1.29551296 13.79789182 -0.48828125 8.88671875 C-0.43027344 7.83097656 -0.37226562 6.77523437 -0.3125 5.6875 C-0.24675781 4.61886719 -0.18101562 3.55023438 -0.11328125 2.44921875 C-0.07589844 1.64097656 -0.03851562 0.83273437 0 0 Z " fill="#CFEEED" transform="translate(594,508)"/>
<path d="M0 0 C5.01113235 1.4317521 6.94469549 3.98445693 10 8 C9.67 8.66 9.34 9.32 9 10 C8.01 8.68 7.02 7.36 6 6 C2.72226496 6.75150023 2.72226496 6.75150023 1 10 C0.01 9.34 -0.98 8.68 -2 8 C-2 7.34 -2 6.68 -2 6 C-1.34 6 -0.68 6 0 6 C1.33333333 3 1.33333333 3 0 0 Z " fill="#309996" transform="translate(768,469)"/>
<path d="M0 0 C1.09173063 3.76606707 0.73323364 6.11542021 -0.25 9.9375 C-0.50265625 10.95714844 -0.7553125 11.97679687 -1.015625 13.02734375 C-2.00802205 16.02422531 -3.30858221 18.34785691 -5 21 C-5.69822617 22.65369357 -6.37498605 24.31727014 -7 26 C-8.30081307 22.3886776 -7.68476184 20.33506209 -6.34765625 16.796875 C-5.98349609 15.8171875 -5.61933594 14.8375 -5.24414062 13.828125 C-4.85419922 12.81234375 -4.46425781 11.7965625 -4.0625 10.75 C-3.48338867 9.203125 -3.48338867 9.203125 -2.89257812 7.625 C-1.93802268 5.07951881 -0.97355028 2.53826386 0 0 Z " fill="#D0F1F1" transform="translate(373,296)"/>
<path d="M0 0 C0.99 0.33 1.98 0.66 3 1 C2.02843491 3.61575216 1.1229207 5.83192476 -0.53125 8.09375 C-2.57829851 12.1442928 -2.56372386 15.83180382 -2.6875 20.3125 C-2.72166016 21.14845703 -2.75582031 21.98441406 -2.79101562 22.84570312 C-2.87305461 24.89667772 -2.9382151 26.94831538 -3 29 C-3.33 29 -3.66 29 -4 29 C-4.76595745 8.27659574 -4.76595745 8.27659574 0 0 Z " fill="#51ACAA" transform="translate(1478,480)"/>
<path d="M0 0 C0.66 0.33 1.32 0.66 2 1 C1.360625 1.721875 0.72125 2.44375 0.0625 3.1875 C-1.98673535 5.98191184 -2.61332946 7.61663274 -3 11 C-5.64 10.67 -8.28 10.34 -11 10 C-7.50640535 6.40365256 -3.88901869 3.16548033 0 0 Z " fill="#E1F6F5" transform="translate(613,357)"/>
<path d="M0 0 C1.60488281 0.00483398 1.60488281 0.00483398 3.2421875 0.00976562 C4.35335937 0.01814453 5.46453125 0.02652344 6.609375 0.03515625 C8.29933594 0.04192383 8.29933594 0.04192383 10.0234375 0.04882812 C12.80213717 0.06060228 15.58072909 0.07704785 18.359375 0.09765625 C18.359375 0.42765625 18.359375 0.75765625 18.359375 1.09765625 C16.38904297 1.18853516 16.38904297 1.18853516 14.37890625 1.28125 C12.64321959 1.36568881 10.90754302 1.45033513 9.171875 1.53515625 C7.87540039 1.59413086 7.87540039 1.59413086 6.55273438 1.65429688 C2.38035676 1.86211645 -1.55022058 2.2084379 -5.640625 3.09765625 C-7.07690957 3.16032137 -8.5156805 3.18451972 -9.953125 3.16015625 C-11.7784375 3.12921875 -11.7784375 3.12921875 -13.640625 3.09765625 C-8.99771445 0.61038274 -5.26161738 -0.02798733 0 0 Z " fill="#CEF1F0" transform="translate(925.640625,203.90234375)"/>
<path d="M0 0 C5.93056804 0.45344383 11.28810939 1.26603321 17 3 C20.32342385 3.71950413 23.65891229 4.36808401 27 5 C27 5.33 27 5.66 27 6 C21.72 5.67 16.44 5.34 11 5 C11 4.34 11 3.68 11 3 C9.9275 2.87625 8.855 2.7525 7.75 2.625 C4.55333667 2.09222278 2.75908348 1.50162508 0 0 Z " fill="#CDF0F0" transform="translate(1157,144)"/>
<path d="M0 0 C2.31 0.33 4.62 0.66 7 1 C7.66 2.65 8.32 4.3 9 6 C8.34 6 7.68 6 7 6 C6.67 6.66 6.34 7.32 6 8 C3.69 7.01 1.38 6.02 -1 5 C-0.67 3.35 -0.34 1.7 0 0 Z " fill="#1D9996" transform="translate(576,470)"/>
<path d="M0 0 C0.33 0 0.66 0 1 0 C1 1.65 1 3.3 1 5 C1.66 5.33 2.32 5.66 3 6 C2.01 6.66 1.02 7.32 0 8 C-1.78374039 11.56748077 -2.45128467 15.06754014 -3 19 C-4.32 18.67 -5.64 18.34 -7 18 C-6.57847656 16.95199219 -6.15695312 15.90398437 -5.72265625 14.82421875 C-5.16922506 13.44533087 -4.61584216 12.06642361 -4.0625 10.6875 C-3.78470703 9.99720703 -3.50691406 9.30691406 -3.22070312 8.59570312 C-2.07859872 5.74732227 -0.97069769 2.91209306 0 0 Z " fill="#D7F2F1" transform="translate(348,364)"/>
<path d="M0 0 C0.33 0 0.66 0 1 0 C1.09796875 0.67804688 1.1959375 1.35609375 1.296875 2.0546875 C2.26674293 8.09127924 3.73956101 13.40228334 6.1953125 19.00390625 C7 21 7 21 7 23 C6.34 23 5.68 23 5 23 C5 22.34 5 21.68 5 21 C4.34 21 3.68 21 3 21 C2.32741333 18.66836622 1.66152556 16.3347961 1 14 C0.814375 13.3709375 0.62875 12.741875 0.4375 12.09375 C-0.0837209 9.59933571 -0.09600223 7.29616964 -0.0625 4.75 C-0.05347656 3.85796875 -0.04445313 2.9659375 -0.03515625 2.046875 C-0.02355469 1.37140625 -0.01195312 0.6959375 0 0 Z " fill="#CBEEED" transform="translate(450,299)"/>
<path d="M0 0 C0.66 0.99 1.32 1.98 2 3 C1.67 3.33 1.34 3.66 1 4 C0.84379445 5.41327947 0.74943827 6.8335459 0.68359375 8.25390625 C0.64169922 9.10791016 0.59980469 9.96191406 0.55664062 10.84179688 C0.49766602 12.18854492 0.49766602 12.18854492 0.4375 13.5625 C0.39431641 14.46419922 0.35113281 15.36589844 0.30664062 16.29492188 C0.20021858 18.52978485 0.09820012 20.76476308 0 23 C-2.50874465 19.23688303 -2.26763214 17.11237925 -2.25 12.625 C-2.25515625 11.31789063 -2.2603125 10.01078125 -2.265625 8.6640625 C-2.02038462 5.28118782 -1.46995257 3.02156916 0 0 Z " fill="#C1EDEC" transform="translate(1485,487)"/>
<path d="M0 0 C3 2 3 2 3.6875 4.625 C3.790625 5.40875 3.89375 6.1925 4 7 C2.68 6.34 1.36 5.68 0 5 C-0.20496094 5.62648437 -0.40992188 6.25296875 -0.62109375 6.8984375 C-0.89050781 7.71570313 -1.15992188 8.53296875 -1.4375 9.375 C-1.70433594 10.18710938 -1.97117188 10.99921875 -2.24609375 11.8359375 C-3 14 -3 14 -4 16 C-4.66 16 -5.32 16 -6 16 C-4.43551329 10.3856009 -2.83604813 5.13189662 0 0 Z " fill="#D4F5F4" transform="translate(257,176)"/>
<path d="M0 0 C2.64 0 5.28 0 8 0 C8.33 1.98 8.66 3.96 9 6 C6.36 6 3.72 6 1 6 C0.67 4.02 0.34 2.04 0 0 Z " fill="#2D9E9B" transform="translate(1151,470)"/>
<path d="M0 0 C1.19022894 3.7074023 0.57014048 5.46893291 -1.109375 8.98828125 C-2.42473269 11.95937427 -3.26745909 15.05833848 -4.15625 18.1796875 C-4.4346875 18.78039062 -4.713125 19.38109375 -5 20 C-5.99 20.33 -6.98 20.66 -8 21 C-5.72564796 13.81783567 -2.96415819 6.9241798 0 0 Z " fill="#42A19D" transform="translate(244,140)"/>
<path d="M0 0 C0.66 0.33 1.32 0.66 2 1 C0.66666667 2.33333333 -0.66666667 3.66666667 -2 5 C-2.5775 5.680625 -3.155 6.36125 -3.75 7.0625 C-6.77980481 9.67149858 -10.07921512 11.18061722 -14 12 C-16.25 11.57421875 -16.25 11.57421875 -18 11 C-17.20335937 10.62488281 -16.40671875 10.24976563 -15.5859375 9.86328125 C-9.78704774 7.06260092 -4.69262999 4.43192833 0 0 Z " fill="#3C9E98" transform="translate(982,342)"/>
<path d="M0 0 C1.08410156 -0.01224609 2.16820312 -0.02449219 3.28515625 -0.03710938 C4.32800781 -0.03904297 5.37085938 -0.04097656 6.4453125 -0.04296875 C7.39164551 -0.04707764 8.33797852 -0.05118652 9.31298828 -0.05541992 C11.96709175 0.19623178 13.59990262 0.83722536 15.875 2.1875 C15.13338623 2.18226318 14.39177246 2.17702637 13.62768555 2.17163086 C10.27263229 2.15086386 6.91759256 2.1378407 3.5625 2.125 C2.39525391 2.11662109 1.22800781 2.10824219 0.02539062 2.09960938 C-1.09287109 2.09638672 -2.21113281 2.09316406 -3.36328125 2.08984375 C-4.39493408 2.08460693 -5.42658691 2.07937012 -6.48950195 2.07397461 C-9.23446274 2.07115 -9.23446274 2.07115 -12.125 3.1875 C-14.13375442 2.91178861 -16.13678687 2.58514263 -18.125 2.1875 C-18.125 1.8575 -18.125 1.5275 -18.125 1.1875 C-12.11709352 -0.120842 -6.11625942 0.00366243 0 0 Z " fill="#CEF3F2" transform="translate(1188.125,203.8125)"/>
<path d="M0 0 C1.13598633 0.00483398 1.13598633 0.00483398 2.29492188 0.00976562 C3.47344727 0.02233398 3.47344727 0.02233398 4.67578125 0.03515625 C5.47306641 0.03966797 6.27035156 0.04417969 7.09179688 0.04882812 C9.05732382 0.06059775 11.0228121 0.07853277 12.98828125 0.09765625 C12.98828125 0.42765625 12.98828125 0.75765625 12.98828125 1.09765625 C12.14265625 1.1234375 11.29703125 1.14921875 10.42578125 1.17578125 C3.20313412 1.53691361 -1.81135561 2.35404077 -8.01171875 6.09765625 C-9.00171875 6.59265625 -9.00171875 6.59265625 -10.01171875 7.09765625 C-10.01171875 4.09765625 -10.01171875 4.09765625 -8.69921875 2.47265625 C-5.93935352 0.22387718 -3.42415355 -0.02574552 0 0 Z " fill="#DCF8F7" transform="translate(978.01171875,466.90234375)"/>
<path d="M0 0 C0.33 0 0.66 0 1 0 C0.32692542 5.02518791 -0.54398845 9.97164705 -1.5625 14.9375 C-1.70107422 15.62134766 -1.83964844 16.30519531 -1.98242188 17.00976562 C-2.31983064 18.67353986 -2.65965879 20.33682315 -3 22 C-3.33 22 -3.66 22 -4 22 C-4.19818283 15.29481414 -4.30844801 9.34823202 -2 3 C-1.34 3 -0.68 3 0 3 C0 2.01 0 1.02 0 0 Z " fill="#DBF7F7" transform="translate(835,247)"/>
<path d="M0 0 C2.96175123 0.61277612 4.38058783 1.25372522 7 3 C7 3.66 7 4.32 7 5 C7.99 5 8.98 5 10 5 C10 5.66 10 6.32 10 7 C10.66 7 11.32 7 12 7 C13.6875 8.8125 13.6875 8.8125 15 11 C14.67 11.99 14.34 12.98 14 14 C13.6596875 13.56429687 13.319375 13.12859375 12.96875 12.6796875 C9.547392 8.47578486 5.97800786 5.27298678 1.5390625 2.1640625 C1.03117187 1.77992188 0.52328125 1.39578125 0 1 C0 0.67 0 0.34 0 0 Z " fill="#DAF6F6" transform="translate(1485,190)"/>
<path d="M0 0 C2.89640118 -0.08120751 5.79050912 -0.14059421 8.6875 -0.1875 C9.50412109 -0.21263672 10.32074219 -0.23777344 11.16210938 -0.26367188 C15.97846486 -0.32217012 19.03975154 -0.07302376 23 3 C22.67 3.66 22.34 4.32 22 5 C21.35675781 4.69320312 20.71351563 4.38640625 20.05078125 4.0703125 C16.12177968 2.69189197 12.31347689 2.29693561 8.1875 1.875 C7.39923828 1.78863281 6.61097656 1.70226562 5.79882812 1.61328125 C3.86656916 1.40248936 1.93336737 1.20037104 0 1 C0 0.67 0 0.34 0 0 Z " fill="#D3F4F3" transform="translate(783,179)"/>
<path d="M0 0 C-0.639375 0.309375 -1.27875 0.61875 -1.9375 0.9375 C-3.93610821 1.8345163 -3.93610821 1.8345163 -5 3 C-6.4913391 3.01662231 -7.98360805 2.963192 -9.47265625 2.87890625 C-10.37177734 2.83056641 -11.27089844 2.78222656 -12.19726562 2.73242188 C-13.14279297 2.67634766 -14.08832031 2.62027344 -15.0625 2.5625 C-16.4865918 2.48418945 -16.4865918 2.48418945 -17.93945312 2.40429688 C-20.29326952 2.27418642 -22.64670699 2.13920888 -25 2 C-25 1.67 -25 1.34 -25 1 C-22.33349537 0.83031334 -19.66684474 0.66418179 -17 0.5 C-16.25621094 0.45230469 -15.51242187 0.40460938 -14.74609375 0.35546875 C-9.82037776 0.05564256 -4.93485224 -0.04486229 0 0 Z " fill="#CEF6F4" transform="translate(1202,382)"/>
<path d="M0 0 C8.16047799 0.1985957 14.64357196 2.57458419 22 6 C18.275397 7.24153433 17.52247731 6.47452539 14 5 C12.0075675 4.62406934 10.0081326 4.28020455 8 4 C8 3.34 8 2.68 8 2 C7.05125 2.04125 6.1025 2.0825 5.125 2.125 C2 2 2 2 0 0 Z " fill="#DCF9F9" transform="translate(562,205)"/>
<path d="M0 0 C0.33 0 0.66 0 1 0 C1 7.92 1 15.84 1 24 C1.66 24 2.32 24 3 24 C2.34 25.32 1.68 26.64 1 28 C0.67 28 0.34 28 0 28 C0 18.76 0 9.52 0 0 Z " fill="#D5F9F9" transform="translate(738,184)"/>
<path d="M0 0 C2.1640625 -0.29296875 2.1640625 -0.29296875 4.625 -0.1875 C5.44226563 -0.16042969 6.25953125 -0.13335938 7.1015625 -0.10546875 C8.04128906 -0.05326172 8.04128906 -0.05326172 9 0 C9 0.99 9 1.98 9 3 C6.36 3 3.72 3 1 3 C0.67 3.99 0.34 4.98 0 6 C-0.66 5.01 -1.32 4.02 -2 3 C-1.34 2.01 -0.68 1.02 0 0 Z " fill="#45A4A3" transform="translate(1006,514)"/>
<path d="M0 0 C0 0.66 0 1.32 0 2 C2.97 2 5.94 2 9 2 C9 2.66 9 3.32 9 4 C10.32 4.33 11.64 4.66 13 5 C10.47322847 6.26338576 9.58286386 5.85376414 6.8671875 5.22265625 C6.06152344 5.03896484 5.25585938 4.85527344 4.42578125 4.66601562 C3.58402344 4.46685547 2.74226562 4.26769531 1.875 4.0625 C1.02550781 3.86720703 0.17601562 3.67191406 -0.69921875 3.47070312 C-2.80090258 2.98660741 -4.90064351 2.49409097 -7 2 C-4.35261084 0.5393715 -3.10551666 0 0 0 Z " fill="#C8EDEC" transform="translate(572,493)"/>
<path d="M0 0 C0.33 0 0.66 0 1 0 C1.33 7.59 1.66 15.18 2 23 C-1 20 -1 20 -1.2487793 17.82348633 C-1.19117432 17.00130615 -1.13356934 16.17912598 -1.07421875 15.33203125 C-1.01943359 14.43935547 -0.96464844 13.54667969 -0.90820312 12.62695312 C-0.83537109 11.69818359 -0.76253906 10.76941406 -0.6875 9.8125 C-0.62626953 8.87212891 -0.56503906 7.93175781 -0.50195312 6.96289062 C-0.34870489 4.64059043 -0.1808714 2.32028542 0 0 Z " fill="#61B0AE" transform="translate(856,274)"/>
<path d="M0 0 C0.763125 0.309375 1.52625 0.61875 2.3125 0.9375 C4.18789677 1.67893593 6.08684652 2.36228217 8 3 C9.1875 5.5625 9.1875 5.5625 10 8 C5.89041233 6.54955729 2.56741255 4.48889248 -1 2 C-0.67 1.34 -0.34 0.68 0 0 Z " fill="#DEF7F6" transform="translate(891,345)"/>
<path d="M0 0 C1.39195915 4.17587745 -0.17676781 6.13474776 -2 10 C-4.5654594 7.4345406 -4.54046087 5.52313332 -5 2 C-3.35 2 -1.7 2 0 2 C0 1.34 0 0.68 0 0 Z " fill="#D9F6F5" transform="translate(343,302)"/>
<path d="M0 0 C5.94 0.33 11.88 0.66 18 1 C18 1.66 18 2.32 18 3 C18.99 3.33 19.98 3.66 21 4 C19 5 19 5 16.3046875 4.1328125 C14.66886719 3.57207031 14.66886719 3.57207031 13 3 C10.71640035 2.57865246 8.42380706 2.20340101 6.125 1.875 C4.97257812 1.70742187 3.82015625 1.53984375 2.6328125 1.3671875 C1.76398438 1.24601563 0.89515625 1.12484375 0 1 C0 0.67 0 0.34 0 0 Z " fill="#BFEAEA" transform="translate(1196,180)"/>
<path d="M0 0 C0.78375 0.04125 1.5675 0.0825 2.375 0.125 C2.375 0.785 2.375 1.445 2.375 2.125 C3.2825 2.063125 4.19 2.00125 5.125 1.9375 C8.66482642 2.14172076 9.82431155 2.77051835 12.375 5.125 C6.522205 4.61017081 1.0452363 3.67142808 -4.625 2.125 C-2.625 0.125 -2.625 0.125 0 0 Z " fill="#45A0A1" transform="translate(561.625,498.875)"/>
<path d="M0 0 C0.66 0 1.32 0 2 0 C0.67594074 6.06860493 -1.32850292 11.39763719 -4 17 C-5.6852084 12.92320841 -4.16939007 10.16924407 -2.5625 6.25 C-2.08941406 5.07953125 -1.61632812 3.9090625 -1.12890625 2.703125 C-0.75636719 1.81109375 -0.38382813 0.9190625 0 0 Z " fill="#D7F5F4" transform="translate(1005,303)"/>
<path d="M0 0 C0.99 0 1.98 0 3 0 C2.67 7.26 2.34 14.52 2 22 C1.67 22 1.34 22 1 22 C0.67 14.74 0.34 7.48 0 0 Z " fill="#46A09E" transform="translate(626,266)"/>
<path d="M0 0 C0.90492188 0.30357422 0.90492188 0.30357422 1.828125 0.61328125 C0.55925536 1.74049561 -0.71205062 2.86496783 -1.984375 3.98828125 C-2.69207031 4.61476562 -3.39976562 5.24125 -4.12890625 5.88671875 C-6.171875 7.61328125 -6.171875 7.61328125 -9.171875 9.61328125 C-9.171875 8.29328125 -9.171875 6.97328125 -9.171875 5.61328125 C-8.511875 5.61328125 -7.851875 5.61328125 -7.171875 5.61328125 C-7.171875 4.95328125 -7.171875 4.29328125 -7.171875 3.61328125 C-2.92048515 -0.52001444 -2.92048515 -0.52001444 0 0 Z " fill="#D6F4F5" transform="translate(758.171875,189.38671875)"/>
<path d="M0 0 C1.91385532 2.87078299 2.96432952 5.33411656 4.125 8.5625 C4.47820312 9.53316406 4.83140625 10.50382813 5.1953125 11.50390625 C6 14 6 14 6 16 C5.34 16 4.68 16 4 16 C4 14.68 4 13.36 4 12 C3.34 12 2.68 12 2 12 C0.00214565 7.8794254 -0.17835515 4.54805635 0 0 Z " fill="#D0F2F1" transform="translate(91,160)"/>
<path d="M0 0 C1.07765625 0.01804687 2.1553125 0.03609375 3.265625 0.0546875 C4.49539063 0.08949219 4.49539063 0.08949219 5.75 0.125 C5.75 0.455 5.75 0.785 5.75 1.125 C4.82767578 1.21587891 4.82767578 1.21587891 3.88671875 1.30859375 C3.07847656 1.39238281 2.27023437 1.47617187 1.4375 1.5625 C0.63699219 1.64371094 -0.16351562 1.72492188 -0.98828125 1.80859375 C-3.41087179 2.07765693 -3.41087179 2.07765693 -6.25 3.125 C-6.58 4.115 -6.91 5.105 -7.25 6.125 C-8.24 4.805 -9.23 3.485 -10.25 2.125 C-6.7733662 -0.01836161 -4.03770805 -0.08777626 0 0 Z " fill="#3FA1A1" transform="translate(762.25,467.875)"/>
<path d="M0 0 C5.94 0 11.88 0 18 0 C18 0.66 18 1.32 18 2 C17.04738281 1.97679687 16.09476563 1.95359375 15.11328125 1.9296875 C13.85902344 1.91164063 12.60476563 1.89359375 11.3125 1.875 C10.07113281 1.85179687 8.82976563 1.82859375 7.55078125 1.8046875 C4.18762143 1.98967979 2.0014413 2.54232105 -1 4 C-0.67 2.68 -0.34 1.36 0 0 Z " fill="#DEF8F9" transform="translate(752,467)"/>
<path d="M0 0 C0.33 0 0.66 0 1 0 C1.67081836 6.43985624 -0.24569762 9.83783423 -4 15 C-5 13 -5 13 -4.00390625 9.9609375 C-3.52824219 8.77757812 -3.05257812 7.59421875 -2.5625 6.375 C-2.08941406 5.18648438 -1.61632812 3.99796875 -1.12890625 2.7734375 C-0.75636719 1.85820312 -0.38382813 0.94296875 0 0 Z " fill="#D2F2F2" transform="translate(184,356)"/>
<path d="M0 0 C0.66 0 1.32 0 2 0 C0.43551329 5.6143991 -1.16395187 10.86810338 -4 16 C-6 13 -6 13 -6 11 C-5.34 11 -4.68 11 -4 11 C-4 10.34 -4 9.68 -4 9 C-3.34 9 -2.68 9 -2 9 C-1.34 6.03 -0.68 3.06 0 0 Z " fill="#DCFAFA" transform="translate(179,296)"/>
<path d="M0 0 C0.66 0 1.32 0 2 0 C0.5039904 3.80802445 -1.66063151 5.69424557 -5 8 C-7.3125 8.75 -7.3125 8.75 -9 9 C-8.67 8.01 -8.34 7.02 -8 6 C-7.01 6 -6.02 6 -5 6 C-4.67 5.01 -4.34 4.02 -4 3 C-1.9375 2.3125 -1.9375 2.3125 0 2 C0 1.34 0 0.68 0 0 Z " fill="#D7F6F4" transform="translate(1003,515)"/>
<path d="M0 0 C1.36385243 4.3957258 0.65641221 7.76791016 -1 12 C-3.125 14.5 -3.125 14.5 -5 16 C-4.80664062 15.43152344 -4.61328125 14.86304688 -4.4140625 14.27734375 C-2.81863577 9.54635062 -1.33099414 4.81205575 0 0 Z " fill="#CEF0F0" transform="translate(379,280)"/>
<path d="M0 0 C1.04809297 3.72833072 0.987863 6.20052692 0 10 C-2.0625 13.375 -2.0625 13.375 -4 16 C-5 14 -5 14 -4.00390625 10.7421875 C-3.53110016 9.4502948 -3.05028031 8.16131362 -2.5625 6.875 C-2.31951172 6.21628906 -2.07652344 5.55757813 -1.82617188 4.87890625 C-1.22421679 3.25008662 -0.61297588 1.62470425 0 0 Z " fill="#D1F1F0" transform="translate(439,118)"/>
<path d="M0 0 C0 0.66 0 1.32 0 2 C1.32 2.33 2.64 2.66 4 3 C1.29565976 4.35217012 -0.08674365 3.41075463 -2.84765625 2.546875 C-6.82579118 1.53609662 -10.91696877 1.31218347 -15 1 C-15 0.67 -15 0.34 -15 0 C-12.87562788 -0.19448477 -10.75046809 -0.38038289 -8.625 -0.5625 C-7.44164062 -0.66691406 -6.25828125 -0.77132813 -5.0390625 -0.87890625 C-2 -1 -2 -1 0 0 Z " fill="#D1F3F1" transform="translate(203,467)"/>
<path d="M0 0 C1.26403575 3.59566927 0.73990566 6.05299344 -0.25 9.6875 C-0.62898438 11.14736328 -0.62898438 11.14736328 -1.015625 12.63671875 C-1.34046875 13.41660156 -1.6653125 14.19648438 -2 15 C-2.99 15.33 -3.98 15.66 -5 16 C-3.41078475 10.63904723 -1.81027062 5.29156027 0 0 Z " fill="#C9EEED" transform="translate(409,199)"/>
<path d="M0 0 C4.41889613 1.35021826 6.34345343 3.26115668 9 7 C7.02 7.33 5.04 7.66 3 8 C2.67 6.02 2.34 4.04 2 2 C1.34 2 0.68 2 0 2 C0 1.34 0 0.68 0 0 Z " fill="#2F9A96" transform="translate(986,199)"/>
<path d="M0 0 C-1.32 0.33 -2.64 0.66 -4 1 C-4.33 2.32 -4.66 3.64 -5 5 C-7.31 4.67 -9.62 4.34 -12 4 C-8.71298741 1.21868166 -4.24676932 -2.12338466 0 0 Z " fill="#3EA09F" transform="translate(1157,185)"/>
<path d="M0 0 C0.77321882 2.98241547 1.41196203 5.97580475 2 9 C0.35 9.33 -1.3 9.66 -3 10 C-2.39009109 6.44219804 -1.4216319 3.3171411 0 0 Z " fill="#369F9E" transform="translate(235,162)"/>
<path d="M0 0 C2.76544722 3.45680903 4.84921278 7.14341602 7 11 C4 11 4 11 1.8125 8.875 C-0.2619932 5.58442458 -0.35475877 3.81365679 0 0 Z " fill="#D5F4F2" transform="translate(352,513)"/>
<path d="M0 0 C2.97 0 5.94 0 9 0 C8.67 1.65 8.34 3.3 8 5 C7.01 4.34 6.02 3.68 5 3 C2.88719655 2.36707617 2.88719655 2.36707617 1 2 C0.67 2.99 0.34 3.98 0 5 C0 3.35 0 1.7 0 0 Z " fill="#359893" transform="translate(1518,510)"/>
<path d="M0 0 C0.33 0.99 0.66 1.98 1 3 C-0.14453125 5.26171875 -0.14453125 5.26171875 -1.8125 7.6875 C-2.35519531 8.49574219 -2.89789062 9.30398437 -3.45703125 10.13671875 C-3.96621094 10.75160156 -4.47539063 11.36648437 -5 12 C-5.66 12 -6.32 12 -7 12 C-5.44298069 7.32894208 -2.91552627 3.91294315 0 0 Z " fill="#D6F4F4" transform="translate(874,231)"/>
<path d="M0 0 C3.93548431 3.06093224 6.68116787 5.49115974 9 10 C8.01 10.495 8.01 10.495 7 11 C6.34 9.35 5.68 7.7 5 6 C4.01 6 3.02 6 2 6 C2 5.34 2 4.68 2 4 C1.01 3.67 0.02 3.34 -1 3 C-0.67 2.01 -0.34 1.02 0 0 Z " fill="#349C96" transform="translate(1252,208)"/>
<path d="M0 0 C0.33 0 0.66 0 1 0 C1.103125 1.11375 1.20625 2.2275 1.3125 3.375 C1.539375 4.57125 1.76625 5.7675 2 7 C2.99 7.66 3.98 8.32 5 9 C5.6875 11.625 5.6875 11.625 6 14 C3.71216703 13.08486681 2.26550272 12.34515354 0.75 10.375 C-0.35953628 6.86146845 -0.12256679 3.67700382 0 0 Z " fill="#3A9997" transform="translate(1160,517)"/>
<path d="M0 0 C0.33 0.66 0.66 1.32 1 2 C3.97 1.34 6.94 0.68 10 0 C7.38485683 2.12038635 4.80362384 4.13091744 2 6 C2 5.34 2 4.68 2 4 C1.34 4 0.68 4 0 4 C-0.33 3.01 -0.66 2.02 -1 1 C-0.67 0.67 -0.34 0.34 0 0 Z " fill="#349C98" transform="translate(746,475)"/>
<path d="M0 0 C0.33 1.32 0.66 2.64 1 4 C-0.32 4.99 -1.64 5.98 -3 7 C-3.66 6.67 -4.32 6.34 -5 6 C-4.625 3.5625 -4.625 3.5625 -4 1 C-2 0 -2 0 0 0 Z " fill="#1C9892" transform="translate(1003,472)"/>
<path d="M0 0 C-2.28431738 2.35800504 -4.0081024 3.88720897 -7.3359375 4.265625 C-9.56920205 4.251535 -11.77382441 4.17460201 -14 4 C-11.37350692 2.24900461 -9.38191413 1.30690675 -6.4375 0.3125 C-5.65246094 0.04050781 -4.86742187 -0.23148437 -4.05859375 -0.51171875 C-2 -1 -2 -1 0 0 Z " fill="#D2F3F2" transform="translate(588,376)"/>
<path d="M0 0 C0.66 0.66 1.32 1.32 2 2 C1.60761402 5.66226912 -0.31566883 8.77780124 -2 12 C-2.66 12 -3.32 12 -4 12 C-3.52309796 10.37433394 -3.04340334 8.74948689 -2.5625 7.125 C-2.29566406 6.22007812 -2.02882812 5.31515625 -1.75390625 4.3828125 C-1 2 -1 2 0 0 Z " fill="#D2F2F1" transform="translate(205,304)"/>
<path d="M0 0 C0.66 0.33 1.32 0.66 2 1 C-0.475 6.94 -0.475 6.94 -3 13 C-3.33 13 -3.66 13 -4 13 C-4 10.69 -4 8.38 -4 6 C-3.34 6 -2.68 6 -2 6 C-1.34 4.02 -0.68 2.04 0 0 Z " fill="#D9F5F4" transform="translate(201,243)"/>
<path d="M0 0 C1.43410153 3.78819273 0.51009497 6.06521279 -0.9375 9.75 C-1.31777344 10.73484375 -1.69804687 11.7196875 -2.08984375 12.734375 C-2.39019531 13.48203125 -2.69054687 14.2296875 -3 15 C-3.66 15 -4.32 15 -5 15 C-1.92482916 4.44191344 -1.92482916 4.44191344 0 0 Z " fill="#449E9D" transform="translate(220,199)"/>
<path d="M0 0 C3.96 0.33 7.92 0.66 12 1 C12 1.66 12 2.32 12 3 C12.66 3.33 13.32 3.66 14 4 C9.03083364 3.48594831 4.70973649 2.76615118 0 1 C0 0.67 0 0.34 0 0 Z " fill="#50A7A5" transform="translate(1155,378)"/>
<path d="M0 0 C2.97 0 5.94 0 9 0 C9.33 0.99 9.66 1.98 10 3 C10.99 3.33 11.98 3.66 13 4 C8.428721 3.45144652 4.32564205 2.58255197 0 1 C0 0.67 0 0.34 0 0 Z " fill="#C8EFEC" transform="translate(906,355)"/>
<path d="M0 0 C0.66 0 1.32 0 2 0 C2 0.66 2 1.32 2 2 C2.66 2 3.32 2 4 2 C4 2.99 4 3.98 4 5 C4.99 5 5.98 5 7 5 C7 6.32 7 7.64 7 9 C7.66 9.33 8.32 9.66 9 10 C8.01 10 7.02 10 6 10 C4.39453125 8.06640625 4.39453125 8.06640625 2.8125 5.5625 C2.28269531 4.73878906 1.75289062 3.91507812 1.20703125 3.06640625 C0 1 0 1 0 0 Z " fill="#389997" transform="translate(847,336)"/>
<path d="M0 0 C1.90389849 2.85584773 2.69462177 4.9311762 3.625 8.1875 C4.01558594 9.53908203 4.01558594 9.53908203 4.4140625 10.91796875 C4.60742188 11.60503906 4.80078125 12.29210937 5 13 C4.01 12.67 3.02 12.34 2 12 C2 10.68 2 9.36 2 8 C1.34 7.67 0.68 7.34 0 7 C0 4.69 0 2.38 0 0 Z " fill="#D3F2F2" transform="translate(319,327)"/>
<path d="M0 0 C0.66 0 1.32 0 2 0 C2 1.65 2 3.3 2 5 C1.01 5.33 0.02 5.66 -1 6 C-1 7.32 -1 8.64 -1 10 C-1.99 9.67 -2.98 9.34 -4 9 C-2.68 6.03 -1.36 3.06 0 0 Z " fill="#3B9D99" transform="translate(1003,313)"/>
<path d="M0 0 C1.72357119 2.58535679 2.44735018 4.03811614 3.1875 6.9375 C3.36667969 7.60652344 3.54585937 8.27554687 3.73046875 8.96484375 C4.03268678 11.24680888 3.68756692 12.82026659 3 15 C3 14.34 3 13.68 3 13 C2.34 13 1.68 13 1 13 C0.67 8.71 0.34 4.42 0 0 Z " fill="#B9E5E4" transform="translate(1260,255)"/>
<path d="M0 0 C3.46725517 1.73362759 4.65740363 5.49006949 6 9 C6.25 12.5 6.25 12.5 6 15 C4.33251253 12.49876879 3.10045639 10.22323643 1.875 7.5 C1.52179688 6.7265625 1.16859375 5.953125 0.8046875 5.15625 C0 3 0 3 0 0 Z " fill="#DFFAF9" transform="translate(289,183)"/>
<path d="M0 0 C5.841744 -0.35050464 9.8531808 -0.16727335 15 3 C15 3.33 15 3.66 15 4 C13.35 4 11.7 4 10 4 C10 3.34 10 2.68 10 2 C6.7 1.67 3.4 1.34 0 1 C0 0.67 0 0.34 0 0 Z " fill="#D3F6F6" transform="translate(1497,475)"/>
<path d="M0 0 C3.875 1.875 3.875 1.875 5 3 C5.04080783 4.99958364 5.04254356 7.00045254 5 9 C4.79375 8.360625 4.5875 7.72125 4.375 7.0625 C3.10461791 4.65074923 3.10461791 4.65074923 -0.125 4.25 C-1.07375 4.1675 -2.0225 4.085 -3 4 C-2.01 2.68 -1.02 1.36 0 0 Z " fill="#37A09C" transform="translate(1483,474)"/>
<path d="M0 0 C0 0.66 0 1.32 0 2 C0.99 2 1.98 2 3 2 C3 2.66 3 3.32 3 4 C1.741875 3.87625 0.48375 3.7525 -0.8125 3.625 C-1.87404297 3.52058594 -1.87404297 3.52058594 -2.95703125 3.4140625 C-5 3 -5 3 -8 1 C-2.25 0 -2.25 0 0 0 Z " fill="#45A4A2" transform="translate(529,378)"/>
<path d="M0 0 C0.33 0 0.66 0 1 0 C1.50423019 5.29441695 0.18923033 7.81413519 -3 12 C-4 10 -4 10 -3.22265625 7.6171875 C-2.83980469 6.71226562 -2.45695313 5.80734375 -2.0625 4.875 C-1.68222656 3.96492188 -1.30195313 3.05484375 -0.91015625 2.1171875 C-0.60980469 1.41851562 -0.30945313 0.71984375 0 0 Z " fill="#D2F1F1" transform="translate(224,257)"/>
<path d="M0 0 C0.33 0 0.66 0 1 0 C1.23509196 4.81938524 0.45184478 8.46298506 -1 13 C-1.99 13 -2.98 13 -4 13 C-3.52140759 11.39566191 -3.04210442 9.79153584 -2.5625 8.1875 C-2.29566406 7.29417969 -2.02882813 6.40085938 -1.75390625 5.48046875 C-1.19612127 3.64526945 -0.60655425 1.81966274 0 0 Z " fill="#CCEFEF" transform="translate(396,234)"/>
<path d="M0 0 C4.13937592 3.30015998 7.58662205 6.17324411 10 11 C9.34 11 8.68 11 8 11 C8 10.34 8 9.68 8 9 C7.01 8.67 6.02 8.34 5 8 C0 2.53488372 0 2.53488372 0 0 Z " fill="#D9F8F7" transform="translate(603,225)"/>
<path d="M0 0 C0.66 0.33 1.32 0.66 2 1 C-0.05233685 3.2477975 -1.00667261 4.0022242 -4 5 C-4.99 6.485 -4.99 6.485 -6 8 C-7.32 7.67 -8.64 7.34 -10 7 C-6.7 4.69 -3.4 2.38 0 0 Z " fill="#D7F6F6" transform="translate(1412,209)"/>
<path d="M0 0 C1.98 0 3.96 0 6 0 C3.4347341 1.71017726 1.12039035 2.90417811 -1.6875 4.125 C-2.49574219 4.47820312 -3.30398438 4.83140625 -4.13671875 5.1953125 C-4.75160156 5.46085938 -5.36648438 5.72640625 -6 6 C-6 5.01 -6 4.02 -6 3 C-4.02 2.67 -2.04 2.34 0 2 C0 1.34 0 0.68 0 0 Z " fill="#E2FAFA" transform="translate(769,181)"/>
<path d="M0 0 C4 5 4 5 8 10 C7.01 10 6.02 10 5 10 C5 9.34 5 8.68 5 8 C4.34 8 3.68 8 3 8 C3 7.34 3 6.68 3 6 C2.34 6 1.68 6 1 6 C0.67 4.02 0.34 2.04 0 0 Z " fill="#DDFAF9" transform="translate(960,517)"/>
<path d="M0 0 C-3.33333333 1.66666667 -6.66666667 3.33333333 -10 5 C-10.33 4.01 -10.66 3.02 -11 2 C-7.75267347 -1.24732653 -4.25451414 -1.41817138 0 0 Z " fill="#3C9F9B" transform="translate(376,476)"/>
<path d="M0 0 C1.62723299 0.45034123 3.25173664 0.91055354 4.875 1.375 C5.77992188 1.63023437 6.68484375 1.88546875 7.6171875 2.1484375 C10 3 10 3 12 5 C7.12335991 5.34833144 4.22949995 4.41685712 0 2 C0 1.34 0 0.68 0 0 Z " fill="#319793" transform="translate(902,354)"/>
<path d="M0 0 C0.33 0 0.66 0 1 0 C1.36666667 7.33333333 1.36666667 7.33333333 -0.375 10.5 C-2 12 -2 12 -4 12 C-2.66666667 8 -1.33333333 4 0 0 Z " fill="#429F9E" transform="translate(186,283)"/>
<path d="M0 0 C0.33 0 0.66 0 1 0 C1.08121924 1.60332791 1.13929134 3.20784026 1.1875 4.8125 C1.23970703 6.15248047 1.23970703 6.15248047 1.29296875 7.51953125 C0.95081002 10.41647515 0.24606427 11.22555028 -2 13 C-1.85851011 11.3954444 -1.71164314 9.79136233 -1.5625 8.1875 C-1.48128906 7.29417969 -1.40007812 6.40085937 -1.31640625 5.48046875 C-1 3 -1 3 0 0 Z " fill="#C6ECEA" transform="translate(1378,251)"/>
<path d="M0 0 C0.66 0 1.32 0 2 0 C1.57405412 1.44096586 1.13373367 2.87768712 0.6875 4.3125 C0.44386719 5.11300781 0.20023437 5.91351563 -0.05078125 6.73828125 C-1.04182023 9.09964573 -2.08074943 10.33879993 -4 12 C-3.52309796 10.37433394 -3.04340334 8.74948689 -2.5625 7.125 C-2.29566406 6.22007812 -2.02882813 5.31515625 -1.75390625 4.3828125 C-1 2 -1 2 0 0 Z " fill="#419E9C" transform="translate(457,239)"/>
<path d="M0 0 C0 0.66 0 1.32 0 2 C-0.99 2.495 -0.99 2.495 -2 3 C-2.33 3.99 -2.66 4.98 -3 6 C-5.97 5.505 -5.97 5.505 -9 5 C-6.45523312 2.20075644 -3.92372883 0 0 0 Z " fill="#D7F5F4" transform="translate(903,210)"/>
<path d="M0 0 C3.80984844 2.77079887 4.06840752 6.62868145 5 11 C4.34 11 3.68 11 3 11 C2.67 9.02 2.34 7.04 2 5 C1.34 5 0.68 5 0 5 C0 3.35 0 1.7 0 0 Z " fill="#349994" transform="translate(111,130)"/>
<path d="M0 0 C-1.45537568 0.83848804 -2.91440373 1.67063934 -4.375 2.5 C-5.59316406 3.19609375 -5.59316406 3.19609375 -6.8359375 3.90625 C-9 5 -9 5 -11 5 C-9.96508351 2.17750049 -9.30084735 1.16625774 -6.625 -0.3125 C-3.83346058 -1.04361747 -2.69138789 -0.79596365 0 0 Z " fill="#E1FBF9" transform="translate(1143,136)"/>
<path d="M0 0 C0 0.66 0 1.32 0 2 C-1.32 2.33 -2.64 2.66 -4 3 C-3.67 4.32 -3.34 5.64 -3 7 C-4.98 7 -6.96 7 -9 7 C-3.65789474 0 -3.65789474 0 0 0 Z " fill="#3C9E9B" transform="translate(790,470)"/>
<path d="M0 0 C8.57142857 1 8.57142857 1 12 2 C11.67 2.99 11.34 3.98 11 5 C7.27566618 3.7874262 3.62197194 2.49140021 0 1 C0 0.67 0 0.34 0 0 Z " fill="#3B9B98" transform="translate(1140,372)"/>
<path d="M0 0 C1.32 0.33 2.64 0.66 4 1 C-1.17578125 4.22265625 -1.17578125 4.22265625 -3 5 C-3.99 4.67 -4.98 4.34 -6 4 C-6 3.34 -6 2.68 -6 2 C-4.02 2 -2.04 2 0 2 C0 1.34 0 0.68 0 0 Z " fill="#2F9796" transform="translate(971,371)"/>
<path d="M0 0 C0.66 0 1.32 0 2 0 C2.99 3.3 3.98 6.6 5 10 C2 9 2 9 0.8125 6.6875 C0 4 0 4 0 0 Z " fill="#419F9B" transform="translate(315,252)"/>
<path d="M0 0 C0.66 0 1.32 0 2 0 C1.54965877 1.62723299 1.08944646 3.25173664 0.625 4.875 C0.36976563 5.77992188 0.11453125 6.68484375 -0.1484375 7.6171875 C-1 10 -1 10 -3 12 C-2.69106068 10.3743193 -2.3777305 8.74947252 -2.0625 7.125 C-1.88847656 6.22007812 -1.71445313 5.31515625 -1.53515625 4.3828125 C-1 2 -1 2 0 0 Z " fill="#DAF8F7" transform="translate(209,222)"/>
<path d="M0 0 C0.66 0.33 1.32 0.66 2 1 C1.67 1.66 1.34 2.32 1 3 C0.34 3 -0.32 3 -1 3 C-1 3.66 -1 4.32 -1 5 C-2.8125 6.0625 -2.8125 6.0625 -5 7 C-5.99 6.67 -6.98 6.34 -8 6 C-5.36 4.02 -2.72 2.04 0 0 Z " fill="#DDF7F7" transform="translate(508,216)"/>
<path d="M0 0 C4.875 4.625 4.875 4.625 6 8 C5.34 8.66 4.68 9.32 4 10 C3.32845067 8.71086513 2.66291141 7.41859796 2 6.125 C1.62875 5.40570313 1.2575 4.68640625 0.875 3.9453125 C0 2 0 2 0 0 Z " fill="#D9F6F6" transform="translate(1476,215)"/>
<path d="M0 0 C0.33 0.99 0.66 1.98 1 3 C-1.31 4.98 -3.62 6.96 -6 9 C-6 7.68 -6 6.36 -6 5 C-5.38125 4.9175 -4.7625 4.835 -4.125 4.75 C-1.81562433 4.18741541 -1.81562433 4.18741541 -0.75 1.9375 C-0.5025 1.298125 -0.255 0.65875 0 0 Z " fill="#DCF7F7" transform="translate(1381,208)"/>
<path d="M0 0 C0.66 0.33 1.32 0.66 2 1 C-0.65654657 4.73884332 -2.58110387 6.64978174 -7 8 C-5.50902342 4.2047869 -3.24299151 2.38957269 0 0 Z " fill="#509E9C" transform="translate(1132,141)"/>
<path d="M0 0 C2.97 0.33 5.94 0.66 9 1 C9 1.66 9 2.32 9 3 C2.25 3.125 2.25 3.125 0 2 C0 1.34 0 0.68 0 0 Z " fill="#379A9C" transform="translate(1178,132)"/>
<path d="M0 0 C2.95183101 2.95183101 3.08663988 5.95511947 4 10 C3.01 10 2.02 10 1 10 C-0.1577506 6.52674819 -0.06866652 3.63932552 0 0 Z " fill="#DDF7F6" transform="translate(73,112)"/>
<path d="M0 0 C0.66 1.32 1.32 2.64 2 4 C-3.41538462 7.07692308 -3.41538462 7.07692308 -6.375 6.6875 C-6.91125 6.460625 -7.4475 6.23375 -8 6 C-7.195625 5.71125 -6.39125 5.4225 -5.5625 5.125 C-2.8673532 4.26737432 -2.8673532 4.26737432 -2 2 C-1.34 2 -0.68 2 0 2 C0 1.34 0 0.68 0 0 Z " fill="#3B9998" transform="translate(1004,524)"/>
<path d="M0 0 C0.66 0.33 1.32 0.66 2 1 C-0.80804268 3.96404505 -3.18315774 6.44499019 -7 8 C-5.08864614 4.46399535 -3.37357234 2.21027154 0 0 Z " fill="#CEF1F1" transform="translate(976,477)"/>
<path d="M0 0 C0.66 0 1.32 0 2 0 C1.25 4.75 1.25 4.75 -1 7 C-1.99 6.67 -2.98 6.34 -4 6 C-2.7260411 3.96166576 -1.38938077 1.96147874 0 0 Z " fill="#379D9A" transform="translate(616,323)"/>
<path d="M0 0 C0.66 0 1.32 0 2 0 C2 0.66 2 1.32 2 2 C2.66 2 3.32 2 4 2 C5.0625 3.75 5.0625 3.75 6 6 C5.67 7.32 5.34 8.64 5 10 C3.35 6.7 1.7 3.4 0 0 Z " fill="#DFF8F9" transform="translate(865,317)"/>
<path d="M0 0 C0.66 0.33 1.32 0.66 2 1 C0.52307692 7.52307692 0.52307692 7.52307692 -2.125 9.9375 C-2.74375 10.288125 -3.3625 10.63875 -4 11 C-3.52269162 9.5410574 -3.04308958 8.08286504 -2.5625 6.625 C-2.29566406 5.81289062 -2.02882812 5.00078125 -1.75390625 4.1640625 C-1 2 -1 2 0 0 Z " fill="#399A99" transform="translate(203,242)"/>
<path d="M0 0 C2.62187494 1.04874998 3.79371361 1.64931313 5.25 4.125 C5.4975 4.74375 5.745 5.3625 6 6 C6.66 6 7.32 6 8 6 C7.67 7.32 7.34 8.64 7 10 C5.83043409 8.52312468 4.66441854 7.04343707 3.5 5.5625 C2.8503125 4.73878906 2.200625 3.91507813 1.53125 3.06640625 C0 1 0 1 0 0 Z " fill="#369993" transform="translate(987,225)"/>
<path d="M0 0 C1 3 1 3 -0.3125 5.6875 C-0.869375 6.450625 -1.42625 7.21375 -2 8 C-2.66 8 -3.32 8 -4 8 C-4 8.66 -4 9.32 -4 10 C-4.66 9.67 -5.32 9.34 -6 9 C-4.02 6.03 -2.04 3.06 0 0 Z " fill="#3D9D97" transform="translate(852,218)"/>
<path d="M0 0 C3.91211733 1.15585285 6.8745041 2.35534962 10 5 C8.68 5.33 7.36 5.66 6 6 C6 5.34 6 4.68 6 4 C4.02 3.34 2.04 2.68 0 2 C0 1.34 0 0.68 0 0 Z " fill="#D9F6F6" transform="translate(1216,209)"/>
<path d="M0 0 C1.41623216 -0.05447047 2.83308191 -0.09300508 4.25 -0.125 C5.03890625 -0.14820313 5.8278125 -0.17140625 6.640625 -0.1953125 C9.20731941 0.0171622 10.7916067 0.71345895 13 2 C13 2.66 13 3.32 13 4 C8.71 3.01 4.42 2.02 0 1 C0 0.67 0 0.34 0 0 Z " fill="#46A4A1" transform="translate(566,205)"/>
<path d="M0 0 C0.33 0.66 0.66 1.32 1 2 C-0.09283577 3.03295436 -1.19970579 4.05107835 -2.3125 5.0625 C-2.92738281 5.63097656 -3.54226563 6.19945312 -4.17578125 6.78515625 C-4.77777344 7.18605469 -5.37976562 7.58695313 -6 8 C-6.99 7.67 -7.98 7.34 -9 7 C-6.03 4.69 -3.06 2.38 0 0 Z " fill="#389A94" transform="translate(1401,193)"/>
<path d="M0 0 C2.8125 -0.25 2.8125 -0.25 6 0 C7.9375 1.8125 7.9375 1.8125 9 4 C8.67 4.99 8.34 5.98 8 7 C7.236875 6.21625 6.47375 5.4325 5.6875 4.625 C3.09108195 1.92742283 3.09108195 1.92742283 0 0 Z " fill="#D9F6F5" transform="translate(585,499)"/>
<path d="M0 0 C3.77300358 1.0197307 4.80206144 1.65872662 6.8125 5.125 C7.204375 6.07375 7.59625 7.0225 8 8 C7.01 8.495 7.01 8.495 6 9 C4 6 2 3 0 0 Z " fill="#3B9E99" transform="translate(392,479)"/>
<path d="M0 0 C0 0.66 0 1.32 0 2 C-5.28 1.67 -10.56 1.34 -16 1 C-16 0.67 -16 0.34 -16 0 C-13.7089095 -0.19441368 -11.41709663 -0.38033135 -9.125 -0.5625 C-7.21074219 -0.71912109 -7.21074219 -0.71912109 -5.2578125 -0.87890625 C-2 -1 -2 -1 0 0 Z " fill="#DAF7F6" transform="translate(580,467)"/>
<path d="M0 0 C0.33 0.66 0.66 1.32 1 2 C-0.98 4.31 -2.96 6.62 -5 9 C-5.66 8.67 -6.32 8.34 -7 8 C-4.69 5.36 -2.38 2.72 0 0 Z " fill="#D4F6F5" transform="translate(624,346)"/>
<path d="M0 0 C0.66 0.33 1.32 0.66 2 1 C-0.475 5.455 -0.475 5.455 -3 10 C-4 6 -4 6 -2.0625 2.75 C-1.381875 1.8425 -0.70125 0.935 0 0 Z " fill="#DAF7F7" transform="translate(1255,317)"/>
<path d="M0 0 C1.98 0.99 1.98 0.99 4 2 C4 4.64 4 7.28 4 10 C1.81024227 6.71536341 1.00193437 3.79303725 0 0 Z " fill="#339897" transform="translate(130,264)"/>
<path d="M0 0 C0.33 0.66 0.66 1.32 1 2 C0.0625 4.625 0.0625 4.625 -1 7 C-1.66 7 -2.32 7 -3 7 C-3 7.99 -3 8.98 -3 10 C-3.66 10 -4.32 10 -5 10 C-3.66511872 6.40608886 -2.03977277 3.24509304 0 0 Z " fill="#D0F1F2" transform="translate(1125,236)"/>
<path d="M0 0 C0.99 0.33 1.98 0.66 3 1 C1.02 3.31 -0.96 5.62 -3 8 C-3.33 6.68 -3.66 5.36 -4 4 C-2.0625 1.75 -2.0625 1.75 0 0 Z " fill="#DBF8F6" transform="translate(1111,210)"/>
<path d="M0 0 C-2.97 1.32 -5.94 2.64 -9 4 C-9 2.68 -9 1.36 -9 0 C-5.32431536 -0.91892116 -3.83619425 -0.95904856 0 0 Z " fill="#389D99" transform="translate(521,210)"/>
<path d="M0 0 C0.66 0.33 1.32 0.66 2 1 C0.515 3.475 0.515 3.475 -1 6 C-2.32 5.67 -3.64 5.34 -5 5 C-3.35 3.35 -1.7 1.7 0 0 Z " fill="#359B97" transform="translate(1121,203)"/>
<path d="M0 0 C1 2 1 2 0.25 4.5625 C-1 7 -1 7 -4 8 C-2.25 2.25 -2.25 2.25 0 0 Z " fill="#339993" transform="translate(550,474)"/>
<path d="M0 0 C0 0.66 0 1.32 0 2 C-0.928125 2.1546875 -0.928125 2.1546875 -1.875 2.3125 C-4.36526484 2.87525373 -4.36526484 2.87525373 -6 6 C-6.99 5.67 -7.98 5.34 -9 5 C-3.375 0 -3.375 0 0 0 Z " fill="#DFFAF9" transform="translate(374,477)"/>
<path d="M0 0 C2.0625 0.4375 2.0625 0.4375 4 1 C-0.75 5 -0.75 5 -3 5 C-1.125 1.125 -1.125 1.125 0 0 Z " fill="#2A968E" transform="translate(604,361)"/>
<path d="M0 0 C0.33 0 0.66 0 1 0 C1 2.31 1 4.62 1 7 C-0.98 7.99 -0.98 7.99 -3 9 C-2.01 6.03 -1.02 3.06 0 0 Z " fill="#CAEEEE" transform="translate(362,327)"/>
<path d="M0 0 C1.13643966 3.40931897 0.86747764 4.00335456 -0.4375 7.1875 C-0.86869141 8.26064453 -0.86869141 8.26064453 -1.30859375 9.35546875 C-1.53675781 9.89816406 -1.76492188 10.44085938 -2 11 C-2.33 11 -2.66 11 -3 11 C-3.32613618 6.32538149 -2.70582788 3.83325617 0 0 Z " fill="#DFF9F9" transform="translate(1260,305)"/>
<path d="M0 0 C2.83374881 3.20336822 3.5205537 5.78087253 4 10 C3.34 10 2.68 10 2 10 C0.39644899 6.49223216 -0.22036864 3.85645121 0 0 Z " fill="#C9EEED" transform="translate(307,298)"/>
<path d="M0 0 C0.66 0 1.32 0 2 0 C1.34 2.64 0.68 5.28 0 8 C-0.66 8 -1.32 8 -2 8 C-1.125 1.125 -1.125 1.125 0 0 Z " fill="#E5FBFA" transform="translate(347,288)"/>
<path d="M0 0 C0.66 1.32 1.32 2.64 2 4 C1.34 4 0.68 4 0 4 C-0.12375 4.804375 -0.2475 5.60875 -0.375 6.4375 C-0.58125 7.283125 -0.7875 8.12875 -1 9 C-1.99 9.495 -1.99 9.495 -3 10 C-2.01 6.7 -1.02 3.4 0 0 Z " fill="#CBEEEC" transform="translate(213,284)"/>
<path d="M0 0 C-0.33 0.99 -0.66 1.98 -1 3 C-2.84765625 3.73046875 -2.84765625 3.73046875 -5.0625 4.1875 C-5.79597656 4.34605469 -6.52945313 4.50460938 -7.28515625 4.66796875 C-8.13400391 4.83232422 -8.13400391 4.83232422 -9 5 C-6.45523312 2.20075644 -3.92372883 0 0 0 Z " fill="#DBF8F7" transform="translate(519,211)"/>
<path d="M0 0 C1 2 1 2 0.375 4.0625 C-1 6 -1 6 -3.625 6.75 C-4.800625 6.87375 -4.800625 6.87375 -6 7 C-4.02 4.69 -2.04 2.38 0 0 Z " fill="#3F9F9C" transform="translate(862,207)"/>
<path d="M0 0 C0.33 0 0.66 0 1 0 C1.17942163 3.94727588 1.09350689 6.5980513 -1 10 C-1.66 10 -2.32 10 -3 10 C-2.01 6.7 -1.02 3.4 0 0 Z " fill="#CBEFED" transform="translate(246,202)"/>
<path d="M0 0 C4.35535069 1.16142685 6.64619703 2.07699505 9 6 C8.67 6.66 8.34 7.32 8 8 C6.66372225 6.85760183 5.33104612 5.71098945 4 4.5625 C3.2575 3.92441406 2.515 3.28632813 1.75 2.62890625 C1.1725 2.09136719 0.595 1.55382812 0 1 C0 0.67 0 0.34 0 0 Z " fill="#D8F7F8" transform="translate(988,199)"/>
<path d="M0 0 C3.057952 1.73559438 5.63379989 3.38472619 8 6 C7.01 6.33 6.02 6.66 5 7 C4.54625 6.525625 4.0925 6.05125 3.625 5.5625 C2.06741796 3.90972192 2.06741796 3.90972192 0 3 C0 2.01 0 1.02 0 0 Z " fill="#349897" transform="translate(1238,196)"/>
<path d="M0 0 C1.99097846 2.98646769 2.94124926 5.59687262 4 9 C2.68 8.34 1.36 7.68 0 7 C0 4.69 0 2.38 0 0 Z " fill="#C9EDEB" transform="translate(265,193)"/>
<path d="M0 0 C0.99 0 1.98 0 3 0 C2.01 2.97 1.02 5.94 0 9 C-0.33 9 -0.66 9 -1 9 C-1.125 2.25 -1.125 2.25 0 0 Z " fill="#41A19F" transform="translate(421,161)"/>
<path d="M0 0 C0.66 0 1.32 0 2 0 C2.33 1.65 2.66 3.3 3 5 C1.68 5.33 0.36 5.66 -1 6 C-0.67 4.02 -0.34 2.04 0 0 Z " fill="#389D9B" transform="translate(591,504)"/>
<path d="M0 0 C2.0245738 1.93254772 3.42105792 3.63158688 5 6 C4.625 8.1875 4.625 8.1875 4 10 C1.80902348 6.6659053 0.56545837 3.95820859 0 0 Z " fill="#D0F1F2" transform="translate(203,479)"/>
<path d="M0 0 C0 0.66 0 1.32 0 2 C-1.98 2.33 -3.96 2.66 -6 3 C-6 2.01 -6 1.02 -6 0 C-3.50907189 -1.24546405 -2.58919267 -0.7767578 0 0 Z " fill="#2D9798" transform="translate(577,377)"/>
<path d="M0 0 C-1 3 -1 3 -2.8125 4.25 C-5.33943414 5.11637742 -6.52221994 4.88492145 -9 4 C-2.25 0 -2.25 0 0 0 Z " fill="#D8F5F6" transform="translate(1238,368)"/>
<path d="M0 0 C2.31 1.98 4.62 3.96 7 6 C6.01 6.33 5.02 6.66 4 7 C0 2.25 0 2.25 0 0 Z " fill="#DBF6F6" transform="translate(479,355)"/>
<path d="M0 0 C0.66 0 1.32 0 2 0 C2 0.99 2 1.98 2 3 C2.66 3 3.32 3 4 3 C3.67 3.99 3.34 4.98 3 6 C1.68 5.01 0.36 4.02 -1 3 C-0.67 2.01 -0.34 1.02 0 0 Z " fill="#349C9A" transform="translate(484,356)"/>
<path d="M0 0 C0.66 0 1.32 0 2 0 C2 0.99 2 1.98 2 3 C2.66 3 3.32 3 4 3 C4 4.98 4 6.96 4 9 C1.49701566 6.06171403 0.53069061 3.82097239 0 0 Z " fill="#DEFAF8" transform="translate(311,238)"/>
<path d="M0 0 C0.33 0.66 0.66 1.32 1 2 C0.22265625 3.7265625 0.22265625 3.7265625 -0.9375 5.625 C-1.618125 6.73875 -2.29875 7.8525 -3 9 C-3.66 9 -4.32 9 -5 9 C-3.7508258 5.54074837 -2.32472205 2.85306797 0 0 Z " fill="#D6F4F3" transform="translate(1391,227)"/>
<path d="M0 0 C0.66 0 1.32 0 2 0 C1.01 3.3 0.02 6.6 -1 10 C-1.33 10 -1.66 10 -2 10 C-2.17942163 6.05272412 -2.09350689 3.4019487 0 0 Z " fill="#CEF1F1" transform="translate(377,201)"/>
<path d="M0 0 C0.598125 0.20625 1.19625 0.4125 1.8125 0.625 C0.5625 2.125 0.5625 2.125 -1.1875 3.625 C-2.5075 3.625 -3.8275 3.625 -5.1875 3.625 C-5.1875 2.965 -5.1875 2.305 -5.1875 1.625 C-2.1875 -0.375 -2.1875 -0.375 0 0 Z " fill="#309991" transform="translate(1409.1875,189.375)"/>
<path d="M0 0 C2.45823172 3.68734758 3.01242616 6.69699971 4 11 C3.34 11 2.68 11 2 11 C0.19769832 7.17010894 -0.19622241 4.21878192 0 0 Z " fill="#CDF2F1" transform="translate(97,176)"/>
<path d="M0 0 C-2.59482129 2.59482129 -4.39883625 2.69990302 -8 3 C-8.66 2.34 -9.32 1.68 -10 1 C-6.61981469 -0.04005702 -3.5219721 -0.08004482 0 0 Z " fill="#539D9A" transform="translate(1275,149)"/>
</svg>
