<?xml version="1.0" encoding="UTF-8"?>
<svg version="1.1" xmlns="http://www.w3.org/2000/svg" width="220" height="220">
<path d="M0 0 C72.6 0 145.2 0 220 0 C220 72.6 220 145.2 220 220 C147.4 220 74.8 220 0 220 C0 147.4 0 74.8 0 0 Z " fill="#FCFCFC" transform="translate(0,0)"/>
<path d="M0 0 C2.33746522 0.30300475 4.67085177 0.63858045 7 1 C7.99 1 8.98 1 10 1 C11.66666667 1 13.33333333 1 15 1 C15.33 0.67 15.66 0.34 16 0 C20.23368725 -0.51317421 23.39161328 0.75829535 27.23046875 2.34375 C28.9979828 3.11590626 28.9979828 3.11590626 31 3 C31 2.01 31 1.02 31 0 C32.875 0.3125 32.875 0.3125 35 1 C35.66 1.99 36.32 2.98 37 4 C37.66 2.68 38.32 1.36 39 0 C39.99 0 40.98 0 42 0 C42 4.29 42 8.58 42 13 C42.66 13 43.32 13 44 13 C45.38232443 14.62626404 46.71937515 16.2925002 48 18 C47.01 18.495 47.01 18.495 46 19 C46 19.66 46 20.32 46 21 C47.32 21 48.64 21 50 21 C50 22.32 50 23.64 50 25 C49.37351563 25.12117188 48.74703125 25.24234375 48.1015625 25.3671875 C47.28429687 25.53476563 46.46703125 25.70234375 45.625 25.875 C44.40683594 26.11863281 44.40683594 26.11863281 43.1640625 26.3671875 C40.81326077 26.86658932 40.81326077 26.86658932 39 29 C38.505 27.515 38.505 27.515 38 26 C37.443125 26.185625 36.88625 26.37125 36.3125 26.5625 C33.600867 27.07551165 31.65628961 26.6640724 29 26 C29 25.34 29 24.68 29 24 C28.01 24.99 27.02 25.98 26 27 C24.96875 26.67 23.9375 26.34 22.875 26 C18.85101722 24.8491246 14.87275956 24.06362022 11 26 C11 24.68 11 23.36 11 22 C13.70879335 20.64560332 16.00933268 20.93498549 19 21 C19.309375 20.030625 19.61875 19.06125 19.9375 18.0625 C21 15 21 15 22 14 C20.9275 13.7525 19.855 13.505 18.75 13.25 C15.00350563 12.00116854 13.47926118 10.97511342 11 8 C10.54625 8.474375 10.0925 8.94875 9.625 9.4375 C7.22494769 11.7452426 6.27540935 11.99449181 2.875 12.0625 C1.451875 12.0315625 1.451875 12.0315625 0 12 C-0.33 11.34 -0.66 10.68 -1 10 C0.98 10 2.96 10 5 10 C5 9.34 5 8.68 5 8 C4.195625 7.855625 3.39125 7.71125 2.5625 7.5625 C0 7 0 7 -1 6 C-1.125 3.5 -1.125 3.5 -1 1 C-0.67 0.67 -0.34 0.34 0 0 Z " fill="#EFEFEF" transform="translate(64,97)"/>
<path d="M0 0 C-0.99 0.66 -1.98 1.32 -3 2 C-3.53284346 5.50154272 -3.51897156 7.27343982 -1.4375 10.1875 C1.02485707 12.1664405 1.02485707 12.1664405 4.375 13.4375 C8.69536524 15.2997264 12.81762656 17.63525311 15 22 C15.57791538 29.0505676 15.57791538 29.0505676 13.25 32.875 C11.14948472 34.85881999 9.74572145 36.14196205 7 37 C4.75 36.625 4.75 36.625 3 36 C3.99 35.34 4.98 34.68 6 34 C6.31845551 30.89505874 5.99424641 28.98273923 5 26 C3.353564 25.52958971 1.70436378 25.06683612 0.04296875 24.65234375 C-4.7090071 23.13498244 -8.71059536 20.40662324 -12.0625 16.75 C-13.45849228 12.6550893 -13.24258568 9.13197167 -12 5 C-8.44589903 0.5106093 -5.67231501 -1.76037362 0 0 Z " fill="#232021" transform="translate(35,92)"/>
<path d="M0 0 C1.79630017 0.75997315 3.58692285 1.53337641 5.375 2.3125 C6.87160156 2.95638672 6.87160156 2.95638672 8.3984375 3.61328125 C11 5 11 5 13 8 C13.37198336 11.62683775 12.85274014 13.87350101 11 17 C6.10367936 17.16321069 3.35530272 17.17765136 -1 15 C-2.98 15.33 -4.96 15.66 -7 16 C-7 11.71 -7 7.42 -7 3 C-6.67 3.66 -6.34 4.32 -6 5 C-4.35 4.67 -2.7 4.34 -1 4 C-0.67 2.68 -0.34 1.36 0 0 Z " fill="#EDECED" transform="translate(29,113)"/>
<path d="M0 0 C2.33746522 0.30300475 4.67085177 0.63858045 7 1 C7.99 1 8.98 1 10 1 C11.66666667 1 13.33333333 1 15 1 C15.33 0.67 15.66 0.34 16 0 C18.93248201 -0.31702508 20.64392416 -0.17322608 23.3125 1.125 C25 3 25 3 25.4375 6 C25 9 25 9 23.9375 10.875 C20.84902396 12.66830867 18.48856031 12.42841969 15 12 C12.5625 10 12.5625 10 11 8 C10.54625 8.474375 10.0925 8.94875 9.625 9.4375 C7.22494769 11.7452426 6.27540935 11.99449181 2.875 12.0625 C1.451875 12.0315625 1.451875 12.0315625 0 12 C-0.33 11.34 -0.66 10.68 -1 10 C0.98 10 2.96 10 5 10 C5 9.34 5 8.68 5 8 C4.195625 7.855625 3.39125 7.71125 2.5625 7.5625 C0 7 0 7 -1 6 C-1.125 3.5 -1.125 3.5 -1 1 C-0.67 0.67 -0.34 0.34 0 0 Z " fill="#373737" transform="translate(64,97)"/>
<path d="M0 0 C1.65 1.65 3.3 3.3 5 5 C4.01 5.495 4.01 5.495 3 6 C3 6.66 3 7.32 3 8 C4.32 8 5.64 8 7 8 C7 9.32 7 10.64 7 12 C6.06027344 12.18175781 6.06027344 12.18175781 5.1015625 12.3671875 C4.28429687 12.53476563 3.46703125 12.70234375 2.625 12.875 C1.40683594 13.11863281 1.40683594 13.11863281 0.1640625 13.3671875 C-2.18673923 13.86658932 -2.18673923 13.86658932 -4 16 C-4.33 15.01 -4.66 14.02 -5 13 C-6.32 13.33 -7.64 13.66 -9 14 C-9 13.34 -9 12.68 -9 12 C-10.32 12 -11.64 12 -13 12 C-13 10.02 -13 8.04 -13 6 C-8.25 6.875 -8.25 6.875 -6 8 C-6 7.34 -6 6.68 -6 6 C-4.6875 4.375 -4.6875 4.375 -3 3 C-2.01 3 -1.02 3 0 3 C0 2.01 0 1.02 0 0 Z " fill="#C9C9C9" transform="translate(107,110)"/>
<path d="M0 0 C2.33746522 0.30300475 4.67085177 0.63858045 7 1 C7.99 1 8.98 1 10 1 C10.99 1 11.98 1 13 1 C13 3.64 13 6.28 13 9 C12.34 8.67 11.68 8.34 11 8 C10.54625 8.474375 10.0925 8.94875 9.625 9.4375 C7.22494769 11.7452426 6.27540935 11.99449181 2.875 12.0625 C1.451875 12.0315625 1.451875 12.0315625 0 12 C-0.33 11.34 -0.66 10.68 -1 10 C0.98 10 2.96 10 5 10 C5 9.34 5 8.68 5 8 C4.195625 7.855625 3.39125 7.71125 2.5625 7.5625 C0 7 0 7 -1 6 C-1.125 3.5 -1.125 3.5 -1 1 C-0.67 0.67 -0.34 0.34 0 0 Z " fill="#EAEAEA" transform="translate(64,97)"/>
<path d="M0 0 C-0.99 0.66 -1.98 1.32 -3 2 C-3.45892595 5.51843231 -3.41140736 7.34860502 -1.5 10.375 C-1.005 10.91125 -0.51 11.4475 0 12 C-3 13 -3 13 -5 12.375 C-5.66 12.25125 -6.32 12.1275 -7 12 C-8.77190909 13.35444301 -8.77190909 13.35444301 -10 15 C-10.99 14.67 -11.98 14.34 -13 14 C-12.88286074 9.11209834 -12.73371871 5.92680259 -9.625 2 C-6.06857881 -0.70965424 -4.19386821 -1.30154531 0 0 Z " fill="#322F30" transform="translate(35,92)"/>
<path d="M0 0 C1.32 0 2.64 0 4 0 C4 0.66 4 1.32 4 2 C5.32 2 6.64 2 8 2 C8 1.34 8 0.68 8 0 C8.66 0 9.32 0 10 0 C10 0.66 10 1.32 10 2 C12.64 2 15.28 2 18 2 C17.01 2.495 17.01 2.495 16 3 C16 3.66 16 4.32 16 5 C16.99 5 17.98 5 19 5 C19 5.66 19 6.32 19 7 C18.01 7 17.02 7 16 7 C15.67 7.99 15.34 8.98 15 10 C14.34 9.34 13.68 8.68 13 8 C10.91614745 6.77173473 10.91614745 6.77173473 7.9375 7 C6.968125 7 5.99875 7 5 7 C4.67 6.67 4.34 6.34 4 6 C2.33382885 5.95936168 0.66611905 5.957279 -1 6 C-1.042721 4.33388095 -1.04063832 2.66617115 -1 1 C-0.67 0.67 -0.34 0.34 0 0 Z " fill="#A6A6A6" transform="translate(129,116)"/>
<path d="M0 0 C4 1 4 1 6 4 C6.66 2.68 7.32 1.36 8 0 C8.99 0 9.98 0 11 0 C11 3.96 11 7.92 11 12 C10.01 12 9.02 12 8 12 C7.67 10.68 7.34 9.36 7 8 C6.01 8 5.02 8 4 8 C3.67 9.32 3.34 10.64 3 12 C2.01 12 1.02 12 0 12 C0 8.04 0 4.08 0 0 Z " fill="#4C4C4C" transform="translate(95,97)"/>
<path d="M0 0 C0.99 0 1.98 0 3 0 C3 0.66 3 1.32 3 2 C3.66 2 4.32 2 5 2 C5.33 2.99 5.66 3.98 6 5 C6.33 3.35 6.66 1.7 7 0 C7.99 0 8.98 0 10 0 C10 3.96 10 7.92 10 12 C9.01 12 8.02 12 7 12 C5.3125 9.5 5.3125 9.5 4 7 C3.67 8.65 3.34 10.3 3 12 C2.01 12 1.02 12 0 12 C0 8.04 0 4.08 0 0 Z " fill="#414141" transform="translate(171,97)"/>
<path d="M0 0 C3 0.25 3 0.25 5 2.25 C5.25 4.75 5.25 4.75 5 7.25 C3 9.25 3 9.25 0 9.5 C-3 9.25 -3 9.25 -5 7.25 C-5.25 4.75 -5.25 4.75 -5 2.25 C-3 0.25 -3 0.25 0 0 Z " fill="#242223" transform="translate(42,91.75)"/>
<path d="M0 0 C0.66 0 1.32 0 2 0 C2 1.65 2 3.3 2 5 C3.32 5 4.64 5 6 5 C6 3.35 6 1.7 6 0 C6.99 0 7.98 0 9 0 C9 3.96 9 7.92 9 12 C8.01 12 7.02 12 6 12 C6 10.68 6 9.36 6 8 C4.68 8 3.36 8 2 8 C2 9.32 2 10.64 2 12 C1.34 12 0.68 12 0 12 C0 8.04 0 4.08 0 0 Z " fill="#4A4A4A" transform="translate(144,97)"/>
<path d="M0 0 C2 1 2 1 4 3 C4.268125 3.845625 4.53625 4.69125 4.8125 5.5625 C5.204375 6.366875 5.59625 7.17125 6 8 C8.54775306 8.89386164 8.54775306 8.89386164 11 9 C11 9.33 11 9.66 11 10 C9.35 10 7.7 10 6 10 C6 10.99 6 11.98 6 13 C2.20167325 12.45738189 0.30727513 11.04889927 -2 8 C-2.375 4.875 -2.375 4.875 -2 2 C-1.34 1.34 -0.68 0.68 0 0 Z " fill="#F4F2F3" transform="translate(33,92)"/>
<path d="M0 0 C1.65 1.65 3.3 3.3 5 5 C4.01 5.495 4.01 5.495 3 6 C3 6.66 3 7.32 3 8 C4.32 8 5.64 8 7 8 C7 9.32 7 10.64 7 12 C4.03 12 1.06 12 -2 12 C-1.34 11.34 -0.68 10.68 0 10 C-1.32 8.68 -2.64 7.36 -4 6 C-3.67 5.01 -3.34 4.02 -3 3 C-2.01 3 -1.02 3 0 3 C0 2.01 0 1.02 0 0 Z " fill="#B5B5B5" transform="translate(107,110)"/>
<path d="M0 0 C2.97 0 5.94 0 9 0 C9 0.66 9 1.32 9 2 C6.69 2 4.38 2 2 2 C2 3.32 2 4.64 2 6 C3.98 6 5.96 6 8 6 C8 6.66 8 7.32 8 8 C6.35 8 4.7 8 3 8 C3 8.66 3 9.32 3 10 C4.98 10 6.96 10 9 10 C9 10.66 9 11.32 9 12 C6.03 12 3.06 12 0 12 C0 8.04 0 4.08 0 0 Z " fill="#393939" transform="translate(113,97)"/>
<path d="M0 0 C3.07921132 -0.25660094 5.21136993 -0.39431504 8 1 C8 1.66 8 2.32 8 3 C5.69 2.67 3.38 2.34 1 2 C1 3.98 1 5.96 1 8 C4.47147842 8.74957157 4.47147842 8.74957157 8 9 C8 9.99 8 10.98 8 12 C5.3125 12.8125 5.3125 12.8125 2 13 C-0.9375 10.875 -0.9375 10.875 -3 8 C-2.91498029 4.42917202 -2.00413395 3.00620093 0 0 Z " fill="#4E4E4E" transform="translate(190,97)"/>
<path d="M0 0 C0.33 0.66 0.66 1.32 1 2 C1.928125 2.103125 2.85625 2.20625 3.8125 2.3125 C7.81163492 3.17505851 8.78138148 4.67207222 11 8 C10.01 8 9.02 8 8 8 C7.67 8.66 7.34 9.32 7 10 C7 9.34 7 8.68 7 8 C5.9171875 8.556875 5.9171875 8.556875 4.8125 9.125 C1.39011689 10.18974141 0.11771927 9.60339848 -3 8 C-2.01 7.67 -1.02 7.34 0 7 C0 4.69 0 2.38 0 0 Z " fill="#EFEFEF" transform="translate(181,102)"/>
<path d="M0 0 C2.33944736 0.28730055 4.6739143 0.61936779 7 1 C7 1.66 7 2.32 7 3 C5.35 3 3.7 3 2 3 C1.67 3.66 1.34 4.32 1 5 C2.65 5.33 4.3 5.66 6 6 C6.38218767 7.65614657 6.71395102 9.32457024 7 11 C6 12 6 12 2.9375 12.0625 C1.968125 12.041875 0.99875 12.02125 0 12 C-0.33 11.34 -0.66 10.68 -1 10 C0.98 10 2.96 10 5 10 C5 9.34 5 8.68 5 8 C4.195625 7.855625 3.39125 7.71125 2.5625 7.5625 C0 7 0 7 -1 6 C-1.125 3.5 -1.125 3.5 -1 1 C-0.67 0.67 -0.34 0.34 0 0 Z " fill="#3F3F3F" transform="translate(64,97)"/>
<path d="M0 0 C3 4 3 4 3 7 C3.556875 7.2475 4.11375 7.495 4.6875 7.75 C7.39971127 9.21606015 9.63587365 11.02989471 12 13 C11.38511719 12.91621094 10.77023438 12.83242187 10.13671875 12.74609375 C9.32847656 12.64425781 8.52023438 12.54242188 7.6875 12.4375 C6.88699219 12.33308594 6.08648437 12.22867188 5.26171875 12.12109375 C2.83182884 11.85244822 2.83182884 11.85244822 0 13 C0 8.71 0 4.42 0 0 Z " fill="#4C4C4C" transform="translate(22,116)"/>
<path d="M0 0 C0.598125 0.20625 1.19625 0.4125 1.8125 0.625 C2.4375 3 2.4375 3 2.8125 5.625 C0.8125 7.625 0.8125 7.625 -1.8125 7.75 C-2.59625 7.70875 -3.38 7.6675 -4.1875 7.625 C-4.5175 5.645 -4.8475 3.665 -5.1875 1.625 C-2.1875 -0.375 -2.1875 -0.375 0 0 Z " fill="#E4E4E4" transform="translate(84.1875,99.375)"/>
<path d="M0 0 C2.97 0 5.94 0 9 0 C9 0.66 9 1.32 9 2 C8.01 2 7.02 2 6 2 C6 5.63 6 9.26 6 13 C5.01 13 4.02 13 3 13 C3 9.37 3 5.74 3 2 C2.01 2 1.02 2 0 2 C0 1.34 0 0.68 0 0 Z " fill="#3B3B3B" transform="translate(128,97)"/>
<path d="M0 0 C3.63 0 7.26 0 11 0 C11 1.32 11 2.64 11 4 C8.36 4.66 5.72 5.32 3 6 C2.34 4.68 1.68 3.36 1 2 C0.34 2.66 -0.32 3.32 -1 4 C-0.67 2.68 -0.34 1.36 0 0 Z " fill="#848484" transform="translate(116,118)"/>
<path d="M0 0 C0.99 0 1.98 0 3 0 C3 3.96 3 7.92 3 12 C2.01 12 1.02 12 0 12 C-0.33 10.35 -0.66 8.7 -1 7 C-1.66 7 -2.32 7 -3 7 C-1.125 2.25 -1.125 2.25 0 0 Z " fill="#3C3C3C" transform="translate(103,97)"/>
<path d="M0 0 C0.66 0 1.32 0 2 0 C2 0.66 2 1.32 2 2 C3.65 2 5.3 2 7 2 C7 2.66 7 3.32 7 4 C6.34 4 5.68 4 5 4 C5.33 5.65 5.66 7.3 6 9 C2.40608886 7.66511872 -0.75490696 6.03977277 -4 4 C-3.34 3.67 -2.68 3.34 -2 3 C-1.67 2.34 -1.34 1.68 -1 1 C-0.67 0.67 -0.34 0.34 0 0 Z " fill="#2F2C2D" transform="translate(29,107)"/>
<path d="M0 0 C1.32 0 2.64 0 4 0 C4 0.66 4 1.32 4 2 C5.32 2 6.64 2 8 2 C8 3.32 8 4.64 8 6 C5.03 6 2.06 6 -1 6 C-0.67 4.02 -0.34 2.04 0 0 Z " fill="#6D6D6D" transform="translate(63,116)"/>
<path d="M0 0 C0 0.99 0 1.98 0 3 C0.66 3 1.32 3 2 3 C2.33 2.01 2.66 1.02 3 0 C3 1.32 3 2.64 3 4 C2.22914062 3.98839844 1.45828125 3.97679688 0.6640625 3.96484375 C-0.33882812 3.95582031 -1.34171875 3.94679688 -2.375 3.9375 C-3.87160156 3.92009766 -3.87160156 3.92009766 -5.3984375 3.90234375 C-7.98432453 3.81993398 -7.98432453 3.81993398 -10 5 C-10 3.68 -10 2.36 -10 1 C-6.78548731 -0.60725635 -3.56387464 -0.05748185 0 0 Z " fill="#696969" transform="translate(85,118)"/>
<path d="M0 0 C1.32 0 2.64 0 4 0 C4 0.66 4 1.32 4 2 C5.65 2.33 7.3 2.66 9 3 C9 3.99 9 4.98 9 6 C5.7 6 2.4 6 -1 6 C-1 1 -1 1 0 0 Z " fill="#929292" transform="translate(129,116)"/>
<path d="M0 0 C3 0.25 3 0.25 5 2.25 C5.125 4.875 5.125 4.875 5 7.25 C2.0280615 6.12548273 -0.33440687 5.02706209 -3 3.25 C-3.66 4.57 -4.32 5.89 -5 7.25 C-5.125 4.875 -5.125 4.875 -5 2.25 C-3 0.25 -3 0.25 0 0 Z " fill="#333333" transform="translate(42,91.75)"/>
<path d="M0 0 C1.98 0.66 3.96 1.32 6 2 C6.33 3.65 6.66 5.3 7 7 C2.56923077 10.07692308 2.56923077 10.07692308 -0.3125 9.6875 C-0.869375 9.460625 -1.42625 9.23375 -2 9 C-1.01 8.34 -0.02 7.68 1 7 C1.28056176 4.19438238 1.26710868 2.53421737 0 0 Z M3 0 C5 1 5 1 5 1 Z " fill="#2C2B2C" transform="translate(40,119)"/>
<path d="M0 0 C1.32 0 2.64 0 4 0 C4.33 1.32 4.66 2.64 5 4 C5.99 3.67 6.98 3.34 8 3 C8.99 3.66 9.98 4.32 11 5 C2.96498906 7.27571116 2.96498906 7.27571116 -1.0625 6.125 C-1.701875 5.75375 -2.34125 5.3825 -3 5 C-2.01 4.67 -1.02 4.34 0 4 C0 2.68 0 1.36 0 0 Z " fill="#DCDCDC" transform="translate(71,118)"/>
<path d="M0 0 C0.99 0 1.98 0 3 0 C3 0.66 3 1.32 3 2 C3.66 2 4.32 2 5 2 C4.67 2.66 4.34 3.32 4 4 C3.34 3.67 2.68 3.34 2 3 C2 3.66 2 4.32 2 5 C2.66 5.33 3.32 5.66 4 6 C3.67 7.98 3.34 9.96 3 12 C2.01 12 1.02 12 0 12 C0 8.04 0 4.08 0 0 Z " fill="#535353" transform="translate(171,97)"/>
<path d="M0 0 C2.96175123 0.61277612 4.38058783 1.25372522 7 3 C7.4114439 6.22297721 7.53669566 8.16812172 5.75 10.9375 C4 12 4 12 1.8125 11.6875 C1.214375 11.460625 0.61625 11.23375 0 11 C0.99 11 1.98 11 3 11 C3.33 8.69 3.66 6.38 4 4 C1.525 3.01 1.525 3.01 -1 2 C-0.67 1.34 -0.34 0.68 0 0 Z " fill="#262626" transform="translate(82,97)"/>
<path d="M0 0 C0.66 0 1.32 0 2 0 C2 1.98 2 3.96 2 6 C3.32 6.33 4.64 6.66 6 7 C4.68 7 3.36 7 2 7 C2 8.65 2 10.3 2 12 C1.34 12 0.68 12 0 12 C0 8.04 0 4.08 0 0 Z " fill="#212121" transform="translate(144,97)"/>
<path d="M0 0 C1.32 0 2.64 0 4 0 C4 1.98 4 3.96 4 6 C2.68 6 1.36 6 0 6 C0 4.02 0 2.04 0 0 Z " fill="#696969" transform="translate(94,116)"/>
<path d="M0 0 C2.31 0.66 4.62 1.32 7 2 C7 2.33 7 2.66 7 3 C5.35 3 3.7 3 2 3 C2 3.99 2 4.98 2 6 C-0.86724686 5.42655063 -1.8614515 5.1385485 -4 3 C-2.68 3 -1.36 3 0 3 C0 2.01 0 1.02 0 0 Z " fill="#CDCCCD" transform="translate(37,99)"/>
<path d="M0 0 C0.99 0 1.98 0 3 0 C2.67 1.65 2.34 3.3 2 5 C0.68 5.33 -0.64 5.66 -2 6 C-1.125 1.125 -1.125 1.125 0 0 Z " fill="#EEEEEE" transform="translate(84,101)"/>
<path d="M0 0 C5.75 -0.125 5.75 -0.125 8 1 C8 1.66 8 2.32 8 3 C5.69 2.67 3.38 2.34 1 2 C1 2.66 1 3.32 1 4 C0.34 4 -0.32 4 -1 4 C-0.67 2.68 -0.34 1.36 0 0 Z " fill="#323232" transform="translate(190,97)"/>
<path d="M0 0 C0.66 0 1.32 0 2 0 C2.33 1.98 2.66 3.96 3 6 C1.68 6 0.36 6 -1 6 C-1.042721 4.33388095 -1.04063832 2.66617115 -1 1 C-0.67 0.67 -0.34 0.34 0 0 Z " fill="#ECECEC" transform="translate(147,96)"/>
<path d="M0 0 C0.66 0 1.32 0 2 0 C1.67 1.65 1.34 3.3 1 5 C-0.98 5 -2.96 5 -5 5 C-5.33 4.34 -5.66 3.68 -6 3 C-4.02 3 -2.04 3 0 3 C0 2.01 0 1.02 0 0 Z " fill="#2D2D2D" transform="translate(69,104)"/>
<path d="M0 0 C0.33 0 0.66 0 1 0 C1.45572917 2.01822917 1.91145833 4.03645833 2.3671875 6.0546875 C2.90474428 8.20719964 2.90474428 8.20719964 5 10 C4.01 10.33 3.02 10.66 2 11 C0.4375 10 0.4375 10 -1 8 C-0.96726452 5.23385218 -0.49404328 2.73969453 0 0 Z " fill="#595557" transform="translate(30,94)"/>
<path d="M0 0 C1.65 0.33 3.3 0.66 5 1 C5 1.66 5 2.32 5 3 C2.23735711 3.59732819 -0.16032769 4 -3 4 C-3 3.34 -3 2.68 -3 2 C-2.01 2 -1.02 2 0 2 C0 1.34 0 0.68 0 0 Z " fill="#D5D5D5" transform="translate(64,104)"/>
<path d="M0 0 C2.475 0.495 2.475 0.495 5 1 C4.67 2.32 4.34 3.64 4 5 C2.68 4.34 1.36 3.68 0 3 C0 2.01 0 1.02 0 0 Z " fill="#F1EFF0" transform="translate(39,102)"/>
<path d="M0 0 C2.49361571 1.20381448 4.68143083 2.45428722 7 4 C7 4.66 7 5.32 7 6 C6.01 6 5.02 6 4 6 C4 5.34 4 4.68 4 4 C3.34 4 2.68 4 2 4 C2 3.34 2 2.68 2 2 C1.34 2 0.68 2 0 2 C-0.33 2.66 -0.66 3.32 -1 4 C-0.67 2.68 -0.34 1.36 0 0 Z " fill="#181718" transform="translate(39,94)"/>
<path d="M0 0 C0.33 0.66 0.66 1.32 1 2 C3.52733235 2.65555119 3.52733235 2.65555119 6 3 C6 3.99 6 4.98 6 6 C4.68 6 3.36 6 2 6 C1.34 5.34 0.68 4.68 0 4 C0 2.68 0 1.36 0 0 Z " fill="#696969" transform="translate(132,116)"/>
<path d="M0 0 C2.475 0.99 2.475 0.99 5 2 C5 2.99 5 3.98 5 5 C4.34 5 3.68 5 3 5 C2.67 5.66 2.34 6.32 2 7 C0.5393715 4.35261084 0 3.10551666 0 0 Z " fill="#312F30" transform="translate(38,105)"/>
<path d="M0 0 C1.32 1.32 2.64 2.64 4 4 C3.67 4.66 3.34 5.32 3 6 C2.34 5.67 1.68 5.34 1 5 C1 5.66 1 6.32 1 7 C0.01 6.67 -0.98 6.34 -2 6 C-1.34 6 -0.68 6 0 6 C0 4.02 0 2.04 0 0 Z " fill="#D6D6D6" transform="translate(174,103)"/>
<path d="M0 0 C0.66 0.33 1.32 0.66 2 1 C2 2.98 2 4.96 2 7 C1.34 7 0.68 7 0 7 C-0.38133299 5.0085944 -0.71325582 3.00720923 -1 1 C-0.67 0.67 -0.34 0.34 0 0 Z " fill="#434343" transform="translate(188,100)"/>
</svg>
